G04 ================== begin FILE IDENTIFICATION RECORD ==================*
G04 Layout Name:  MCU075A.brd*
G04 Film Name:    MCU075A_Layer3*
G04 File Format:  Gerber RS274X*
G04 File Origin:  Cadence Allegro 17.2-S072*
G04 Origin Date:  Wed Aug 04 16:23:21 2021*
G04 *
G04 Layer:  BOARD GEOMETRY/LAYER3*
G04 Layer:  DRAWING FORMAT/TITLE_BLOCK*
G04 Layer:  BOARD GEOMETRY/OUTLINE*
G04 Layer:  ETCH/L3*
G04 Layer:  PIN/L3*
G04 Layer:  VIA CLASS/L3*
G04 *
G04 Offset:    (0.000 0.000)*
G04 Mirror:    No*
G04 Mode:      Positive*
G04 Rotation:  0*
G04 FullContactRelief:  No*
G04 UndefLineWidth:     0.020*
G04 ================== end FILE IDENTIFICATION RECORD ====================*
%FSLAX25Y25*MOIN*%
%IR0*IPPOS*OFA0.00000B0.00000*MIA0B0*SFA1.00000B1.00000*%
%ADD10C,.149606*%
%ADD15C,.064961*%
%ADD12C,.003898*%
%ADD13C,.06689*%
%ADD16O,.055118X.082677*%
%ADD14C,.003937*%
%ADD11C,.015748*%
%ADD17C,.011811*%
%ADD18C,.019685*%
%ADD19C,.000787*%
%ADD20C,.005906*%
%ADD22C,.078898*%
%ADD24C,.052126*%
%ADD23C,.056063*%
%ADD25C,.076929*%
%ADD21C,.024567*%
G75*
%LPD*%
G75*
G36*
G01X802091Y1160630D02*
X812598D01*
G02X812992Y1160236I0J-394D01*
G01Y1147441D01*
G03X813386Y1147047I394J0D01*
G01X824992D01*
G02X825386Y1146654I0J-394D01*
G01Y1135878D01*
G02X825272Y1135598I-394J-2D01*
G01X824878Y1135201D01*
G02X824598Y1135087I-278J280D01*
G03X823378Y1133858I8J-1228D01*
G03X824606Y1132630I1228J0D01*
G03X825827Y1133732I0J1227D01*
G02X825957Y1133984I392J-43D01*
G01X826350Y1134339D01*
G02X826614Y1134441I265J-291D01*
G01X832244D01*
G02X832508Y1134339I-1J-394D01*
G01X832902Y1133984D01*
G02X833031Y1133732I-262J-295D01*
G03X833213Y1133201I1223J120D01*
G02X833276Y1132992I-330J-214D01*
G01Y1132756D01*
G02X833213Y1132547I-393J5D01*
G03X833024Y1131890I1040J-655D01*
G03X834252Y1130661I1228J0D01*
G03X834969Y1130894I-2J1228D01*
G01X834972D01*
G02X835201Y1130969I231J-319D01*
G01X835665D01*
G02X835894Y1130894I-2J-394D01*
G01X835898D01*
G03X836614Y1130661I719J995D01*
G03X837843Y1131890I0J1228D01*
G03X837630Y1132583I-1229J2D01*
G02X837559Y1132807I322J225D01*
G01Y1133047D01*
G02X837630Y1133272I393J-1D01*
G03X837827Y1133772I-1017J689D01*
G01Y1133776D01*
G02X837961Y1134012I389J-64D01*
G01X838354Y1134346D01*
G02X838610Y1134441I256J-299D01*
G01X841323D01*
G02X841598Y1134327I-2J-394D01*
G01X842594Y1133331D01*
G02X842709Y1133055I-279J-277D01*
G01Y1129055D01*
G02X842602Y1128787I-394J1D01*
G03X842276Y1127953I903J-835D01*
G03X843504Y1126724I1228J0D01*
G03X844220Y1126957I-2J1228D01*
G01X844224D01*
G02X844453Y1127031I231J-319D01*
G01X844917D01*
G02X845146Y1126957I-2J-394D01*
G01X845150D01*
G03X845165Y1126941I864J848D01*
G01X845169D01*
G02X845331Y1126697I-224J-324D01*
G01X845437Y1126154D01*
G02X845382Y1125862I-386J-78D01*
G03X845185Y1125197I1026J-665D01*
G03X847642I1228J0D01*
G03X847114Y1126209I-1230J2D01*
G01X847110D01*
G02X846949Y1126453I224J324D01*
G01X846843Y1126996D01*
G02X846898Y1127287I386J78D01*
G03X847094Y1127953I-1026J665D01*
G03X846469Y1129024I-1229J0D01*
G02X846268Y1129366I193J343D01*
G01Y1140362D01*
G03X845874Y1140756I-394J0D01*
G01X829535D01*
G02X829142Y1141150I0J394D01*
G01Y1143661D01*
G02X829244Y1143925I394J-1D01*
G01X829598Y1144319D01*
G02X829850Y1144449I295J-262D01*
G03X830504Y1144720I-124J1221D01*
G02X830752Y1144807I246J-307D01*
G01X831256D01*
G02X831504Y1144720I2J-393D01*
G03X832283Y1144441I780J947D01*
G03X833185Y1144835I0J1229D01*
G02X833449Y1144961I289J-267D01*
G01X833988Y1145000D01*
G02X834264Y1144913I28J-393D01*
G03X835039Y1144638I776J954D01*
G03X835720Y1144843I2J1229D01*
G02X835953Y1144909I220J-326D01*
G01X836417Y1144890D01*
G02X836646Y1144807I-13J-393D01*
G03X837402Y1144547I756J970D01*
G03X838630Y1145776I0J1228D01*
G03X838594Y1146067I-1228J-2D01*
G02X838665Y1146406I382J97D01*
G01X839051Y1146898D01*
G02X839362Y1147047I309J-245D01*
G01X851772D01*
G03X852165Y1147441I0J394D01*
G01Y1159843D01*
G02X852559Y1160236I394J0D01*
G01X858669D01*
G02X859008Y1160043I0J-394D01*
G01X859354Y1159453D01*
G02X859358Y1159063I-339J-198D01*
G01Y1159059D01*
G03X859205Y1158465I1074J-594D01*
G03X861661I1228J0D01*
G03X861508Y1159059I-1228J0D01*
G01Y1159063D01*
G02X861512Y1159453I343J191D01*
G01X861858Y1160043D01*
G02X862197Y1160236I339J-201D01*
G01X872154D01*
G02X872484Y1160059I2J-394D01*
G01X872850Y1159508D01*
G02X872886Y1159138I-329J-218D01*
G01X872882D01*
G03X872787Y1158661I1135J-473D01*
G03X873717Y1157469I1230J0D01*
G02X874016Y1157087I-94J-382D01*
G01Y1156031D01*
G02X873862Y1155720I-394J1D01*
G01X873358Y1155335D01*
G02X873016Y1155268I-239J314D01*
G03X872327Y1155362I-695J-2511D01*
G03Y1150150I0J-2606D01*
G03X873016Y1150244I-6J2605D01*
G02X873358Y1150177I103J-381D01*
G01X873862Y1149791D01*
G02X874016Y1149480I-240J-312D01*
G01Y1140894D01*
X874004Y1140846D01*
G03X873969Y1140551I1193J-293D01*
G03X874004Y1140256I1229J-2D01*
G01X874016Y1140209D01*
Y1113780D01*
G03X874409Y1113386I394J0D01*
G01X877760D01*
G02X878154Y1112992I0J-394D01*
G01X878220Y1086268D01*
G02X878114Y1086000I-392J1D01*
G01X877744Y1085602D01*
G02X877480Y1085476I-290J267D01*
G03X876331Y1084252I77J-1224D01*
G03X877488Y1083028I1226J0D01*
G02X877752Y1082902I-26J-393D01*
G01X878126Y1082508D01*
G02X878232Y1082240I-287J-269D01*
G01X878236Y1080850D01*
G02X877870Y1080457I-394J-1D01*
G01X877866D01*
G03X876724Y1079232I86J-1224D01*
G03X877874Y1078008I1227J0D01*
G02X878244Y1077614I-24J-393D01*
G01X878268Y1068488D01*
G02X878130Y1068189I-394J0D01*
G01X877673Y1067795D01*
G02X877354Y1067705I-257J299D01*
G03X877165Y1067720I-196J-1212D01*
G03X875937Y1066492I0J-1228D01*
G03X875949Y1066311I1229J-11D01*
G01X875953Y1066307D01*
G02X875854Y1065988I-390J-54D01*
G01X875449Y1065531D01*
G02X875138Y1065402I-293J263D01*
G01X875091D01*
G03X876319Y1064173I0J-1228D01*
G03X876307Y1064354I-1229J11D01*
G01X876303Y1064358D01*
G02X876402Y1064677I390J54D01*
G01X876807Y1065134D01*
G02X877118Y1065264I293J-263D01*
G01X877165D01*
G03X877362Y1065280I1J1228D01*
G02X877677Y1065189I59J-388D01*
G01X878138Y1064799D01*
G02X878280Y1064500I-252J-303D01*
G01X878327Y1045705D01*
G02X877984Y1045315I-394J1D01*
G03X876925Y1044098I169J-1217D01*
G03X877992Y1042882I1227J0D01*
G02X878335Y1042492I-52J-391D01*
G01X878339Y1040980D01*
G02X877992Y1040587I-395J-2D01*
G03X877193Y1040142I155J-1218D01*
G02X876980Y1040008I-305J248D01*
G01X876520Y1039890D01*
G02X876268Y1039909I-97J382D01*
G03X875787Y1040008I-482J-1130D01*
G03Y1037551I0J-1228D01*
G03X876744Y1038008I0J1230D01*
G02X876957Y1038142I305J-248D01*
G01X877417Y1038260D01*
G02X877669Y1038240I97J-382D01*
G03X878000Y1038150I487J1128D01*
G02X878346Y1037760I-47J-391D01*
G01Y1037614D01*
X878575Y1037386D01*
X878701Y1037260D01*
X878705Y1036969D01*
X878701Y1036945D01*
G03X878693Y1036811I1220J-139D01*
G03X879921Y1035583I1228J0D01*
G03X881016Y1036256I0J1226D01*
G02X881295Y1036465I351J-179D01*
G01X881913Y1036583D01*
G02X882252Y1036488I74J-388D01*
G03X883071Y1036173I821J913D01*
G03X884260Y1037098I0J1227D01*
G02X884642Y1037398I383J-95D01*
G01X902362Y1037425D01*
G02X902756Y1037031I0J-394D01*
G01Y1036614D01*
G02X902362Y1036220I-394J0D01*
G01X902311D01*
X902264Y1036232D01*
G03X901969Y1036268I-293J-1193D01*
G03X900740Y1035039I0J-1228D01*
G03X901965Y1033811I1228J0D01*
G01X901969D01*
G02X902244Y1033697I-2J-394D01*
G01X902642Y1033299D01*
G02X902756Y1033020I-280J-277D01*
G01Y1030315D01*
G02X902362Y1029921I-394J0D01*
G01X893256D01*
X893209Y1029933D01*
G03X892913Y1029969I-293J-1193D01*
G03X892618Y1029933I-2J-1229D01*
G01X892571Y1029921D01*
X862154D01*
X862106Y1029933D01*
G03X861811Y1029969I-293J-1193D01*
G03X861516Y1029933I-2J-1229D01*
G01X861469Y1029921D01*
X856642D01*
X856594Y1029933D01*
G03X856299Y1029969I-293J-1193D01*
G03X856004Y1029933I-2J-1229D01*
G01X855957Y1029921D01*
X853984D01*
G02X853701Y1030043I1J394D01*
G01X853303Y1030457D01*
G02X853197Y1030744I287J269D01*
G01Y1030748D01*
Y1030799D01*
G03X850740I-1228J0D01*
G01Y1030744D01*
G02X850634Y1030457I-393J-18D01*
G01X850236Y1030043D01*
G02X849953Y1029921I-285J272D01*
G01X836811D01*
G03X836417Y1029528I0J-394D01*
G01Y1022654D01*
G02X836303Y1022374I-394J-2D01*
G01X836130Y1022201D01*
G02X835894Y1022087I-280J278D01*
G03X835102Y1021677I130J-1221D01*
G02X834866Y1021547I-297J260D01*
G01X834362Y1021472D01*
G02X834098Y1021524I-61J389D01*
G03X833465Y1021701I-635J-1051D01*
G03Y1019244I0J-1228D01*
G03X834386Y1019661I0J1226D01*
G02X834622Y1019791I297J-260D01*
G01X835126Y1019866D01*
G02X835390Y1019815I61J-389D01*
G03X835894Y1019646I634J1052D01*
G02X836130Y1019531I-44J-392D01*
G01X836303Y1019358D01*
G02X836417Y1019079I-280J-277D01*
G01Y1015894D01*
G02X836185Y1015535I-394J1D01*
G01X835524Y1015240D01*
G02X835098Y1015303I-164J358D01*
G01Y1015307D01*
G03X832531Y1016287I-2567J-2871D01*
G03Y1008594I0J-3846D01*
G03X835098Y1009575I0J3851D01*
G01Y1009579D01*
G02X835524Y1009642I261J-295D01*
G01X836185Y1009346D01*
G02X836417Y1008988I-161J-359D01*
G01Y1006496D01*
G02X836024Y1006102I-394J0D01*
G01X833713D01*
X833654Y1006118D01*
G03X832531Y1006287I-1128J-3676D01*
G03X831409Y1006118I6J-3845D01*
G01X831350Y1006102D01*
X791732D01*
G02X791378Y1006323I-1J394D01*
G02X789571Y1014169I16143J7849D01*
G01Y1024161D01*
G02X789685Y1024441I394J2D01*
G01X790079Y1024839D01*
G02X790358Y1024953I278J-280D01*
G03Y1027409I-4J1228D01*
G02X790079Y1027524I-2J395D01*
G01X789685Y1027921D01*
G02X789571Y1028201I280J277D01*
G01Y1034752D01*
G02X789744Y1035079I393J1D01*
G01X790295Y1035445D01*
G02X790665Y1035480I218J-327D01*
G03X791142Y1035386I473J1135D01*
G03Y1037843I0J1228D01*
G03X790665Y1037748I-4J-1229D01*
G02X790295Y1037783I-152J362D01*
G01X789744Y1038150D01*
G02X789571Y1038476I220J326D01*
G01Y1049205D01*
G02X789764Y1049547I394J4D01*
G01X790354Y1049894D01*
G02X790744Y1049898I198J-340D01*
G03X791339Y1049744I594J1074D01*
G03Y1052201I0J1228D01*
G03X790744Y1052047I0J-1228D01*
G02X790354Y1052051I-191J344D01*
G01X789764Y1052398D01*
G02X789571Y1052740I201J339D01*
G01Y1056878D01*
G02X789713Y1057181I393J1D01*
G01X790185Y1057571D01*
G02X790512Y1057654I251J-304D01*
G03X790748Y1057630I240J1204D01*
G03Y1060087I0J1228D01*
G03X790512Y1060063I4J-1228D01*
G02X790185Y1060146I-76J387D01*
G01X789713Y1060535D01*
G02X789571Y1060839I252J302D01*
G01Y1060862D01*
G02X789728Y1061177I393J0D01*
G01X790240Y1061559D01*
G02X790591Y1061618I234J-317D01*
G03X790945Y1061567I351J1178D01*
G03Y1064024I0J1228D01*
G03X790591Y1063972I-3J-1229D01*
G02X790240Y1064031I-117J376D01*
G01X789728Y1064409D01*
G02X789571Y1064728I236J315D01*
G01Y1064799D01*
G02X789728Y1065114I393J0D01*
G01X790240Y1065496D01*
G02X790591Y1065555I234J-317D01*
G03X790945Y1065504I351J1178D01*
G03X791854Y1065906I0J1231D01*
G01Y1065909D01*
G02X792173Y1066035I290J-267D01*
G01X792791Y1065996D01*
G02X793087Y1065831I-25J-392D01*
G01X793091D01*
G03X794094Y1065307I1004J701D01*
G03Y1067764I0J1228D01*
G03X793185Y1067362I0J-1231D01*
G01Y1067358D01*
G02X792866Y1067232I-290J267D01*
G01X792248Y1067272D01*
G02X791953Y1067437I25J392D01*
G01X791949D01*
G03X790945Y1067961I-1004J-701D01*
G03X790591Y1067909I-3J-1229D01*
G01X790587D01*
G02X790240Y1067969I-114J376D01*
G01X789728Y1068346D01*
G02X789571Y1068665I236J315D01*
G01X789567Y1146772D01*
G02X789831Y1147142I393J-1D01*
G01X790535Y1147394D01*
G02X790972Y1147272I132J-371D01*
G03X797244Y1144283I6272J5087D01*
G03X805323Y1152362I0J8079D01*
G03X801685Y1159110I-8078J0D01*
G02X801508Y1159437I216J329D01*
G01X801500Y1160094D01*
G02X801669Y1160421I393J4D01*
G01X801866Y1160559D01*
G02X802091Y1160630I225J-323D01*
G37*
G36*
G01X826378Y1147047D02*
X828150D01*
G02X828543Y1146654I0J-394D01*
G01Y1146012D01*
X828531Y1145965D01*
G03X828496Y1145669I1193J-293D01*
G03X828531Y1145374I1229J-2D01*
G01X828543Y1145327D01*
Y1140551D01*
G03X828937Y1140157I394J0D01*
G01X845276D01*
G02X845669Y1139764I0J-394D01*
G01Y1130315D01*
G02X845276Y1129921I-394J0D01*
G01X843701D01*
G02X843307Y1130315I0J394D01*
G01Y1133303D01*
G03X843193Y1133579I-394J-2D01*
G01X841846Y1134925D01*
G03X841571Y1135039I-277J-280D01*
G01X837217D01*
X837134Y1135079D01*
G03X836614Y1135193I-517J-1115D01*
G03X836094Y1135079I-2J-1229D01*
G01X836012Y1135039D01*
X834594D01*
X834547Y1135051D01*
G03X834252Y1135087I-293J-1193D01*
G03X833957Y1135051I-2J-1229D01*
G01X833909Y1135039D01*
X826378D01*
G02X825984Y1135433I0J394D01*
G01Y1146654D01*
G02X826378Y1147047I394J0D01*
G37*
G36*
G01X1013886Y1078937D02*
X1015547D01*
G02X1015941Y1078543I0J-394D01*
G01Y1070122D01*
G02X1015811Y1069831I-393J1D01*
G01X1015378Y1069433D01*
G02X1015075Y1069335I-263J293D01*
G03X1014961Y1069339I-99J-1225D01*
G03Y1066882I0J-1228D01*
G03X1015075Y1066886I15J1229D01*
G02X1015378Y1066787I41J-391D01*
G01X1015811Y1066390D01*
G02X1015941Y1066098I-263J-292D01*
G01Y1014169D01*
G02X1014823Y1007933I-17951J0D01*
G02X1014453Y1007677I-369J138D01*
G01X964051D01*
G02X963736Y1007831I-3J394D01*
G03X962638Y1008374I-1098J-839D01*
G03X961681Y1007992I0J-1389D01*
G02X961409Y1007882I-273J283D01*
G01X953043D01*
G02X952717Y1008059I2J394D01*
G01X952350Y1008606D01*
G02X952315Y1008976I328J218D01*
G03X950047I-1134J472D01*
G02X950012Y1008606I-363J-152D01*
G01X949646Y1008059D01*
G02X949319Y1007882I-329J216D01*
G01X935232D01*
G02X934858Y1008154I1J394D01*
G01X934626Y1008874D01*
G02X934772Y1009315I376J120D01*
G01X934776D01*
G03X936378Y1012441I-2248J3126D01*
G03X928685I-3846J0D01*
G03X930287Y1009315I3850J0D01*
G01X930291D01*
G02X930437Y1008874I-230J-321D01*
G01X930205Y1008154D01*
G02X929831Y1007882I-375J123D01*
G01X926870D01*
G03X926594Y1007768I2J-394D01*
G01X926563Y1007736D01*
X926421Y1007677D01*
X924122D01*
G02X923799Y1007850I3J393D01*
G03X923571Y1008106I-1141J-788D01*
G02X923709Y1008780I261J297D01*
G03X926378Y1012441I-1177J3661D01*
G03X918685I-3846J0D01*
G03X920201Y1009382I3845J0D01*
G02X920335Y1008941I-238J-313D01*
G01X920094Y1008228D01*
G02X919720Y1007961I-373J126D01*
G01X915343D01*
G02X914969Y1008228I-1J393D01*
G01X914728Y1008941D01*
G02X914862Y1009382I372J128D01*
G03X916378Y1012441I-2329J3059D01*
G03X908685I-3846J0D01*
G03X910201Y1009382I3845J0D01*
G02X910335Y1008941I-238J-313D01*
G01X910094Y1008228D01*
G02X909720Y1007961I-373J126D01*
G01X908437D01*
G02X908161Y1008075I2J394D01*
G01X906020Y1010217D01*
G02X905949Y1010677I279J279D01*
G03X906378Y1012441I-3417J1765D01*
G03X902531Y1008594I-3846J0D01*
G03X904295Y1009024I-2J3846D01*
G02X904756Y1008953I182J-349D01*
G01X905358Y1008350D01*
G02X905445Y1007921I-278J-279D01*
G02X905079Y1007677I-364J150D01*
G01X876425D01*
G02X876150Y1007791I2J394D01*
G01X876075Y1007866D01*
G03X875799Y1007980I-277J-280D01*
G01X875366D01*
G02X874992Y1008248I-1J394D01*
G01X874752Y1008957D01*
G02X874882Y1009398I372J130D01*
G03X876378Y1012441I-2347J3043D01*
G03X868685I-3846J0D01*
G03X870181Y1009398I3843J0D01*
G02X870311Y1008957I-242J-311D01*
G01X870071Y1008248D01*
G02X869697Y1007980I-373J126D01*
G01X866969D01*
G03X866693Y1007866I2J-394D01*
G01X866618Y1007791D01*
G02X866343Y1007677I-277J280D01*
G01X838780D01*
G02X838386Y1008071I0J394D01*
G01Y1009240D01*
G02X838634Y1009606I394J0D01*
G01X839319Y1009878D01*
G02X839748Y1009787I147J-365D01*
G01Y1009783D01*
G03X842531Y1008594I2781J2658D01*
G03Y1016287I0J3846D01*
G03X839748Y1015098I-2J-3847D01*
G01Y1015094D01*
G02X839319Y1015004I-282J274D01*
G01X838634Y1015276D01*
G02X838386Y1015642I146J366D01*
G01Y1028543D01*
G02X838780Y1028937I394J0D01*
G01X854689D01*
G02X855079Y1028591I-1J-393D01*
G03X857520I1220J151D01*
G02X857909Y1028937I390J-47D01*
G01X860201D01*
G02X860591Y1028591I-1J-393D01*
G03X863031I1220J151D01*
G02X863421Y1028937I390J-47D01*
G01X891303D01*
G02X891693Y1028591I-1J-393D01*
G03X894134I1220J151D01*
G02X894524Y1028937I390J-47D01*
G01X972433D01*
G02X972827Y1028543I0J-394D01*
G01Y1017906D01*
G03X973220Y1017512I394J0D01*
G01X988787D01*
G03X989181Y1017906I0J394D01*
G01Y1025146D01*
G02X989295Y1025425I394J2D01*
G01X989689Y1025823D01*
G02X989969Y1025937I278J-280D01*
G03Y1028394I-8J1228D01*
G02X989689Y1028508I-2J394D01*
G01X989295Y1028906D01*
G02X989181Y1029185I280J277D01*
G01Y1031878D01*
X989209Y1038898D01*
G02X989500Y1039276I394J-2D01*
G03X990402Y1040461I-328J1185D01*
G03X989508Y1041642I-1227J0D01*
G02X989220Y1042024I107J380D01*
G01X989319Y1066528D01*
G02X989630Y1066909I394J-3D01*
G03X990598Y1068110I-260J1201D01*
G03X989642Y1069307I-1227J0D01*
G01X989638D01*
G02X989335Y1069693I91J383D01*
G01X989339Y1070630D01*
G02X989732Y1071024I393J0D01*
G01X989736D01*
G02X990122Y1070685I-4J-393D01*
G03X991339Y1069638I1217J183D01*
G03Y1072094I0J1228D01*
G03X990606Y1071854I-2J-1229D01*
G01Y1071850D01*
G02X990193Y1071815I-235J317D01*
G01X989559Y1072138D01*
G02X989343Y1072492I178J352D01*
G01X989354Y1074791D01*
G02X989551Y1075130I393J-2D01*
G03X990161Y1076193I-621J1063D01*
G03X989559Y1077248I-1225J0D01*
G01Y1077252D01*
G02X989366Y1077591I200J338D01*
G01X989370Y1078543D01*
G02X989764Y1078937I394J0D01*
G01X999165D01*
G02X999453Y1078811I-1J-393D01*
G01X999850Y1078390D01*
G02X999957Y1078098I-287J-270D01*
G01Y1078094D01*
G03X999953Y1078020I1223J-102D01*
G03X1002409I1228J0D01*
G03X1002406Y1078094I-1227J-27D01*
G01Y1078098D01*
G02X1002512Y1078390I394J21D01*
G01X1002909Y1078811D01*
G02X1003197Y1078937I288J-267D01*
G01X1011311D01*
G02X1011622Y1078783I-1J-394D01*
G03X1013575I976J742D01*
G02X1013886Y1078937I312J-240D01*
G37*
G36*
G01X917469Y1123929D02*
G03X919059Y1122059I840J-897D01*
G01X919150Y1122130D01*
X919370Y1122154D01*
X920110Y1121787D01*
G02X920331Y1121437I-172J-353D01*
G01X920339Y1120181D01*
X920378Y1110681D01*
G02X920268Y1110409I-393J1D01*
G01X919894Y1110012D01*
G02X919626Y1109890I-286J272D01*
G03X919638Y1107433I59J-1228D01*
G01X919713D01*
X919854Y1107370D01*
X920287Y1106925D01*
G02X920398Y1106654I-283J-273D01*
G01X920461Y1092370D01*
G02X920276Y1092035I-394J0D01*
G01X919705Y1091677D01*
G02X919327Y1091654I-211J333D01*
G01X919323Y1091657D01*
G03X919335Y1089449I-532J-1107D01*
G01X919429Y1089496D01*
X919630Y1089488D01*
X920287Y1089075D01*
G02X920472Y1088744I-208J-333D01*
G01X920484Y1086614D01*
X920472Y1072831D01*
G02X920083Y1072437I-394J0D01*
G01X913358Y1072378D01*
G02X913043Y1072535I0J394D01*
G01X912657Y1073039D01*
G02X912594Y1073386I315J236D01*
G01Y1073390D01*
G03X910240Y1073374I-1179J340D01*
G01Y1073366D01*
X910244Y1073362D01*
G02X910181Y1073024I-380J-105D01*
G01X909807Y1072508D01*
G02X909492Y1072346I-318J232D01*
G01X898224Y1072248D01*
G03X897835Y1071854I4J-394D01*
G01Y1061024D01*
G03X898228Y1060630I394J0D01*
G01X907480D01*
G02X907874Y1060236I0J-394D01*
G01Y1046850D01*
G02X907480Y1046457I-394J0D01*
G01X881102D01*
G02X880709Y1046850I0J394D01*
G01Y1109457D01*
G02X880902Y1109795I394J0D01*
G01X881492Y1110142D01*
G02X881882Y1110150I202J-338D01*
G01X881886Y1110146D01*
G03X882480Y1109992I594J1074D01*
G03Y1112449I0J1228D01*
G03X881886Y1112295I0J-1228D01*
G01X881882Y1112291D01*
G02X881492Y1112299I-188J346D01*
G01X880902Y1112646D01*
G02X880709Y1112984I201J339D01*
G01Y1115157D01*
G03X880315Y1115551I-394J0D01*
G01X876772D01*
G02X876378Y1115945I0J394D01*
G01Y1140209D01*
X876390Y1140256D01*
G03X876417Y1140417I-1194J287D01*
G01Y1140425D01*
X876425Y1140504D01*
X876508Y1140642D01*
X877039Y1141043D01*
G02X877339Y1141114I233J-318D01*
G01X877343D01*
G03X877323Y1143528I218J1209D01*
G01X877319D01*
G02X876996Y1143610I-73J386D01*
G01X876520Y1144000D01*
G02X876378Y1144303I252J303D01*
G01Y1159843D01*
G02X876772Y1160236I394J0D01*
G01X919768D01*
G02X920161Y1159843I0J-394D01*
G01X920307Y1127606D01*
G02X920091Y1127252I-394J-2D01*
G01X919453Y1126933D01*
G02X919043Y1126969I-176J351D01*
G01X919039D01*
G03X917469Y1125087I-734J-984D01*
G02X917594Y1124799I-268J-289D01*
G01Y1124217D01*
G02X917469Y1123929I-393J1D01*
G37*
G36*
G01X900000Y1069882D02*
X919882D01*
G02X920276Y1069488I0J-394D01*
G01Y1043701D01*
G03X920669Y1043307I394J0D01*
G01X944453D01*
G02X944720Y1043201I-1J-394D01*
G03X945563Y1042866I843J893D01*
G01X945610D01*
G02X945921Y1042736I18J-393D01*
G01X946327Y1042280D01*
G02X946425Y1041961I-292J-265D01*
G01X946421Y1041957D01*
G03X946409Y1041776I1217J-170D01*
G03X948866I1228J0D01*
G03X948780Y1042224I-1228J-4D01*
G01Y1042228D01*
G02X948823Y1042594I367J142D01*
G01X949189Y1043134D01*
G02X949516Y1043307I326J-221D01*
G01X988189D01*
G02X988583Y1042913I0J-394D01*
G01Y1041748D01*
G02X988429Y1041437I-394J1D01*
G03Y1039484I742J-976D01*
G02X988583Y1039173I-240J-312D01*
G01Y1018504D01*
G02X988189Y1018110I-394J0D01*
G01X986854D01*
G02X986484Y1018370I0J393D01*
G01X986228Y1019067D01*
G02X986343Y1019504I369J137D01*
G03X987705Y1022441I-2485J2937D01*
G03X980012I-3846J0D01*
G03X981374Y1019504I3847J0D01*
G02X981488Y1019067I-255J-300D01*
G01X981232Y1018370D01*
G02X980862Y1018110I-370J134D01*
G01X973819D01*
G02X973425Y1018504I0J394D01*
G01Y1029461D01*
G02X973484Y1029665I393J-3D01*
G03Y1030965I-1048J650D01*
G02X973425Y1031169I334J207D01*
G01Y1032087D01*
G03X973031Y1032480I-394J0D01*
G01X961150D01*
G02X960882Y1032587I1J394D01*
G03X959197I-843J-893D01*
G02X958929Y1032480I-269J287D01*
G01X946913D01*
G02X946567Y1032693I3J393D01*
G01X946244Y1033323D01*
G02X946272Y1033732I349J182D01*
G01X946276D01*
G03X946504Y1034449I-1001J714D01*
G03X944047I-1228J0D01*
G03X944276Y1033732I1229J-3D01*
G01X944280D01*
G02X944307Y1033323I-321J-227D01*
G01X943984Y1032693D01*
G02X943638Y1032480I-349J181D01*
G01X910236D01*
G02X909843Y1032874I0J394D01*
G01Y1054228D01*
G02X909996Y1054539I393J-1D01*
G03Y1056484I-754J972D01*
G02X909843Y1056795I240J312D01*
G01Y1061614D01*
G03X909449Y1062008I-394J0D01*
G01X900000D01*
G02X899606Y1062402I0J394D01*
G01Y1069488D01*
G02X900000Y1069882I394J0D01*
G37*
G36*
G01X955909Y1160626D02*
X1002311D01*
G02X1002689Y1160343I0J-394D01*
G01X1002902Y1159610D01*
G02X1002736Y1159169I-378J-110D01*
G01X1002732D01*
G03X999008Y1152362I4358J-6807D01*
G03X1007087Y1144283I8079J0D01*
G03X1014252Y1148630I0J8079D01*
G02X1014693Y1148831I349J-182D01*
G01X1015445Y1148646D01*
G02X1015744Y1148264I-94J-382D01*
G01Y1100287D01*
G02X1015567Y1099961I-393J2D01*
G01X1015020Y1099594D01*
G02X1014650Y1099559I-218J327D01*
G01X1014646D01*
G03Y1097291I-472J-1134D01*
G01X1014650D01*
G02X1015020Y1097256I152J-363D01*
G01X1015567Y1096890D01*
G02X1015744Y1096563I-216J-328D01*
G01Y1079929D01*
G02X1015350Y1079535I-394J0D01*
G01X1014169D01*
G02X1013787Y1079831I0J394D01*
G01Y1079835D01*
G03X1011409I-1189J-307D01*
G01Y1079831D01*
G02X1011028Y1079535I-382J99D01*
G01X989165D01*
G03X988772Y1079142I0J-394D01*
G01X988768Y1077713D01*
G02X988508Y1077346I-394J4D01*
G03X987705Y1076193I427J-1154D01*
G03X988500Y1075043I1229J0D01*
G02X988756Y1074673I-138J-369D01*
G01X988732Y1069362D01*
G02X988591Y1069059I-394J-1D01*
G03X988142Y1068110I779J-949D01*
G03X988583Y1067169I1224J0D01*
G02X988724Y1066866I-253J-303D01*
G01X988720Y1066118D01*
G02X988567Y1065807I-394J1D01*
G01X988063Y1065425D01*
G02X987724Y1065358I-238J313D01*
G01X987720D01*
G03X987402Y1065402I-323J-1184D01*
G03Y1062945I0J-1228D01*
G03X987713Y1062984I2J1229D01*
G02X988055Y1062917I104J-380D01*
G01X988551Y1062531D01*
G02X988705Y1062217I-240J-312D01*
G01X988638Y1045866D01*
G02X988244Y1045472I-394J0D01*
G01X921850D01*
G02X921457Y1045866I0J394D01*
G01Y1054957D01*
G02X921614Y1055276I394J4D01*
G01X922130Y1055654D01*
G02X922476Y1055717I236J-315D01*
G01Y1055713D01*
G03X922835Y1055661I351J1178D01*
G03Y1058118I0J1228D01*
G03X922476Y1058067I-7J-1229D01*
G01Y1058063D01*
G02X922130Y1058126I-110J378D01*
G01X921614Y1058504D01*
G02X921457Y1058823I237J315D01*
G01Y1066346D01*
G02X921650Y1066685I394J0D01*
G01X922240Y1067031D01*
G02X922630Y1067035I198J-339D01*
G01X922634D01*
G03X923228Y1066882I594J1074D01*
G03Y1069339I0J1228D01*
G03X922634Y1069185I0J-1228D01*
G01X922630D01*
G02X922240Y1069189I-191J343D01*
G01X921650Y1069535D01*
G02X921457Y1069874I201J339D01*
G01Y1122898D01*
G02X921709Y1123264I393J-1D01*
G01Y1123268D01*
G03X921976Y1123413I-448J1143D01*
G01X921980D01*
G02X922209Y1123488I231J-319D01*
G01X922673D01*
G02X922902Y1123413I-2J-394D01*
G01X922906D01*
G03X923622Y1123181I719J995D01*
G03X924850Y1124409I0J1228D01*
G03X924496Y1125272I-1226J0D01*
G01Y1125276D01*
G02X924386Y1125598I279J276D01*
G01X924461Y1126217D01*
G02X924650Y1126508I391J-47D01*
G03X925244Y1127559I-632J1051D01*
G03X922787I-1228J0D01*
G03X923142Y1126697I1226J0D01*
G01Y1126693D01*
G02X923252Y1126370I-279J-276D01*
G01X923177Y1125752D01*
G02X922988Y1125461I-391J47D01*
G03X922906Y1125406I639J-1048D01*
G01X922902D01*
G02X922673Y1125331I-231J319D01*
G01X922209D01*
G02X921980Y1125406I2J394D01*
G01X921976D01*
G03X921709Y1125551I-716J-997D01*
G01Y1125555D01*
G02X921457Y1125921I141J367D01*
G01Y1160232D01*
G02X921850Y1160626I394J0D01*
G01X951949D01*
G02X952252Y1160484I0J-394D01*
G01X952642Y1160012D01*
G02X952724Y1159685I-304J-251D01*
G03X952701Y1159449I1204J-240D01*
G03X952921Y1158748I1224J0D01*
G02X952988Y1158528I-327J-220D01*
G01X952992Y1158283D01*
G02X952921Y1158063I-393J5D01*
G03X952713Y1157374I1021J-685D01*
G03X955169I1228J0D01*
G03X954949Y1158075I-1224J0D01*
G02X954882Y1158295I327J220D01*
G01X954878Y1158539D01*
G02X954949Y1158760I393J-5D01*
G03X955157Y1159449I-1021J685D01*
G03X955134Y1159685I-1228J-4D01*
G02X955217Y1160012I387J76D01*
G01X955606Y1160484D01*
G02X955909Y1160626I303J-252D01*
G37*
%LPC*%
G75*
G36*
G01X831035Y1032807D02*
Y1033047D01*
G03X830965Y1033272I-393J-1D01*
G02X830752Y1033965I1016J691D01*
G02X833209I1228J0D01*
G02X832996Y1033272I-1229J-2D01*
G03X832925Y1033047I322J-225D01*
G01Y1032807D01*
G03X832996Y1032583I393J1D01*
G02X833209Y1031890I-1016J-691D01*
G02X830752I-1228J0D01*
G02X830965Y1032583I1229J2D01*
G03X831035Y1032807I-322J225D01*
G37*
G36*
G01X832417Y1094331D02*
X832169Y1094299D01*
G03X831953Y1094193I57J-390D01*
G02X831102Y1093850I-850J884D01*
G02Y1096307I0J1228D01*
G02X831677Y1096165I2J-1229D01*
G03X831917Y1096122I186J346D01*
G01X832165Y1096154D01*
G03X832382Y1096260I-57J390D01*
G02X833232Y1096602I850J-884D01*
G02Y1094146I0J-1228D01*
G02X832657Y1094287I-2J1229D01*
G03X832417Y1094331I-186J-346D01*
G37*
G36*
G01X870610Y1102500D02*
Y1102744D01*
G03X870547Y1102969I-394J10D01*
G02X870339Y1103650I1019J685D01*
G02X872795I1228J0D01*
G02X872571Y1102945I-1227J3D01*
G03X872500Y1102724I324J-226D01*
G01Y1102480D01*
G03X872563Y1102256I394J-10D01*
G02X872772Y1101575I-1019J-685D01*
G02X870315I-1228J0D01*
G02X870539Y1102280I1227J-3D01*
G03X870610Y1102500I-324J226D01*
G37*
G36*
G01X855362Y1112228D02*
Y1112469D01*
G03X855291Y1112693I-393J-1D01*
G02X855079Y1113386I1016J691D01*
G02X857535I1228J0D01*
G02X857323Y1112693I-1229J-2D01*
G03X857252Y1112469I322J-225D01*
G01Y1112228D01*
G03X857323Y1112004I393J1D01*
G02X857535Y1111311I-1016J-691D01*
G02X855079I-1228J0D01*
G02X855291Y1112004I1229J2D01*
G03X855362Y1112228I-322J225D01*
G37*
G36*
G01X806484Y1116000D02*
X806476Y1116236D01*
G03X806409Y1116445I-393J-11D01*
G02X806205Y1117126I1024J679D01*
G02X808661I1228J0D01*
G02X808488Y1116496I-1232J0D01*
G03X808429Y1116283I335J-208D01*
G01X808437Y1116047D01*
G03X808504Y1115839I393J11D01*
G02X808709Y1115157I-1024J-679D01*
G02X808472Y1114433I-1229J0D01*
G03X808398Y1114201I318J-231D01*
G01Y1113949D01*
G03X808472Y1113717I393J-2D01*
G02X808709Y1112992I-993J-724D01*
G02X806252I-1228J0D01*
G02X806488Y1113717I1229J0D01*
G03X806563Y1113949I-318J231D01*
G01Y1114201D01*
G03X806488Y1114433I-393J2D01*
G02X806252Y1115157I993J724D01*
G02X806425Y1115787I1232J0D01*
G03X806484Y1116000I-335J208D01*
G37*
G36*
G01X856157Y1121815D02*
Y1122280D01*
G03X856083Y1122508I-394J-2D01*
G01Y1122512D01*
G02X855850Y1123228I995J719D01*
G02X858307I1228J0D01*
G02X858075Y1122512I-1228J2D01*
G01Y1122508D01*
G03X858000Y1122280I319J-231D01*
G01Y1121815D01*
G03X858075Y1121587I394J2D01*
G01Y1121583D01*
G02X858307Y1120866I-995J-719D01*
G02X855850I-1228J0D01*
G02X856083Y1121583I1228J-2D01*
G01Y1121587D01*
G03X856157Y1121815I-319J231D01*
G37*
G36*
G01X811307Y1123276D02*
X811173Y1123496D01*
G03X810976Y1123657I-335J-208D01*
G02X810189Y1124803I440J1146D01*
G02X812646I1228J0D01*
G02X812638Y1124673I-1228J9D01*
G03X812693Y1124429I392J-40D01*
G01X812827Y1124209D01*
G03X813024Y1124047I335J208D01*
G02X813811Y1122902I-440J-1146D01*
G02X813717Y1122425I-1229J-4D01*
G03X813693Y1122193I361J-154D01*
G01X813740Y1121953D01*
G03X813854Y1121752I384J85D01*
G02X814228Y1120866I-855J-883D01*
G02X811772I-1228J0D01*
G02X811866Y1121343I1229J4D01*
G03X811890Y1121575I-361J154D01*
G01X811843Y1121815D01*
G03X811728Y1122016I-384J-85D01*
G02X811354Y1122902I855J883D01*
G02X811362Y1123031I1228J-9D01*
G03X811307Y1123276I-392J40D01*
G37*
G36*
G01X802929Y1122469D02*
X798157Y1127240D01*
G03X797890Y1127354I-277J-279D01*
G02X796535Y1128740I32J1386D01*
G02X797921Y1130126I1386J0D01*
G02X799307Y1128772I0J-1386D01*
G03X799421Y1128504I393J10D01*
G01X804571Y1123358D01*
G02X804831Y1122724I-635J-631D01*
G01Y1111555D01*
G03X804945Y1111280I394J2D01*
G01X809787Y1106437D01*
G03X810071Y1106323I277J280D01*
G01X810638Y1106331D01*
G03X810917Y1106453I-6J394D01*
G01Y1106457D01*
G02X811811Y1106839I891J-848D01*
G02X813039Y1105610I0J-1228D01*
G02X812657Y1104717I-1230J-3D01*
G01X812654D01*
G03X812531Y1104437I272J-285D01*
G01X812524Y1103870D01*
G03X812638Y1103587I394J-6D01*
G01X821106Y1095122D01*
G02X821276Y1094882I-637J-629D01*
G03X821374Y1094752I356J168D01*
G02X821858Y1093701I-899J-1051D01*
G02X820472Y1092315I-1386J0D01*
G02X819681Y1092563I0J1386D01*
G03X819461Y1092634I-226J-323D01*
G01X819217D01*
G03X818996Y1092563I5J-394D01*
G02X818205Y1092315I-791J1138D01*
G02X816819Y1093701I0J1386D01*
G02X817067Y1094492I1386J0D01*
G01X817071Y1094496D01*
G03X817024Y1095000I-324J224D01*
G01X802122Y1109898D01*
G02X801862Y1110531I635J631D01*
G01Y1118043D01*
G03X801748Y1118319I-394J-2D01*
G01X797807Y1122260D01*
G03X797539Y1122374I-277J-279D01*
G02X796185Y1123760I32J1386D01*
G02X797571Y1125146I1386J0D01*
G02X798957Y1123791I0J-1386D01*
G03X799071Y1123524I393J10D01*
G01X802370Y1120224D01*
G03X802799Y1120138I279J278D01*
G03X803043Y1120504I-150J364D01*
G01Y1122193D01*
G03X802929Y1122469I-394J-2D01*
G37*
G36*
G01X870650Y1041201D02*
G02X871850Y1042173I1201J-255D01*
G02Y1039717I0J-1228D01*
G02X871539Y1039756I-2J1229D01*
G03X870567Y1039154I-198J-766D01*
G02X869366Y1038181I-1201J255D01*
G02Y1040638I0J1228D01*
G02X869677Y1040598I2J-1229D01*
G03X870650Y1041201I198J766D01*
G37*
G36*
G01X823220Y1043146D02*
G02X822441Y1042866I-780J947D01*
G02Y1045323I0J1228D01*
G02X823575Y1044563I0J-1226D01*
G03X824811Y1044256I732J303D01*
G02X825591Y1044535I780J-947D01*
G02Y1042079I0J-1228D01*
G02X824457Y1042839I0J1226D01*
G03X823220Y1043146I-732J-303D01*
G37*
G36*
G01X873878Y1069283D02*
G02X875106Y1068063I1228J8D01*
G02X874953Y1068071I-14J1229D01*
G03X874063Y1067280I-99J-784D01*
G02X872835Y1068500I-1228J-8D01*
G02X872988Y1068492I14J-1229D01*
G03X873878Y1069283I99J784D01*
G37*
G36*
G01X795031Y1074854D02*
G02X796260Y1073626I1228J0D01*
G01X796224D01*
G03X795413Y1072835I-20J-791D01*
G02X794185Y1074063I-1228J0D01*
G01X794220D01*
G03X795031Y1074854I20J791D01*
G37*
G36*
G01X816098Y1084358D02*
G02X816094Y1084449I1224J99D01*
G02X818551I1228J0D01*
G02X817350Y1083220I-1229J0D01*
G03X816579Y1082374I18J-791D01*
G02X816583Y1082283I-1224J-99D01*
G02X814126I-1228J0D01*
G02X815327Y1083512I1229J0D01*
G03X816098Y1084358I-18J791D01*
G37*
G36*
G01X837067Y1093398D02*
G02X837063Y1093504I1225J99D01*
G02X838291Y1094732I1228J0D01*
G02X838496Y1094717I8J-1229D01*
G03X838768Y1094768I68J387D01*
G01X839209Y1095039D01*
G03X839382Y1095256I-201J338D01*
G02X840551Y1096110I1169J-373D01*
G02Y1093654I0J-1228D01*
G02X840346Y1093669I-8J1229D01*
G03X840075Y1093618I-68J-387D01*
G01X839634Y1093346D01*
G03X839461Y1093130I201J-338D01*
G02X838496Y1092291I-1171J373D01*
G03X838248Y1092146I61J-389D01*
G01X837917Y1091720D01*
G03X837839Y1091445I314J-239D01*
G02X837843Y1091339I-1225J-99D01*
G02X835386I-1228J0D01*
G02X836409Y1092551I1230J0D01*
G03X836657Y1092697I-61J389D01*
G01X836988Y1093122D01*
G03X837067Y1093398I-314J239D01*
G37*
G36*
G01X800437Y1096024D02*
G02X799362Y1097244I156J1220D01*
G02X800591Y1098472I1228J0D01*
G02X801819Y1097264I0J-1229D01*
G03X802512Y1096492I790J13D01*
G02X803587Y1095272I-156J-1220D01*
G02X802358Y1094043I-1228J0D01*
G02X801130Y1095252I0J1229D01*
G03X800437Y1096024I-790J-13D01*
G37*
G36*
G01X795886Y1104398D02*
Y1104402D01*
G02X795366Y1106024I2282J1626D01*
G02X800972I2803J0D01*
G02X800091Y1103980I-2808J0D01*
G03X799965Y1103701I267J-289D01*
G01X799957Y1103126D01*
G03X800075Y1102843I394J-2D01*
G02X800441Y1101969I-860J-874D01*
G02X797984I-1228J0D01*
G02X798035Y1102319I1225J0D01*
G03X798000Y1102626I-378J112D01*
G01X797717Y1103122D01*
G03X797472Y1103307I-341J-196D01*
G02X796972Y1103488I701J2715D01*
G03X796528Y1102846I-170J-357D01*
G02X796898Y1101969I-856J-878D01*
G02X794441I-1228J0D01*
G02X795409Y1103169I1229J0D01*
G03X795693Y1103413I-84J385D01*
G01X795929Y1104028D01*
G03X795886Y1104398I-366J145D01*
G37*
G36*
G01X845280Y1113248D02*
G02X844547Y1114370I493J1122D01*
G02X847004I1228J0D01*
G02X846874Y1113815I-1230J-5D01*
G01X846870D01*
G03X846854Y1113508I354J-172D01*
G01X847047Y1112965D01*
G03X847256Y1112736I372J130D01*
G02X847417Y1112650I-498J-1122D01*
G03X848016Y1113083I214J334D01*
G02X847976Y1113386I1188J308D01*
G02X850433I1228J0D01*
G02X850201Y1112669I-1228J2D01*
G01Y1112665D01*
G03X850126Y1112437I319J-231D01*
G01Y1111972D01*
G03X850201Y1111744I394J2D01*
G01Y1111740D01*
G02X850433Y1111024I-995J-719D01*
G02X849205Y1109795I-1228J0D01*
G02X848236Y1110268I0J1229D01*
G03X848016Y1110409I-311J-241D01*
G01X847535Y1110528D01*
G03X847280Y1110500I-88J-384D01*
G02X847201Y1110469I-495J1124D01*
G01X847016Y1110142D01*
G03X846969Y1109913I345J-190D01*
G02X846972Y1109803I-1225J-99D01*
G02X845744Y1108575I-1228J0D01*
G02X845646Y1108579I0J1232D01*
G03X845437Y1107831I-32J-394D01*
G02X845575Y1107748I-562J-1092D01*
G03X845807Y1107681I220J327D01*
G01X846272Y1107693D01*
G03X846500Y1107776I-14J394D01*
G02X847244Y1108028I744J-973D01*
G02Y1105571I0J-1228D01*
G02X847000Y1105594I-4J1229D01*
G03X846661Y1105504I-78J-385D01*
G01X846185Y1105083D01*
G03X846055Y1104756I262J-294D01*
G02X846059Y1104657I-1228J-98D01*
G02X843602I-1228J0D01*
G02X843835Y1105378I1233J0D01*
G03X843909Y1105598I-318J231D01*
G01X843917Y1105843D01*
G03X843854Y1106067I-394J10D01*
G02X843657Y1106732I1026J665D01*
G02X844421Y1107870I1229J0D01*
G03X844650Y1108126I-150J363D01*
G01X844819Y1108732D01*
G03X844756Y1109071I-378J105D01*
G02X844516Y1109803I989J730D01*
G02X845201Y1110906I1229J0D01*
G03X845370Y1111063I-172J355D01*
G01X845488Y1111276D01*
G03X845535Y1111504I-345J190D01*
G02X845531Y1111614I1225J99D01*
G02X845661Y1112169I1230J5D01*
G01X845665D01*
G03X845681Y1112476I-354J172D01*
G01X845488Y1113020D01*
G03X845280Y1113248I-372J-130D01*
G37*
G36*
G01X863154Y1127693D02*
X863618D01*
G03X863846Y1127768I-2J394D01*
G01X863850D01*
G02X864567Y1128000I719J-995D01*
G02X865795Y1126772I0J-1228D01*
G02X865205Y1125720I-1231J0D01*
G03X865016Y1125433I201J-338D01*
G01X864941Y1124815D01*
G03X865051Y1124488I391J-50D01*
G02X865409Y1123622I-868J-866D01*
G02X862953I-1228J0D01*
G02X864067Y1124846I1230J0D01*
G03X864161Y1125614I-36J394D01*
G02X863850Y1125776I404J1159D01*
G01X863846D01*
G03X863618Y1125850I-231J-319D01*
G01X863154D01*
G03X862925Y1125776I2J-394D01*
G01X862921D01*
G02X862205Y1125543I-719J995D01*
G02X861496Y1125768I0J1231D01*
G03X861272Y1125839I-225J-322D01*
G01X861024D01*
G03X860799Y1125768I1J-393D01*
G02X860091Y1125543I-709J1007D01*
G02Y1128000I0J1228D01*
G02X860799Y1127776I0J-1231D01*
G03X861024Y1127705I225J322D01*
G01X861272D01*
G03X861496Y1127776I-1J393D01*
G02X862205Y1128000I709J-1007D01*
G02X862921Y1127768I-2J-1228D01*
G01X862925D01*
G03X863154Y1127693I231J319D01*
G37*
G36*
G01X850043Y1128280D02*
G02X849953Y1128740I1137J463D01*
G02X852409I1228J0D01*
G02X851362Y1127524I-1230J0D01*
G03X850744Y1126445I115J-783D01*
G02X850835Y1125984I-1137J-463D01*
G02X848378I-1228J0D01*
G02X849425Y1127201I1230J0D01*
G03X850043Y1128280I-115J783D01*
G37*
G36*
G01X814402Y1135535D02*
G02X813429Y1136736I255J1201D01*
G02X814657Y1137965I1228J0D01*
G02X815870Y1136929I0J-1228D01*
G03X815972Y1136720I389J62D01*
G01X816142Y1136543D01*
G03X816343Y1136429I286J270D01*
G02X817248Y1135622I-257J-1200D01*
G03X817390Y1135429I374J126D01*
G01X817760Y1135161D01*
G03X817988Y1135087I231J319D01*
G02X818661Y1134874I-18J-1229D01*
G03X818886Y1134803I225J322D01*
G01X819126D01*
G03X819350Y1134874I-1J393D01*
G02X820043Y1135087I691J-1016D01*
G02Y1132630I0J-1228D01*
G02X819350Y1132843I-2J1229D01*
G03X819126Y1132913I-225J-322D01*
G01X818886D01*
G03X818661Y1132843I1J-393D01*
G02X817969Y1132630I-691J1016D01*
G02X816807Y1133465I0J1225D01*
G03X816665Y1133657I-374J-126D01*
G01X816295Y1133925D01*
G03X816067Y1134000I-231J-319D01*
G02X815909Y1134012I13J1229D01*
G01X815906D01*
G03X815583Y1133909I-54J-389D01*
G01X815126Y1133488D01*
G03X815004Y1133169I271J-286D01*
G02X815008Y1133071I-1228J-98D01*
G02X813780Y1134299I-1228J0D01*
G02X813957Y1134287I7J-1229D01*
G01X813961D01*
G03X814283Y1134390I54J389D01*
G01X814740Y1134811D01*
G03X814862Y1135130I-271J286D01*
G01Y1135150D01*
X814602Y1135421D01*
G03X814402Y1135535I-286J-270D01*
G37*
G36*
G01X803201Y1133417D02*
G02X802165Y1133220I-1032J2607D01*
G02X804969Y1136024I0J2803D01*
G02X804803Y1135075I-2805J0D01*
G03X805535Y1134016I744J-268D01*
G02X806740Y1132787I-24J-1228D01*
G02X805512Y1131559I-1228J0D01*
G02X804283Y1132724I0J1230D01*
G03X803201Y1133417I-789J-41D01*
G37*
G36*
G01X857240Y1142996D02*
G02X857236Y1143067I1223J103D01*
G02X858465Y1144295I1228J0D01*
G02X859370Y1143898I0J-1230D01*
G01Y1143894D01*
G03X859610Y1143772I288J269D01*
G01X860110Y1143701D01*
G03X860374Y1143760I51J391D01*
G02X861024Y1143945I650J-1048D01*
G02Y1141488I0J-1228D01*
G02X860118Y1141886I0J1230D01*
G01Y1141890D01*
G03X859878Y1142012I-288J-269D01*
G01X859378Y1142083D01*
G03X859114Y1142024I-51J-391D01*
G02X858614Y1141846I-651J1043D01*
G03X858358Y1141709I45J-391D01*
G01X858012Y1141291D01*
G03X857917Y1141016I299J-256D01*
G02X857921Y1140945I-1223J-103D01*
G02X857165Y1139811I-1228J0D01*
G03X856965Y1139622I152J-363D01*
G01X856732Y1139157D01*
G03X856701Y1138886I351J-178D01*
G02X856740Y1138583I-1188J-308D01*
G02X855512Y1137354I-1228J0D01*
G02X854673Y1137685I0J1229D01*
G03X854406Y1137791I-269J-287D01*
G01X853862D01*
G03X853594Y1137685I1J-394D01*
G02X851917I-839J898D01*
G03X851650Y1137791I-269J-287D01*
G01X851106D01*
G03X850839Y1137685I1J-394D01*
G02X850000Y1137354I-839J898D01*
G02Y1139811I0J1228D01*
G02X850839Y1139480I0J-1229D01*
G03X851106Y1139374I269J287D01*
G01X851650D01*
G03X851917Y1139480I-1J394D01*
G02X853594I839J-898D01*
G03X853862Y1139374I269J287D01*
G01X854406D01*
G03X854673Y1139480I-1J394D01*
G02X855039Y1139717I838J-898D01*
G03X855240Y1139906I-152J363D01*
G01X855472Y1140370D01*
G03X855504Y1140642I-351J178D01*
G02X855465Y1140945I1188J308D01*
G02X856543Y1142165I1230J0D01*
G03X856799Y1142303I-45J391D01*
G01X857146Y1142720D01*
G03X857240Y1142996I-299J256D01*
G37*
G36*
G01X991181Y1037335D02*
Y1037575D01*
G03X991110Y1037799I-393J-1D01*
G02X990898Y1038492I1016J691D01*
G02X993354I1228J0D01*
G01Y1038457D01*
G03X993469Y1038169I393J-10D01*
G01X993878Y1037760D01*
G03X994165Y1037646I277J279D01*
G01X994201D01*
G02Y1035189I0J-1228D01*
G02X993508Y1035402I-2J1229D01*
G03X993283Y1035472I-225J-322D01*
G01X993043D01*
G03X992819Y1035402I1J-393D01*
G02X992126Y1035189I-691J1016D01*
G02X990898Y1036417I0J1228D01*
G02X991110Y1037110I1229J2D01*
G03X991181Y1037335I-322J225D01*
G37*
G36*
G01X892984Y1017165D02*
G02X895433Y1017315I1220J150D01*
G02X895075Y1016449I-1226J0D01*
G03X895106Y1015299I559J-560D01*
G02X896378Y1012441I-2576J-2858D01*
G02X888685I-3846J0D01*
G02X892256Y1016280I3849J0D01*
G03X892984Y1017165I-56J788D01*
G37*
G36*
G01X917091Y1027693D02*
X917555D01*
G03X917783Y1027768I-2J394D01*
G01X917787D01*
G02X918504Y1028000I719J-995D01*
G02Y1025543I0J-1228D01*
G02X917787Y1025776I2J1228D01*
G01X917783D01*
G03X917555Y1025850I-231J-319D01*
G01X917091D01*
G03X916862Y1025776I2J-394D01*
G01X916858D01*
G02X916142Y1025543I-719J995D01*
G02X915425Y1025776I2J1228D01*
G01X915421D01*
G03X915193Y1025850I-231J-319D01*
G01X914728D01*
G03X914500Y1025776I2J-394D01*
G01X914496D01*
G02X913780Y1025543I-719J995D01*
G02X912941Y1025874I0J1229D01*
G03X912673Y1025980I-269J-287D01*
G01X912130D01*
G03X911862Y1025874I1J-394D01*
G02X911024Y1025543I-839J898D01*
G02Y1028000I0J1228D01*
G02X911862Y1027669I0J-1229D01*
G03X912130Y1027563I269J287D01*
G01X912673D01*
G03X912941Y1027669I-1J394D01*
G02X913780Y1028000I839J-898D01*
G02X914496Y1027768I-2J-1228D01*
G01X914500D01*
G03X914728Y1027693I231J319D01*
G01X915193D01*
G03X915421Y1027768I-2J394D01*
G01X915425D01*
G02X916142Y1028000I719J-995D01*
G02X916858Y1027768I-2J-1228D01*
G01X916862D01*
G03X917091Y1027693I231J319D01*
G37*
G36*
G01X885555Y1092720D02*
G03X885661Y1092382I389J-64D01*
G01X886248Y1091783D01*
X886346Y1091795D01*
G02X886866Y1091799I269J-1201D01*
G01X886953Y1091791D01*
X887535Y1092339D01*
G03X887661Y1092642I-267J289D01*
G01Y1092646D01*
G02X888736Y1091500I1225J72D01*
G01X888724D01*
G03X888417Y1091398I-40J-391D01*
G01X887831Y1090850D01*
X887835Y1090768D01*
G02X885417Y1090890I-1220J-172D01*
G01X885433Y1090984D01*
X884780Y1091650D01*
X884606Y1091709D01*
X884512Y1091697D01*
G02X885555Y1092720I-170J1216D01*
G37*
G36*
G01X895650Y1053386D02*
X895402D01*
G03X895181Y1053319I-1J-394D01*
G02X894488Y1053102I-696J1011D01*
G02Y1055559I0J1228D01*
G02X895181Y1055343I-3J-1227D01*
G03X895402Y1055276I220J327D01*
G01X895650D01*
G03X895870Y1055343I1J394D01*
G02X896563Y1055559I696J-1011D01*
G02Y1053102I0J-1228D01*
G02X895870Y1053319I3J1227D01*
G03X895650Y1053386I-220J-327D01*
G37*
G36*
G01X882807Y1146673D02*
G03X883425Y1147366I-169J773D01*
G02X884909Y1146043I1222J-123D01*
G03X884291Y1145350I169J-773D01*
G02X882807Y1146673I-1222J123D01*
G37*
G36*
G01X909382Y1096091D02*
Y1095839D01*
G03X909457Y1095606I394J-1D01*
G02X909413Y1094102I-992J-724D01*
G01X909370Y1094051D01*
X909327Y1093925D01*
Y1093280D01*
X909370Y1093154D01*
X909413Y1093102D01*
G02X909693Y1092323I-947J-780D01*
G02X907236I-1228J0D01*
G02X907516Y1093102I1227J0D01*
G01X907559Y1093154D01*
X907602Y1093280D01*
Y1093925D01*
X907559Y1094051D01*
X907516Y1094102D01*
G02X907472Y1095606I949J780D01*
G03X907547Y1095839I-319J231D01*
G01Y1096091D01*
G03X907472Y1096323I-394J1D01*
G02X907236Y1097047I993J724D01*
G02X909693I1228J0D01*
G02X909457Y1096323I-1229J0D01*
G03X909382Y1096091I319J-231D01*
G37*
G36*
G01X886201Y1108272D02*
Y1108268D01*
G03X886417Y1108039I370J134D01*
G01X887043Y1107772D01*
X887201D01*
X887280Y1107807D01*
G02X887335Y1105555I516J-1114D01*
G01X887248Y1105591D01*
X887071Y1105579D01*
X886370Y1105173D01*
X886268Y1105028D01*
X886256Y1104937D01*
G02X884142Y1105957I-1215J181D01*
G03X884248Y1106228I-288J269D01*
G01Y1106764D01*
G03X884142Y1107035I-394J2D01*
G02X886201Y1108272I897J839D01*
G37*
G36*
G01X910579Y1125087D02*
G02X912646Y1125984I839J898D01*
G02X912256Y1125087I-1229J0D01*
G03Y1123929I539J-579D01*
G02X912646Y1123031I-839J-898D01*
G02X910189I-1228J0D01*
G02X910579Y1123929I1229J0D01*
G03Y1125087I-539J579D01*
G37*
G36*
G01X913736Y1136610D02*
G02X914988Y1135295I1225J-87D01*
G03X914217Y1134559I18J-791D01*
G02X912965Y1135874I-1225J87D01*
G03X913736Y1136610I-18J791D01*
G37*
G36*
G01X941374Y1037465D02*
X940909D01*
G03X940681Y1037390I2J-394D01*
G01X940677D01*
G02X939961Y1037157I-719J995D01*
G02Y1039614I0J1228D01*
G02X940677Y1039382I-2J-1228D01*
G01X940681D01*
G03X940909Y1039307I231J319D01*
G01X941374D01*
G03X941602Y1039382I-2J394D01*
G01X941606D01*
G02X942323Y1039614I719J-995D01*
G02Y1037157I0J-1228D01*
G02X941606Y1037390I2J1228D01*
G01X941602D01*
G03X941374Y1037465I-231J-319D01*
G37*
G36*
G01X994713Y1084772D02*
X994693Y1085236D01*
G03X994610Y1085461I-394J-18D01*
G02X994346Y1086220I963J760D01*
G02X996803I1228J0D01*
G02X996598Y1085543I-1228J2D01*
G03X996531Y1085307I327J-220D01*
G01X996551Y1084843D01*
G03X996634Y1084618I394J18D01*
G02X996898Y1083858I-963J-760D01*
G02X994441I-1228J0D01*
G02X994646Y1084535I1228J-2D01*
G03X994713Y1084772I-327J220D01*
G37*
G36*
G01X969890Y1122520D02*
Y1122756D01*
G03X969827Y1122965I-393J-5D01*
G02X969638Y1123622I1040J655D01*
G02X972094I1228J0D01*
G02X971906Y1122965I-1229J-3D01*
G03X971843Y1122756I330J-214D01*
G01Y1122520D01*
G03X971906Y1122311I393J5D01*
G02X972094Y1121654I-1040J-655D01*
G02X969638I-1228J0D01*
G02X969827Y1122311I1229J3D01*
G03X969890Y1122520I-330J214D01*
G37*
G36*
G01X948823Y1067835D02*
G02X951185Y1068307I1134J472D01*
G02X950398Y1067161I-1227J0D01*
G03X950177Y1066949I142J-368D01*
G01X949953Y1066425D01*
G03Y1066118I363J-154D01*
G02X948819Y1064417I-1134J-472D01*
G02X947980Y1064748I0J1229D01*
G03X947713Y1064854I-269J-287D01*
G01X947169D01*
G03X946902Y1064748I1J-394D01*
G02X946063Y1064417I-839J898D01*
G02X945319Y1064669I0J1225D01*
G03X945039Y1064748I-239J-313D01*
G01X944496Y1064689D01*
G03X944240Y1064555I42J-391D01*
G02X943307Y1064126I-933J800D01*
G02Y1066583I0J1228D01*
G02X944051Y1066331I0J-1225D01*
G03X944331Y1066252I239J313D01*
G01X944874Y1066311D01*
G03X945130Y1066445I-42J391D01*
G02X946063Y1066874I933J-800D01*
G02X946902Y1066543I0J-1229D01*
G03X947169Y1066437I269J287D01*
G01X947713D01*
G03X947980Y1066543I-1J394D01*
G02X948378Y1066791I837J-899D01*
G03X948598Y1067004I-142J368D01*
G01X948823Y1067528D01*
G03Y1067835I-363J154D01*
G37*
G36*
G01X947878Y1072917D02*
G02X948866Y1074122I-240J1205D01*
G01Y1074063D01*
G03X949811Y1073252I790J-36D01*
G02X950051Y1073276I240J-1209D01*
G02X948823Y1072047I0J-1228D01*
G01Y1072106D01*
G03X947878Y1072917I-790J36D01*
G37*
G36*
G01X941909Y1087823D02*
G02X940945Y1089811I-965J760D01*
G02X941657Y1089583I0J-1226D01*
G03X942736Y1089736I458J645D01*
G02X943701Y1090205I965J-759D01*
G02Y1087748I0J-1228D01*
G02X942988Y1087976I0J1226D01*
G03X941909Y1087823I-458J-645D01*
G37*
G36*
G01X1007256Y1109870D02*
G02X1006299Y1111866I-957J769D01*
G02X1007256Y1111406I0J-1224D01*
G03X1008492I618J497D01*
G02X1009449Y1111866I957J-763D01*
G02Y1109409I0J-1228D01*
G02X1008492Y1109870I0J1224D01*
G03X1007256I-618J-497D01*
G37*
G36*
G01X953291Y1117059D02*
G02X955559Y1117717I1039J657D01*
G02X955370Y1117059I-1229J-3D01*
G03X955307Y1116850I330J-214D01*
G01Y1116614D01*
G03X955370Y1116406I393J5D01*
G02X955559Y1115748I-1040J-655D01*
G02X955406Y1115157I-1227J4D01*
G03X955413Y1114764I346J-190D01*
G01X955760Y1114177D01*
G03X956098Y1113984I339J201D01*
G01X969098D01*
G03X969437Y1114177I0J394D01*
G01X969783Y1114764D01*
G03X969791Y1115157I-338J204D01*
G02X969638Y1115748I1074J594D01*
G02X972094I1228J0D01*
G02X971941Y1115157I-1227J4D01*
G03X971949Y1114764I346J-190D01*
G01X972295Y1114177D01*
G03X972634Y1113984I339J201D01*
G01X978157D01*
G02X978551Y1113591I0J-394D01*
G01Y1093496D01*
G02X978157Y1093102I-394J0D01*
G01X969346D01*
G03X969142Y1093043I3J-393D01*
G02X968504Y1092866I-636J1052D01*
G02X967866Y1093043I-2J1229D01*
G03X967661Y1093102I-207J-334D01*
G01X947831D01*
G03X947492Y1092909I0J-394D01*
G01X947146Y1092323D01*
G03X947138Y1091929I338J-204D01*
G02X947291Y1091339I-1074J-594D01*
G02X944835I-1228J0D01*
G02X944988Y1091929I1227J-4D01*
G03X944980Y1092323I-346J190D01*
G01X944634Y1092909D01*
G03X944295Y1093102I-339J-201D01*
G01X932079D01*
G02X931685Y1093496I0J394D01*
G01Y1100146D01*
G03X931583Y1100409I-394J-1D01*
G01X931228Y1100803D01*
G03X930976Y1100933I-295J-262D01*
G02Y1103374I124J1220D01*
G03X931228Y1103504I-43J392D01*
G01X931583Y1103898D01*
G03X931685Y1104161I-291J265D01*
G01Y1113591D01*
G02X932079Y1113984I394J0D01*
G01X952563D01*
G03X952902Y1114177I0J394D01*
G01X953248Y1114764D01*
G03X953256Y1115157I-338J204D01*
G02X953102Y1115748I1074J594D01*
G02X953291Y1116406I1229J3D01*
G03X953354Y1116614I-330J214D01*
G01Y1116850D01*
G03X953291Y1117059I-393J-5D01*
G37*
G36*
G01X1002709Y1126780D02*
Y1126783D01*
G02X1003937Y1127992I1228J-20D01*
G02X1004776Y1127661I0J-1229D01*
G03X1005043Y1127555I269J287D01*
G01X1005587D01*
G03X1005854Y1127661I-1J394D01*
G02X1006693Y1127992I839J-898D01*
G02Y1125535I0J-1228D01*
G02X1005854Y1125866I0J1229D01*
G03X1005587Y1125972I-269J-287D01*
G01X1005043D01*
G03X1004776Y1125866I1J-394D01*
G02X1003937Y1125535I-839J898D01*
G02X1003728Y1125555I11J1227D01*
G03X1003409Y1125469I-66J-389D01*
G01X1002945Y1125083D01*
G03X1002803Y1124787I252J-303D01*
G01Y1124783D01*
G02X1002472Y1123965I-1228J20D01*
G03X1002366Y1123697I287J-269D01*
G01Y1123154D01*
G03X1002472Y1122886I394J1D01*
G02X1002803Y1122047I-898J-839D01*
G02X1000346I-1228J0D01*
G02X1000677Y1122886I1229J0D01*
G03X1000783Y1123154I-287J269D01*
G01Y1123697D01*
G03X1000677Y1123965I-394J-1D01*
G02X1000346Y1124803I898J839D01*
G02X1001575Y1126031I1228J0D01*
G02X1001783Y1126012I-11J-1227D01*
G03X1002102Y1126098I66J389D01*
G01X1002567Y1126484D01*
G03X1002709Y1126780I-252J303D01*
G37*
G36*
G01X997323Y1126992D02*
G02X996457Y1129091I-866J870D01*
G02X997264Y1128787I0J-1226D01*
G03X998346Y1128823I522J595D01*
G02X999213Y1129181I866J-868D01*
G02Y1126724I0J-1228D01*
G02X998406Y1127028I0J1226D01*
G03X997323Y1126992I-522J-595D01*
G37*
G36*
G01X961327Y1129539D02*
G02X961902I287J-1193D01*
G03X962142Y1129555I95J383D01*
G01X962370Y1129650D01*
G03X962555Y1129799I-143J366D01*
G02X963583Y1130354I1028J-673D01*
G02X964559Y1129870I0J-1226D01*
G03X964748Y1129736I312J240D01*
G01X964980Y1129661D01*
G03X965213Y1129657I123J373D01*
G02X965555Y1129705I338J-1182D01*
G02X966236Y1129500I2J-1229D01*
G03X966492Y1129437I216J328D01*
G01X966996Y1129488D01*
G03X967236Y1129602I-39J392D01*
G02X968110Y1129969I874J-860D01*
G02Y1127512I0J-1228D01*
G02X967429Y1127717I-2J1229D01*
G03X967173Y1127780I-216J-328D01*
G01X966669Y1127728D01*
G03X966429Y1127614I39J-392D01*
G02X965555Y1127248I-874J860D01*
G02X964579Y1127732I0J1226D01*
G03X964390Y1127866I-312J-240D01*
G01X964157Y1127941D01*
G03X963925Y1127945I-123J-373D01*
G02X963583Y1127898I-338J1182D01*
G02X963295Y1127933I5J1228D01*
G03X963055Y1127917I-95J-383D01*
G01X962827Y1127823D01*
G03X962642Y1127673I143J-366D01*
G02X960587I-1028J673D01*
G03X960402Y1127823I-328J-217D01*
G01X960173Y1127917D01*
G03X959933Y1127933I-145J-367D01*
G02X959646Y1127898I-293J1192D01*
G02Y1130354I0J1228D01*
G02X960673Y1129799I0J-1229D01*
G03X960858Y1129650I328J217D01*
G01X961087Y1129555D01*
G03X961327Y1129539I145J367D01*
G37*
G36*
G01X986354Y1130807D02*
G02X988433Y1131693I851J886D01*
G02X988028Y1130783I-1227J2D01*
G03X988012Y1129626I533J-586D01*
G02X988390Y1128740I-849J-886D01*
G02X985933I-1228J0D01*
G02X986339Y1129650I1227J-2D01*
G03X986354Y1130807I-533J586D01*
G37*
G36*
G01X946799Y1138693D02*
G02X948594Y1138563I837J-898D01*
G03X948902Y1138417I306J248D01*
G01X949524D01*
G03X949831Y1138563I1J394D01*
G02X950787Y1139024I957J-763D01*
G02Y1136567I0J-1228D01*
G02X949831Y1137028I0J1224D01*
G03X949524Y1137173I-306J-248D01*
G01X948902D01*
G03X948594Y1137028I-1J-394D01*
G02X947638Y1136567I-957J763D01*
G02X946799Y1136898I0J1229D01*
G03X946531Y1137004I-269J-287D01*
G01X945988D01*
G03X945720Y1136898I1J-394D01*
G02X944882Y1136567I-839J898D01*
G02Y1139024I0J1228D01*
G02X945720Y1138693I0J-1229D01*
G03X945988Y1138587I269J287D01*
G01X946531D01*
G03X946799Y1138693I-1J394D01*
G37*
G36*
G01X964516D02*
G02X966217Y1138669I838J-898D01*
G01X966220D01*
G03X966543Y1138559I276J279D01*
G01X967161Y1138634D01*
G03X967453Y1138823I-47J391D01*
G02X968504Y1139417I1051J-632D01*
G02Y1136961I0J-1228D01*
G02X967642Y1137315I0J1226D01*
G01X967638D01*
G03X967315Y1137425I-276J-279D01*
G01X966697Y1137350D01*
G03X966406Y1137161I47J-391D01*
G02X965354Y1136567I-1051J632D01*
G02X964516Y1136898I0J1229D01*
G03X964248Y1137004I-269J-287D01*
G01X963705D01*
G03X963437Y1136898I1J-394D01*
G02X962598Y1136567I-839J898D01*
G02Y1139024I0J1228D01*
G02X963437Y1138693I0J-1229D01*
G03X963705Y1138587I269J287D01*
G01X964248D01*
G03X964516Y1138693I-1J394D01*
G37*
G36*
G01X959681Y1142890D02*
G02X959449Y1145323I-232J1205D01*
G02X960654Y1144343I0J-1230D01*
G03X961579Y1143724I775J159D01*
G02X961811Y1143748I240J-1204D01*
G02Y1141291I0J-1228D01*
G02X960606Y1142272I0J1230D01*
G03X959681Y1142890I-775J-159D01*
G37*
G36*
G01X950220Y1144012D02*
G02X949858Y1144882I864J870D01*
G02X951087Y1146110I1228J0D01*
G02X951780Y1145898I2J-1229D01*
G03X952004Y1145827I225J322D01*
G01X952244D01*
G03X952469Y1145898I-1J393D01*
G02X953161Y1146110I691J-1016D01*
G02Y1143654I0J-1228D01*
G02X952469Y1143866I-2J1229D01*
G03X952244Y1143937I-225J-322D01*
G01X952004D01*
G03X951780Y1143866I1J-393D01*
G01X951776Y1143862D01*
G03X951799Y1143193I220J-327D01*
G02X952417Y1142126I-612J-1067D01*
G02X949961I-1228J0D01*
G02X950260Y1142929I1228J0D01*
G01Y1142933D01*
G03X950358Y1143205I-295J260D01*
G01X950339Y1143744D01*
G03X950220Y1144012I-394J-14D01*
G37*
G36*
G01X930264Y1150504D02*
X930728Y1150512D01*
G03X930957Y1150591I-8J393D01*
G02X931693Y1150835I736J-988D01*
G02Y1148378I0J-1228D01*
G02X930992Y1148598I0J1224D01*
G03X930760Y1148669I-226J-323D01*
G01X930295Y1148661D01*
G03X930067Y1148583I8J-393D01*
G02X929331Y1148339I-736J988D01*
G02X929228Y1148343I-4J1229D01*
G03X928906Y1148220I-36J-392D01*
G01X928480Y1147764D01*
G03X928378Y1147433I287J-270D01*
G02X928394Y1147244I-1212J-196D01*
G02X927165Y1148472I-1228J0D01*
G02X927268Y1148469I4J-1229D01*
G03X927591Y1148591I36J392D01*
G01X928016Y1149047D01*
G03X928118Y1149378I-287J270D01*
G02X928102Y1149567I1212J196D01*
G02X929331Y1150795I1228J0D01*
G02X930031Y1150575I0J-1224D01*
G03X930264Y1150504I226J323D01*
G37*
G36*
G01X963535Y1152992D02*
Y1152996D01*
G02X965992I1228J8D01*
G01Y1152992D01*
G03X966126Y1152697I393J0D01*
G01X966571Y1152299D01*
G03X966882Y1152205I260J295D01*
G02X967035Y1152213I140J-1221D01*
G02Y1149756I0J-1228D01*
G02X965807Y1150992I0J1228D01*
G01Y1150996D01*
G03X965673Y1151291I-393J0D01*
G01X965228Y1151689D01*
G03X964917Y1151783I-260J-295D01*
G02X964764Y1151776I-140J1221D01*
G02X964610Y1151783I-14J1229D01*
G03X964299Y1151689I-51J-390D01*
G01X963854Y1151291D01*
G03X963720Y1150996I259J-295D01*
G01Y1150992D01*
G02X962492Y1152213I-1228J-8D01*
G02X962646Y1152205I14J-1229D01*
G03X962957Y1152299I51J390D01*
G01X963402Y1152697D01*
G03X963535Y1152992I-259J295D01*
G37*
G54D22*
X799213Y1014173D03*
G54D24*
X863272Y1152756D03*
G54D23*
X794173Y1136024D03*
G54D25*
X852531Y1012441D03*
X862531D03*
X882531D03*
X983858D03*
G54D21*
X854331Y1150984D03*
X863189Y1096457D03*
X852953Y1108358D03*
X809843Y1140945D03*
X849803Y1083858D03*
X834843Y1055118D03*
X822638D03*
X798276Y1025835D03*
X820472Y1116535D03*
X830315Y1126378D03*
X807874Y1059154D03*
X825591Y1121260D03*
X847835Y1045768D03*
X867323Y1149409D03*
X869291Y1067272D03*
X867232Y1079134D03*
X868504Y1063386D03*
X812795Y1074409D03*
X834646Y1078740D03*
X811614Y1069685D03*
X808661Y1067323D03*
X842520Y1068898D03*
X834646Y1062992D03*
X854331Y1068898D03*
X860287Y1105118D03*
X843110Y1047244D03*
X857087Y1046654D03*
X811024Y1062992D03*
X824803Y1094882D03*
X858465Y1079134D03*
X817323Y1090157D03*
X824803Y1090551D03*
X850394Y1062992D03*
Y1078740D03*
X822835Y1062992D03*
X796850Y1081445D03*
X796457Y1050972D03*
X794382Y1083858D03*
X838189Y1032874D03*
X833465Y1043307D03*
X810039Y1025787D03*
X813780Y1028346D03*
X801575Y1037795D03*
X801772Y1042717D03*
X804331Y1031102D03*
X865110Y1106299D03*
X794488Y1093307D03*
X794728Y1097189D03*
X860630Y1039173D03*
X815354Y1106299D03*
X808661Y1085433D03*
X812598Y1115354D03*
X818110Y1104087D03*
X814567Y1052362D03*
X809843Y1052756D03*
X860236Y1118004D03*
X869780Y1044098D03*
X810039Y1145713D03*
X868504Y1119488D03*
X850394Y1143358D03*
X858661Y1084252D03*
X807874Y1073228D03*
X810630Y1082780D03*
X820472Y1126378D03*
X830315Y1116535D03*
X806890Y1051083D03*
X844339Y1122441D03*
X841339Y1107768D03*
X835039Y1110630D03*
X797244Y1140748D03*
X832480Y1023622D03*
X825591Y1027165D03*
X793835Y1118823D03*
X820079Y1088189D03*
X842913Y1091732D03*
X849209Y1095280D03*
X870866Y1034646D03*
X874016Y1083858D03*
X854382Y1033071D03*
X841437Y1111917D03*
X850394Y1055118D03*
X837402Y1137689D03*
X881693Y1023228D03*
X884843Y1021457D03*
X889106Y1023819D03*
X857480Y1022744D03*
X870866Y1024016D03*
X866142D03*
X858366Y1016831D03*
X941732Y1020079D03*
X954724Y1020472D03*
X928150Y1022240D03*
X946850Y1022079D03*
X901575Y1024803D03*
X931921Y1024055D03*
X944988Y1025984D03*
X1013780Y1019685D03*
X993110Y1010039D03*
X973622Y1010228D03*
X1003543Y1022768D03*
X996551D03*
X1013780Y1047244D03*
Y1075787D03*
Y1028937D03*
X1007480Y1028346D03*
X993110Y1028543D03*
X1004134Y1050000D03*
X996260Y1040157D03*
X1003740D03*
X1009449Y1039917D03*
X1006693Y1061024D03*
X883268Y1070669D03*
X900185Y1054331D03*
X886614Y1078937D03*
X879724Y1145472D03*
X900602Y1122441D03*
X882480Y1118307D03*
X886417D03*
X884449Y1114764D03*
X886417Y1111220D03*
X880118Y1151772D03*
X900205Y1152953D03*
X887591Y1152756D03*
Y1157283D03*
X892323Y1149008D03*
X900205Y1157480D03*
X896063Y1149008D03*
X906102Y1080906D03*
X908071Y1084449D03*
X910039Y1080906D03*
X914961Y1124606D03*
X902756Y1140945D03*
X906496Y1125248D03*
X902953Y1125008D03*
X915748Y1108661D03*
X906102Y1087992D03*
X910039D03*
X907677Y1111811D03*
X909843Y1152756D03*
X916732Y1148819D03*
X916535Y1155906D03*
X937689Y1041142D03*
X957480Y1038976D03*
X913780Y1064764D03*
X908071Y1066929D03*
X912992Y1059260D03*
X917528Y1055709D03*
X979134Y1027165D03*
X978831Y1039567D03*
X960630Y1082677D03*
Y1076378D03*
X928535Y1079921D03*
Y1076378D03*
X924409Y1083465D03*
X927469Y1068110D03*
X934646Y1071654D03*
X955118Y1077165D03*
X924213Y1051772D03*
X927559Y1054921D03*
X929921Y1052559D03*
X926969Y1107480D03*
X942126Y1135827D03*
X929134Y1135039D03*
X923622Y1137008D03*
X924016Y1105118D03*
X942520Y1116929D03*
X954331Y1125591D03*
X943701Y1129134D03*
X937205Y1138386D03*
X945677Y1121252D03*
X986409Y1082283D03*
X979528Y1081102D03*
X970472Y1055118D03*
X977953D03*
X974016Y1060236D03*
X965354Y1059843D03*
X966142Y1077165D03*
X969685Y1064567D03*
X971350Y1070866D03*
X973622Y1068453D03*
X981496Y1065945D03*
X1012587Y1083465D03*
X967413Y1083366D03*
X974213Y1076969D03*
X1002165Y1085630D03*
X989476Y1137008D03*
X1001579Y1108079D03*
X998819Y1111024D03*
X988232Y1145866D03*
X988094Y1121362D03*
X984933Y1137008D03*
X979528Y1085827D03*
X986409Y1089764D03*
Y1086220D03*
X985827Y1099606D03*
X985835Y1095669D03*
X982283Y1093102D03*
X982677Y1116142D03*
X976772Y1134252D03*
Y1138189D03*
X984843Y1124909D03*
X995669Y1089764D03*
X987205Y1112205D03*
X1012114Y1087008D03*
X983071Y1156693D03*
X982677Y1149213D03*
X973819Y1156102D03*
Y1149213D03*
X967323Y1147244D03*
%LPD*%
G75*
G36*
G01X798709Y1128248D02*
Y1128740D01*
X797870Y1128791D01*
X797921Y1127953D01*
X798413D01*
G03X798709Y1128248I0J295D01*
G37*
G36*
G01X798358Y1123268D02*
Y1123760D01*
X797520Y1123811D01*
X797571Y1122972D01*
X798063D01*
G03X798358Y1123268I0J295D01*
G37*
G36*
G01X817996Y1094606D02*
X817650Y1094252D01*
X818205Y1093626D01*
X818760Y1094252D01*
X818413Y1094606D01*
G03X817996I-209J-209D01*
G37*
G36*
G01X965126Y1113272D02*
G02X965406Y1113386I277J-280D01*
G01X977559D01*
G02X977953Y1112992I0J-394D01*
G01Y1094094D01*
G02X977559Y1093701I-394J0D01*
G01X970126D01*
G02X969732Y1094094I0J394D01*
G03X967276I-1228J0D01*
G02X966882Y1093701I-394J0D01*
G01X954224D01*
G02X953894Y1093878I-2J394D01*
G01X953528Y1094429D01*
G02X953492Y1094799I329J218D01*
G01X953496D01*
G03X953591Y1095276I-1135J473D01*
G03X952362Y1096504I-1228J0D01*
G03X951406Y1096043I0J-1224D01*
G02X951102Y1095898I-306J248D01*
G01X950472D01*
G02X950169Y1096043I3J394D01*
G03X949213Y1096504I-957J-763D01*
G03X947984Y1095276I0J-1228D01*
G03X948079Y1094799I1229J-4D01*
G01X948083D01*
G02X948047Y1094429I-364J-152D01*
G01X947681Y1093878D01*
G02X947350Y1093701I-329J217D01*
G01X932677D01*
G02X932283Y1094094I0J394D01*
G01Y1100382D01*
G02X932425Y1100685I394J1D01*
G01X932902Y1101075D01*
G02X933228Y1101157I251J-304D01*
G03X933465Y1101134I240J1204D01*
G03Y1103591I0J1228D01*
G03X933228Y1103567I4J-1228D01*
G02X932902Y1103650I-76J386D01*
G01X932425Y1104039D01*
G02X932283Y1104343I252J303D01*
G01Y1112992D01*
G02X932677Y1113386I394J0D01*
G01X961366D01*
G02X961646Y1113272I2J-394D01*
G01X962043Y1112874D01*
G02X962157Y1112598I-280J-277D01*
G01Y1112594D01*
G03X964614I1228J4D01*
G01Y1112598D01*
G02X964728Y1112874I394J-2D01*
G01X965126Y1113272D01*
G37*
%LPC*%
G75*
G36*
G01X959413Y1098256D02*
G02X959402Y1098425I1216J170D01*
G02X961858I1228J0D01*
G02X961846Y1098256I-1228J1D01*
G03X961898Y1098000I390J-55D01*
G01X962031Y1097776D01*
G03X962232Y1097610I337J205D01*
G02X963039Y1096457I-421J-1154D01*
G02X961811Y1095228I-1228J0D01*
G02X961094Y1095461I2J1228D01*
G01X961091D01*
G03X960862Y1095535I-231J-319D01*
G01X960398D01*
G03X960169Y1095461I2J-394D01*
G01X960165D01*
G02X959449Y1095228I-719J995D01*
G02X958220Y1096457I0J1228D01*
G02X959028Y1097610I1228J0D01*
G03X959228Y1097776I-136J370D01*
G01X959362Y1098000D01*
G03X959413Y1098256I-339J201D01*
G37*
G54D21*
X965354Y1101575D03*
%LPD*%
G75*
G54D10*
X797244Y797244D03*
Y1152362D03*
X1007087Y797244D03*
Y1152362D03*
G54D20*
G01X797921Y1128740D02*
X803937Y1122724D01*
Y1111024D01*
X820472Y1094488D01*
Y1093701D01*
G01X797571Y1123760D02*
X802756Y1118575D01*
Y1110531D01*
X818205Y1095083D01*
Y1093701D01*
G01X831890Y914567D02*
Y931890D01*
X833465Y933465D01*
G01X829902Y915165D02*
Y916748D01*
X829921Y916768D01*
Y933071D01*
X831496Y934646D01*
G01X938976Y961417D02*
X878346D01*
X861626Y944697D01*
Y881311D01*
X852807Y872492D01*
G01X937106Y959055D02*
X877953D01*
X862807Y943909D01*
Y872492D01*
G01X900390Y983457D02*
X894886Y977953D01*
X888181D01*
X877559Y988575D01*
Y1005118D01*
X875591Y1007087D01*
X867177D01*
X862531Y1002441D01*
G01X889244Y979626D02*
X882531Y986339D01*
Y1002441D01*
G01X872531D02*
Y984154D01*
G01X899213Y965157D02*
X901378D01*
X903150Y963386D01*
X948819D01*
X949941Y964508D01*
Y966496D01*
X948819Y967618D01*
G01X939370Y983465D02*
X937992Y982087D01*
X905807D01*
X902362Y985531D01*
X899980D01*
X894075Y979626D01*
X889244D01*
G01X892531Y1002441D02*
X896665Y998307D01*
X902484D01*
X911528Y989264D01*
X925484D01*
X927953Y991732D01*
G01X947638Y889764D02*
Y891346D01*
X927165Y911819D01*
Y918791D01*
X931102Y922728D01*
Y931996D01*
X919004Y944094D01*
X913780D01*
G01X945669Y887795D02*
Y890547D01*
X925591Y910626D01*
Y918890D01*
X929134Y922433D01*
Y932291D01*
X920776Y940650D01*
X914075D01*
X911417Y943307D01*
G01X982610Y922441D02*
X955941D01*
X952594Y925787D01*
X944685D01*
X919587Y950886D01*
X913287D01*
X910433Y948031D01*
G01X909252Y951969D02*
X910374Y953091D01*
X919744D01*
X940394Y932441D01*
X982610D01*
G01X935827Y969685D02*
X934244D01*
X933850Y969291D01*
X907488D01*
X906642Y970138D01*
X906638D01*
X905516Y971260D01*
G01X900787Y981102D02*
X902370D01*
X907882Y975591D01*
X935819D01*
X936465Y976236D01*
X938047D01*
G01X947343Y965354D02*
X903551D01*
X901976Y966929D01*
X900394D01*
G01X949606Y971260D02*
X948024D01*
X947531Y971752D01*
X911524D01*
X911031Y971260D01*
X909449D01*
G01X935827Y979031D02*
X934150Y980709D01*
X905512D01*
X902764Y983457D01*
X900390D01*
G01X922252Y987591D02*
X911417D01*
X909244Y989764D01*
X908268D01*
G01X909055Y987402D02*
X910539Y985917D01*
X924409D01*
G01X925197Y983858D02*
X923307D01*
X922717Y984449D01*
X908945D01*
G01X917323Y992028D02*
X911043D01*
X905394Y997677D01*
Y999579D01*
X902531Y1002441D01*
G01X911811Y993701D02*
X927839D01*
X932531Y998394D01*
Y1002441D01*
G01X922654Y1007067D02*
X907906D01*
X902531Y1012441D01*
G01X962984Y913394D02*
X951772Y924606D01*
X943484D01*
X918878Y949213D01*
X915748D01*
G01X959449Y914173D02*
X958327Y915295D01*
Y916043D01*
X951339Y923031D01*
X943386D01*
X920354Y946063D01*
X917819D01*
G01X922531Y1002441D02*
X927079Y1006988D01*
X962638D01*
G01X935827Y911417D02*
X946063D01*
X949606Y907874D01*
X951575D01*
G01X950394Y910236D02*
X946854Y913776D01*
X935437D01*
G01X933075Y908661D02*
X938583D01*
X947638Y899606D01*
G01X932185Y921260D02*
X950000D01*
X951610Y919650D01*
X951642D01*
X952764Y918528D01*
G01X950787Y914961D02*
X949606Y916142D01*
X932835D01*
X931846Y917130D01*
X930264D01*
G01X992610Y892441D02*
X999213Y899043D01*
Y913780D01*
X996063Y916929D01*
X974016D01*
X968807Y911720D01*
X959531D01*
X954398Y916854D01*
X952067D01*
X950169Y918752D01*
X932673D01*
G01X992610Y942441D02*
X988201Y946850D01*
X935433D01*
G01X937106Y959055D02*
X979224D01*
X982610Y962441D01*
G01X992610Y952441D02*
X987925Y957126D01*
Y965618D01*
X984252Y969291D01*
X939134D01*
X937165Y967323D01*
X934744D01*
G01X982610Y952441D02*
X986744Y956575D01*
Y964437D01*
X984252Y966929D01*
X981102D01*
X975591Y961417D01*
X938976D01*
G01X939370Y983465D02*
X942913D01*
X950394Y975984D01*
G01X947638Y899606D02*
X950000Y897244D01*
X991461D01*
X992610Y898394D01*
Y902441D01*
G01X951575Y907874D02*
X988043D01*
X992610Y912441D01*
G01X982610Y942441D02*
X948898D01*
G01X983858Y1008201D02*
Y1012441D01*
G01D02*
Y1016681D01*
G01X979618Y1012441D02*
X983858D01*
G01D02*
X988098D01*
G01X983858Y1022441D02*
Y1026681D01*
G01X979618Y1022441D02*
X983858D01*
G01D02*
X988098D01*
G01X1007480Y882677D02*
X1005898D01*
X1005661Y882441D01*
X992610D01*
G54D11*
G01X876772Y917717D02*
Y927843D01*
X877953Y929024D01*
Y931102D01*
G01X883465Y949803D02*
Y954724D01*
X798228Y858465D03*
X794094Y1068898D03*
X794382Y1087402D03*
X797630Y1112807D03*
X797921Y1128740D03*
X797571Y1123760D03*
X822441Y1027165D03*
X809646Y1055118D03*
X815354Y1094488D03*
X820472Y1093701D03*
X818205D03*
X813669Y1111665D03*
X811024Y1128740D03*
X816449Y1138437D03*
X829902Y915165D03*
X831890Y914567D03*
X831496Y934646D03*
X833465Y933465D03*
X829134Y1043701D03*
X827165Y1145866D03*
Y1138189D03*
X848425Y1030917D03*
X838583Y1107087D03*
X850787Y1106602D03*
X840748Y1130315D03*
X844484Y1131193D03*
X844492Y1133268D03*
X868898Y954724D03*
X867169Y1066925D03*
X868902Y1053941D03*
X861862Y1107480D03*
X883465Y916142D03*
X876772Y917717D03*
X883465Y937402D03*
X877953Y931102D03*
X883465Y954724D03*
Y949803D03*
X872531Y984154D03*
X870972Y1027953D03*
Y1031102D03*
X882087Y1048819D03*
X884161D03*
X881693Y1068906D03*
X872835Y1075787D03*
X883858Y1097638D03*
Y1095866D03*
X877516Y1092717D03*
X877559Y1090551D03*
X872047Y1108661D03*
X874409D03*
X876378Y1106693D03*
Y1104724D03*
X879331Y1125984D03*
X877756D03*
X899213Y965157D03*
X889244Y979626D03*
X886130Y1027953D03*
Y1031102D03*
X892520Y1065354D03*
Y1067323D03*
Y1063386D03*
X893504Y1118504D03*
X890748Y1124598D03*
X894094D03*
X897441D03*
X892126Y1136614D03*
X895669D03*
X903346Y939567D03*
X913780Y944094D03*
X911417Y943307D03*
X910433Y948031D03*
X909252Y951969D03*
X905516Y971260D03*
X900394Y966929D03*
X909449Y971260D03*
X900787Y981102D03*
X900390Y983457D03*
X908268Y989764D03*
X909055Y987402D03*
X908945Y984449D03*
X911811Y993701D03*
X901878Y1027953D03*
Y1031102D03*
X906496Y1047638D03*
Y1050197D03*
X911024Y1038583D03*
X913386D03*
X901181Y1063780D03*
X903256Y1063673D03*
X901181Y1068898D03*
X903150D03*
X900602Y1119291D03*
X900591Y1116929D03*
X911024Y1133276D03*
X926575Y884941D03*
X929528Y890846D03*
X922047Y906693D03*
X923126Y920079D03*
X930264Y917130D03*
X920079Y938976D03*
X915748Y949213D03*
X917819Y946063D03*
X917323Y992028D03*
X927953Y991732D03*
X922252Y987591D03*
X924409Y985917D03*
X925197Y983858D03*
X922654Y1007067D03*
X916142Y1038583D03*
X919291D03*
X922441Y1064370D03*
X919291Y1087598D03*
X918898Y1097638D03*
X918791Y1095276D03*
X918898Y1100000D03*
X930315Y1119291D03*
X930248Y1117217D03*
X923228Y1116142D03*
X930709Y870866D03*
X945669Y887795D03*
X935827Y911417D03*
X935437Y913776D03*
X933075Y908661D03*
X932185Y921260D03*
X932673Y918752D03*
X935433Y946850D03*
X937106Y959055D03*
X934744Y967323D03*
X935827Y969685D03*
X938047Y976236D03*
X938976Y961417D03*
X939370Y983465D03*
X935827Y979031D03*
X941142Y1028346D03*
X939567Y1112402D03*
X933465Y1107087D03*
X935827D03*
X937902D03*
X935539Y1122835D03*
X933465D03*
X947638Y889764D03*
Y899606D03*
X951575Y907874D03*
X950394Y910236D03*
X959449Y914173D03*
X950787Y914961D03*
X952764Y918528D03*
X948898Y942441D03*
X950394Y975984D03*
X947343Y965354D03*
X948819Y967618D03*
X947638Y973622D03*
X949606Y971260D03*
X953764Y1083268D03*
X958661Y1090157D03*
X962984Y913394D03*
X962638Y1006988D03*
X967555Y1027953D03*
X962598Y1090157D03*
X971654Y1095276D03*
X971646Y1097476D03*
X971669Y1099551D03*
X1007480Y882677D03*
X1001969Y1060827D03*
X999016Y1078020D03*
X1002756Y1141339D03*
X1005118D03*
X1007480D03*
G54D12*
G01X994346Y687303D02*
Y690402D01*
X995343Y687819D01*
X996339Y690402D01*
Y687303D01*
G01X999283Y690142D02*
X999055Y690299D01*
X998787Y690402D01*
X998480D01*
X998134Y690248D01*
X997866Y689988D01*
X997673Y689677D01*
X997520Y689161D01*
X997484Y688697D01*
X997559Y688232D01*
X997673Y687921D01*
X997906Y687614D01*
X998173Y687406D01*
X998441Y687303D01*
X998709D01*
X998976Y687406D01*
X999209Y687563D01*
X999398Y687768D01*
G01X1000697Y690402D02*
Y688181D01*
X1000850Y687717D01*
X1001157Y687406D01*
X1001539Y687303D01*
X1001921Y687406D01*
X1002228Y687717D01*
X1002382Y688181D01*
Y690402D01*
G01X1004638D02*
X1004331Y690299D01*
X1004102Y690039D01*
X1003949Y689728D01*
X1003835Y689319D01*
X1003795Y688850D01*
X1003835Y688386D01*
X1003949Y687976D01*
X1004102Y687665D01*
X1004331Y687406D01*
X1004638Y687303D01*
X1004945Y687406D01*
X1005173Y687665D01*
X1005327Y687976D01*
X1005441Y688386D01*
X1005480Y688850D01*
X1005441Y689319D01*
X1005327Y689728D01*
X1005173Y690039D01*
X1004945Y690299D01*
X1004638Y690402D01*
G01X1007661Y687303D02*
X1007736Y687976D01*
X1007850Y688543D01*
X1008004Y689059D01*
X1008197Y689626D01*
X1008504Y690402D01*
X1006969D01*
G01X1009992Y687768D02*
X1010220Y687508D01*
X1010488Y687354D01*
X1010835Y687303D01*
X1011181Y687406D01*
X1011449Y687614D01*
X1011638Y687976D01*
X1011677Y688386D01*
X1011602Y688799D01*
X1011409Y689059D01*
X1011142Y689264D01*
X1010874Y689319D01*
X1010606Y689264D01*
X1010260Y689059D01*
X1010374Y690402D01*
X1011409D01*
G01X1016264Y687303D02*
Y690402D01*
X1017224D01*
X1017531Y690248D01*
X1017720Y690039D01*
X1017799Y689626D01*
X1017720Y689213D01*
X1017492Y688957D01*
X1017224Y688799D01*
X1016264D01*
G01X1017224D02*
X1017799Y687303D01*
G01X1019555Y688697D02*
X1020780D01*
X1020665Y689059D01*
X1020476Y689264D01*
X1020205Y689370D01*
X1019937Y689319D01*
X1019709Y689161D01*
X1019555Y688799D01*
X1019480Y688492D01*
Y688181D01*
X1019555Y687870D01*
X1019748Y687563D01*
X1019976Y687354D01*
X1020244Y687303D01*
X1020512Y687406D01*
X1020780Y687717D01*
G01X1022539Y689370D02*
X1023228Y687303D01*
X1023917Y689370D01*
G01X1026327Y687201D02*
X1026252Y687252D01*
Y687354D01*
X1026327Y687406D01*
X1026402Y687354D01*
Y687252D01*
X1026327Y687201D01*
G01X1031567Y687303D02*
X1032524Y690402D01*
X1033480Y687303D01*
G01X1033138Y688386D02*
X1031909D01*
G01X994280Y698374D02*
Y695276D01*
X995815D01*
G01X997378D02*
Y698374D01*
X998299D01*
X998606Y698220D01*
X998835Y697858D01*
X998913Y697445D01*
X998835Y697031D01*
X998646Y696720D01*
X998299Y696567D01*
X997378D01*
G01X1000744Y696307D02*
X1001744D01*
G01X1005185Y698114D02*
X1004957Y698272D01*
X1004689Y698374D01*
X1004382D01*
X1004035Y698220D01*
X1003768Y697961D01*
X1003575Y697650D01*
X1003421Y697134D01*
X1003386Y696669D01*
X1003461Y696205D01*
X1003575Y695894D01*
X1003807Y695587D01*
X1004075Y695378D01*
X1004343Y695276D01*
X1004610D01*
X1004878Y695378D01*
X1005110Y695535D01*
X1005299Y695740D01*
G01X1008283Y698114D02*
X1008055Y698272D01*
X1007787Y698374D01*
X1007480D01*
X1007134Y698220D01*
X1006866Y697961D01*
X1006673Y697650D01*
X1006520Y697134D01*
X1006484Y696669D01*
X1006559Y696205D01*
X1006673Y695894D01*
X1006906Y695587D01*
X1007173Y695378D01*
X1007441Y695276D01*
X1007709D01*
X1007976Y695378D01*
X1008209Y695535D01*
X1008398Y695740D01*
G01X1009811Y697858D02*
X1010039Y698169D01*
X1010311Y698323D01*
X1010614Y698374D01*
X1011000Y698272D01*
X1011268Y698012D01*
X1011343Y697701D01*
X1011307Y697394D01*
X1011154Y697134D01*
X1010386Y696618D01*
X1010039Y696256D01*
X1009811Y695740D01*
X1009736Y695276D01*
X1011343D01*
G01X1012909Y696567D02*
X1013177Y696929D01*
X1013409Y697134D01*
X1013713Y697236D01*
X1013984Y697134D01*
X1014173Y696929D01*
X1014327Y696618D01*
X1014366Y696256D01*
X1014327Y695949D01*
X1014173Y695638D01*
X1013945Y695378D01*
X1013677Y695276D01*
X1013370Y695378D01*
X1013102Y695689D01*
X1012949Y696154D01*
X1012909Y696669D01*
X1012988Y697343D01*
X1013102Y697701D01*
X1013291Y698063D01*
X1013563Y698323D01*
X1013831Y698374D01*
X1014098Y698272D01*
X1014287Y698012D01*
G01X1015894Y695740D02*
X1016122Y695480D01*
X1016390Y695327D01*
X1016736Y695276D01*
X1017083Y695378D01*
X1017350Y695587D01*
X1017539Y695949D01*
X1017579Y696358D01*
X1017504Y696772D01*
X1017311Y697031D01*
X1017043Y697236D01*
X1016776Y697291D01*
X1016508Y697236D01*
X1016161Y697031D01*
X1016276Y698374D01*
X1017311D01*
G01X1019106Y697858D02*
X1019335Y698169D01*
X1019606Y698323D01*
X1019909Y698374D01*
X1020295Y698272D01*
X1020563Y698012D01*
X1020638Y697701D01*
X1020602Y697394D01*
X1020449Y697134D01*
X1019681Y696618D01*
X1019335Y696256D01*
X1019106Y695740D01*
X1019031Y695276D01*
X1020638D01*
G01X1022165D02*
Y698374D01*
X1023126D01*
X1023433Y698220D01*
X1023622Y698012D01*
X1023701Y697598D01*
X1023622Y697185D01*
X1023394Y696929D01*
X1023126Y696772D01*
X1022165D01*
G01X1023126D02*
X1023701Y695276D01*
G01X1025957D02*
X1026031Y695949D01*
X1026146Y696516D01*
X1026299Y697031D01*
X1026492Y697598D01*
X1026799Y698374D01*
X1025264D01*
X799409Y982957D03*
Y992012D03*
X872638Y797244D03*
X863272Y1152756D03*
X872327D03*
X931693Y797244D03*
X1005516Y992043D03*
Y982988D03*
G54D13*
X799213Y1014173D03*
G54D14*
G01X791634Y721260D02*
Y662205D01*
X1086909D01*
Y721260D01*
X791634D01*
G01X939272D02*
Y662205D01*
G01Y681890D02*
X1086909D01*
G01Y701575D02*
X939272D01*
G01X989177D02*
Y681890D01*
X798169Y1106024D03*
X802165Y1136024D03*
X794173D03*
G54D15*
X812598Y832362D03*
Y852362D03*
Y842362D03*
X822531Y872441D03*
Y882441D03*
X812531Y872441D03*
Y882441D03*
X822531Y892441D03*
Y902441D03*
X812531Y892441D03*
Y902441D03*
X822531Y912441D03*
X812531D03*
X822531Y922441D03*
Y932441D03*
X812531Y922441D03*
Y932441D03*
X822531Y942441D03*
X812531D03*
X822531Y952441D03*
Y962441D03*
X812531Y952441D03*
Y962441D03*
X832531Y1002441D03*
Y1012441D03*
X852807Y862492D03*
Y872492D03*
X842531Y1002441D03*
X852531D03*
X842531Y1012441D03*
X852531D03*
X862807Y862492D03*
Y872492D03*
X862531Y1002441D03*
Y1012441D03*
X872531Y1002441D03*
X882531D03*
X872531Y1012441D03*
X882531D03*
X892531Y1002441D03*
X902531D03*
X892531Y1012441D03*
X902531D03*
X912531Y1002441D03*
Y1012441D03*
X922531Y1002441D03*
X932531D03*
X922531Y1012441D03*
X932531D03*
X992520Y832362D03*
Y852362D03*
Y842362D03*
X992610Y872441D03*
Y882441D03*
X982610Y872441D03*
Y882441D03*
X992610Y892441D03*
Y902441D03*
X982610Y892441D03*
Y902441D03*
X992610Y912441D03*
X982610D03*
X992610Y922441D03*
Y932441D03*
X982610Y922441D03*
Y932441D03*
X992610Y942441D03*
X982610D03*
X992610Y952441D03*
Y962441D03*
X982610Y952441D03*
Y962441D03*
X983858Y1002441D03*
Y1012441D03*
Y1022441D03*
G54D16*
X816732Y1152165D03*
X847835D03*
G54D17*
G01X883465Y916142D02*
Y937402D01*
G01X903346Y939567D02*
X905630D01*
X906220Y938976D01*
X920079D01*
G01X926575Y884941D02*
X928445Y883071D01*
X938071D01*
X939941Y884941D01*
G01X929528Y890846D02*
X934035D01*
X939941Y884941D01*
G01X922047Y906693D02*
Y919000D01*
X923126Y920079D01*
G01X947087Y877795D02*
X940157Y870866D01*
X930709D01*
G01X939941Y884941D02*
X947087Y877795D01*
G01X992520Y832362D02*
X947087Y877795D01*
G54D18*
G01X812598Y832362D02*
X790551Y854409D01*
Y952362D01*
X805906Y967717D01*
X817256D01*
X822531Y962441D01*
G01X798228Y858465D02*
X794882Y861811D01*
Y944791D01*
X812531Y962441D01*
G01D02*
X817492Y957480D01*
X853150D01*
G01X842531Y1002441D02*
Y982441D01*
X822531Y962441D01*
G01X852531Y1002441D02*
Y958098D01*
X853150Y957480D01*
G01X868898Y954724D02*
X861756D01*
X859000Y957480D01*
X853150D01*
G01X947638Y973622D02*
X887795D01*
X868898Y954724D01*
G01X947638Y973622D02*
X968898D01*
G01X983858Y1002441D02*
X978346Y996929D01*
Y983071D01*
X968898Y973622D01*
G01D02*
X991732D01*
X1014764Y950591D01*
Y854606D01*
X992520Y832362D01*
G54D19*
G01X793157Y787402D02*
X1011961D01*
G03X1017717Y793157I0J5756D01*
G01Y962598D01*
G03X1013386Y975000I-19922J0D01*
G02X1009055Y987402I15591J12402D01*
G02X1013386Y999803I19922J0D01*
G03X1017717Y1012205I-15591J12402D01*
G01Y1156843D01*
G03X1011961Y1162598I-5756J0D01*
G01X849606D01*
Y1157874D01*
X843307D01*
Y1149606D01*
X839764D01*
Y1157874D01*
X824803D01*
Y1149606D01*
X821260D01*
Y1157874D01*
X814961D01*
Y1162598D01*
X793157D01*
G03X787402Y1156843I0J-5756D01*
G01Y1012205D01*
G03X791732Y999803I19922J0D01*
G02X796063Y987402I-15591J-12402D01*
G02X791732Y975000I-19922J0D01*
G03X787402Y962598I15591J-12402D01*
G01Y793157D01*
G03X793157Y787402I5756J0D01*
G01X951602Y668650D02*
Y676150D01*
X953469D01*
X954213Y675776D01*
X954772Y675276D01*
X955240Y674524D01*
X955614Y673650D01*
X955705Y672398D01*
X955614Y671150D01*
X955240Y670276D01*
X954772Y669524D01*
X954213Y669024D01*
X953469Y668650D01*
X951602D01*
G01X958819D02*
X961154Y676150D01*
X963488Y668650D01*
G01X962646Y671276D02*
X959661D01*
G01X968654Y676150D02*
Y668650D01*
G01X966508Y676150D02*
X970799D01*
G01X978020Y668650D02*
X974287D01*
Y676150D01*
X978020D01*
G01X976528Y672524D02*
X974287D01*
G01X983654Y668402D02*
X983469Y668524D01*
Y668776D01*
X983654Y668898D01*
X983839Y668776D01*
Y668524D01*
X983654Y668402D01*
G01Y671776D02*
X983469Y671898D01*
Y672150D01*
X983654Y672276D01*
X983839Y672150D01*
Y671898D01*
X983654Y671776D01*
G01X996882Y674902D02*
X997441Y675650D01*
X998094Y676024D01*
X998839Y676150D01*
X999772Y675902D01*
X1000425Y675276D01*
X1000614Y674524D01*
X1000520Y673776D01*
X1000146Y673150D01*
X998280Y671898D01*
X997441Y671024D01*
X996882Y669776D01*
X996693Y668650D01*
X1000614D01*
G01X1006154Y676150D02*
X1005406Y675902D01*
X1004846Y675276D01*
X1004472Y674524D01*
X1004193Y673524D01*
X1004102Y672398D01*
X1004193Y671276D01*
X1004472Y670276D01*
X1004846Y669524D01*
X1005406Y668898D01*
X1006154Y668650D01*
X1006902Y668898D01*
X1007461Y669524D01*
X1007835Y670276D01*
X1008114Y671276D01*
X1008205Y672398D01*
X1008114Y673524D01*
X1007835Y674524D01*
X1007461Y675276D01*
X1006902Y675902D01*
X1006154Y676150D01*
G01X1011882Y674902D02*
X1012441Y675650D01*
X1013094Y676024D01*
X1013839Y676150D01*
X1014772Y675902D01*
X1015425Y675276D01*
X1015614Y674524D01*
X1015520Y673776D01*
X1015146Y673150D01*
X1013280Y671898D01*
X1012441Y671024D01*
X1011882Y669776D01*
X1011693Y668650D01*
X1015614D01*
G01X1021154D02*
Y676150D01*
X1020035Y674650D01*
G01Y668650D02*
X1022272D01*
G01X1027441Y671150D02*
X1029866D01*
G01X1036154Y676150D02*
X1035406Y675902D01*
X1034846Y675276D01*
X1034472Y674524D01*
X1034193Y673524D01*
X1034102Y672398D01*
X1034193Y671276D01*
X1034472Y670276D01*
X1034846Y669524D01*
X1035406Y668898D01*
X1036154Y668650D01*
X1036902Y668898D01*
X1037461Y669524D01*
X1037835Y670276D01*
X1038114Y671276D01*
X1038205Y672398D01*
X1038114Y673524D01*
X1037835Y674524D01*
X1037461Y675276D01*
X1036902Y675902D01*
X1036154Y676150D01*
G01X1041602Y669776D02*
X1042161Y669150D01*
X1042815Y668776D01*
X1043654Y668650D01*
X1044492Y668898D01*
X1045146Y669398D01*
X1045614Y670276D01*
X1045705Y671276D01*
X1045520Y672276D01*
X1045051Y672902D01*
X1044402Y673398D01*
X1043748Y673524D01*
X1043094Y673398D01*
X1042256Y672902D01*
X1042535Y676150D01*
X1045051D01*
G01X1049941Y671150D02*
X1052366D01*
G01X1056882Y674902D02*
X1057441Y675650D01*
X1058094Y676024D01*
X1058839Y676150D01*
X1059772Y675902D01*
X1060425Y675276D01*
X1060614Y674524D01*
X1060520Y673776D01*
X1060146Y673150D01*
X1058280Y671898D01*
X1057441Y671024D01*
X1056882Y669776D01*
X1056693Y668650D01*
X1060614D01*
G01X1065969D02*
X1066154Y670276D01*
X1066433Y671650D01*
X1066807Y672902D01*
X1067272Y674276D01*
X1068020Y676150D01*
X1064287D01*
G01X959496Y696280D02*
Y688780D01*
X963228D01*
G01X966811Y690280D02*
X967370Y689406D01*
X968114Y688906D01*
X968957Y688780D01*
X969701Y688906D01*
X970449Y689528D01*
X970913Y690280D01*
X971008Y691028D01*
X970823Y691906D01*
X970169Y692528D01*
X969516Y692780D01*
X968677D01*
G01X969516D02*
X970075Y693154D01*
X970543Y693780D01*
X970728Y694528D01*
X970543Y695280D01*
X970075Y695906D01*
X969236Y696280D01*
X968398Y696154D01*
X967555Y695654D01*
G01X953457Y715323D02*
Y707823D01*
G01X951311Y715323D02*
X955602D01*
G01X962823Y707823D02*
X959091D01*
Y715323D01*
X962823D01*
G01X961331Y711697D02*
X959091D01*
G01X966496Y707823D02*
X970417Y715323D01*
G01X966496D02*
X970417Y707823D01*
G01X973622D02*
X975957Y715323D01*
X978291Y707823D01*
G01X977449Y710449D02*
X974465D01*
G01X981496Y708823D02*
X982244Y708197D01*
X983083Y707823D01*
X983831D01*
X984575Y708197D01*
X985138Y708823D01*
X985417Y709697D01*
X985228Y710571D01*
X984764Y711323D01*
X983921Y711823D01*
X982803Y712075D01*
X982150Y712571D01*
X981870Y713449D01*
X982059Y714323D01*
X982524Y714949D01*
X983177Y715323D01*
X983831D01*
X984484Y715075D01*
X985043Y714449D01*
G01X997339Y715323D02*
X999575D01*
G01X998457D02*
Y707823D01*
G01X997339D02*
X999575D01*
G01X1003811D02*
Y715323D01*
X1008102Y707823D01*
Y715323D01*
G01X1011496Y708823D02*
X1012244Y708197D01*
X1013083Y707823D01*
X1013831D01*
X1014575Y708197D01*
X1015138Y708823D01*
X1015417Y709697D01*
X1015228Y710571D01*
X1014764Y711323D01*
X1013921Y711823D01*
X1012803Y712075D01*
X1012150Y712571D01*
X1011870Y713449D01*
X1012059Y714323D01*
X1012524Y714949D01*
X1013177Y715323D01*
X1013831D01*
X1014484Y715075D01*
X1015043Y714449D01*
G01X1020957Y715323D02*
Y707823D01*
G01X1018811Y715323D02*
X1023102D01*
G01X1026591Y707823D02*
Y715323D01*
X1028921D01*
X1029669Y714949D01*
X1030138Y714449D01*
X1030323Y713449D01*
X1030138Y712449D01*
X1029575Y711823D01*
X1028921Y711449D01*
X1026591D01*
G01X1028921D02*
X1030323Y707823D01*
G01X1033906Y715323D02*
Y709949D01*
X1034276Y708823D01*
X1035024Y708071D01*
X1035957Y707823D01*
X1036890Y708071D01*
X1037638Y708823D01*
X1038008Y709949D01*
Y715323D01*
G01X1041031Y707823D02*
Y715323D01*
X1043457Y709071D01*
X1045882Y715323D01*
Y707823D01*
G01X1052823D02*
X1049091D01*
Y715323D01*
X1052823D01*
G01X1051331Y711697D02*
X1049091D01*
G01X1056311Y707823D02*
Y715323D01*
X1060602Y707823D01*
Y715323D01*
G01X1065957D02*
Y707823D01*
G01X1063811Y715323D02*
X1068102D01*
G01X1071496Y708823D02*
X1072244Y708197D01*
X1073083Y707823D01*
X1073831D01*
X1074575Y708197D01*
X1075138Y708823D01*
X1075417Y709697D01*
X1075228Y710571D01*
X1074764Y711323D01*
X1073921Y711823D01*
X1072803Y712075D01*
X1072150Y712571D01*
X1071870Y713449D01*
X1072059Y714323D01*
X1072524Y714949D01*
X1073177Y715323D01*
X1073831D01*
X1074484Y715075D01*
X1075043Y714449D01*
M02*
