G04 ================== begin FILE IDENTIFICATION RECORD ==================*
G04 Layout Name:  MCU075A.brd*
G04 Film Name:    MCU075A_silk_top*
G04 File Format:  Gerber RS274X*
G04 File Origin:  Cadence Allegro 17.2-S072*
G04 Origin Date:  Wed Aug 04 16:23:21 2021*
G04 *
G04 Layer:  DRAWING FORMAT/TITLE_BLOCK*
G04 Layer:  BOARD GEOMETRY/TOP SILK*
G04 Layer:  DEVICE TYPE/SILKSCREEN_TOP*
G04 Layer:  PACKAGE GEOMETRY/SILKSCREEN_TOP*
G04 Layer:  MANUFACTURING/AUTOSILK_TOP*
G04 Layer:  BOARD GEOMETRY/OUTLINE*
G04 *
G04 Offset:    (0.000 0.000)*
G04 Mirror:    No*
G04 Mode:      Positive*
G04 Rotation:  0*
G04 FullContactRelief:  No*
G04 UndefLineWidth:     0.099*
G04 ================== end FILE IDENTIFICATION RECORD ====================*
%FSLAX25Y25*MOIN*%
%IR0*IPPOS*OFA0.00000B0.00000*MIA0B0*SFA1.00000B1.00000*%
%ADD10C,.003898*%
%ADD11C,.003937*%
%ADD12C,.011811*%
%ADD13C,.019685*%
%ADD14C,.005906*%
%ADD15C,.007087*%
G75*
%LPD*%
G75*
G36*
G01X789193Y827862D02*
X803394D01*
X807969Y832437D01*
X803445Y836961D01*
X789193D01*
Y832413D01*
Y827862D01*
G37*
G36*
G01X789031Y847736D02*
X803232D01*
X807807Y852311D01*
X805543Y854571D01*
X803283Y856835D01*
X789031D01*
Y852283D01*
Y847736D01*
G37*
G36*
G01Y837894D02*
X803232D01*
X807807Y842469D01*
X805543Y844728D01*
X803283Y846992D01*
X789031D01*
Y842441D01*
Y837894D01*
G37*
G36*
G01X804106Y967094D02*
X789906D01*
Y958047D01*
X804106D01*
X806370Y960307D01*
X808630Y962571D01*
X806370Y964831D01*
X804106Y967094D01*
G37*
G36*
G01X845807Y966941D02*
X831606D01*
X827031Y962366D01*
X831555Y957843D01*
X845807D01*
Y962390D01*
Y966941D01*
G37*
G36*
G01X846008Y957382D02*
X831807D01*
X827232Y952807D01*
X829496Y950547D01*
X831756Y948283D01*
X846008D01*
Y952835D01*
Y957382D01*
G37*
G36*
G01X837303Y979583D02*
Y993783D01*
X832728Y998358D01*
X830469Y996094D01*
X828205Y993835D01*
Y979583D01*
X832756D01*
X837303D01*
G37*
G36*
G01X847866Y993870D02*
Y979669D01*
X856913D01*
Y993870D01*
X854654Y996134D01*
X852390Y998394D01*
X850130Y996134D01*
X847866Y993870D01*
G37*
G36*
G01X846941Y979744D02*
Y993945D01*
X842366Y998520D01*
X837843Y993996D01*
Y979744D01*
X842390D01*
X846941D01*
G37*
G36*
G01X920854Y829331D02*
X919957D01*
Y831988D01*
X916240D01*
Y826433D01*
X912295D01*
X912327Y826291D01*
X912362Y826154D01*
X912398Y826016D01*
X912437Y825882D01*
X912484Y825748D01*
X912531Y825622D01*
X912591Y825500D01*
X912657Y825386D01*
X912732Y825276D01*
X912776Y825224D01*
X912913Y825083D01*
X913016Y824992D01*
X913126Y824906D01*
X913232Y824823D01*
X913343Y824736D01*
X913465Y824638D01*
X913551Y824559D01*
X913650Y824461D01*
X913744Y824362D01*
X913831Y824256D01*
X913917Y824154D01*
X914004Y824043D01*
X914087Y823937D01*
X914130Y823795D01*
X914169Y823657D01*
X914209Y823516D01*
X914252Y823374D01*
X914295Y823236D01*
X914339Y823098D01*
X914390Y822961D01*
X914437Y822823D01*
X914492Y822689D01*
X914551Y822555D01*
X914634Y822378D01*
X914681Y822291D01*
X914752Y822161D01*
X914835Y822043D01*
X914933Y821929D01*
X915047Y821831D01*
X915173Y821752D01*
X915319Y821693D01*
X915469Y821657D01*
X915614Y821654D01*
X915724Y821677D01*
X915878Y821748D01*
X915992Y821839D01*
X916098Y821949D01*
X916193Y822067D01*
X916291Y822189D01*
X916382Y822307D01*
X916480Y822421D01*
X916579Y822524D01*
X916689Y822614D01*
X916819Y822689D01*
X916949Y822740D01*
X917130Y822768D01*
X917240Y822756D01*
X917382Y822717D01*
X917516Y822650D01*
X917673Y822531D01*
X917752Y822465D01*
X917850Y822354D01*
X917941Y822240D01*
X918020Y822118D01*
X918094Y821992D01*
X918142Y821909D01*
X918236Y821736D01*
X918303Y821606D01*
X918370Y821476D01*
X918437Y821346D01*
X918500Y821217D01*
X918559Y821083D01*
X918610Y820972D01*
X918681Y820819D01*
X918740Y820685D01*
X918803Y820551D01*
X918862Y820417D01*
X918921Y820287D01*
X918984Y820154D01*
X919079Y819961D01*
X919114Y819894D01*
X919177Y819764D01*
X919248Y819634D01*
X919319Y819508D01*
X919398Y819386D01*
X919476Y819260D01*
X919555Y819142D01*
X919646Y819020D01*
X919701Y818945D01*
X919831Y818791D01*
X919933Y818681D01*
X920035Y818575D01*
X920146Y818472D01*
X920256Y818374D01*
X920370Y818283D01*
X920484Y818197D01*
X920638Y818091D01*
X920713Y818043D01*
X920831Y817976D01*
X920949Y817913D01*
X921075Y817862D01*
X921201Y817819D01*
X921335Y817780D01*
X921476Y817748D01*
X921622Y817724D01*
X921780Y817709D01*
X921949Y817701D01*
X922197Y817697D01*
X922319Y817705D01*
X922516Y817717D01*
X922705Y817744D01*
X922874Y817783D01*
X923008Y817835D01*
X923098Y817906D01*
X923134Y818012D01*
X923102Y818106D01*
X923020Y818232D01*
X922913Y818366D01*
X922858Y818740D01*
X922811Y819110D01*
X922787Y819469D01*
X922795Y819811D01*
X922835Y820083D01*
X922949Y820437D01*
X923102Y820717D01*
X923295Y820972D01*
X923528Y821217D01*
X923795Y821441D01*
X924091Y821650D01*
X924413Y821850D01*
X924760Y822035D01*
X925122Y822217D01*
X925496Y822394D01*
X925878Y822563D01*
X926264Y822732D01*
X926953D01*
Y825886D01*
X926252Y826587D01*
Y829331D01*
X923055D01*
X922665Y827252D01*
X923602D01*
X923366Y825929D01*
X922508D01*
X921984Y823154D01*
X922661Y823157D01*
Y822043D01*
G02X922378Y821681I-316J-45D01*
G01X920193D01*
G02X919547Y822185I-43J611D01*
G01Y822500D01*
X920161Y825929D01*
X919248D01*
X919531Y827252D01*
X920508D01*
X920854Y829331D01*
G37*
G36*
G01X932587Y823547D02*
Y823177D01*
X930563D01*
Y823547D01*
X930787D01*
G03X930980Y823740I-1J194D01*
G01Y828244D01*
G03X930787Y828441I-194J3D01*
G01X929638D01*
G03X929500Y828382I2J-194D01*
G01X928984Y827870D01*
X929173Y829075D01*
X933972D01*
X934165Y827870D01*
X933646Y828382D01*
G03X933512Y828441I-139J-135D01*
G01X932362D01*
G03X932165Y828244I-2J-195D01*
G01Y823740D01*
G03X932362Y823547I195J2D01*
G01X932587D01*
G37*
G36*
G01X921185Y829551D02*
X921543Y831118D01*
X923181D01*
X922823Y829551D01*
X921185D01*
G37*
G36*
G01Y829331D02*
X919937Y823157D01*
X921575D01*
X922823Y829331D01*
X921185D01*
G37*
G36*
G01X944421Y816539D02*
Y816248D01*
X942823D01*
Y816539D01*
X943000D01*
G03X943154Y816689I1J152D01*
G01Y820248D01*
G03X943000Y820402I-153J1D01*
G01X942094D01*
G03X941984Y820358I-3J-153D01*
G01X941579Y819953D01*
X941728Y820906D01*
X945520D01*
X945669Y819953D01*
X945260Y820358D01*
G03X945154Y820402I-107J-110D01*
G01X944244D01*
G03X944091Y820248I0J-153D01*
G01Y816689D01*
G03X944244Y816539I153J3D01*
G01X944421D01*
G37*
G36*
G01X932138Y816913D02*
G03X932449Y816602I312J1D01*
G01X932618D01*
Y816248D01*
X930563Y816240D01*
Y816602D01*
X930728D01*
G03X931043Y816913I2J313D01*
G01Y821748D01*
G03X930728Y822059I-312J-1D01*
G01X930563D01*
Y822327D01*
X932587D01*
Y822059D01*
X932449D01*
G03X932138Y821748I0J-312D01*
G01Y816913D01*
G37*
G36*
G01X932890Y816602D02*
X933185D01*
G03X933343Y816760I1J157D01*
G01Y820421D01*
G03X933185Y820575I-156J-3D01*
G01X932866D01*
Y820921D01*
X934303D01*
G02X934421Y820866I-1J-156D01*
G01X936657Y818280D01*
Y820390D01*
G03X936500Y820543I-156J-2D01*
G01X936118D01*
Y820921D01*
X937689D01*
Y820543D01*
X937358D01*
G03X937205Y820390I2J-155D01*
G01Y816248D01*
X936961D01*
G02X936843Y816299I-3J155D01*
G01X934142Y819429D01*
Y816760D01*
G03X934295Y816602I156J-2D01*
G01X934531D01*
Y816248D01*
X932890D01*
Y816602D01*
G37*
G36*
G01X938177Y816291D02*
X937783Y817736D01*
X937965Y817780D01*
X938039Y817677D01*
X938118Y817575D01*
X938197Y817472D01*
X938276Y817378D01*
X938358Y817287D01*
X938445Y817205D01*
X938539Y817126D01*
X938634Y817059D01*
X938744Y817004D01*
X938846Y816957D01*
X938965Y816921D01*
X939083Y816894D01*
X939228Y816862D01*
X939327Y816843D01*
X939453Y816819D01*
X939579Y816799D01*
X939701Y816787D01*
X939827Y816783D01*
X939949Y816787D01*
X940067Y816807D01*
X940185Y816835D01*
X940311Y816886D01*
X940409Y816945D01*
X940512Y817024D01*
X940594Y817118D01*
X940669Y817272D01*
X940681Y817343D01*
X940677Y817465D01*
X940646Y817591D01*
X940591Y817709D01*
X940488Y817843D01*
X940429Y817898D01*
X940327Y817965D01*
X940213Y818020D01*
X940098Y818059D01*
X939929Y818098D01*
X939854Y818114D01*
X939732Y818134D01*
X939614Y818154D01*
X939496Y818169D01*
X939374Y818189D01*
X939256Y818205D01*
X939138Y818224D01*
X939016Y818244D01*
X938898Y818272D01*
X938819Y818287D01*
X938654Y818335D01*
X938535Y818378D01*
X938421Y818429D01*
X938315Y818488D01*
X938217Y818555D01*
X938130Y818634D01*
X938055Y818728D01*
X937992Y818831D01*
X937945Y818941D01*
X937906Y819059D01*
X937878Y819185D01*
X937862Y819311D01*
X937850Y819500D01*
Y819571D01*
X937858Y819701D01*
X937874Y819827D01*
X937898Y819949D01*
X937933Y820067D01*
X937976Y820181D01*
X938031Y820287D01*
X938106Y820390D01*
X938177Y820476D01*
X938268Y820555D01*
X938366Y820630D01*
X938472Y820697D01*
X938583Y820752D01*
X938697Y820803D01*
X938870Y820862D01*
X938933Y820882D01*
X939055Y820909D01*
X939173Y820933D01*
X939291Y820949D01*
X939413Y820961D01*
X939531Y820965D01*
X939657D01*
X939783Y820957D01*
X939906Y820941D01*
X940024Y820917D01*
X940142Y820882D01*
X940232Y820850D01*
X940366Y820791D01*
X940472Y820732D01*
X940579Y820673D01*
Y820969D01*
X940921D01*
X941224Y819650D01*
X941114Y819539D01*
X941020Y819610D01*
X940925Y819685D01*
X940831Y819752D01*
X940736Y819823D01*
X940634Y819886D01*
X940528Y819945D01*
X940429Y819996D01*
X940319Y820043D01*
X940205Y820083D01*
X940091Y820114D01*
X939976Y820142D01*
X939858Y820165D01*
X939787Y820173D01*
X939626Y820189D01*
X939508Y820193D01*
X939390Y820185D01*
X939291Y820173D01*
X939150Y820146D01*
X939035Y820106D01*
X938933Y820047D01*
X938882Y819996D01*
X938799Y819846D01*
X938772Y819724D01*
X938776Y819598D01*
X938807Y819500D01*
X938878Y819394D01*
X938972Y819323D01*
X939083Y819268D01*
X939205Y819224D01*
X939315Y819193D01*
X939449Y819165D01*
X939567Y819146D01*
X939685Y819130D01*
X939799Y819114D01*
X939913Y819098D01*
X940031Y819079D01*
X940142Y819059D01*
X940256Y819031D01*
X940370Y819004D01*
X940484Y818972D01*
X940591Y818941D01*
X940713Y818898D01*
X940827Y818854D01*
X940933Y818807D01*
X941039Y818752D01*
X941138Y818685D01*
X941217Y818622D01*
X941307Y818524D01*
X941374Y818429D01*
X941437Y818327D01*
X941484Y818217D01*
X941528Y818102D01*
X941559Y817984D01*
X941583Y817870D01*
X941594Y817748D01*
X941602Y817630D01*
X941598Y817512D01*
X941583Y817394D01*
X941559Y817272D01*
X941531Y817161D01*
X941492Y817051D01*
X941445Y816941D01*
X941390Y816835D01*
X941323Y816732D01*
X941252Y816638D01*
X941165Y816543D01*
X941083Y816469D01*
X940988Y816398D01*
X940886Y816335D01*
X940780Y816276D01*
X940669Y816228D01*
X940555Y816189D01*
X940437Y816154D01*
X940319Y816130D01*
X940197Y816110D01*
X940075Y816098D01*
X939941D01*
X939839Y816102D01*
X939720Y816114D01*
X939602Y816130D01*
X939488Y816154D01*
X939374Y816181D01*
X939260Y816213D01*
X939146Y816252D01*
X939035Y816291D01*
X938921Y816331D01*
X938811Y816374D01*
X938701Y816421D01*
X938591Y816469D01*
Y816291D01*
X938177D01*
G37*
G36*
G01X937878Y827291D02*
X939091Y825579D01*
G02Y825398I-128J-91D01*
G01X937890Y823665D01*
G02X937760Y823598I-128J89D01*
G01X937457D01*
Y823177D01*
X938882D01*
Y823598D01*
X938614D01*
X939520Y824972D01*
X940488Y823598D01*
X940201D01*
Y823177D01*
X941819D01*
Y823598D01*
X941772D01*
G02X941646Y823665I2J156D01*
G01X940429Y825402D01*
G02Y825575I130J87D01*
G01X941520Y827283D01*
G02X941650Y827358I133J-81D01*
G01X942004D01*
Y827866D01*
X940323D01*
Y827500D01*
Y827358D01*
X940776D01*
X939965Y826122D01*
X939150Y827358D01*
X939646D01*
Y827866D01*
X937445D01*
Y827358D01*
X937752D01*
G02X937878Y827291I-2J-156D01*
G37*
G36*
G01X944835Y823177D02*
Y823598D01*
X944969D01*
G03X945118Y823807I2J156D01*
G01X944016Y826886D01*
X943272Y824969D01*
X944677D01*
X944839Y824520D01*
X943098Y824516D01*
X942823Y823811D01*
G03X942969Y823598I146J-56D01*
G01X942996D01*
Y823177D01*
X941917D01*
Y823598D01*
X941941D01*
G03X942087Y823697I0J157D01*
G01X943697Y827866D01*
X944752D01*
X946280Y823701D01*
G03X946425Y823598I146J53D01*
G01X946594D01*
Y823177D01*
X944835D01*
G37*
G36*
G01X936496Y826138D02*
X936606D01*
Y824972D01*
X936496D01*
X936339Y825173D01*
G03X936217Y825232I-122J-97D01*
G01X934622D01*
Y823724D01*
X936630D01*
G03X936744Y823772I2J157D01*
G01X937228Y824280D01*
X937362D01*
X937020Y823283D01*
G02X936870Y823177I-148J50D01*
G01X933303D01*
Y823346D01*
X933740Y823575D01*
G03X933827Y823713I-70J140D01*
G01Y827193D01*
G03X933748Y827327I-156J-2D01*
G01X933303Y827591D01*
Y827858D01*
X936685D01*
G02X936827Y827760I-3J-155D01*
G01X937252Y826740D01*
X937020Y826642D01*
X936606Y827094D01*
G03X936492Y827146I-116J-105D01*
G01X934622D01*
Y825945D01*
X936228D01*
G03X936335Y825988I-1J155D01*
G01X936496Y826138D01*
G37*
G36*
G01X946319Y816685D02*
Y820476D01*
G03X946161Y820634I-156J1D01*
G01X945874D01*
Y820898D01*
X948780D01*
X948874Y820882D01*
X948969Y820866D01*
X949016Y820858D01*
X949059Y820846D01*
X949118Y820831D01*
X949154Y820823D01*
X949197Y820807D01*
X949244Y820787D01*
X949287Y820768D01*
X949331Y820748D01*
X949374Y820724D01*
X949413Y820701D01*
X949457Y820673D01*
X949492Y820646D01*
X949531Y820618D01*
X949571Y820587D01*
X949606Y820551D01*
X949626Y820531D01*
X949673Y820480D01*
X949705Y820445D01*
X949732Y820406D01*
X949760Y820366D01*
X949787Y820323D01*
X949811Y820280D01*
X949831Y820236D01*
X949850Y820193D01*
X949866Y820150D01*
X949882Y820102D01*
X949894Y820051D01*
X949902Y820012D01*
X949909Y819965D01*
X949913Y819917D01*
X949917Y819870D01*
X949921Y819823D01*
X949925Y819630D01*
Y819587D01*
X949929Y819531D01*
X949933Y819437D01*
X949937Y819386D01*
Y819339D01*
Y819291D01*
X949933Y819244D01*
X949929Y819197D01*
X949921Y819173D01*
X949917Y819150D01*
X949913Y819134D01*
X949906Y819106D01*
X949894Y819083D01*
X949886Y819059D01*
X949874Y819039D01*
X949862Y819020D01*
X949839Y818976D01*
X949811Y818933D01*
X949780Y818898D01*
X949748Y818858D01*
X949713Y818823D01*
X949677Y818791D01*
X949642Y818760D01*
X949614Y818740D01*
X949563Y818709D01*
X949524Y818685D01*
X949488Y818665D01*
X949445Y818642D01*
X949406Y818626D01*
X949323Y818587D01*
X949283Y818571D01*
X949240Y818551D01*
X949197Y818531D01*
X949154Y818508D01*
X949106Y818484D01*
X949063Y818457D01*
X949016Y818429D01*
X948965Y818394D01*
X948949Y818378D01*
X948937Y818370D01*
X948925Y818362D01*
X948917Y818354D01*
X948909Y818343D01*
X948906Y818335D01*
X948902Y818323D01*
Y818319D01*
X948906Y818311D01*
X948909Y818303D01*
X948917Y818295D01*
X948925Y818287D01*
X948937Y818280D01*
X948961Y818264D01*
X949004Y818240D01*
X949035Y818220D01*
X949059Y818205D01*
X949083Y818193D01*
X949106Y818177D01*
X949126Y818161D01*
X949146Y818150D01*
X949181Y818118D01*
X949213Y818087D01*
X949244Y818055D01*
X949276Y818024D01*
X949307Y817984D01*
X949335Y817957D01*
X949362Y817921D01*
X949394Y817886D01*
X949421Y817846D01*
X949449Y817807D01*
X949508Y817728D01*
X949535Y817689D01*
X949559Y817650D01*
X949587Y817606D01*
X949598Y817583D01*
X949657Y817480D01*
X949701Y817394D01*
X949744Y817311D01*
X949791Y817224D01*
X949815Y817185D01*
X949839Y817146D01*
X949858Y817122D01*
X949894Y817067D01*
X949925Y817031D01*
X949953Y816992D01*
X949984Y816957D01*
X950020Y816921D01*
X950087Y816854D01*
X950169Y816772D01*
X950224Y816720D01*
X950295Y816657D01*
X950394Y816571D01*
G03X950496Y816531I103J115D01*
G01X950693D01*
Y816236D01*
X949610D01*
G02X949492Y816287I-2J157D01*
G01X949276Y816531D01*
X949240Y816571D01*
X949205Y816610D01*
X949169Y816650D01*
X949134Y816689D01*
X949098Y816728D01*
X949067Y816772D01*
X949035Y816815D01*
X949000Y816854D01*
X948972Y816894D01*
X948941Y816941D01*
X948909Y816988D01*
X948882Y817035D01*
X948854Y817079D01*
X948831Y817126D01*
X948807Y817177D01*
X948783Y817224D01*
X948764Y817272D01*
X948744Y817323D01*
X948724Y817374D01*
X948709Y817425D01*
X948689Y817472D01*
X948669Y817524D01*
X948650Y817575D01*
X948630Y817622D01*
X948618Y817650D01*
X948579Y817717D01*
X948555Y817764D01*
X948528Y817807D01*
X948496Y817854D01*
X948469Y817898D01*
X948449Y817929D01*
X948409Y817992D01*
X948382Y818035D01*
X948350Y818079D01*
X948319Y818122D01*
X948280Y818161D01*
X948252Y818185D01*
X948197Y818224D01*
X948150Y818248D01*
X948102Y818272D01*
X948051Y818295D01*
X947248D01*
Y818736D01*
X948173D01*
X948228Y818740D01*
X948283Y818744D01*
X948323Y818748D01*
X948390Y818756D01*
X948445Y818768D01*
X948496Y818780D01*
X948524Y818787D01*
X948598Y818819D01*
X948650Y818846D01*
X948697Y818874D01*
X948740Y818909D01*
X948783Y818945D01*
X948823Y818984D01*
X948858Y819028D01*
X948894Y819075D01*
X948921Y819122D01*
X948941Y819165D01*
X948961Y819220D01*
X948976Y819272D01*
X948984Y819327D01*
X948992Y819378D01*
X948996Y819433D01*
Y819488D01*
Y819543D01*
Y819610D01*
X948992Y819657D01*
X948988Y819713D01*
X948984Y819768D01*
X948976Y819823D01*
X948969Y819874D01*
X948957Y819929D01*
X948941Y819980D01*
X948925Y820031D01*
X948902Y820079D01*
X948886Y820106D01*
X948843Y820173D01*
X948807Y820217D01*
X948772Y820256D01*
X948728Y820291D01*
X948685Y820327D01*
X948638Y820354D01*
X948606Y820370D01*
X948535Y820394D01*
X948484Y820406D01*
X948429Y820413D01*
X948378Y820421D01*
X948323Y820429D01*
X947232D01*
Y816685D01*
G03X947390Y816531I155J2D01*
G01X947744D01*
Y816236D01*
X945874D01*
Y816531D01*
X946161D01*
G03X946319Y816685I2J156D01*
G37*
G36*
G01X951839Y816248D02*
X953976D01*
G03X954772Y817114I-82J873D01*
G01Y820476D01*
G02X954925Y820634I156J2D01*
G01X955157D01*
Y820921D01*
X953642D01*
Y820634D01*
X953965D01*
G02X954122Y820476I1J-156D01*
G01Y817362D01*
G02X953378Y816787I-707J147D01*
G01X952524D01*
G02X951850Y817362I19J704D01*
G01Y820476D01*
G02X952004Y820634I156J2D01*
G01X952343D01*
Y820921D01*
X950287D01*
Y820634D01*
X950689D01*
G02X950846Y820476I1J-157D01*
G01Y817476D01*
G03X951839Y816248I1268J9D01*
G37*
G36*
G01X955394Y816240D02*
X956866D01*
Y816602D01*
X956547D01*
G02X956390Y816760I-1J156D01*
G01Y819736D01*
X958114Y816240D01*
X959772Y819681D01*
Y816760D01*
G02X959614Y816602I-157J-1D01*
G01X959433D01*
Y816248D01*
X961217D01*
Y816602D01*
X961150D01*
G02X960992Y816760I-1J156D01*
G01Y820496D01*
G02X961150Y820654I156J2D01*
G01X961307D01*
Y820921D01*
X959772D01*
G03X959630Y820827I2J-156D01*
G01X958429Y818055D01*
X957150Y820831D01*
G03X957008Y820921I-142J-66D01*
G01X955394D01*
Y820634D01*
X955756D01*
G02X955913Y820476I2J-156D01*
G01Y816760D01*
G02X955756Y816602I-156J-1D01*
G01X955394D01*
Y816240D01*
G37*
G36*
G01X946917Y823228D02*
X946524Y824673D01*
X946705Y824717D01*
X946783Y824614D01*
X946858Y824512D01*
X946937Y824413D01*
X947020Y824315D01*
X947102Y824224D01*
X947189Y824142D01*
X947280Y824067D01*
X947378Y824000D01*
X947484Y823941D01*
X947591Y823898D01*
X947705Y823862D01*
X947823Y823831D01*
X947969Y823799D01*
X948071Y823780D01*
X948193Y823756D01*
X948319Y823740D01*
X948445Y823728D01*
X948567Y823720D01*
X948689Y823728D01*
X948811Y823744D01*
X948929Y823776D01*
X949051Y823827D01*
X949154Y823882D01*
X949252Y823965D01*
X949335Y824055D01*
X949409Y824209D01*
X949421Y824280D01*
Y824406D01*
X949390Y824528D01*
X949335Y824646D01*
X949232Y824780D01*
X949169Y824839D01*
X949067Y824906D01*
X948957Y824957D01*
X948839Y824996D01*
X948669Y825035D01*
X948594Y825051D01*
X948476Y825071D01*
X948354Y825091D01*
X948236Y825110D01*
X948118Y825126D01*
X947996Y825142D01*
X947878Y825161D01*
X947760Y825185D01*
X947638Y825209D01*
X947563Y825228D01*
X947398Y825272D01*
X947276Y825315D01*
X947161Y825366D01*
X947055Y825425D01*
X946957Y825492D01*
X946874Y825571D01*
X946795Y825665D01*
X946736Y825768D01*
X946685Y825882D01*
X946650Y826000D01*
X946618Y826122D01*
X946602Y826248D01*
X946591Y826437D01*
Y826508D01*
X946598Y826638D01*
X946614Y826764D01*
X946642Y826886D01*
X946673Y827004D01*
X946720Y827118D01*
X946776Y827224D01*
X946846Y827331D01*
X946921Y827413D01*
X947008Y827496D01*
X947106Y827567D01*
X947213Y827634D01*
X947323Y827689D01*
X947437Y827740D01*
X947610Y827799D01*
X947677Y827819D01*
X947795Y827850D01*
X947913Y827870D01*
X948035Y827890D01*
X948157Y827898D01*
X948276Y827902D01*
X948402D01*
X948524Y827894D01*
X948646Y827878D01*
X948768Y827854D01*
X948882Y827823D01*
X948976Y827787D01*
X949106Y827728D01*
X949217Y827669D01*
X949319Y827610D01*
Y827909D01*
X949661D01*
X949969Y826587D01*
X949854Y826476D01*
X949764Y826547D01*
X949669Y826622D01*
X949575Y826693D01*
X949476Y826760D01*
X949378Y826823D01*
X949268Y826886D01*
X949169Y826933D01*
X949059Y826980D01*
X948949Y827020D01*
X948835Y827051D01*
X948717Y827083D01*
X948602Y827102D01*
X948531Y827114D01*
X948370Y827126D01*
X948252Y827130D01*
X948134Y827126D01*
X948031Y827114D01*
X947894Y827087D01*
X947776Y827047D01*
X947677Y826984D01*
X947626Y826933D01*
X947543Y826783D01*
X947516Y826661D01*
X947520Y826535D01*
X947547Y826437D01*
X947622Y826335D01*
X947713Y826260D01*
X947823Y826205D01*
X947945Y826161D01*
X948059Y826130D01*
X948189Y826102D01*
X948311Y826083D01*
X948425Y826067D01*
X948539Y826051D01*
X948654Y826035D01*
X948772Y826016D01*
X948882Y825996D01*
X948996Y825972D01*
X949110Y825941D01*
X949224Y825909D01*
X949335Y825878D01*
X949453Y825835D01*
X949567Y825795D01*
X949677Y825744D01*
X949780Y825689D01*
X949878Y825626D01*
X949957Y825559D01*
X950047Y825465D01*
X950118Y825366D01*
X950177Y825264D01*
X950228Y825154D01*
X950268Y825039D01*
X950303Y824921D01*
X950323Y824807D01*
X950339Y824689D01*
X950343Y824571D01*
X950339Y824453D01*
X950327Y824335D01*
X950303Y824209D01*
X950276Y824102D01*
X950232Y823988D01*
X950185Y823878D01*
X950130Y823772D01*
X950067Y823669D01*
X949996Y823575D01*
X949906Y823480D01*
X949827Y823409D01*
X949732Y823335D01*
X949630Y823272D01*
X949524Y823217D01*
X949413Y823165D01*
X949295Y823126D01*
X949181Y823091D01*
X949059Y823067D01*
X948941Y823047D01*
X948819Y823039D01*
X948681Y823035D01*
X948579Y823039D01*
X948461Y823051D01*
X948343Y823067D01*
X948228Y823091D01*
X948114Y823118D01*
X948000Y823154D01*
X947890Y823189D01*
X947776Y823228D01*
X947665Y823272D01*
X947555Y823315D01*
X947441Y823358D01*
X947331Y823406D01*
Y823228D01*
X946917D01*
G37*
G36*
G01X973512Y816539D02*
Y816248D01*
X971913D01*
Y816539D01*
X972091D01*
G03X972244Y816689I1J153D01*
G01Y820248D01*
G03X972091Y820402I-153J0D01*
G01X971181D01*
G03X971075Y820358I0J-153D01*
G01X970665Y819953D01*
X970815Y820906D01*
X974610D01*
X974760Y819953D01*
X974350Y820358D01*
G03X974240Y820402I-107J-110D01*
G01X973335D01*
G03X973181Y820248I-1J-153D01*
G01Y816689D01*
G03X973335Y816539I152J3D01*
G01X973512D01*
G37*
G36*
G01X964823Y819201D02*
X964937D01*
Y818035D01*
X964823D01*
X964665Y818236D01*
G03X964543Y818295I-122J-97D01*
G01X962949D01*
Y816787D01*
X964957D01*
G03X965071Y816835I2J156D01*
G01X965555Y817343D01*
X965693D01*
X965346Y816346D01*
G02X965201Y816240I-148J49D01*
G01X961630D01*
Y816409D01*
X962071Y816638D01*
G03X962154Y816776I-74J138D01*
G01Y820256D01*
G03X962075Y820390I-156J-1D01*
G01X961630Y820654D01*
Y820921D01*
X965012D01*
G02X965157Y820823I0J-157D01*
G01X965579Y819799D01*
X965346Y819705D01*
X964933Y820157D01*
G03X964819Y820209I-116J-106D01*
G01X962949D01*
Y819008D01*
X964555D01*
G03X964665Y819051I3J155D01*
G01X964823Y819201D01*
G37*
G36*
G01X965756Y816602D02*
X966051D01*
G03X966209Y816760I2J156D01*
G01Y820421D01*
G03X966051Y820575I-156J-2D01*
G01X965736D01*
Y820921D01*
X967173D01*
G02X967291Y820866I-1J-156D01*
G01X969524Y818280D01*
Y820390D01*
G03X969370Y820543I-155J-2D01*
G01X968988D01*
Y820921D01*
X970559D01*
Y820543D01*
X970228D01*
G03X970071Y820390I-2J-156D01*
G01Y816248D01*
X969831D01*
G02X969713Y816299I-3J155D01*
G01X967008Y819429D01*
Y816760D01*
G03X967165Y816602I156J-1D01*
G01X967398D01*
Y816248D01*
X965756D01*
Y816602D01*
G37*
G36*
G01X975354Y816319D02*
X974965Y817760D01*
X975146Y817807D01*
X975220Y817701D01*
X975295Y817598D01*
X975374Y817500D01*
X975457Y817406D01*
X975539Y817315D01*
X975626Y817232D01*
X975717Y817154D01*
X975815Y817087D01*
X975921Y817028D01*
X976028Y816984D01*
X976142Y816949D01*
X976264Y816917D01*
X976406Y816890D01*
X976508Y816870D01*
X976634Y816846D01*
X976756Y816827D01*
X976882Y816815D01*
X977004Y816811D01*
X977126Y816815D01*
X977248Y816831D01*
X977366Y816862D01*
X977492Y816913D01*
X977591Y816972D01*
X977689Y817051D01*
X977776Y817146D01*
X977846Y817295D01*
X977862Y817370D01*
X977858Y817492D01*
X977827Y817618D01*
X977772Y817736D01*
X977669Y817870D01*
X977606Y817925D01*
X977504Y817992D01*
X977394Y818043D01*
X977276Y818083D01*
X977106Y818126D01*
X977035Y818138D01*
X976913Y818161D01*
X976795Y818181D01*
X976673Y818197D01*
X976555Y818213D01*
X976437Y818232D01*
X976315Y818252D01*
X976197Y818272D01*
X976075Y818295D01*
X976000Y818315D01*
X975835Y818362D01*
X975717Y818406D01*
X975602Y818453D01*
X975492Y818512D01*
X975394Y818583D01*
X975311Y818661D01*
X975232Y818756D01*
X975173Y818858D01*
X975122Y818969D01*
X975087Y819087D01*
X975059Y819213D01*
X975039Y819339D01*
X975031Y819528D01*
Y819598D01*
X975035Y819724D01*
X975051Y819850D01*
X975079Y819976D01*
X975114Y820094D01*
X975157Y820205D01*
X975213Y820311D01*
X975283Y820417D01*
X975358Y820500D01*
X975449Y820583D01*
X975547Y820657D01*
X975650Y820720D01*
X975760Y820780D01*
X975878Y820831D01*
X976051Y820890D01*
X976114Y820909D01*
X976232Y820937D01*
X976354Y820961D01*
X976472Y820976D01*
X976594Y820988D01*
X976713Y820992D01*
X976839Y820988D01*
X976961Y820980D01*
X977083Y820969D01*
X977205Y820941D01*
X977323Y820909D01*
X977413Y820878D01*
X977543Y820819D01*
X977654Y820760D01*
X977760Y820697D01*
Y820996D01*
X978102D01*
X978406Y819677D01*
X978295Y819563D01*
X978201Y819638D01*
X978106Y819709D01*
X978012Y819780D01*
X977913Y819846D01*
X977815Y819909D01*
X977709Y819972D01*
X977606Y820020D01*
X977496Y820067D01*
X977386Y820106D01*
X977272Y820142D01*
X977157Y820169D01*
X977039Y820193D01*
X976969Y820201D01*
X976807Y820217D01*
X976689D01*
X976571Y820213D01*
X976469Y820201D01*
X976331Y820173D01*
X976217Y820134D01*
X976114Y820075D01*
X976063Y820024D01*
X975980Y819874D01*
X975953Y819748D01*
X975957Y819626D01*
X975988Y819528D01*
X976059Y819421D01*
X976154Y819350D01*
X976264Y819291D01*
X976382Y819252D01*
X976496Y819220D01*
X976630Y819193D01*
X976748Y819173D01*
X976862Y819154D01*
X976980Y819142D01*
X977091Y819126D01*
X977209Y819106D01*
X977319Y819087D01*
X977433Y819059D01*
X977547Y819031D01*
X977661Y819000D01*
X977772Y818965D01*
X977894Y818925D01*
X978004Y818882D01*
X978114Y818835D01*
X978220Y818776D01*
X978315Y818713D01*
X978398Y818646D01*
X978484Y818551D01*
X978555Y818457D01*
X978614Y818354D01*
X978665Y818244D01*
X978709Y818130D01*
X978740Y818012D01*
X978764Y817894D01*
X978776Y817776D01*
X978780Y817657D01*
X978776Y817539D01*
X978764Y817421D01*
X978740Y817295D01*
X978713Y817189D01*
X978673Y817075D01*
X978626Y816965D01*
X978567Y816862D01*
X978504Y816760D01*
X978433Y816665D01*
X978346Y816571D01*
X978264Y816496D01*
X978169Y816425D01*
X978067Y816358D01*
X977961Y816303D01*
X977850Y816256D01*
X977736Y816213D01*
X977618Y816181D01*
X977500Y816154D01*
X977378Y816138D01*
X977256Y816126D01*
X977122Y816122D01*
X977016Y816130D01*
X976898Y816138D01*
X976783Y816157D01*
X976665Y816181D01*
X976551Y816209D01*
X976437Y816240D01*
X976327Y816276D01*
X976213Y816315D01*
X976102Y816358D01*
X975992Y816402D01*
X975882Y816449D01*
X975768Y816492D01*
Y816319D01*
X975354D01*
G37*
G36*
G01X1001846Y827677D02*
X1016047D01*
Y836724D01*
X1001846D01*
X999583Y834465D01*
X997323Y832201D01*
X999583Y829941D01*
X1001846Y827677D01*
G37*
G36*
G01X1016087Y856988D02*
X1001886D01*
X997311Y852413D01*
X999575Y850154D01*
X1001835Y847890D01*
X1016087D01*
Y852441D01*
Y856988D01*
G37*
G36*
G01Y847146D02*
X1001886D01*
X997311Y842571D01*
X999575Y840311D01*
X1001835Y838047D01*
X1016087D01*
Y842598D01*
Y847146D01*
G37*
G36*
G01X1015693Y966831D02*
X1001492D01*
X996917Y962256D01*
X999181Y959996D01*
X1001441Y957732D01*
X1015693D01*
Y962283D01*
Y966831D01*
G37*
%LPC*%
G75*
G36*
G01X793614Y834760D02*
X794878Y834744D01*
X796142Y834732D01*
Y833976D01*
X795205Y833965D01*
X794268Y833949D01*
X794185Y833504D01*
X794118Y833122D01*
X794110Y833004D01*
G03X794138Y832984I23J3D01*
G03X794193Y833008I-14J109D01*
G01X794350Y833122D01*
X794528Y833201D01*
G02X794728Y833248I358J-1071D01*
G01X794961Y833264D01*
X795256Y833248D01*
G02X795496Y833189I-134J-1063D01*
G02X795709Y833079I-346J-928D01*
G02X795921Y832909I-978J-1447D01*
G02X796122Y832677I-990J-1059D01*
G02X796264Y832413I-1061J-740D01*
G02X796346Y832114I-1336J-530D01*
G02X796374Y831768I-2170J-347D01*
G02X796287Y831205I-1870J-1D01*
G02X796039Y830732I-1427J448D01*
G02X795638Y830374I-1189J929D01*
G01X795110Y830154D01*
X794925Y830110D01*
X794776Y830094D01*
G02X794626Y830098I-46J1104D01*
G01X794421Y830126D01*
X793886Y830272D01*
G02X793472Y830528I542J1338D01*
G01X793185Y830890D01*
G02X793028Y831350I1395J734D01*
G01X792996Y831539D01*
X793476D01*
X793752Y831535D01*
G02X793874Y831524I-12J-757D01*
G02X793933Y831496I-25J-130D01*
G02X793953Y831453I-39J-44D01*
G03X793980Y831331I285J0D01*
G01X794071Y831185D01*
X794185Y831047D01*
X794311Y830961D01*
X794484Y830898D01*
X794697Y830882D01*
G03X794902Y830906I-15J1031D01*
G01X795071Y830969D01*
X795217Y831094D01*
X795346Y831287D01*
X795433Y831512D01*
X795461Y831724D01*
G03X795339Y832197I-961J4D01*
G03X795004Y832512I-665J-371D01*
G01X794551Y832571D01*
G03X794114Y832366I162J-915D01*
G01X794016Y832299D01*
G02X793921Y832264I-169J306D01*
G01X793795Y832248D01*
X793563Y832244D01*
X793161D01*
X793280Y832909D01*
X793335Y833209D01*
X793394Y833555D01*
X793457Y833894D01*
X793504Y834165D01*
X793614Y834760D01*
G37*
G36*
G01X796476Y834807D02*
X797520D01*
X797843Y833787D01*
X797980Y833354D01*
X798130Y832894D01*
X798264Y832472D01*
X798358Y832177D01*
G03X798437Y831941I8073J2560D01*
G03X798504Y831768I2713J949D01*
G01X798559Y831650D01*
G03X798583I12J6D01*
G01X798602Y831701D01*
X798752Y832150D01*
X798917Y832665D01*
X799110Y833260D01*
X799602Y834807D01*
X800122D01*
X800319Y834803D01*
X800488Y834795D01*
X800626Y834783D01*
G02X800642Y834768I0J-16D01*
G01X800634Y834740D01*
X800417Y834075D01*
X800173Y833331D01*
G02X799882Y832457I-468750J155765D01*
G01X799122Y830177D01*
X798547Y830193D01*
X797969Y830209D01*
X797343Y832118D01*
X797094Y832878D01*
X796866Y833583D01*
X796677Y834173D01*
X796598Y834417D01*
X796476Y834807D01*
G37*
G36*
G01X802976Y848488D02*
X789783D01*
Y856079D01*
X802980D01*
X804854Y854209D01*
G02X805571Y853488I-139819J-139771D01*
G01X806173Y852870D01*
X806713Y852319D01*
G02X806724Y852283I-39J-33D01*
G01X806713Y852248D01*
X806173Y851697D01*
G02X805571Y851083I-73556J71539D01*
G01X802976Y848488D01*
G37*
G36*
G01Y838646D02*
X789783D01*
Y846236D01*
X802980D01*
X804854Y844366D01*
G02X805571Y843646I-139819J-139771D01*
G01X806173Y843028D01*
X806713Y842476D01*
G02X806724Y842441I-39J-33D01*
G01X806713Y842406D01*
X806173Y841854D01*
G02X805571Y841240I-73556J71539D01*
G01X802976Y838646D01*
G37*
G36*
G01X793791Y964925D02*
X794146Y964909D01*
X794504Y964866D01*
X794736Y964795D01*
X794957Y964673D01*
X795161Y964516D01*
G02X795331Y964335I-1035J-1137D01*
G02X795441Y964154I-682J-540D01*
G01X795535Y963791D01*
X795500Y963402D01*
G02X795350Y963063I-1065J268D01*
G02X795110Y962839I-586J386D01*
G01X794921Y962732D01*
X795102Y962673D01*
G02X795386Y962496I-222J-670D01*
G01X795598Y962185D01*
X795709Y961799D01*
G02X795689Y961406I-1210J-137D01*
G02X795622Y961177I-1579J339D01*
G01X795528Y960980D01*
X795390Y960803D01*
X795205Y960614D01*
X794665Y960315D01*
X794000Y960217D01*
G02X793335Y960335I34J2126D01*
G02X792803Y960654I489J1417D01*
G02X792654Y960831I673J720D01*
G01X792524Y961063D01*
X792429Y961323D01*
G02X792382Y961575I1315J377D01*
G01X792354Y961866D01*
X793213D01*
X793248Y961681D01*
X793390Y961307D01*
X793646Y961063D01*
X793976Y960972D01*
G03X794346Y961051I-3J921D01*
G01X794520Y961161D01*
G03X794646Y961303I-359J446D01*
G03X794720Y961484I-516J319D01*
G01X794748Y961705D01*
X794705Y961976D01*
X794587Y962165D01*
X794366Y962283D01*
G03X794028Y962350I-542J-1850D01*
G01X793724Y962382D01*
Y963024D01*
X793953D01*
G03X794173Y963043I2J1225D01*
G01X794362Y963102D01*
X794508Y963201D01*
G03X794606Y963327I-301J336D01*
G03X794665Y963614I-476J248D01*
G03X794567Y963898I-578J-42D01*
G01X794335Y964106D01*
X794028Y964177D01*
X793803Y964142D01*
X793610Y964028D01*
G03X793461Y963850I442J-525D01*
G03X793366Y963618I781J-453D01*
G01X793303Y963374D01*
X792457D01*
X792488Y963606D01*
G02X792606Y964031I1617J-220D01*
G02X792835Y964402I1362J-585D01*
G02X793165Y964693I1156J-979D01*
G02X793575Y964890I967J-1487D01*
G02X793791Y964925I218J-653D01*
G37*
G36*
G01X795795Y964933D02*
X796839D01*
X797146Y963965D01*
X797280Y963547D01*
X797425Y963094D01*
X797559Y962669D01*
X797657Y962354D01*
X797740Y962110D01*
X797815Y961917D01*
G03X797878Y961768I4970J2005D01*
G03X797898Y961764I11J3D01*
G03X797917Y961807I-177J107D01*
G01X798067Y962260D01*
X798236Y962776D01*
G03X798429Y963374I-173712J56330D01*
G01X798925Y964933D01*
X799441D01*
X799642Y964929D01*
X799807Y964921D01*
X799945Y964909D01*
G02X799961Y964894I0J-15D01*
G01X799953Y964866D01*
X799736Y964201D01*
X799492Y963457D01*
G02X799201Y962583I-468750J155764D01*
G01X798441Y960303D01*
X797283Y960335D01*
X796760Y961941D01*
X796327Y963280D01*
X796138Y963870D01*
X796020Y964240D01*
X795795Y964933D01*
G37*
G36*
G01X801831Y964913D02*
G02X802169Y964874I-161J-2858D01*
G01X802425Y964799D01*
X802772Y964594D01*
G02X803024Y964335I-694J-925D01*
G02X803173Y964024I-854J-602D01*
G02X803224Y963665I-1215J-356D01*
G01X803201Y963394D01*
G02X803122Y963165I-877J175D01*
G01X802992Y962984D01*
X802811Y962846D01*
X802626Y962740D01*
X802795Y962677D01*
X802874Y962642D01*
X802969Y962579D01*
X803063Y962500D01*
X803146Y962421D01*
G02X803398Y961898I-773J-695D01*
G02X803354Y961280I-1285J-221D01*
G02X803020Y960717I-1411J458D01*
G02X802476Y960350I-1096J1040D01*
G02X802122Y960256I-579J1460D01*
G02X801701Y960228I-392J2756D01*
G02X801287Y960264I23J2702D01*
G01X800965Y960362D01*
X800846Y960421D01*
X800720Y960496D01*
X800610Y960567D01*
X800528Y960630D01*
G02X800374Y960799I543J647D01*
G01X800232Y961043D01*
X800130Y961319D01*
X800075Y961583D01*
X800047Y961866D01*
X800906D01*
X800965Y961610D01*
G03X801110Y961283I948J227D01*
G01X801358Y961063D01*
X801669Y960976D01*
X802008Y961039D01*
G03X802240Y961189I-266J668D01*
G01X802398Y961413D01*
G03X802457Y961685I-655J285D01*
G03X802409Y961965I-792J10D01*
G03X802323Y962114I-443J-157D01*
G03X802185Y962228I-402J-345D01*
G03X801988Y962307I-386J-680D01*
G01X801728Y962350D01*
X801417Y962382D01*
Y963024D01*
X801646D01*
X801945Y963059D01*
G03X802173Y963169I-165J634D01*
G03X802319Y963343I-291J393D01*
G01X802370Y963567D01*
X802283Y963878D01*
G03X802035Y964102I-535J-342D01*
G03X801705Y964177I-309J-597D01*
G03X801378Y964079I24J-672D01*
G03X801268Y963988I279J-452D01*
G03X801169Y963858I545J-515D01*
G03X801094Y963701I801J-477D01*
G01X801043Y963512D01*
G02X801012Y963429I-279J59D01*
G01X800961Y963394D01*
X800866Y963378D01*
X800583Y963374D01*
X800150D01*
X800185Y963606D01*
X800303Y964039D01*
X800524Y964398D01*
G02X800835Y964673I1064J-888D01*
G02X801232Y964862I928J-1439D01*
G01X801831Y964913D01*
G37*
G36*
G01X834559Y964681D02*
X835823Y964665D01*
X837087Y964654D01*
Y963898D01*
X836150Y963886D01*
X835213Y963870D01*
X835130Y963425D01*
X835063Y963043D01*
X835055Y962925D01*
G03X835083Y962906I23J3D01*
G03X835138Y962929I-14J109D01*
G01X835295Y963043D01*
X835472Y963122D01*
G02X835673Y963169I358J-1071D01*
G01X835906Y963185D01*
X836201Y963169D01*
G02X836441Y963110I-134J-1063D01*
G02X836654Y963000I-346J-928D01*
G02X836866Y962831I-978J-1447D01*
G02X837067Y962598I-990J-1059D01*
G02X837209Y962335I-1061J-740D01*
G02X837291Y962035I-1336J-530D01*
G02X837319Y961689I-2170J-347D01*
G02X837232Y961126I-1870J-1D01*
G02X836984Y960654I-1427J448D01*
G02X836583Y960295I-1189J929D01*
G01X836055Y960075D01*
X835870Y960031D01*
X835720Y960016D01*
G02X835571Y960020I-46J1104D01*
G01X835366Y960047D01*
X834831Y960193D01*
G02X834417Y960449I542J1338D01*
G01X834130Y960811D01*
G02X833972Y961272I1395J734D01*
G01X833941Y961461D01*
X834421D01*
X834697Y961457D01*
G02X834819Y961445I-12J-757D01*
G02X834878Y961417I-25J-130D01*
G02X834898Y961374I-39J-44D01*
G03X834925Y961252I285J0D01*
G01X835016Y961106D01*
X835130Y960969D01*
X835256Y960882D01*
X835429Y960819D01*
X835642Y960803D01*
G03X835846Y960827I-15J1031D01*
G01X836016Y960890D01*
X836161Y961016D01*
X836291Y961209D01*
X836378Y961433D01*
X836406Y961646D01*
G03X836283Y962118I-961J4D01*
G03X835949Y962433I-665J-371D01*
G01X835496Y962492D01*
G03X835059Y962287I162J-915D01*
G01X834961Y962220D01*
G02X834866Y962185I-169J306D01*
G01X834740Y962169D01*
X834508Y962165D01*
X834106D01*
X834224Y962831D01*
X834280Y963130D01*
X834339Y963476D01*
X834402Y963815D01*
X834449Y964087D01*
X834559Y964681D01*
G37*
G36*
G01X837421Y964728D02*
X838465D01*
X838787Y963709D01*
X838925Y963276D01*
X839075Y962815D01*
X839209Y962394D01*
X839303Y962098D01*
G03X839382Y961862I8073J2560D01*
G03X839449Y961689I2713J949D01*
G01X839504Y961571D01*
G03X839528I12J6D01*
G01X839547Y961622D01*
X839697Y962071D01*
X839862Y962587D01*
X840055Y963181D01*
X840547Y964728D01*
X841067D01*
X841264Y964724D01*
X841433Y964717D01*
X841571Y964705D01*
G02X841587Y964689I0J-16D01*
G01X841579Y964661D01*
X841362Y963996D01*
X841118Y963252D01*
G02X840827Y962378I-468750J155765D01*
G01X840067Y960098D01*
X839492Y960114D01*
X838913Y960130D01*
X838287Y962039D01*
X838039Y962799D01*
X837811Y963504D01*
X837622Y964094D01*
X837543Y964339D01*
X837421Y964728D01*
G37*
G36*
G01X832063Y956630D02*
X845256D01*
Y949039D01*
X832059D01*
X830185Y950909D01*
G02X829469Y951630I139819J139771D01*
G01X828866Y952248D01*
X828327Y952799D01*
G02X828315Y952835I39J33D01*
G01X828327Y952870D01*
X828866Y953421D01*
G02X829469Y954035I73556J-71539D01*
G01X832063Y956630D01*
G37*
G36*
G01X836551Y993528D02*
Y980335D01*
X828961D01*
Y993531D01*
X830831Y995406D01*
G02X831551Y996122I139771J-139819D01*
G01X832169Y996724D01*
X832720Y997264D01*
G02X832756Y997276I33J-39D01*
G01X832791Y997264D01*
X833343Y996724D01*
G02X833957Y996122I-71539J-73556D01*
G01X836551Y993528D01*
G37*
G36*
G01X850047Y991594D02*
G02X850087Y991933I2858J-161D01*
G01X850161Y992189D01*
X850366Y992535D01*
G02X850626Y992787I925J-694D01*
G02X850937Y992937I602J-854D01*
G02X851295Y992988I356J-1215D01*
G01X851567Y992965D01*
G02X851795Y992886I-175J-877D01*
G01X851976Y992756D01*
X852114Y992575D01*
X852220Y992390D01*
X852283Y992559D01*
X852319Y992638D01*
X852382Y992732D01*
X852461Y992827D01*
X852539Y992909D01*
G02X853063Y993161I695J-773D01*
G02X853681Y993118I221J-1285D01*
G02X854244Y992783I-458J-1411D01*
G02X854610Y992240I-1040J-1096D01*
G02X854705Y991886I-1460J-579D01*
G02X854732Y991465I-2756J-392D01*
G02X854697Y991051I-2702J23D01*
G01X854598Y990728D01*
X854539Y990610D01*
X854465Y990484D01*
X854394Y990374D01*
X854331Y990291D01*
G02X854161Y990138I-647J543D01*
G01X853917Y989996D01*
X853642Y989894D01*
X853378Y989839D01*
X853094Y989811D01*
Y990669D01*
X853350Y990728D01*
G03X853677Y990874I-227J948D01*
G01X853898Y991122D01*
X853984Y991433D01*
X853921Y991772D01*
G03X853772Y992004I-668J-266D01*
G01X853547Y992161D01*
G03X853276Y992220I-285J-655D01*
G03X852996Y992173I-10J-792D01*
G03X852846Y992087I157J-443D01*
G03X852732Y991949I345J-402D01*
G03X852654Y991752I680J-386D01*
G01X852610Y991492D01*
X852579Y991181D01*
X851937D01*
Y991409D01*
X851902Y991709D01*
G03X851791Y991937I-634J-165D01*
G03X851618Y992083I-393J-291D01*
G01X851394Y992134D01*
X851083Y992047D01*
G03X850858Y991799I342J-535D01*
G03X850783Y991469I597J-309D01*
G03X850882Y991142I672J24D01*
G03X850972Y991031I452J279D01*
G03X851102Y990933I515J545D01*
G03X851260Y990858I477J801D01*
G01X851449Y990807D01*
G02X851531Y990776I-59J-279D01*
G01X851567Y990724D01*
X851583Y990630D01*
X851587Y990346D01*
Y989913D01*
X851354Y989949D01*
X850921Y990067D01*
X850563Y990287D01*
G02X850287Y990598I888J1064D01*
G02X850098Y990996I1439J928D01*
G01X850047Y991594D01*
G37*
G36*
G01X850028Y985559D02*
Y986602D01*
X850996Y986909D01*
X851413Y987043D01*
X851866Y987189D01*
X852291Y987323D01*
X852606Y987421D01*
X852850Y987504D01*
X853043Y987579D01*
G03X853193Y987642I-2005J4970D01*
G03X853197Y987661I-3J11D01*
G03X853154Y987681I-107J-177D01*
G01X852701Y987831D01*
X852185Y988000D01*
G03X851587Y988193I-56330J-173712D01*
G01X850028Y988689D01*
Y989205D01*
X850031Y989406D01*
X850039Y989571D01*
X850051Y989709D01*
G02X850067Y989724I15J0D01*
G01X850094Y989717D01*
X850760Y989500D01*
X851504Y989256D01*
G02X852378Y988965I-155764J-468750D01*
G01X854657Y988205D01*
X854626Y987047D01*
X853020Y986524D01*
X851681Y986091D01*
X851091Y985902D01*
X850720Y985783D01*
X850028Y985559D01*
G37*
G36*
G01X850035Y983555D02*
X850051Y983909D01*
X850094Y984268D01*
X850165Y984500D01*
X850287Y984720D01*
X850445Y984925D01*
G02X850626Y985094I1137J-1035D01*
G02X850807Y985205I540J-682D01*
G01X851169Y985299D01*
X851559Y985264D01*
G02X851898Y985114I-268J-1065D01*
G02X852122Y984874I-386J-586D01*
G01X852228Y984685D01*
X852287Y984866D01*
G02X852465Y985150I670J-222D01*
G01X852776Y985362D01*
X853161Y985472D01*
G02X853555Y985453I137J-1210D01*
G02X853783Y985386I-339J-1579D01*
G01X853980Y985291D01*
X854157Y985154D01*
X854346Y984969D01*
X854646Y984429D01*
X854744Y983764D01*
G02X854626Y983098I-2126J34D01*
G02X854307Y982567I-1417J489D01*
G02X854130Y982417I-720J673D01*
G01X853898Y982287D01*
X853638Y982193D01*
G02X853386Y982146I-377J1315D01*
G01X853094Y982118D01*
Y982976D01*
X853280Y983012D01*
X853654Y983154D01*
X853898Y983409D01*
X853988Y983740D01*
G03X853909Y984110I-921J-3D01*
G01X853799Y984283D01*
G03X853657Y984409I-446J-359D01*
G03X853476Y984484I-319J-516D01*
G01X853256Y984512D01*
X852984Y984469D01*
X852795Y984350D01*
X852677Y984130D01*
G03X852610Y983791I1850J-542D01*
G01X852579Y983488D01*
X851937D01*
Y983717D01*
G03X851917Y983937I-1225J2D01*
G01X851858Y984126D01*
X851760Y984272D01*
G03X851634Y984370I-336J-301D01*
G03X851346Y984429I-248J-476D01*
G03X851063Y984331I42J-578D01*
G01X850854Y984098D01*
X850783Y983791D01*
X850819Y983567D01*
X850933Y983374D01*
G03X851110Y983224I525J442D01*
G03X851343Y983130I453J781D01*
G01X851587Y983067D01*
Y982220D01*
X851354Y982252D01*
G02X850929Y982370I220J1617D01*
G02X850559Y982598I585J1362D01*
G02X850268Y982929I979J1156D01*
G02X850071Y983339I1487J967D01*
G02X850035Y983555I653J218D01*
G37*
G36*
G01X839996Y987028D02*
Y988071D01*
X841016Y988394D01*
X841449Y988531D01*
X841909Y988681D01*
X842331Y988815D01*
X842626Y988909D01*
G03X842862Y988988I-2560J8073D01*
G03X843035Y989055I-949J2713D01*
G01X843154Y989110D01*
G03Y989134I-6J12D01*
G01X843102Y989154D01*
X842654Y989303D01*
X842138Y989469D01*
X841543Y989661D01*
X839996Y990154D01*
Y990673D01*
X840000Y990870D01*
X840008Y991039D01*
X840020Y991177D01*
G02X840035Y991193I16J0D01*
G01X840063Y991185D01*
X840728Y990969D01*
X841472Y990724D01*
G02X842346Y990433I-155765J-468750D01*
G01X844626Y989673D01*
X844610Y989098D01*
X844594Y988520D01*
X842685Y987894D01*
X841925Y987646D01*
X841220Y987417D01*
X840630Y987228D01*
X840386Y987150D01*
X839996Y987028D01*
G37*
G36*
G01X840043Y984165D02*
X840059Y985429D01*
X840071Y986693D01*
X840827D01*
X840839Y985756D01*
X840854Y984819D01*
X841299Y984736D01*
X841681Y984669D01*
X841799Y984661D01*
G03X841819Y984689I-3J23D01*
G03X841795Y984744I-109J-14D01*
G01X841681Y984902D01*
X841602Y985079D01*
G02X841555Y985280I1071J358D01*
G01X841539Y985512D01*
X841555Y985807D01*
G02X841614Y986047I1063J-134D01*
G02X841724Y986260I928J-346D01*
G02X841894Y986472I1447J-978D01*
G02X842126Y986673I1059J-990D01*
G02X842390Y986815I740J-1061D01*
G02X842689Y986898I530J-1336D01*
G02X843035Y986925I347J-2170D01*
G02X843598Y986839I1J-1870D01*
G02X844071Y986591I-448J-1427D01*
G02X844429Y986189I-929J-1189D01*
G01X844650Y985661D01*
X844693Y985476D01*
X844709Y985327D01*
G02X844705Y985177I-1104J-46D01*
G01X844677Y984972D01*
X844531Y984437D01*
G02X844276Y984024I-1338J542D01*
G01X843913Y983736D01*
G02X843453Y983579I-734J1395D01*
G01X843264Y983547D01*
Y984028D01*
X843268Y984303D01*
G02X843280Y984425I757J-12D01*
G02X843307Y984484I130J-25D01*
G02X843350Y984504I44J-39D01*
G03X843472Y984531I0J285D01*
G01X843618Y984622D01*
X843756Y984736D01*
X843843Y984862D01*
X843906Y985035D01*
X843921Y985248D01*
G03X843898Y985453I-1031J-15D01*
G01X843835Y985622D01*
X843709Y985768D01*
X843516Y985898D01*
X843291Y985984D01*
X843079Y986012D01*
G03X842606Y985890I-4J-961D01*
G03X842291Y985555I371J-665D01*
G01X842232Y985102D01*
G03X842437Y984665I915J162D01*
G01X842504Y984567D01*
G02X842539Y984472I-306J-169D01*
G01X842555Y984346D01*
X842559Y984114D01*
Y983713D01*
X841894Y983831D01*
X841594Y983886D01*
X841248Y983945D01*
X840909Y984008D01*
X840638Y984055D01*
X840043Y984165D01*
G37*
G36*
G01X1005319Y834130D02*
X1005673Y834114D01*
X1006031Y834071D01*
X1006264Y834000D01*
X1006484Y833878D01*
X1006689Y833720D01*
G02X1006858Y833539I-1035J-1137D01*
G02X1006969Y833358I-682J-540D01*
G01X1007063Y832996D01*
X1007028Y832606D01*
G02X1006878Y832268I-1065J268D01*
G02X1006638Y832043I-586J386D01*
G01X1006449Y831937D01*
X1006630Y831878D01*
G02X1006913Y831701I-222J-670D01*
G01X1007126Y831390D01*
X1007236Y831004D01*
G02X1007217Y830610I-1210J-137D01*
G02X1007150Y830382I-1579J339D01*
G01X1007055Y830185D01*
X1006917Y830008D01*
X1006732Y829819D01*
X1006193Y829520D01*
X1005528Y829421D01*
G02X1004862Y829539I34J2126D01*
G02X1004331Y829858I489J1417D01*
G02X1004181Y830035I673J720D01*
G01X1004051Y830268D01*
X1003957Y830528D01*
G02X1003909Y830780I1315J377D01*
G01X1003882Y831071D01*
X1004740D01*
X1004776Y830886D01*
X1004917Y830512D01*
X1005173Y830268D01*
X1005504Y830177D01*
G03X1005874Y830256I-3J921D01*
G01X1006047Y830366D01*
G03X1006173Y830508I-359J446D01*
G03X1006248Y830689I-516J319D01*
G01X1006276Y830909D01*
X1006232Y831181D01*
X1006114Y831370D01*
X1005894Y831488D01*
G03X1005555Y831555I-542J-1850D01*
G01X1005252Y831587D01*
Y832228D01*
X1005480D01*
G03X1005701Y832248I2J1225D01*
G01X1005890Y832307D01*
X1006035Y832406D01*
G03X1006134Y832531I-301J336D01*
G03X1006193Y832819I-476J248D01*
G03X1006094Y833102I-578J-42D01*
G01X1005862Y833311D01*
X1005555Y833382D01*
X1005331Y833346D01*
X1005138Y833232D01*
G03X1004988Y833055I442J-525D01*
G03X1004894Y832823I781J-453D01*
G01X1004831Y832579D01*
X1003984D01*
X1004016Y832811D01*
G02X1004134Y833236I1617J-220D01*
G02X1004362Y833606I1362J-585D01*
G02X1004693Y833898I1156J-979D01*
G02X1005102Y834094I967J-1487D01*
G02X1005319Y834130I218J-653D01*
G37*
G36*
G01X1007323Y834138D02*
X1008366D01*
X1008673Y833169D01*
X1008807Y832752D01*
X1008953Y832299D01*
X1009087Y831874D01*
X1009185Y831559D01*
X1009268Y831315D01*
X1009343Y831122D01*
G03X1009406Y830972I4970J2005D01*
G03X1009425Y830969I11J3D01*
G03X1009445Y831012I-177J107D01*
G01X1009594Y831465D01*
X1009764Y831980D01*
G03X1009957Y832579I-173712J56330D01*
G01X1010453Y834138D01*
X1010969D01*
X1011169Y834134D01*
X1011335Y834126D01*
X1011472Y834114D01*
G02X1011488Y834098I0J-15D01*
G01X1011480Y834071D01*
X1011264Y833406D01*
X1011020Y832661D01*
G02X1010728Y831787I-468750J155764D01*
G01X1009969Y829508D01*
X1008811Y829539D01*
X1008287Y831146D01*
X1007854Y832484D01*
X1007665Y833075D01*
X1007547Y833445D01*
X1007323Y834138D01*
G37*
G36*
G01X1013358Y834118D02*
G02X1013697Y834079I-161J-2858D01*
G01X1013953Y834004D01*
X1014299Y833799D01*
G02X1014551Y833539I-694J-925D01*
G02X1014701Y833228I-854J-602D01*
G02X1014752Y832870I-1215J-356D01*
G01X1014728Y832598D01*
G02X1014650Y832370I-877J175D01*
G01X1014520Y832189D01*
X1014339Y832051D01*
X1014154Y831945D01*
X1014323Y831882D01*
X1014402Y831846D01*
X1014496Y831783D01*
X1014591Y831705D01*
X1014673Y831626D01*
G02X1014925Y831102I-773J-695D01*
G02X1014882Y830484I-1285J-221D01*
G02X1014547Y829921I-1411J458D01*
G02X1014004Y829555I-1096J1040D01*
G02X1013650Y829461I-579J1460D01*
G02X1013228Y829433I-392J2756D01*
G02X1012815Y829469I23J2702D01*
G01X1012492Y829567D01*
X1012374Y829626D01*
X1012248Y829701D01*
X1012138Y829772D01*
X1012055Y829835D01*
G02X1011902Y830004I543J647D01*
G01X1011760Y830248D01*
X1011657Y830524D01*
X1011602Y830787D01*
X1011575Y831071D01*
X1012433D01*
X1012492Y830815D01*
G03X1012638Y830488I948J227D01*
G01X1012886Y830268D01*
X1013197Y830181D01*
X1013535Y830244D01*
G03X1013768Y830394I-266J668D01*
G01X1013925Y830618D01*
G03X1013984Y830890I-655J285D01*
G03X1013937Y831169I-792J10D01*
G03X1013850Y831319I-443J-157D01*
G03X1013713Y831433I-402J-345D01*
G03X1013516Y831512I-386J-680D01*
G01X1013256Y831555D01*
X1012945Y831587D01*
Y832228D01*
X1013173D01*
X1013472Y832264D01*
G03X1013701Y832374I-165J634D01*
G03X1013846Y832547I-291J393D01*
G01X1013898Y832772D01*
X1013811Y833083D01*
G03X1013563Y833307I-535J-342D01*
G03X1013232Y833382I-309J-597D01*
G03X1012906Y833283I24J-672D01*
G03X1012795Y833193I279J-452D01*
G03X1012697Y833063I545J-515D01*
G03X1012622Y832906I801J-477D01*
G01X1012571Y832717D01*
G02X1012539Y832634I-279J59D01*
G01X1012488Y832598D01*
X1012394Y832583D01*
X1012110Y832579D01*
X1011677D01*
X1011713Y832811D01*
X1011831Y833244D01*
X1012051Y833602D01*
G02X1012362Y833878I1064J-888D01*
G02X1012760Y834067I928J-1439D01*
G01X1013358Y834118D01*
G37*
G36*
G01X1002142Y856236D02*
X1015335D01*
Y848646D01*
X1002138D01*
X1000264Y850516D01*
G02X999547Y851236I139819J139771D01*
G01X998945Y851854D01*
X998406Y852406D01*
G02X998394Y852441I39J33D01*
G01X998406Y852476D01*
X998945Y853028D01*
G02X999547Y853642I73556J-71539D01*
G01X1002142Y856236D01*
G37*
G36*
G01Y846394D02*
X1015335D01*
Y838803D01*
X1002138D01*
X1000264Y840673D01*
G02X999547Y841394I139819J139771D01*
G01X998945Y842012D01*
X998406Y842563D01*
G02X998394Y842598I39J33D01*
G01X998406Y842634D01*
X998945Y843185D01*
G02X999547Y843799I73556J-71539D01*
G01X1002142Y846394D01*
G37*
G36*
G01X1001748Y966079D02*
X1014941D01*
Y958488D01*
X1001744D01*
X999870Y960358D01*
G02X999154Y961079I139819J139771D01*
G01X998551Y961697D01*
X998012Y962248D01*
G02X998000Y962283I39J33D01*
G01X998012Y962319D01*
X998551Y962870D01*
G02X999154Y963484I73556J-71539D01*
G01X1001748Y966079D01*
G37*
%LPD*%
G75*
G36*
G01X792811Y854673D02*
X792445Y854661D01*
G03X792150Y854602I124J-1390D01*
G03X791791Y854445I523J-1675D01*
G01X791445Y854197D01*
G03X791150Y853894I1524J-1780D01*
G01X790937Y853563D01*
G03X790843Y853323I1539J-744D01*
G01X790760Y853004D01*
X790701Y852681D01*
G03X790681Y852413I1817J-268D01*
G03X790760Y851791I2498J0D01*
G03X790988Y851213I2420J621D01*
G01X791343Y850728D01*
G03X791783Y850402I1180J1132D01*
G01X792335Y850205D01*
X792878Y850165D01*
X793378Y850283D01*
G03X793815Y850555I-611J1470D01*
G01X793988Y850709D01*
X794031Y850492D01*
X794075Y850280D01*
X794386Y850264D01*
X794701Y850248D01*
Y852614D01*
X792890D01*
Y851909D01*
X793508D01*
X793657Y851902D01*
X793783Y851894D01*
G02X793807Y851882I-6J-41D01*
G02X793827Y851803I-55J-56D01*
G01X793760Y851598D01*
X793661Y851390D01*
G02X793563Y851252I-545J285D01*
G02X793299Y851067I-600J574D01*
G02X792961Y850972I-491J1106D01*
G01X792594Y850980D01*
G02X792256Y851091I176J1116D01*
G01X792071Y851224D01*
X791902Y851433D01*
X791764Y851685D01*
G02X791681Y851949I1286J548D01*
G02X791638Y852390I2011J420D01*
G02X791685Y852850I2511J-25D01*
G01X791811Y853264D01*
G02X792000Y853563I929J-378D01*
G02X792236Y853736I565J-523D01*
G01X792563Y853846D01*
X792909Y853870D01*
G02X793209Y853803I-42J-891D01*
G02X793350Y853720I-231J-558D01*
G01X793496Y853583D01*
G02X793614Y853429I-880J-799D01*
G02X793673Y853291I-394J-250D01*
G03X793709Y853220I182J47D01*
G03X793764Y853185I79J62D01*
G01X793870Y853169D01*
X794154D01*
G03X794488Y853177I-7J7399D01*
G03X794579Y853220I-6J128D01*
G03X794602Y853315I-79J70D01*
G01X794516Y853598D01*
G03X794366Y853886I-1010J-343D01*
G03X794114Y854173I-1710J-1245D01*
G01X793807Y854413D01*
X793496Y854567D01*
G03X792811Y854673I-839J-3149D01*
G37*
G36*
G01Y844831D02*
X792445Y844819D01*
G03X792150Y844760I124J-1390D01*
G03X791791Y844602I523J-1675D01*
G01X791445Y844354D01*
G03X791150Y844051I1524J-1780D01*
G01X790937Y843720D01*
G03X790843Y843480I1539J-744D01*
G01X790760Y843161D01*
X790701Y842839D01*
G03X790681Y842571I1817J-268D01*
G03X790760Y841949I2498J0D01*
G03X790988Y841370I2420J621D01*
G01X791343Y840886D01*
G03X791783Y840559I1180J1132D01*
G01X792335Y840362D01*
X792878Y840323D01*
X793378Y840441D01*
G03X793815Y840713I-611J1470D01*
G01X793988Y840866D01*
X794031Y840650D01*
X794075Y840437D01*
X794386Y840421D01*
X794701Y840406D01*
Y842772D01*
X792890D01*
Y842067D01*
X793508D01*
X793657Y842059D01*
X793783Y842051D01*
G02X793807Y842039I-6J-41D01*
G02X793827Y841961I-55J-56D01*
G01X793760Y841756D01*
X793661Y841547D01*
G02X793563Y841409I-545J285D01*
G02X793299Y841224I-600J574D01*
G02X792961Y841130I-491J1106D01*
G01X792594Y841138D01*
G02X792256Y841248I176J1116D01*
G01X792071Y841382D01*
X791902Y841591D01*
X791764Y841843D01*
G02X791681Y842106I1286J548D01*
G02X791638Y842547I2011J420D01*
G02X791685Y843008I2511J-25D01*
G01X791811Y843421D01*
G02X792000Y843720I929J-378D01*
G02X792236Y843894I565J-523D01*
G01X792563Y844004D01*
X792909Y844028D01*
G02X793209Y843961I-42J-891D01*
G02X793350Y843878I-231J-558D01*
G01X793496Y843740D01*
G02X793614Y843587I-880J-799D01*
G02X793673Y843449I-394J-250D01*
G03X793709Y843378I182J47D01*
G03X793764Y843343I79J62D01*
G01X793870Y843327D01*
X794154D01*
G03X794488Y843335I-7J7399D01*
G03X794579Y843378I-6J128D01*
G03X794602Y843472I-79J70D01*
G01X794516Y843756D01*
G03X794366Y844043I-1010J-343D01*
G03X794114Y844331I-1710J-1245D01*
G01X793807Y844571D01*
X793496Y844724D01*
G03X792811Y844831I-839J-3149D01*
G37*
G36*
G01X802252Y854535D02*
X801949Y854551D01*
X801146Y854567D01*
X799929Y854583D01*
Y850244D01*
X801122Y850260D01*
X801906Y850276D01*
X802205Y850295D01*
X802406Y850339D01*
X802630Y850421D01*
G03X803035Y850681I-741J1602D01*
G01X803354Y851043D01*
X803583Y851500D01*
X803709Y852039D01*
X803720Y852811D01*
X803535Y853492D01*
X803177Y854039D01*
G03X802669Y854409I-1216J-1135D01*
G01X802252Y854535D01*
G37*
G36*
G01X796425Y854551D02*
X795941Y854563D01*
X795453Y854579D01*
Y850252D01*
X796358D01*
X796370Y851685D01*
X796386Y853114D01*
X797264Y851685D01*
X798142Y850252D01*
X798622Y850264D01*
X799098Y850280D01*
X799110Y852425D01*
X799126Y854575D01*
X798220D01*
X798209Y853130D01*
X798193Y851689D01*
X797311Y853118D01*
X796425Y854551D01*
G37*
G36*
G01Y844709D02*
X795941Y844720D01*
X795453Y844736D01*
Y840409D01*
X796358D01*
X796370Y841843D01*
X796386Y843272D01*
X797264Y841843D01*
X798142Y840409D01*
X798622Y840421D01*
X799098Y840437D01*
X799110Y842583D01*
X799126Y844732D01*
X798220D01*
X798209Y843287D01*
X798193Y841846D01*
X797311Y843276D01*
X796425Y844709D01*
G37*
G36*
G01X802252Y844693D02*
X801949Y844709D01*
X801146Y844724D01*
X799929Y844740D01*
Y840402D01*
X801122Y840417D01*
X801906Y840433D01*
X802205Y840453D01*
X802406Y840496D01*
X802630Y840579D01*
G03X803035Y840839I-741J1602D01*
G01X803354Y841201D01*
X803583Y841657D01*
X803709Y842197D01*
X803720Y842969D01*
X803535Y843650D01*
X803177Y844197D01*
G03X802669Y844567I-1216J-1135D01*
G01X802252Y844693D01*
G37*
G36*
G01X836976Y954945D02*
X836492Y954957D01*
X836004Y954972D01*
Y950646D01*
X836909D01*
X836921Y952079D01*
X836937Y953508D01*
X837815Y952079D01*
X838693Y950646D01*
X839173Y950657D01*
X839650Y950673D01*
X839661Y952819D01*
X839677Y954969D01*
X838772D01*
X838760Y953524D01*
X838744Y952083D01*
X837862Y953512D01*
X836976Y954945D01*
G37*
G36*
G01X833362Y955067D02*
X832996Y955055D01*
G03X832701Y954996I124J-1390D01*
G03X832343Y954839I523J-1675D01*
G01X831996Y954591D01*
G03X831701Y954287I1524J-1780D01*
G01X831488Y953957D01*
G03X831394Y953717I1539J-744D01*
G01X831311Y953398D01*
X831252Y953075D01*
G03X831232Y952807I1817J-268D01*
G03X831311Y952185I2498J0D01*
G03X831539Y951606I2420J621D01*
G01X831894Y951122D01*
G03X832335Y950795I1180J1132D01*
G01X832886Y950598D01*
X833429Y950559D01*
X833929Y950677D01*
G03X834366Y950949I-611J1470D01*
G01X834539Y951102D01*
X834583Y950886D01*
X834626Y950673D01*
X834937Y950657D01*
X835252Y950642D01*
Y953008D01*
X833441D01*
Y952303D01*
X834059D01*
X834209Y952295D01*
X834335Y952287D01*
G02X834358Y952276I-6J-41D01*
G02X834378Y952197I-55J-56D01*
G01X834311Y951992D01*
X834213Y951783D01*
G02X834114Y951646I-545J285D01*
G02X833850Y951461I-600J574D01*
G02X833512Y951366I-491J1106D01*
G01X833146Y951374D01*
G02X832807Y951484I176J1116D01*
G01X832622Y951618D01*
X832453Y951827D01*
X832315Y952079D01*
G02X832232Y952343I1286J548D01*
G02X832189Y952783I2011J420D01*
G02X832236Y953244I2511J-25D01*
G01X832362Y953657D01*
G02X832551Y953957I929J-378D01*
G02X832787Y954130I565J-523D01*
G01X833114Y954240D01*
X833461Y954264D01*
G02X833760Y954197I-42J-891D01*
G02X833902Y954114I-231J-558D01*
G01X834047Y953976D01*
G02X834165Y953823I-880J-799D01*
G02X834224Y953685I-394J-250D01*
G03X834260Y953614I182J47D01*
G03X834315Y953579I79J62D01*
G01X834421Y953563D01*
X834705D01*
G03X835039Y953571I-7J7399D01*
G03X835130Y953614I-6J128D01*
G03X835154Y953709I-79J70D01*
G01X835067Y953992D01*
G03X834917Y954280I-1010J-343D01*
G03X834665Y954567I-1710J-1245D01*
G01X834358Y954807D01*
X834047Y954961D01*
G03X833362Y955067I-839J-3149D01*
G37*
G36*
G01X830366Y983362D02*
X830378Y982996D01*
G03X830437Y982701I1390J124D01*
G03X830594Y982343I1675J523D01*
G01X830843Y981996D01*
G03X831146Y981701I1780J1524D01*
G01X831476Y981488D01*
G03X831717Y981394I744J1539D01*
G01X832035Y981311D01*
X832358Y981252D01*
G03X832626Y981232I268J1817D01*
G03X833248Y981311I0J2498D01*
G03X833827Y981539I-621J2420D01*
G01X834311Y981894D01*
G03X834638Y982335I-1132J1180D01*
G01X834835Y982886D01*
X834874Y983429D01*
X834756Y983929D01*
G03X834484Y984366I-1470J-611D01*
G01X834331Y984539D01*
X834547Y984583D01*
X834760Y984626D01*
X834776Y984937D01*
X834791Y985252D01*
X832425D01*
Y983441D01*
X833130D01*
Y984059D01*
X833138Y984209D01*
X833146Y984335D01*
G02X833157Y984358I41J-6D01*
G02X833236Y984378I56J-55D01*
G01X833441Y984311D01*
X833650Y984213D01*
G02X833787Y984114I-285J-545D01*
G02X833972Y983850I-574J-600D01*
G02X834067Y983512I-1106J-491D01*
G01X834059Y983146D01*
G02X833949Y982807I-1116J176D01*
G01X833815Y982622D01*
X833606Y982453D01*
X833354Y982315D01*
G02X833091Y982232I-548J1286D01*
G02X832650Y982189I-420J2011D01*
G02X832189Y982236I25J2511D01*
G01X831776Y982362D01*
G02X831476Y982551I378J929D01*
G02X831303Y982787I523J565D01*
G01X831193Y983114D01*
X831169Y983461D01*
G02X831236Y983760I891J-42D01*
G02X831319Y983902I558J-231D01*
G01X831457Y984047D01*
G02X831610Y984165I799J-880D01*
G02X831748Y984224I250J-394D01*
G03X831819Y984260I-47J182D01*
G03X831854Y984315I-62J79D01*
G01X831870Y984421D01*
Y984705D01*
G03X831862Y985039I-7399J-7D01*
G03X831819Y985130I-128J-6D01*
G03X831724Y985154I-70J-79D01*
G01X831441Y985067D01*
G03X831154Y984917I343J-1010D01*
G03X830866Y984665I1245J-1710D01*
G01X830626Y984358D01*
X830472Y984047D01*
G03X830366Y983362I3149J-839D01*
G37*
G36*
G01X830488Y986976D02*
X830476Y986492D01*
X830461Y986004D01*
X834787D01*
Y986909D01*
X833354Y986921D01*
X831925Y986937D01*
X833354Y987815D01*
X834787Y988693D01*
X834776Y989173D01*
X834760Y989650D01*
X832614Y989661D01*
X830465Y989677D01*
Y988772D01*
X831909Y988760D01*
X833350Y988744D01*
X831921Y987862D01*
X830488Y986976D01*
G37*
G36*
G01X830504Y992803D02*
X830488Y992500D01*
X830472Y991697D01*
X830457Y990480D01*
X834795D01*
X834780Y991673D01*
X834764Y992457D01*
X834744Y992756D01*
X834701Y992957D01*
X834618Y993181D01*
G03X834358Y993587I-1602J-741D01*
G01X833996Y993906D01*
X833539Y994134D01*
X833000Y994260D01*
X832228Y994272D01*
X831547Y994087D01*
X831000Y993728D01*
G03X830630Y993220I1135J-1216D01*
G01X830504Y992803D01*
G37*
G36*
G01X842803Y954929D02*
X842500Y954945D01*
X841697Y954961D01*
X840480Y954976D01*
Y950638D01*
X841673Y950654D01*
X842457Y950669D01*
X842756Y950689D01*
X842957Y950732D01*
X843181Y950815D01*
G03X843587Y951075I-741J1602D01*
G01X843906Y951437D01*
X844134Y951894D01*
X844260Y952433D01*
X844272Y953205D01*
X844087Y953886D01*
X843728Y954433D01*
G03X843220Y954803I-1216J-1135D01*
G01X842803Y954929D01*
G37*
G36*
G01X1003441Y854673D02*
X1003075Y854661D01*
G03X1002780Y854602I124J-1390D01*
G03X1002421Y854445I523J-1675D01*
G01X1002075Y854197D01*
G03X1001780Y853894I1524J-1780D01*
G01X1001567Y853563D01*
G03X1001472Y853323I1539J-744D01*
G01X1001390Y853004D01*
X1001331Y852681D01*
G03X1001311Y852413I1817J-268D01*
G03X1001390Y851791I2498J0D01*
G03X1001618Y851213I2420J621D01*
G01X1001972Y850728D01*
G03X1002413Y850402I1180J1132D01*
G01X1002965Y850205D01*
X1003508Y850165D01*
X1004008Y850283D01*
G03X1004445Y850555I-611J1470D01*
G01X1004618Y850709D01*
X1004661Y850492D01*
X1004705Y850280D01*
X1005016Y850264D01*
X1005331Y850248D01*
Y852614D01*
X1003520D01*
Y851909D01*
X1004138D01*
X1004287Y851902D01*
X1004413Y851894D01*
G02X1004437Y851882I-6J-41D01*
G02X1004457Y851803I-55J-56D01*
G01X1004390Y851598D01*
X1004291Y851390D01*
G02X1004193Y851252I-545J285D01*
G02X1003929Y851067I-600J574D01*
G02X1003591Y850972I-491J1106D01*
G01X1003224Y850980D01*
G02X1002886Y851091I176J1116D01*
G01X1002701Y851224D01*
X1002531Y851433D01*
X1002394Y851685D01*
G02X1002311Y851949I1286J548D01*
G02X1002268Y852390I2011J420D01*
G02X1002315Y852850I2511J-25D01*
G01X1002441Y853264D01*
G02X1002630Y853563I929J-378D01*
G02X1002866Y853736I565J-523D01*
G01X1003193Y853846D01*
X1003539Y853870D01*
G02X1003839Y853803I-42J-891D01*
G02X1003980Y853720I-231J-558D01*
G01X1004126Y853583D01*
G02X1004244Y853429I-880J-799D01*
G02X1004303Y853291I-394J-250D01*
G03X1004339Y853220I182J47D01*
G03X1004394Y853185I79J62D01*
G01X1004500Y853169D01*
X1004783D01*
G03X1005118Y853177I-7J7399D01*
G03X1005209Y853220I-6J128D01*
G03X1005232Y853315I-79J70D01*
G01X1005146Y853598D01*
G03X1004996Y853886I-1010J-343D01*
G03X1004744Y854173I-1710J-1245D01*
G01X1004437Y854413D01*
X1004126Y854567D01*
G03X1003441Y854673I-839J-3149D01*
G37*
G36*
G01X1007055Y854551D02*
X1006571Y854563D01*
X1006083Y854579D01*
Y850252D01*
X1006988D01*
X1007000Y851685D01*
X1007016Y853114D01*
X1007894Y851685D01*
X1008772Y850252D01*
X1009252Y850264D01*
X1009728Y850280D01*
X1009740Y852425D01*
X1009756Y854575D01*
X1008850D01*
X1008839Y853130D01*
X1008823Y851689D01*
X1007941Y853118D01*
X1007055Y854551D01*
G37*
G36*
G01X1003441Y844831D02*
X1003075Y844819D01*
G03X1002780Y844760I124J-1390D01*
G03X1002421Y844602I523J-1675D01*
G01X1002075Y844354D01*
G03X1001780Y844051I1524J-1780D01*
G01X1001567Y843720D01*
G03X1001472Y843480I1539J-744D01*
G01X1001390Y843161D01*
X1001331Y842839D01*
G03X1001311Y842571I1817J-268D01*
G03X1001390Y841949I2498J0D01*
G03X1001618Y841370I2420J621D01*
G01X1001972Y840886D01*
G03X1002413Y840559I1180J1132D01*
G01X1002965Y840362D01*
X1003508Y840323D01*
X1004008Y840441D01*
G03X1004445Y840713I-611J1470D01*
G01X1004618Y840866D01*
X1004661Y840650D01*
X1004705Y840437D01*
X1005016Y840421D01*
X1005331Y840406D01*
Y842772D01*
X1003520D01*
Y842067D01*
X1004138D01*
X1004287Y842059D01*
X1004413Y842051D01*
G02X1004437Y842039I-6J-41D01*
G02X1004457Y841961I-55J-56D01*
G01X1004390Y841756D01*
X1004291Y841547D01*
G02X1004193Y841409I-545J285D01*
G02X1003929Y841224I-600J574D01*
G02X1003591Y841130I-491J1106D01*
G01X1003224Y841138D01*
G02X1002886Y841248I176J1116D01*
G01X1002701Y841382D01*
X1002531Y841591D01*
X1002394Y841843D01*
G02X1002311Y842106I1286J548D01*
G02X1002268Y842547I2011J420D01*
G02X1002315Y843008I2511J-25D01*
G01X1002441Y843421D01*
G02X1002630Y843720I929J-378D01*
G02X1002866Y843894I565J-523D01*
G01X1003193Y844004D01*
X1003539Y844028D01*
G02X1003839Y843961I-42J-891D01*
G02X1003980Y843878I-231J-558D01*
G01X1004126Y843740D01*
G02X1004244Y843587I-880J-799D01*
G02X1004303Y843449I-394J-250D01*
G03X1004339Y843378I182J47D01*
G03X1004394Y843343I79J62D01*
G01X1004500Y843327D01*
X1004783D01*
G03X1005118Y843335I-7J7399D01*
G03X1005209Y843378I-6J128D01*
G03X1005232Y843472I-79J70D01*
G01X1005146Y843756D01*
G03X1004996Y844043I-1010J-343D01*
G03X1004744Y844331I-1710J-1245D01*
G01X1004437Y844571D01*
X1004126Y844724D01*
G03X1003441Y844831I-839J-3149D01*
G37*
G36*
G01X1007055Y844709D02*
X1006571Y844720D01*
X1006083Y844736D01*
Y840409D01*
X1006988D01*
X1007000Y841843D01*
X1007016Y843272D01*
X1007894Y841843D01*
X1008772Y840409D01*
X1009252Y840421D01*
X1009728Y840437D01*
X1009740Y842583D01*
X1009756Y844732D01*
X1008850D01*
X1008839Y843287D01*
X1008823Y841846D01*
X1007941Y843276D01*
X1007055Y844709D01*
G37*
G36*
G01X1006661Y964394D02*
X1006177Y964406D01*
X1005689Y964421D01*
Y960094D01*
X1006594D01*
X1006606Y961528D01*
X1006622Y962957D01*
X1007500Y961528D01*
X1008378Y960094D01*
X1008858Y960106D01*
X1009335Y960122D01*
X1009346Y962268D01*
X1009362Y964417D01*
X1008457D01*
X1008445Y962972D01*
X1008429Y961531D01*
X1007547Y962961D01*
X1006661Y964394D01*
G37*
G36*
G01X1003047Y964516D02*
X1002681Y964504D01*
G03X1002386Y964445I124J-1390D01*
G03X1002028Y964287I523J-1675D01*
G01X1001681Y964039D01*
G03X1001386Y963736I1524J-1780D01*
G01X1001173Y963406D01*
G03X1001079Y963165I1539J-744D01*
G01X1000996Y962846D01*
X1000937Y962524D01*
G03X1000917Y962256I1817J-268D01*
G03X1000996Y961634I2498J0D01*
G03X1001224Y961055I2420J621D01*
G01X1001579Y960571D01*
G03X1002020Y960244I1180J1132D01*
G01X1002571Y960047D01*
X1003114Y960008D01*
X1003614Y960126D01*
G03X1004051Y960398I-611J1470D01*
G01X1004224Y960551D01*
X1004268Y960335D01*
X1004311Y960122D01*
X1004622Y960106D01*
X1004937Y960091D01*
Y962457D01*
X1003126D01*
Y961752D01*
X1003744D01*
X1003894Y961744D01*
X1004020Y961736D01*
G02X1004043Y961724I-6J-41D01*
G02X1004063Y961646I-55J-56D01*
G01X1003996Y961441D01*
X1003898Y961232D01*
G02X1003799Y961094I-545J285D01*
G02X1003535Y960909I-600J574D01*
G02X1003197Y960815I-491J1106D01*
G01X1002831Y960823D01*
G02X1002492Y960933I176J1116D01*
G01X1002307Y961067D01*
X1002138Y961276D01*
X1002000Y961528D01*
G02X1001917Y961791I1286J548D01*
G02X1001874Y962232I2011J420D01*
G02X1001921Y962693I2511J-25D01*
G01X1002047Y963106D01*
G02X1002236Y963406I929J-378D01*
G02X1002472Y963579I565J-523D01*
G01X1002799Y963689D01*
X1003146Y963713D01*
G02X1003445Y963646I-42J-891D01*
G02X1003587Y963563I-231J-558D01*
G01X1003732Y963425D01*
G02X1003850Y963272I-880J-799D01*
G02X1003909Y963134I-394J-250D01*
G03X1003945Y963063I182J47D01*
G03X1004000Y963028I79J62D01*
G01X1004106Y963012D01*
X1004390D01*
G03X1004724Y963020I-7J7399D01*
G03X1004815Y963063I-6J128D01*
G03X1004839Y963157I-79J70D01*
G01X1004752Y963441D01*
G03X1004602Y963728I-1010J-343D01*
G03X1004350Y964016I-1710J-1245D01*
G01X1004043Y964256D01*
X1003732Y964409D01*
G03X1003047Y964516I-839J-3149D01*
G37*
G36*
G01X1012882Y854535D02*
X1012579Y854551D01*
X1011776Y854567D01*
X1010559Y854583D01*
Y850244D01*
X1011752Y850260D01*
X1012535Y850276D01*
X1012835Y850295D01*
X1013035Y850339D01*
X1013260Y850421D01*
G03X1013665Y850681I-741J1602D01*
G01X1013984Y851043D01*
X1014213Y851500D01*
X1014339Y852039D01*
X1014350Y852811D01*
X1014165Y853492D01*
X1013807Y854039D01*
G03X1013299Y854409I-1216J-1135D01*
G01X1012882Y854535D01*
G37*
G36*
G01Y844693D02*
X1012579Y844709D01*
X1011776Y844724D01*
X1010559Y844740D01*
Y840402D01*
X1011752Y840417D01*
X1012535Y840433D01*
X1012835Y840453D01*
X1013035Y840496D01*
X1013260Y840579D01*
G03X1013665Y840839I-741J1602D01*
G01X1013984Y841201D01*
X1014213Y841657D01*
X1014339Y842197D01*
X1014350Y842969D01*
X1014165Y843650D01*
X1013807Y844197D01*
G03X1013299Y844567I-1216J-1135D01*
G01X1012882Y844693D01*
G37*
G36*
G01X1012488Y964378D02*
X1012185Y964394D01*
X1011382Y964409D01*
X1010165Y964425D01*
Y960087D01*
X1011358Y960102D01*
X1012142Y960118D01*
X1012441Y960138D01*
X1012642Y960181D01*
X1012866Y960264D01*
G03X1013272Y960524I-741J1602D01*
G01X1013591Y960886D01*
X1013819Y961343D01*
X1013945Y961882D01*
X1013957Y962654D01*
X1013772Y963335D01*
X1013413Y963882D01*
G03X1012906Y964252I-1216J-1135D01*
G01X1012488Y964378D01*
G37*
%LPC*%
G75*
G36*
G01X800882Y853783D02*
X801480Y853764D01*
X801854Y853748D01*
X802028Y853728D01*
X802150Y853681D01*
X802295Y853594D01*
X802500Y853409D01*
X802642Y853185D01*
G02X802732Y852906I-1131J-521D01*
G01X802780Y852551D01*
Y852165D01*
G02X802724Y851843I-1611J109D01*
G02X802614Y851575I-1184J331D01*
G02X802449Y851354I-869J479D01*
G01X802260Y851209D01*
X802055Y851118D01*
G02X801780Y851071I-371J1338D01*
G01X801374Y851055D01*
X800882D01*
Y853783D01*
G37*
G36*
G01Y843941D02*
X801480Y843921D01*
X801854Y843906D01*
X802028Y843886D01*
X802150Y843839D01*
X802295Y843752D01*
X802500Y843567D01*
X802642Y843343D01*
G02X802732Y843063I-1131J-521D01*
G01X802780Y842709D01*
Y842323D01*
G02X802724Y842000I-1611J109D01*
G02X802614Y841732I-1184J331D01*
G02X802449Y841512I-869J479D01*
G01X802260Y841366D01*
X802055Y841276D01*
G02X801780Y841228I-371J1338D01*
G01X801374Y841213D01*
X800882D01*
Y843941D01*
G37*
G36*
G01X831256Y991433D02*
X831276Y992031D01*
X831291Y992406D01*
X831311Y992579D01*
X831358Y992701D01*
X831445Y992846D01*
X831630Y993051D01*
X831854Y993193D01*
G02X832134Y993283I521J-1131D01*
G01X832488Y993331D01*
X832874D01*
G02X833197Y993276I-109J-1611D01*
G02X833465Y993165I-331J-1184D01*
G02X833685Y993000I-479J-869D01*
G01X833831Y992811D01*
X833921Y992606D01*
G02X833969Y992331I-1338J-371D01*
G01X833984Y991925D01*
Y991433D01*
X831256D01*
G37*
G36*
G01X841433Y954177D02*
X842031Y954157D01*
X842406Y954142D01*
X842579Y954122D01*
X842701Y954075D01*
X842846Y953988D01*
X843051Y953803D01*
X843193Y953579D01*
G02X843283Y953299I-1131J-521D01*
G01X843331Y952945D01*
Y952559D01*
G02X843276Y952236I-1611J109D01*
G02X843165Y951969I-1184J331D01*
G02X843000Y951748I-869J479D01*
G01X842811Y951602D01*
X842606Y951512D01*
G02X842331Y951465I-371J1338D01*
G01X841925Y951449D01*
X841433D01*
Y954177D01*
G37*
G36*
G01X1011512Y853783D02*
X1012110Y853764D01*
X1012484Y853748D01*
X1012657Y853728D01*
X1012780Y853681D01*
X1012925Y853594D01*
X1013130Y853409D01*
X1013272Y853185D01*
G02X1013362Y852906I-1131J-521D01*
G01X1013409Y852551D01*
Y852165D01*
G02X1013354Y851843I-1611J109D01*
G02X1013244Y851575I-1184J331D01*
G02X1013079Y851354I-869J479D01*
G01X1012890Y851209D01*
X1012685Y851118D01*
G02X1012409Y851071I-371J1338D01*
G01X1012004Y851055D01*
X1011512D01*
Y853783D01*
G37*
G36*
G01Y843941D02*
X1012110Y843921D01*
X1012484Y843906D01*
X1012657Y843886D01*
X1012780Y843839D01*
X1012925Y843752D01*
X1013130Y843567D01*
X1013272Y843343D01*
G02X1013362Y843063I-1131J-521D01*
G01X1013409Y842709D01*
Y842323D01*
G02X1013354Y842000I-1611J109D01*
G02X1013244Y841732I-1184J331D01*
G02X1013079Y841512I-869J479D01*
G01X1012890Y841366D01*
X1012685Y841276D01*
G02X1012409Y841228I-371J1338D01*
G01X1012004Y841213D01*
X1011512D01*
Y843941D01*
G37*
G36*
G01X1011118Y963626D02*
X1011717Y963606D01*
X1012091Y963591D01*
X1012264Y963571D01*
X1012386Y963524D01*
X1012531Y963437D01*
X1012736Y963252D01*
X1012878Y963028D01*
G02X1012969Y962748I-1131J-521D01*
G01X1013016Y962394D01*
Y962008D01*
G02X1012961Y961685I-1611J109D01*
G02X1012850Y961417I-1184J331D01*
G02X1012685Y961197I-869J479D01*
G01X1012496Y961051D01*
X1012291Y960961D01*
G02X1012016Y960913I-371J1338D01*
G01X1011610Y960898D01*
X1011118D01*
Y963626D01*
G37*
%LPD*%
G75*
G54D10*
G01X994346Y687303D02*
Y690402D01*
X995343Y687819D01*
X996339Y690402D01*
Y687303D01*
G01X999283Y690142D02*
X999055Y690299D01*
X998787Y690402D01*
X998480D01*
X998134Y690248D01*
X997866Y689988D01*
X997673Y689677D01*
X997520Y689161D01*
X997484Y688697D01*
X997559Y688232D01*
X997673Y687921D01*
X997906Y687614D01*
X998173Y687406D01*
X998441Y687303D01*
X998709D01*
X998976Y687406D01*
X999209Y687563D01*
X999398Y687768D01*
G01X1000697Y690402D02*
Y688181D01*
X1000850Y687717D01*
X1001157Y687406D01*
X1001539Y687303D01*
X1001921Y687406D01*
X1002228Y687717D01*
X1002382Y688181D01*
Y690402D01*
G01X1004638D02*
X1004331Y690299D01*
X1004102Y690039D01*
X1003949Y689728D01*
X1003835Y689319D01*
X1003795Y688850D01*
X1003835Y688386D01*
X1003949Y687976D01*
X1004102Y687665D01*
X1004331Y687406D01*
X1004638Y687303D01*
X1004945Y687406D01*
X1005173Y687665D01*
X1005327Y687976D01*
X1005441Y688386D01*
X1005480Y688850D01*
X1005441Y689319D01*
X1005327Y689728D01*
X1005173Y690039D01*
X1004945Y690299D01*
X1004638Y690402D01*
G01X1007661Y687303D02*
X1007736Y687976D01*
X1007850Y688543D01*
X1008004Y689059D01*
X1008197Y689626D01*
X1008504Y690402D01*
X1006969D01*
G01X1009992Y687768D02*
X1010220Y687508D01*
X1010488Y687354D01*
X1010835Y687303D01*
X1011181Y687406D01*
X1011449Y687614D01*
X1011638Y687976D01*
X1011677Y688386D01*
X1011602Y688799D01*
X1011409Y689059D01*
X1011142Y689264D01*
X1010874Y689319D01*
X1010606Y689264D01*
X1010260Y689059D01*
X1010374Y690402D01*
X1011409D01*
G01X1016264Y687303D02*
Y690402D01*
X1017224D01*
X1017531Y690248D01*
X1017720Y690039D01*
X1017799Y689626D01*
X1017720Y689213D01*
X1017492Y688957D01*
X1017224Y688799D01*
X1016264D01*
G01X1017224D02*
X1017799Y687303D01*
G01X1019555Y688697D02*
X1020780D01*
X1020665Y689059D01*
X1020476Y689264D01*
X1020205Y689370D01*
X1019937Y689319D01*
X1019709Y689161D01*
X1019555Y688799D01*
X1019480Y688492D01*
Y688181D01*
X1019555Y687870D01*
X1019748Y687563D01*
X1019976Y687354D01*
X1020244Y687303D01*
X1020512Y687406D01*
X1020780Y687717D01*
G01X1022539Y689370D02*
X1023228Y687303D01*
X1023917Y689370D01*
G01X1026327Y687201D02*
X1026252Y687252D01*
Y687354D01*
X1026327Y687406D01*
X1026402Y687354D01*
Y687252D01*
X1026327Y687201D01*
G01X1031567Y687303D02*
X1032524Y690402D01*
X1033480Y687303D01*
G01X1033138Y688386D02*
X1031909D01*
G01X994280Y698374D02*
Y695276D01*
X995815D01*
G01X997378D02*
Y698374D01*
X998299D01*
X998606Y698220D01*
X998835Y697858D01*
X998913Y697445D01*
X998835Y697031D01*
X998646Y696720D01*
X998299Y696567D01*
X997378D01*
G01X1000744Y696307D02*
X1001744D01*
G01X1005185Y698114D02*
X1004957Y698272D01*
X1004689Y698374D01*
X1004382D01*
X1004035Y698220D01*
X1003768Y697961D01*
X1003575Y697650D01*
X1003421Y697134D01*
X1003386Y696669D01*
X1003461Y696205D01*
X1003575Y695894D01*
X1003807Y695587D01*
X1004075Y695378D01*
X1004343Y695276D01*
X1004610D01*
X1004878Y695378D01*
X1005110Y695535D01*
X1005299Y695740D01*
G01X1008283Y698114D02*
X1008055Y698272D01*
X1007787Y698374D01*
X1007480D01*
X1007134Y698220D01*
X1006866Y697961D01*
X1006673Y697650D01*
X1006520Y697134D01*
X1006484Y696669D01*
X1006559Y696205D01*
X1006673Y695894D01*
X1006906Y695587D01*
X1007173Y695378D01*
X1007441Y695276D01*
X1007709D01*
X1007976Y695378D01*
X1008209Y695535D01*
X1008398Y695740D01*
G01X1009811Y697858D02*
X1010039Y698169D01*
X1010311Y698323D01*
X1010614Y698374D01*
X1011000Y698272D01*
X1011268Y698012D01*
X1011343Y697701D01*
X1011307Y697394D01*
X1011154Y697134D01*
X1010386Y696618D01*
X1010039Y696256D01*
X1009811Y695740D01*
X1009736Y695276D01*
X1011343D01*
G01X1012909Y696567D02*
X1013177Y696929D01*
X1013409Y697134D01*
X1013713Y697236D01*
X1013984Y697134D01*
X1014173Y696929D01*
X1014327Y696618D01*
X1014366Y696256D01*
X1014327Y695949D01*
X1014173Y695638D01*
X1013945Y695378D01*
X1013677Y695276D01*
X1013370Y695378D01*
X1013102Y695689D01*
X1012949Y696154D01*
X1012909Y696669D01*
X1012988Y697343D01*
X1013102Y697701D01*
X1013291Y698063D01*
X1013563Y698323D01*
X1013831Y698374D01*
X1014098Y698272D01*
X1014287Y698012D01*
G01X1015894Y695740D02*
X1016122Y695480D01*
X1016390Y695327D01*
X1016736Y695276D01*
X1017083Y695378D01*
X1017350Y695587D01*
X1017539Y695949D01*
X1017579Y696358D01*
X1017504Y696772D01*
X1017311Y697031D01*
X1017043Y697236D01*
X1016776Y697291D01*
X1016508Y697236D01*
X1016161Y697031D01*
X1016276Y698374D01*
X1017311D01*
G01X1019106Y697858D02*
X1019335Y698169D01*
X1019606Y698323D01*
X1019909Y698374D01*
X1020295Y698272D01*
X1020563Y698012D01*
X1020638Y697701D01*
X1020602Y697394D01*
X1020449Y697134D01*
X1019681Y696618D01*
X1019335Y696256D01*
X1019106Y695740D01*
X1019031Y695276D01*
X1020638D01*
G01X1022165D02*
Y698374D01*
X1023126D01*
X1023433Y698220D01*
X1023622Y698012D01*
X1023701Y697598D01*
X1023622Y697185D01*
X1023394Y696929D01*
X1023126Y696772D01*
X1022165D01*
G01X1023126D02*
X1023701Y695276D01*
G01X1025957D02*
X1026031Y695949D01*
X1026146Y696516D01*
X1026299Y697031D01*
X1026492Y697598D01*
X1026799Y698374D01*
X1025264D01*
G01X793157Y787402D02*
X1011961D01*
G03X1017717Y793157I0J5756D01*
G01Y962598D01*
G03X1013386Y975000I-19922J0D01*
G02X1009055Y987402I15591J12402D01*
G02X1013386Y999803I19922J0D01*
G03X1017717Y1012205I-15591J12402D01*
G01Y1156843D01*
G03X1011961Y1162598I-5756J0D01*
G01X849606D01*
Y1157874D01*
X843307D01*
Y1149606D01*
X839764D01*
Y1157874D01*
X824803D01*
Y1149606D01*
X821260D01*
Y1157874D01*
X814961D01*
Y1162598D01*
X793157D01*
G03X787402Y1156843I0J-5756D01*
G01Y1012205D01*
G03X791732Y999803I19922J0D01*
G02X796063Y987402I-15591J-12402D01*
G02X791732Y975000I-19922J0D01*
G03X787402Y962598I15591J-12402D01*
G01Y793157D01*
G03X793157Y787402I5756J0D01*
G01X939913Y689780D02*
X940661Y689154D01*
X941500Y688780D01*
X942248D01*
X942992Y689154D01*
X943555Y689780D01*
X943835Y690654D01*
X943646Y691528D01*
X943181Y692280D01*
X942339Y692780D01*
X941220Y693031D01*
X940567Y693528D01*
X940287Y694406D01*
X940476Y695280D01*
X940941Y695906D01*
X941594Y696280D01*
X942248D01*
X942902Y696031D01*
X943461Y695406D01*
G01X948256Y696280D02*
X950492D01*
G01X949374D02*
Y688780D01*
G01X948256D02*
X950492D01*
G01X955008Y696280D02*
Y688780D01*
X958740D01*
G01X962323D02*
Y696280D01*
G01X965866D02*
X962323Y691654D01*
G01X966425Y688780D02*
X963909Y693780D01*
G01X971874Y696280D02*
Y688780D01*
G01X969728Y696280D02*
X974020D01*
G01X979374Y688780D02*
X978626Y688906D01*
X977976Y689406D01*
X977413Y690154D01*
X977039Y691028D01*
X976854Y692028D01*
Y693031D01*
X977039Y694031D01*
X977413Y694906D01*
X977976Y695654D01*
X978626Y696154D01*
X979374Y696280D01*
X980122Y696154D01*
X980772Y695654D01*
X981335Y694906D01*
X981709Y694031D01*
X981894Y693031D01*
Y692028D01*
X981709Y691028D01*
X981335Y690154D01*
X980772Y689406D01*
X980122Y688906D01*
X979374Y688780D01*
G01X985008D02*
Y696280D01*
X987248D01*
X987992Y695906D01*
X988555Y695031D01*
X988740Y694031D01*
X988555Y693031D01*
X988087Y692280D01*
X987248Y691906D01*
X985008D01*
G01X951602Y668650D02*
Y676150D01*
X953469D01*
X954213Y675776D01*
X954772Y675276D01*
X955240Y674524D01*
X955614Y673650D01*
X955705Y672398D01*
X955614Y671150D01*
X955240Y670276D01*
X954772Y669524D01*
X954213Y669024D01*
X953469Y668650D01*
X951602D01*
G01X958819D02*
X961154Y676150D01*
X963488Y668650D01*
G01X962646Y671276D02*
X959661D01*
G01X968654Y676150D02*
Y668650D01*
G01X966508Y676150D02*
X970799D01*
G01X978020Y668650D02*
X974287D01*
Y676150D01*
X978020D01*
G01X976528Y672524D02*
X974287D01*
G01X983654Y668402D02*
X983469Y668524D01*
Y668776D01*
X983654Y668898D01*
X983839Y668776D01*
Y668524D01*
X983654Y668402D01*
G01Y671776D02*
X983469Y671898D01*
Y672150D01*
X983654Y672276D01*
X983839Y672150D01*
Y671898D01*
X983654Y671776D01*
G01X996882Y674902D02*
X997441Y675650D01*
X998094Y676024D01*
X998839Y676150D01*
X999772Y675902D01*
X1000425Y675276D01*
X1000614Y674524D01*
X1000520Y673776D01*
X1000146Y673150D01*
X998280Y671898D01*
X997441Y671024D01*
X996882Y669776D01*
X996693Y668650D01*
X1000614D01*
G01X1006154Y676150D02*
X1005406Y675902D01*
X1004846Y675276D01*
X1004472Y674524D01*
X1004193Y673524D01*
X1004102Y672398D01*
X1004193Y671276D01*
X1004472Y670276D01*
X1004846Y669524D01*
X1005406Y668898D01*
X1006154Y668650D01*
X1006902Y668898D01*
X1007461Y669524D01*
X1007835Y670276D01*
X1008114Y671276D01*
X1008205Y672398D01*
X1008114Y673524D01*
X1007835Y674524D01*
X1007461Y675276D01*
X1006902Y675902D01*
X1006154Y676150D01*
G01X1011882Y674902D02*
X1012441Y675650D01*
X1013094Y676024D01*
X1013839Y676150D01*
X1014772Y675902D01*
X1015425Y675276D01*
X1015614Y674524D01*
X1015520Y673776D01*
X1015146Y673150D01*
X1013280Y671898D01*
X1012441Y671024D01*
X1011882Y669776D01*
X1011693Y668650D01*
X1015614D01*
G01X1021154D02*
Y676150D01*
X1020035Y674650D01*
G01Y668650D02*
X1022272D01*
G01X1027441Y671150D02*
X1029866D01*
G01X1036154Y676150D02*
X1035406Y675902D01*
X1034846Y675276D01*
X1034472Y674524D01*
X1034193Y673524D01*
X1034102Y672398D01*
X1034193Y671276D01*
X1034472Y670276D01*
X1034846Y669524D01*
X1035406Y668898D01*
X1036154Y668650D01*
X1036902Y668898D01*
X1037461Y669524D01*
X1037835Y670276D01*
X1038114Y671276D01*
X1038205Y672398D01*
X1038114Y673524D01*
X1037835Y674524D01*
X1037461Y675276D01*
X1036902Y675902D01*
X1036154Y676150D01*
G01X1041602Y669776D02*
X1042161Y669150D01*
X1042815Y668776D01*
X1043654Y668650D01*
X1044492Y668898D01*
X1045146Y669398D01*
X1045614Y670276D01*
X1045705Y671276D01*
X1045520Y672276D01*
X1045051Y672902D01*
X1044402Y673398D01*
X1043748Y673524D01*
X1043094Y673398D01*
X1042256Y672902D01*
X1042535Y676150D01*
X1045051D01*
G01X1049941Y671150D02*
X1052366D01*
G01X1056882Y674902D02*
X1057441Y675650D01*
X1058094Y676024D01*
X1058839Y676150D01*
X1059772Y675902D01*
X1060425Y675276D01*
X1060614Y674524D01*
X1060520Y673776D01*
X1060146Y673150D01*
X1058280Y671898D01*
X1057441Y671024D01*
X1056882Y669776D01*
X1056693Y668650D01*
X1060614D01*
G01X1065969D02*
X1066154Y670276D01*
X1066433Y671650D01*
X1066807Y672902D01*
X1067272Y674276D01*
X1068020Y676150D01*
X1064287D01*
G01X953457Y715323D02*
Y707823D01*
G01X951311Y715323D02*
X955602D01*
G01X962823Y707823D02*
X959091D01*
Y715323D01*
X962823D01*
G01X961331Y711697D02*
X959091D01*
G01X966496Y707823D02*
X970417Y715323D01*
G01X966496D02*
X970417Y707823D01*
G01X973622D02*
X975957Y715323D01*
X978291Y707823D01*
G01X977449Y710449D02*
X974465D01*
G01X981496Y708823D02*
X982244Y708197D01*
X983083Y707823D01*
X983831D01*
X984575Y708197D01*
X985138Y708823D01*
X985417Y709697D01*
X985228Y710571D01*
X984764Y711323D01*
X983921Y711823D01*
X982803Y712075D01*
X982150Y712571D01*
X981870Y713449D01*
X982059Y714323D01*
X982524Y714949D01*
X983177Y715323D01*
X983831D01*
X984484Y715075D01*
X985043Y714449D01*
G01X997339Y715323D02*
X999575D01*
G01X998457D02*
Y707823D01*
G01X997339D02*
X999575D01*
G01X1003811D02*
Y715323D01*
X1008102Y707823D01*
Y715323D01*
G01X1011496Y708823D02*
X1012244Y708197D01*
X1013083Y707823D01*
X1013831D01*
X1014575Y708197D01*
X1015138Y708823D01*
X1015417Y709697D01*
X1015228Y710571D01*
X1014764Y711323D01*
X1013921Y711823D01*
X1012803Y712075D01*
X1012150Y712571D01*
X1011870Y713449D01*
X1012059Y714323D01*
X1012524Y714949D01*
X1013177Y715323D01*
X1013831D01*
X1014484Y715075D01*
X1015043Y714449D01*
G01X1020957Y715323D02*
Y707823D01*
G01X1018811Y715323D02*
X1023102D01*
G01X1026591Y707823D02*
Y715323D01*
X1028921D01*
X1029669Y714949D01*
X1030138Y714449D01*
X1030323Y713449D01*
X1030138Y712449D01*
X1029575Y711823D01*
X1028921Y711449D01*
X1026591D01*
G01X1028921D02*
X1030323Y707823D01*
G01X1033906Y715323D02*
Y709949D01*
X1034276Y708823D01*
X1035024Y708071D01*
X1035957Y707823D01*
X1036890Y708071D01*
X1037638Y708823D01*
X1038008Y709949D01*
Y715323D01*
G01X1041031Y707823D02*
Y715323D01*
X1043457Y709071D01*
X1045882Y715323D01*
Y707823D01*
G01X1052823D02*
X1049091D01*
Y715323D01*
X1052823D01*
G01X1051331Y711697D02*
X1049091D01*
G01X1056311Y707823D02*
Y715323D01*
X1060602Y707823D01*
Y715323D01*
G01X1065957D02*
Y707823D01*
G01X1063811Y715323D02*
X1068102D01*
G01X1071496Y708823D02*
X1072244Y708197D01*
X1073083Y707823D01*
X1073831D01*
X1074575Y708197D01*
X1075138Y708823D01*
X1075417Y709697D01*
X1075228Y710571D01*
X1074764Y711323D01*
X1073921Y711823D01*
X1072803Y712075D01*
X1072150Y712571D01*
X1071870Y713449D01*
X1072059Y714323D01*
X1072524Y714949D01*
X1073177Y715323D01*
X1073831D01*
X1074484Y715075D01*
X1075043Y714449D01*
G54D11*
G01X791634Y721260D02*
Y662205D01*
X1086909D01*
Y721260D01*
X791634D01*
G01X805500Y970386D02*
X805689Y970035D01*
X805917Y969803D01*
X806185Y969685D01*
X806488Y969803D01*
X806717Y970035D01*
X806945Y970386D01*
X807020Y970854D01*
Y973189D01*
G01X808858Y969685D02*
Y973189D01*
X808402Y972488D01*
G01Y969685D02*
X809315D01*
G01X806890Y1041102D02*
X804528Y1043465D01*
G01X806890Y1097598D02*
X804528D01*
Y1095236D01*
G01X820776Y864874D02*
X821004Y864465D01*
X821311Y864232D01*
X821654Y864173D01*
X821957Y864232D01*
X822260Y864524D01*
X822453Y864874D01*
X822488Y865224D01*
X822413Y865634D01*
X822146Y865925D01*
X821882Y866043D01*
X821539D01*
G01X821882D02*
X822110Y866217D01*
X822299Y866508D01*
X822374Y866858D01*
X822299Y867209D01*
X822110Y867500D01*
X821768Y867677D01*
X821425Y867618D01*
X821083Y867386D01*
G01X824213Y867677D02*
X823909Y867559D01*
X823681Y867268D01*
X823528Y866917D01*
X823413Y866449D01*
X823374Y865925D01*
X823413Y865398D01*
X823528Y864933D01*
X823681Y864583D01*
X823909Y864291D01*
X824213Y864173D01*
X824516Y864291D01*
X824744Y864583D01*
X824898Y864933D01*
X825012Y865398D01*
X825051Y865925D01*
X825012Y866449D01*
X824898Y866917D01*
X824744Y867268D01*
X824516Y867559D01*
X824213Y867677D01*
G01X811378Y864173D02*
Y867677D01*
X810921Y866976D01*
G01Y864173D02*
X811835D01*
G01X813976Y867677D02*
X813673Y867559D01*
X813445Y867268D01*
X813291Y866917D01*
X813177Y866449D01*
X813138Y865925D01*
X813177Y865398D01*
X813291Y864933D01*
X813445Y864583D01*
X813673Y864291D01*
X813976Y864173D01*
X814280Y864291D01*
X814508Y864583D01*
X814661Y864933D01*
X814776Y865398D01*
X814815Y865925D01*
X814776Y866449D01*
X814661Y866917D01*
X814508Y867268D01*
X814280Y867559D01*
X813976Y867677D01*
G01X812559Y967323D02*
Y970827D01*
X812102Y970126D01*
G01Y967323D02*
X813016D01*
G01X820890Y970244D02*
X821118Y970594D01*
X821386Y970768D01*
X821689Y970827D01*
X822071Y970709D01*
X822339Y970417D01*
X822413Y970067D01*
X822374Y969717D01*
X822224Y969425D01*
X821461Y968843D01*
X821118Y968433D01*
X820890Y967846D01*
X820815Y967323D01*
X822413D01*
G01X824213D02*
Y970827D01*
X823756Y970126D01*
G01Y967323D02*
X824669D01*
G01X826760Y970386D02*
X826949Y970035D01*
X827177Y969803D01*
X827445Y969685D01*
X827748Y969803D01*
X827976Y970035D01*
X828205Y970386D01*
X828280Y970854D01*
Y973189D01*
G01X829280Y970386D02*
X829508Y969976D01*
X829815Y969744D01*
X830157Y969685D01*
X830461Y969744D01*
X830764Y970035D01*
X830957Y970386D01*
X830992Y970736D01*
X830917Y971146D01*
X830650Y971437D01*
X830386Y971555D01*
X830043D01*
G01X830386D02*
X830614Y971728D01*
X830803Y972020D01*
X830878Y972370D01*
X830803Y972720D01*
X830614Y973012D01*
X830272Y973189D01*
X829929Y973130D01*
X829587Y972898D01*
G01X842276Y1135236D02*
X838386D01*
Y1138386D01*
X845472D01*
Y1135236D01*
X842276D01*
G01X860827Y1043465D02*
Y1041102D01*
X858465D01*
G01X860827Y1095236D02*
Y1097598D01*
X858465D01*
G01X907283Y859843D02*
Y847244D01*
G01X915795Y1074606D02*
X919685D01*
Y1071457D01*
X912598D01*
Y1074606D01*
X915795D01*
G01X927953Y839173D02*
X915354D01*
G01Y867913D02*
X927953D01*
G01X920827Y981457D02*
Y977953D01*
G01X919953Y981457D02*
X921701D01*
G01X924110Y977953D02*
Y980287D01*
G01Y979882D02*
X923957Y980114D01*
X923728Y980228D01*
X923465Y980287D01*
X923197Y980173D01*
X922969Y979937D01*
X922815Y979587D01*
X922740Y979122D01*
X922815Y978654D01*
X922969Y978303D01*
X923197Y978071D01*
X923465Y977953D01*
X923728Y978012D01*
X923957Y978185D01*
X924110Y978421D01*
G01X925492Y977953D02*
Y980287D01*
G01Y979823D02*
X925681Y980055D01*
X925870Y980228D01*
X926138Y980287D01*
X926327Y980228D01*
X926555Y980055D01*
G01X928091Y977075D02*
X928354Y976843D01*
X928661Y976783D01*
X928925Y976843D01*
X929154Y977134D01*
X929307Y977543D01*
Y980287D01*
G01Y979823D02*
X929154Y980055D01*
X928925Y980228D01*
X928661Y980287D01*
X928354Y980173D01*
X928165Y979937D01*
X928012Y979528D01*
X927937Y979122D01*
X927976Y978772D01*
X928126Y978362D01*
X928354Y978071D01*
X928661Y977953D01*
X928890Y978012D01*
X929154Y978244D01*
X929307Y978476D01*
G01X930650Y979528D02*
X931866D01*
X931752Y979937D01*
X931563Y980173D01*
X931295Y980287D01*
X931031Y980228D01*
X930803Y980055D01*
X930650Y979646D01*
X930575Y979295D01*
Y978945D01*
X930650Y978594D01*
X930839Y978244D01*
X931067Y978012D01*
X931335Y977953D01*
X931602Y978071D01*
X931866Y978421D01*
G01X933819Y981457D02*
Y977953D01*
G01X933287Y980287D02*
X934350D01*
G01X938559Y981457D02*
X939472D01*
G01X939016D02*
Y977953D01*
G01X938559D02*
X939472D01*
G01X940969D02*
Y980287D01*
G01Y979705D02*
X941118Y979996D01*
X941346Y980228D01*
X941654Y980287D01*
X941917Y980228D01*
X942146Y979996D01*
X942260Y979587D01*
Y977953D01*
G01X924555Y1036024D02*
X926154Y1039528D01*
G01X924555D02*
X926154Y1036024D01*
G01X927114D02*
Y1039528D01*
X927878D01*
X928181Y1039350D01*
X928409Y1039118D01*
X928598Y1038768D01*
X928752Y1038358D01*
X928791Y1037776D01*
X928752Y1037193D01*
X928598Y1036783D01*
X928409Y1036433D01*
X928181Y1036197D01*
X927878Y1036024D01*
X927114D01*
G01X929752Y1036492D02*
X930055Y1036197D01*
X930398Y1036024D01*
X930705D01*
X931008Y1036197D01*
X931236Y1036492D01*
X931350Y1036902D01*
X931276Y1037307D01*
X931083Y1037657D01*
X930740Y1037894D01*
X930283Y1038008D01*
X930020Y1038244D01*
X929906Y1038650D01*
X929980Y1039059D01*
X930169Y1039350D01*
X930437Y1039528D01*
X930705D01*
X930969Y1039409D01*
X931197Y1039118D01*
G01X933150Y1036024D02*
Y1039528D01*
X932693Y1038827D01*
G01Y1036024D02*
X933606D01*
G01X935748D02*
Y1039528D01*
X935291Y1038827D01*
G01Y1036024D02*
X936205D01*
G01X938346Y1039528D02*
X938043Y1039409D01*
X937815Y1039118D01*
X937661Y1038768D01*
X937547Y1038299D01*
X937508Y1037776D01*
X937547Y1037248D01*
X937661Y1036783D01*
X937815Y1036433D01*
X938043Y1036142D01*
X938346Y1036024D01*
X938650Y1036142D01*
X938878Y1036433D01*
X939031Y1036783D01*
X939146Y1037248D01*
X939185Y1037776D01*
X939146Y1038299D01*
X939031Y1038768D01*
X938878Y1039118D01*
X938650Y1039409D01*
X938346Y1039528D01*
G01X925551Y1031299D02*
X925248Y1031358D01*
X924980Y1031591D01*
X924752Y1031941D01*
X924598Y1032350D01*
X924524Y1032819D01*
Y1033283D01*
X924598Y1033752D01*
X924752Y1034161D01*
X924980Y1034512D01*
X925248Y1034744D01*
X925551Y1034803D01*
X925854Y1034744D01*
X926122Y1034512D01*
X926350Y1034161D01*
X926504Y1033752D01*
X926579Y1033283D01*
Y1032819D01*
X926504Y1032350D01*
X926350Y1031941D01*
X926122Y1031591D01*
X925854Y1031358D01*
X925551Y1031299D01*
G01X927504Y1033634D02*
Y1032000D01*
X927654Y1031591D01*
X927882Y1031358D01*
X928150Y1031299D01*
X928417Y1031358D01*
X928646Y1031591D01*
X928795Y1032000D01*
G01Y1031299D02*
Y1033634D01*
G01X930748Y1034803D02*
Y1031299D01*
G01X930217Y1033634D02*
X931280D01*
G01X939272Y721260D02*
Y662205D01*
G01Y681890D02*
X1086909D01*
G01Y701575D02*
X939272D01*
G01X936024Y859843D02*
Y847244D01*
G01X960283Y1075394D02*
X964173D01*
Y1072244D01*
X957087D01*
Y1075394D01*
X960283D01*
G01X974398Y970386D02*
X974587Y970035D01*
X974815Y969803D01*
X975083Y969685D01*
X975386Y969803D01*
X975614Y970035D01*
X975843Y970386D01*
X975917Y970854D01*
Y973189D01*
G01X978213Y969685D02*
Y973189D01*
X976803Y970677D01*
X978709D01*
G01X989177Y701575D02*
Y681890D01*
G01X980224Y865268D02*
X980453Y864858D01*
X980760Y864626D01*
X981102Y864567D01*
X981406Y864626D01*
X981709Y864917D01*
X981902Y865268D01*
X981937Y865618D01*
X981862Y866028D01*
X981594Y866319D01*
X981331Y866437D01*
X980988D01*
G01X981331D02*
X981559Y866610D01*
X981748Y866902D01*
X981823Y867252D01*
X981748Y867602D01*
X981559Y867894D01*
X981217Y868071D01*
X980874Y868012D01*
X980531Y867780D01*
G01X983661Y864567D02*
Y868071D01*
X983205Y867370D01*
G01Y864567D02*
X984118D01*
G01X991299D02*
Y868071D01*
X990843Y867370D01*
G01Y864567D02*
X991756D01*
G01X993898D02*
Y868071D01*
X993441Y867370D01*
G01Y864567D02*
X994354D01*
G01X990575Y970244D02*
X990803Y970594D01*
X991071Y970768D01*
X991374Y970827D01*
X991756Y970709D01*
X992024Y970417D01*
X992098Y970067D01*
X992059Y969717D01*
X991909Y969425D01*
X991146Y968843D01*
X990803Y968433D01*
X990575Y967846D01*
X990500Y967323D01*
X992098D01*
G01X993898Y970827D02*
X993594Y970709D01*
X993366Y970417D01*
X993213Y970067D01*
X993098Y969598D01*
X993059Y969075D01*
X993098Y968547D01*
X993213Y968083D01*
X993366Y967732D01*
X993594Y967441D01*
X993898Y967323D01*
X994201Y967441D01*
X994429Y967732D01*
X994583Y968083D01*
X994697Y968547D01*
X994736Y969075D01*
X994697Y969598D01*
X994583Y970067D01*
X994429Y970417D01*
X994201Y970709D01*
X993898Y970827D01*
G01X981520Y967323D02*
Y970827D01*
X980110Y968315D01*
X982016D01*
G01X983661Y970827D02*
X983358Y970709D01*
X983130Y970417D01*
X982976Y970067D01*
X982862Y969598D01*
X982823Y969075D01*
X982862Y968547D01*
X982976Y968083D01*
X983130Y967732D01*
X983358Y967441D01*
X983661Y967323D01*
X983965Y967441D01*
X984193Y967732D01*
X984346Y968083D01*
X984461Y968547D01*
X984500Y969075D01*
X984461Y969598D01*
X984346Y970067D01*
X984193Y970417D01*
X983965Y970709D01*
X983661Y970827D01*
G01X996445Y970386D02*
X996634Y970035D01*
X996862Y969803D01*
X997130Y969685D01*
X997433Y969803D01*
X997661Y970035D01*
X997890Y970386D01*
X997965Y970854D01*
Y973189D01*
G01X999079Y972606D02*
X999307Y972957D01*
X999575Y973130D01*
X999878Y973189D01*
X1000260Y973071D01*
X1000528Y972780D01*
X1000602Y972429D01*
X1000563Y972079D01*
X1000413Y971787D01*
X999650Y971205D01*
X999307Y970795D01*
X999079Y970209D01*
X999004Y969685D01*
X1000602D01*
G01X996980Y1006299D02*
X995461D01*
Y1009803D01*
X996980D01*
G01X996374Y1008110D02*
X995461D01*
G01X998248Y1008634D02*
X999390Y1006299D01*
G01Y1008634D02*
X998248Y1006299D01*
G01X1001417Y1009803D02*
Y1006299D01*
G01X1000886Y1008634D02*
X1001949D01*
G01X1003445Y1007874D02*
X1004661D01*
X1004547Y1008283D01*
X1004358Y1008520D01*
X1004091Y1008634D01*
X1003827Y1008575D01*
X1003598Y1008402D01*
X1003445Y1007992D01*
X1003370Y1007642D01*
Y1007291D01*
X1003445Y1006941D01*
X1003634Y1006591D01*
X1003862Y1006358D01*
X1004130Y1006299D01*
X1004398Y1006417D01*
X1004661Y1006768D01*
G01X1006083Y1006299D02*
Y1008634D01*
G01Y1008169D02*
X1006272Y1008402D01*
X1006461Y1008575D01*
X1006728Y1008634D01*
X1006917Y1008575D01*
X1007146Y1008402D01*
G01X1008567Y1006299D02*
Y1008634D01*
G01Y1008051D02*
X1008717Y1008343D01*
X1008945Y1008575D01*
X1009252Y1008634D01*
X1009516Y1008575D01*
X1009744Y1008343D01*
X1009858Y1007933D01*
Y1006299D01*
G01X995461Y1000394D02*
Y1003898D01*
X996374D01*
X996677Y1003720D01*
X996906Y1003315D01*
X996980Y1002846D01*
X996906Y1002378D01*
X996717Y1002028D01*
X996374Y1001854D01*
X995461D01*
G01X997866Y1002728D02*
X998323Y1000394D01*
X998819Y1002728D01*
X999315Y1000394D01*
X999772Y1002728D01*
G01X1000886Y1000394D02*
Y1002728D01*
G01Y1002264D02*
X1001075Y1002496D01*
X1001264Y1002669D01*
X1001531Y1002728D01*
X1001720Y1002669D01*
X1001949Y1002496D01*
G01X994831Y1018307D02*
X996429Y1021811D01*
G01X994831D02*
X996429Y1018307D01*
G01X997390D02*
Y1021811D01*
X998154D01*
X998457Y1021634D01*
X998685Y1021402D01*
X998874Y1021051D01*
X999028Y1020642D01*
X999067Y1020059D01*
X999028Y1019476D01*
X998874Y1019067D01*
X998685Y1018717D01*
X998457Y1018480D01*
X998154Y1018307D01*
X997390D01*
G01X1000028Y1018776D02*
X1000331Y1018480D01*
X1000673Y1018307D01*
X1000980D01*
X1001283Y1018480D01*
X1001512Y1018776D01*
X1001626Y1019185D01*
X1001551Y1019591D01*
X1001358Y1019941D01*
X1001016Y1020177D01*
X1000559Y1020291D01*
X1000295Y1020528D01*
X1000181Y1020933D01*
X1000256Y1021343D01*
X1000445Y1021634D01*
X1000713Y1021811D01*
X1000980D01*
X1001244Y1021693D01*
X1001472Y1021402D01*
G01X1003425Y1018307D02*
Y1021811D01*
X1002969Y1021110D01*
G01Y1018307D02*
X1003882D01*
G01X1006024D02*
Y1021811D01*
X1005567Y1021110D01*
G01Y1018307D02*
X1006480D01*
G01X1008622Y1021811D02*
X1008319Y1021693D01*
X1008091Y1021402D01*
X1007937Y1021051D01*
X1007823Y1020583D01*
X1007783Y1020059D01*
X1007823Y1019531D01*
X1007937Y1019067D01*
X1008091Y1018717D01*
X1008319Y1018425D01*
X1008622Y1018307D01*
X1008925Y1018425D01*
X1009154Y1018717D01*
X1009307Y1019067D01*
X1009421Y1019531D01*
X1009461Y1020059D01*
X1009421Y1020583D01*
X1009307Y1021051D01*
X1009154Y1021402D01*
X1008925Y1021693D01*
X1008622Y1021811D01*
G01X995067Y1012205D02*
Y1015709D01*
X995980D01*
X996283Y1015531D01*
X996512Y1015126D01*
X996587Y1014657D01*
X996512Y1014189D01*
X996323Y1013839D01*
X995980Y1013665D01*
X995067D01*
G01X998425Y1012205D02*
X998197Y1012264D01*
X997969Y1012496D01*
X997815Y1012906D01*
X997740Y1013374D01*
X997815Y1013839D01*
X997969Y1014248D01*
X998197Y1014480D01*
X998425Y1014539D01*
X998654Y1014480D01*
X998882Y1014248D01*
X999035Y1013839D01*
X999071Y1013374D01*
X999035Y1012906D01*
X998882Y1012496D01*
X998654Y1012264D01*
X998425Y1012205D01*
G01X1000071Y1014539D02*
X1000528Y1012205D01*
X1001024Y1014539D01*
X1001520Y1012205D01*
X1001976Y1014539D01*
G01X1003051Y1013780D02*
X1004268D01*
X1004154Y1014189D01*
X1003965Y1014425D01*
X1003697Y1014539D01*
X1003433Y1014480D01*
X1003205Y1014307D01*
X1003051Y1013898D01*
X1002976Y1013547D01*
Y1013197D01*
X1003051Y1012846D01*
X1003240Y1012496D01*
X1003469Y1012264D01*
X1003736Y1012205D01*
X1004004Y1012323D01*
X1004268Y1012673D01*
G01X1005689Y1012205D02*
Y1014539D01*
G01Y1014075D02*
X1005878Y1014307D01*
X1006067Y1014480D01*
X1006335Y1014539D01*
X1006524Y1014480D01*
X1006752Y1014307D01*
G54D12*
G01X836563Y1007087D02*
X841362D01*
G01X828362D02*
X833161D01*
G01X853362D02*
X858161D01*
G01X844961D02*
X849764D01*
G01X861563D02*
X866362D01*
G01X878362D02*
X883161D01*
G01X869961D02*
X874764D01*
G01X886764D02*
X891563D01*
G01X894961D02*
X899764D01*
G01X903362D02*
X908161D01*
G01X911764D02*
X916563D01*
G01X919961D02*
X924764D01*
G01X928362D02*
X933161D01*
G01X936764D02*
X941563D01*
G01X944961D02*
X949764D01*
G01X953362D02*
X958161D01*
G01X961764D02*
X966563D01*
G01X969961D02*
X974764D01*
G01X978362D02*
X983161D01*
G54D13*
G01X992118Y1009075D02*
Y1000020D01*
G01X992126Y1021654D02*
Y1012598D01*
G54D14*
G01X1011142Y1027717D02*
X1016142D01*
Y1029925D01*
G01Y1031539D02*
X1011142D01*
Y1032866D01*
X1011394Y1033307D01*
X1011976Y1033638D01*
X1012642Y1033748D01*
X1013307Y1033638D01*
X1013807Y1033362D01*
X1014059Y1032866D01*
Y1031539D01*
G01X1014476Y1035748D02*
Y1037185D01*
G01X1011559Y1041504D02*
X1011307Y1041173D01*
X1011142Y1040787D01*
Y1040346D01*
X1011394Y1039846D01*
X1011807Y1039461D01*
X1012307Y1039185D01*
X1013142Y1038965D01*
X1013894Y1038909D01*
X1014642Y1039020D01*
X1015142Y1039185D01*
X1015642Y1039516D01*
X1015976Y1039902D01*
X1016142Y1040287D01*
Y1040677D01*
X1015976Y1041063D01*
X1015724Y1041394D01*
X1015394Y1041669D01*
G01X1011559Y1045327D02*
X1011307Y1044996D01*
X1011142Y1044610D01*
Y1044169D01*
X1011394Y1043669D01*
X1011807Y1043283D01*
X1012307Y1043008D01*
X1013142Y1042787D01*
X1013894Y1042732D01*
X1014642Y1042843D01*
X1015142Y1043008D01*
X1015642Y1043339D01*
X1015976Y1043724D01*
X1016142Y1044110D01*
Y1044500D01*
X1015976Y1044886D01*
X1015724Y1045217D01*
X1015394Y1045492D01*
G01X1011976Y1046886D02*
X1011476Y1047217D01*
X1011224Y1047602D01*
X1011142Y1048047D01*
X1011307Y1048598D01*
X1011724Y1048984D01*
X1012224Y1049094D01*
X1012724Y1049039D01*
X1013142Y1048819D01*
X1013976Y1047713D01*
X1014559Y1047217D01*
X1015394Y1046886D01*
X1016142Y1046776D01*
Y1049094D01*
G01X1014059Y1050709D02*
X1013476Y1051094D01*
X1013142Y1051425D01*
X1012976Y1051870D01*
X1013142Y1052256D01*
X1013476Y1052531D01*
X1013976Y1052752D01*
X1014559Y1052807D01*
X1015059Y1052752D01*
X1015559Y1052531D01*
X1015976Y1052201D01*
X1016142Y1051815D01*
X1015976Y1051370D01*
X1015476Y1050984D01*
X1014724Y1050764D01*
X1013894Y1050709D01*
X1012807Y1050819D01*
X1012224Y1050984D01*
X1011642Y1051260D01*
X1011224Y1051646D01*
X1011142Y1052035D01*
X1011307Y1052421D01*
X1011724Y1052697D01*
G01X1015394Y1054366D02*
X1015807Y1054697D01*
X1016059Y1055083D01*
X1016142Y1055579D01*
X1015976Y1056079D01*
X1015642Y1056465D01*
X1015059Y1056740D01*
X1014394Y1056795D01*
X1013724Y1056685D01*
X1013307Y1056409D01*
X1012976Y1056024D01*
X1012894Y1055638D01*
X1012976Y1055248D01*
X1013307Y1054752D01*
X1011142Y1054917D01*
Y1056409D01*
G01X1011976Y1058354D02*
X1011476Y1058685D01*
X1011224Y1059071D01*
X1011142Y1059516D01*
X1011307Y1060067D01*
X1011724Y1060453D01*
X1012224Y1060563D01*
X1012724Y1060508D01*
X1013142Y1060287D01*
X1013976Y1059181D01*
X1014559Y1058685D01*
X1015394Y1058354D01*
X1016142Y1058244D01*
Y1060563D01*
G01Y1062122D02*
X1011142D01*
Y1063504D01*
X1011394Y1063945D01*
X1011724Y1064220D01*
X1012394Y1064331D01*
X1013059Y1064220D01*
X1013476Y1063890D01*
X1013724Y1063504D01*
Y1062122D01*
G01Y1063504D02*
X1016142Y1064331D01*
G01Y1066937D02*
X1015059Y1067047D01*
X1014142Y1067217D01*
X1013307Y1067437D01*
X1012394Y1067713D01*
X1011142Y1068154D01*
Y1065945D01*
G54D15*
G01X792886Y869689D02*
X792862Y873823D01*
X793780Y873827D01*
X794150Y873622D01*
X794425Y873350D01*
X794657Y872937D01*
X794846Y872457D01*
X794894Y871768D01*
X794854Y871079D01*
X794673Y870594D01*
X794445Y870181D01*
X794173Y869902D01*
X793807Y869693D01*
X792886Y869689D01*
G01X796469Y873843D02*
X797571Y873850D01*
G01X797020Y873846D02*
X797047Y869713D01*
G01X796496Y869709D02*
X797598Y869717D01*
G01X800197Y869732D02*
X799831Y869799D01*
X799504Y870075D01*
X799228Y870484D01*
X799039Y870965D01*
X798945Y871516D01*
X798941Y872067D01*
X799031Y872618D01*
X799213Y873102D01*
X799484Y873520D01*
X799803Y873795D01*
X800169Y873866D01*
X800539Y873799D01*
X800862Y873528D01*
X801142Y873114D01*
X801327Y872634D01*
X801421Y872083D01*
X801425Y871531D01*
X801339Y870980D01*
X801157Y870496D01*
X800882Y870083D01*
X800563Y869803D01*
X800197Y869732D01*
G01X802331Y870366D02*
X802610Y870024D01*
X802933Y869819D01*
X803346Y869752D01*
X803760Y869894D01*
X804079Y870169D01*
X804307Y870654D01*
X804346Y871205D01*
X804252Y871756D01*
X804020Y872098D01*
X803697Y872374D01*
X803374Y872441D01*
X803055Y872370D01*
X802642Y872091D01*
X802768Y873882D01*
X804008Y873890D01*
G01X792492Y879138D02*
X792469Y883272D01*
X793386Y883276D01*
X793756Y883071D01*
X794031Y882799D01*
X794264Y882386D01*
X794453Y881906D01*
X794500Y881217D01*
X794461Y880528D01*
X794280Y880043D01*
X794051Y879630D01*
X793780Y879350D01*
X793413Y879142D01*
X792492Y879138D01*
G01X796075Y883291D02*
X797177Y883299D01*
G01X796626Y883295D02*
X796654Y879161D01*
G01X796102Y879157D02*
X797205Y879165D01*
G01X799803Y879181D02*
X799437Y879248D01*
X799110Y879524D01*
X798835Y879933D01*
X798646Y880413D01*
X798551Y880965D01*
X798547Y881516D01*
X798638Y882067D01*
X798819Y882551D01*
X799091Y882969D01*
X799409Y883244D01*
X799776Y883315D01*
X800146Y883248D01*
X800469Y882976D01*
X800748Y882563D01*
X800933Y882083D01*
X801028Y881531D01*
X801031Y880980D01*
X800945Y880429D01*
X800764Y879945D01*
X800488Y879531D01*
X800169Y879252D01*
X799803Y879181D01*
G01X803504Y879205D02*
X803476Y883339D01*
X801795Y880366D01*
X804094Y880382D01*
G01X792492Y899217D02*
X792469Y903350D01*
X793386Y903354D01*
X793756Y903150D01*
X794031Y902878D01*
X794264Y902465D01*
X794453Y901984D01*
X794500Y901295D01*
X794461Y900606D01*
X794280Y900122D01*
X794051Y899709D01*
X793780Y899429D01*
X793413Y899220D01*
X792492Y899217D01*
G01X796075Y903370D02*
X797177Y903378D01*
G01X796626Y903374D02*
X796654Y899240D01*
G01X796102Y899236D02*
X797205Y899244D01*
G01X799803Y899260D02*
X799437Y899327D01*
X799110Y899602D01*
X798835Y900012D01*
X798646Y900492D01*
X798551Y901043D01*
X798547Y901594D01*
X798638Y902146D01*
X798819Y902630D01*
X799091Y903047D01*
X799409Y903323D01*
X799776Y903394D01*
X800146Y903327D01*
X800469Y903055D01*
X800748Y902642D01*
X800933Y902161D01*
X801028Y901610D01*
X801031Y901059D01*
X800945Y900508D01*
X800764Y900024D01*
X800488Y899610D01*
X800169Y899331D01*
X799803Y899260D01*
G01X802953Y899280D02*
X802925Y903413D01*
X802382Y902583D01*
G01X802402Y899276D02*
X803504Y899283D01*
G01X806075Y903433D02*
X805709Y903295D01*
X805437Y902949D01*
X805256Y902531D01*
X805122Y901980D01*
X805079Y901362D01*
X805130Y900740D01*
X805272Y900189D01*
X805457Y899780D01*
X805732Y899437D01*
X806102Y899299D01*
X806469Y899441D01*
X806744Y899787D01*
X806925Y900201D01*
X807059Y900752D01*
X807098Y901374D01*
X807051Y901992D01*
X806909Y902543D01*
X806720Y902957D01*
X806445Y903299D01*
X806075Y903433D01*
G01X792492Y889374D02*
X792469Y893508D01*
X793386Y893512D01*
X793756Y893307D01*
X794031Y893035D01*
X794264Y892622D01*
X794453Y892142D01*
X794500Y891453D01*
X794461Y890764D01*
X794280Y890280D01*
X794051Y889866D01*
X793780Y889587D01*
X793413Y889378D01*
X792492Y889374D01*
G01X796075Y893528D02*
X797177Y893535D01*
G01X796626Y893531D02*
X796654Y889398D01*
G01X796102Y889394D02*
X797205Y889402D01*
G01X799803Y889417D02*
X799437Y889484D01*
X799110Y889760D01*
X798835Y890169D01*
X798646Y890650D01*
X798551Y891201D01*
X798547Y891752D01*
X798638Y892303D01*
X798819Y892787D01*
X799091Y893205D01*
X799409Y893480D01*
X799776Y893551D01*
X800146Y893484D01*
X800469Y893213D01*
X800748Y892799D01*
X800933Y892319D01*
X801028Y891768D01*
X801031Y891217D01*
X800945Y890665D01*
X800764Y890181D01*
X800488Y889768D01*
X800169Y889488D01*
X799803Y889417D01*
G01X802059Y892878D02*
X802331Y893291D01*
X802650Y893500D01*
X803020Y893571D01*
X803480Y893437D01*
X803803Y893094D01*
X803898Y892681D01*
X803854Y892268D01*
X803673Y891921D01*
X802756Y891228D01*
X802346Y890744D01*
X802075Y890051D01*
X801988Y889433D01*
X803917Y889445D01*
G01X806102Y889457D02*
X806075Y893591D01*
X805531Y892760D01*
G01X805551Y889453D02*
X806654Y889461D01*
G01X792689Y909252D02*
Y913386D01*
X793610D01*
X793976Y913177D01*
X794252Y912902D01*
X794480Y912492D01*
X794665Y912008D01*
X794713Y911319D01*
X794665Y910630D01*
X794480Y910146D01*
X794252Y909732D01*
X793976Y909457D01*
X793610Y909252D01*
X792689D01*
G01X796299Y913386D02*
X797402D01*
G01X796850D02*
Y909252D01*
G01X796299D02*
X797402D01*
G01X800000D02*
X799634Y909319D01*
X799311Y909594D01*
X799035Y910008D01*
X798850Y910492D01*
X798760Y911043D01*
Y911594D01*
X798850Y912146D01*
X799035Y912630D01*
X799311Y913039D01*
X799634Y913319D01*
X800000Y913386D01*
X800366Y913319D01*
X800689Y913039D01*
X800965Y912630D01*
X801150Y912146D01*
X801240Y911594D01*
Y911043D01*
X801150Y910492D01*
X800965Y910008D01*
X800689Y909594D01*
X800366Y909319D01*
X800000Y909252D01*
G01X802276Y912697D02*
X802551Y913110D01*
X802874Y913319D01*
X803240Y913386D01*
X803701Y913248D01*
X804024Y912902D01*
X804114Y912492D01*
X804067Y912075D01*
X803886Y911732D01*
X802965Y911043D01*
X802551Y910559D01*
X802276Y909870D01*
X802185Y909252D01*
X804114D01*
G01X806850D02*
Y913386D01*
X805150Y910425D01*
X807449D01*
G01X792886Y929528D02*
Y933661D01*
X793807D01*
X794173Y933453D01*
X794449Y933177D01*
X794677Y932768D01*
X794862Y932283D01*
X794909Y931594D01*
X794862Y930906D01*
X794677Y930421D01*
X794449Y930008D01*
X794173Y929732D01*
X793807Y929528D01*
X792886D01*
G01X796496Y933661D02*
X797598D01*
G01X797047D02*
Y929528D01*
G01X796496D02*
X797598D01*
G01X800197D02*
X799831Y929594D01*
X799508Y929870D01*
X799232Y930283D01*
X799047Y930768D01*
X798957Y931319D01*
Y931870D01*
X799047Y932421D01*
X799232Y932906D01*
X799508Y933315D01*
X799831Y933594D01*
X800197Y933661D01*
X800563Y933594D01*
X800886Y933315D01*
X801161Y932906D01*
X801346Y932421D01*
X801437Y931870D01*
Y931319D01*
X801346Y930768D01*
X801161Y930283D01*
X800886Y929870D01*
X800563Y929594D01*
X800197Y929528D01*
G01X802335Y930354D02*
X802610Y929870D01*
X802980Y929594D01*
X803394Y929528D01*
X803760Y929594D01*
X804126Y929941D01*
X804358Y930354D01*
X804402Y930768D01*
X804311Y931248D01*
X803988Y931594D01*
X803669Y931732D01*
X803256D01*
G01X803669D02*
X803945Y931937D01*
X804173Y932283D01*
X804264Y932697D01*
X804173Y933110D01*
X803945Y933453D01*
X803531Y933661D01*
X803118Y933594D01*
X802705Y933315D01*
G01X792689Y919291D02*
Y923425D01*
X793610D01*
X793976Y923217D01*
X794252Y922941D01*
X794480Y922531D01*
X794665Y922047D01*
X794713Y921358D01*
X794665Y920669D01*
X794480Y920185D01*
X794252Y919772D01*
X793976Y919496D01*
X793610Y919291D01*
X792689D01*
G01X796299Y923425D02*
X797402D01*
G01X796850D02*
Y919291D01*
G01X796299D02*
X797402D01*
G01X800000D02*
X799634Y919358D01*
X799311Y919634D01*
X799035Y920047D01*
X798850Y920531D01*
X798760Y921083D01*
Y921634D01*
X798850Y922185D01*
X799035Y922669D01*
X799311Y923079D01*
X799634Y923358D01*
X800000Y923425D01*
X800366Y923358D01*
X800689Y923079D01*
X800965Y922669D01*
X801150Y922185D01*
X801240Y921634D01*
Y921083D01*
X801150Y920531D01*
X800965Y920047D01*
X800689Y919634D01*
X800366Y919358D01*
X800000Y919291D01*
G01X802276Y922736D02*
X802551Y923150D01*
X802874Y923358D01*
X803240Y923425D01*
X803701Y923287D01*
X804024Y922941D01*
X804114Y922531D01*
X804067Y922114D01*
X803886Y921772D01*
X802965Y921083D01*
X802551Y920598D01*
X802276Y919909D01*
X802185Y919291D01*
X804114D01*
G01X805425Y922736D02*
X805701Y923150D01*
X806024Y923358D01*
X806390Y923425D01*
X806850Y923287D01*
X807173Y922941D01*
X807264Y922531D01*
X807217Y922114D01*
X807035Y921772D01*
X806114Y921083D01*
X805701Y920598D01*
X805425Y919909D01*
X805335Y919291D01*
X807264D01*
G01X792886Y939370D02*
Y943504D01*
X793807D01*
X794173Y943295D01*
X794449Y943020D01*
X794677Y942610D01*
X794862Y942126D01*
X794909Y941437D01*
X794862Y940748D01*
X794677Y940264D01*
X794449Y939850D01*
X794173Y939575D01*
X793807Y939370D01*
X792886D01*
G01X796496Y943504D02*
X797598D01*
G01X797047D02*
Y939370D01*
G01X796496D02*
X797598D01*
G01X800197D02*
X799831Y939437D01*
X799508Y939713D01*
X799232Y940126D01*
X799047Y940610D01*
X798957Y941161D01*
Y941713D01*
X799047Y942264D01*
X799232Y942748D01*
X799508Y943157D01*
X799831Y943437D01*
X800197Y943504D01*
X800563Y943437D01*
X800886Y943157D01*
X801161Y942748D01*
X801346Y942264D01*
X801437Y941713D01*
Y941161D01*
X801346Y940610D01*
X801161Y940126D01*
X800886Y939713D01*
X800563Y939437D01*
X800197Y939370D01*
G01X802472Y942815D02*
X802748Y943228D01*
X803071Y943437D01*
X803437Y943504D01*
X803898Y943366D01*
X804220Y943020D01*
X804311Y942610D01*
X804264Y942193D01*
X804083Y941850D01*
X803161Y941161D01*
X802748Y940677D01*
X802472Y939988D01*
X802382Y939370D01*
X804311D01*
G01X792689Y949213D02*
Y953346D01*
X793610D01*
X793976Y953138D01*
X794252Y952862D01*
X794480Y952453D01*
X794665Y951969D01*
X794713Y951280D01*
X794665Y950591D01*
X794480Y950106D01*
X794252Y949693D01*
X793976Y949417D01*
X793610Y949213D01*
X792689D01*
G01X796299Y953346D02*
X797402D01*
G01X796850D02*
Y949213D01*
G01X796299D02*
X797402D01*
G01X800000D02*
X799634Y949280D01*
X799311Y949555D01*
X799035Y949969D01*
X798850Y950453D01*
X798760Y951004D01*
Y951555D01*
X798850Y952106D01*
X799035Y952591D01*
X799311Y953000D01*
X799634Y953280D01*
X800000Y953346D01*
X800366Y953280D01*
X800689Y953000D01*
X800965Y952591D01*
X801150Y952106D01*
X801240Y951555D01*
Y951004D01*
X801150Y950453D01*
X800965Y949969D01*
X800689Y949555D01*
X800366Y949280D01*
X800000Y949213D01*
G01X802276Y952657D02*
X802551Y953071D01*
X802874Y953280D01*
X803240Y953346D01*
X803701Y953209D01*
X804024Y952862D01*
X804114Y952453D01*
X804067Y952035D01*
X803886Y951693D01*
X802965Y951004D01*
X802551Y950520D01*
X802276Y949831D01*
X802185Y949213D01*
X804114D01*
G01X805287Y950039D02*
X805563Y949555D01*
X805933Y949280D01*
X806346Y949213D01*
X806713Y949280D01*
X807079Y949626D01*
X807311Y950039D01*
X807354Y950453D01*
X807264Y950933D01*
X806941Y951280D01*
X806622Y951417D01*
X806209D01*
G01X806622D02*
X806898Y951622D01*
X807126Y951969D01*
X807217Y952382D01*
X807126Y952795D01*
X806898Y953138D01*
X806484Y953346D01*
X806071Y953280D01*
X805657Y953000D01*
G01X809224Y995118D02*
X809409Y995323D01*
X809547Y995669D01*
X809638Y996154D01*
X809547Y996563D01*
X809362Y996839D01*
X809043Y997047D01*
X807803D01*
Y992913D01*
X809319D01*
X809638Y993189D01*
X809823Y993602D01*
X809913Y994087D01*
X809823Y994567D01*
X809547Y994980D01*
X809224Y995118D01*
X807803D01*
G01X812008Y997047D02*
Y992913D01*
G01X810953Y997047D02*
X813063D01*
G01X814102Y992913D02*
Y997047D01*
X816213Y992913D01*
Y997047D01*
G01X817709Y994291D02*
X818906D01*
G01X821457Y992913D02*
Y997047D01*
X820906Y996220D01*
G01Y992913D02*
X822008D01*
G01X807453Y985433D02*
Y989567D01*
X808374D01*
X808740Y989358D01*
X809016Y989083D01*
X809244Y988673D01*
X809429Y988189D01*
X809476Y987500D01*
X809429Y986811D01*
X809244Y986327D01*
X809016Y985913D01*
X808740Y985638D01*
X808374Y985433D01*
X807453D01*
G01X811063Y989567D02*
X812165D01*
G01X811614D02*
Y985433D01*
G01X811063D02*
X812165D01*
G01X814764D02*
X814398Y985500D01*
X814075Y985776D01*
X813799Y986189D01*
X813614Y986673D01*
X813524Y987224D01*
Y987776D01*
X813614Y988327D01*
X813799Y988811D01*
X814075Y989220D01*
X814398Y989500D01*
X814764Y989567D01*
X815130Y989500D01*
X815453Y989220D01*
X815728Y988811D01*
X815913Y988327D01*
X816004Y987776D01*
Y987224D01*
X815913Y986673D01*
X815728Y986189D01*
X815453Y985776D01*
X815130Y985500D01*
X814764Y985433D01*
G01X817913D02*
Y989567D01*
X817362Y988740D01*
G01Y985433D02*
X818465D01*
G01X820051Y986260D02*
X820327Y985776D01*
X820697Y985500D01*
X821110Y985433D01*
X821476Y985500D01*
X821843Y985846D01*
X822075Y986260D01*
X822118Y986673D01*
X822028Y987154D01*
X821705Y987500D01*
X821386Y987638D01*
X820972D01*
G01X821386D02*
X821661Y987843D01*
X821890Y988189D01*
X821980Y988602D01*
X821890Y989016D01*
X821661Y989358D01*
X821248Y989567D01*
X820835Y989500D01*
X820421Y989220D01*
G01X837768Y838976D02*
Y843110D01*
X838689D01*
X839055Y842902D01*
X839331Y842626D01*
X839559Y842217D01*
X839744Y841732D01*
X839791Y841043D01*
X839744Y840354D01*
X839559Y839870D01*
X839331Y839457D01*
X839055Y839181D01*
X838689Y838976D01*
X837768D01*
G01X841378Y843110D02*
X842480D01*
G01X841929D02*
Y838976D01*
G01X841378D02*
X842480D01*
G01X845079D02*
X844713Y839043D01*
X844390Y839319D01*
X844114Y839732D01*
X843929Y840217D01*
X843839Y840768D01*
Y841319D01*
X843929Y841870D01*
X844114Y842354D01*
X844390Y842764D01*
X844713Y843043D01*
X845079Y843110D01*
X845445Y843043D01*
X845768Y842764D01*
X846043Y842354D01*
X846228Y841870D01*
X846319Y841319D01*
Y840768D01*
X846228Y840217D01*
X846043Y839732D01*
X845768Y839319D01*
X845445Y839043D01*
X845079Y838976D01*
G01X847354Y840697D02*
X847677Y841181D01*
X847953Y841457D01*
X848319Y841594D01*
X848642Y841457D01*
X848870Y841181D01*
X849055Y840768D01*
X849102Y840283D01*
X849055Y839870D01*
X848870Y839457D01*
X848594Y839114D01*
X848276Y838976D01*
X847906Y839114D01*
X847587Y839528D01*
X847402Y840150D01*
X847354Y840835D01*
X847449Y841732D01*
X847587Y842217D01*
X847815Y842697D01*
X848138Y843043D01*
X848457Y843110D01*
X848780Y842972D01*
X849008Y842626D01*
G01X837862Y846063D02*
Y850197D01*
X839008D01*
X839378Y849988D01*
X839606Y849713D01*
X839697Y849161D01*
X839606Y848610D01*
X839331Y848268D01*
X839008Y848059D01*
X837862D01*
G01X839008D02*
X839697Y846063D01*
G01X841240Y847921D02*
X842709D01*
X842571Y848406D01*
X842343Y848681D01*
X842020Y848819D01*
X841701Y848748D01*
X841425Y848543D01*
X841240Y848059D01*
X841150Y847646D01*
Y847236D01*
X841240Y846819D01*
X841469Y846406D01*
X841744Y846130D01*
X842067Y846063D01*
X842390Y846201D01*
X842709Y846614D01*
G01X845906Y850197D02*
Y846063D01*
G01Y846681D02*
X845720Y846339D01*
X845445Y846130D01*
X845126Y846063D01*
X844756Y846201D01*
X844480Y846543D01*
X844299Y846957D01*
X844252Y847441D01*
X844299Y847921D01*
X844480Y848339D01*
X844756Y848681D01*
X845126Y848819D01*
X845445Y848748D01*
X845677Y848610D01*
X845906Y848339D01*
G01X848228Y845925D02*
X848138Y845996D01*
Y846130D01*
X848228Y846201D01*
X848319Y846130D01*
Y845996D01*
X848228Y845925D01*
G01Y847783D02*
X848138Y847854D01*
Y847992D01*
X848228Y848059D01*
X848319Y847992D01*
Y847854D01*
X848228Y847783D01*
G01X828713Y869685D02*
Y873819D01*
X829634D01*
X830000Y873610D01*
X830276Y873335D01*
X830504Y872925D01*
X830689Y872441D01*
X830736Y871752D01*
X830689Y871063D01*
X830504Y870579D01*
X830276Y870165D01*
X830000Y869890D01*
X829634Y869685D01*
X828713D01*
G01X832323Y873819D02*
X833425D01*
G01X832874D02*
Y869685D01*
G01X832323D02*
X833425D01*
G01X836024D02*
X835657Y869752D01*
X835335Y870028D01*
X835059Y870441D01*
X834874Y870925D01*
X834783Y871476D01*
Y872028D01*
X834874Y872579D01*
X835059Y873063D01*
X835335Y873472D01*
X835657Y873752D01*
X836024Y873819D01*
X836390Y873752D01*
X836713Y873472D01*
X836988Y873063D01*
X837173Y872579D01*
X837264Y872028D01*
Y871476D01*
X837173Y870925D01*
X836988Y870441D01*
X836713Y870028D01*
X836390Y869752D01*
X836024Y869685D01*
G01X839173D02*
Y873819D01*
X838622Y872992D01*
G01Y869685D02*
X839724D01*
G01X828516Y879331D02*
Y883465D01*
X829437D01*
X829803Y883256D01*
X830079Y882980D01*
X830307Y882571D01*
X830492Y882087D01*
X830539Y881398D01*
X830492Y880709D01*
X830307Y880224D01*
X830079Y879811D01*
X829803Y879535D01*
X829437Y879331D01*
X828516D01*
G01X832126Y883465D02*
X833228D01*
G01X832677D02*
Y879331D01*
G01X832126D02*
X833228D01*
G01X835827D02*
X835461Y879398D01*
X835138Y879673D01*
X834862Y880087D01*
X834677Y880571D01*
X834587Y881122D01*
Y881673D01*
X834677Y882224D01*
X834862Y882709D01*
X835138Y883118D01*
X835461Y883398D01*
X835827Y883465D01*
X836193Y883398D01*
X836516Y883118D01*
X836791Y882709D01*
X836976Y882224D01*
X837067Y881673D01*
Y881122D01*
X836976Y880571D01*
X836791Y880087D01*
X836516Y879673D01*
X836193Y879398D01*
X835827Y879331D01*
G01X838976Y883465D02*
X838610Y883327D01*
X838335Y882980D01*
X838150Y882571D01*
X838012Y882016D01*
X837965Y881398D01*
X838012Y880776D01*
X838150Y880224D01*
X838335Y879811D01*
X838610Y879469D01*
X838976Y879331D01*
X839343Y879469D01*
X839618Y879811D01*
X839803Y880224D01*
X839941Y880776D01*
X839988Y881398D01*
X839941Y882016D01*
X839803Y882571D01*
X839618Y882980D01*
X839343Y883327D01*
X838976Y883465D01*
G01X828516Y889370D02*
Y893504D01*
X829437D01*
X829803Y893295D01*
X830079Y893020D01*
X830307Y892610D01*
X830492Y892126D01*
X830539Y891437D01*
X830492Y890748D01*
X830307Y890264D01*
X830079Y889850D01*
X829803Y889575D01*
X829437Y889370D01*
X828516D01*
G01X832126Y893504D02*
X833228D01*
G01X832677D02*
Y889370D01*
G01X832126D02*
X833228D01*
G01X835827D02*
X835461Y889437D01*
X835138Y889713D01*
X834862Y890126D01*
X834677Y890610D01*
X834587Y891161D01*
Y891713D01*
X834677Y892264D01*
X834862Y892748D01*
X835138Y893157D01*
X835461Y893437D01*
X835827Y893504D01*
X836193Y893437D01*
X836516Y893157D01*
X836791Y892748D01*
X836976Y892264D01*
X837067Y891713D01*
Y891161D01*
X836976Y890610D01*
X836791Y890126D01*
X836516Y889713D01*
X836193Y889437D01*
X835827Y889370D01*
G01X837965Y890197D02*
X838240Y889713D01*
X838610Y889437D01*
X839024Y889370D01*
X839390Y889437D01*
X839756Y889783D01*
X839988Y890197D01*
X840031Y890610D01*
X839941Y891091D01*
X839618Y891437D01*
X839299Y891575D01*
X838886D01*
G01X839299D02*
X839575Y891780D01*
X839803Y892126D01*
X839894Y892539D01*
X839803Y892953D01*
X839575Y893295D01*
X839161Y893504D01*
X838748Y893437D01*
X838335Y893157D01*
G01X842126Y893504D02*
X841760Y893366D01*
X841484Y893020D01*
X841299Y892610D01*
X841161Y892055D01*
X841114Y891437D01*
X841161Y890815D01*
X841299Y890264D01*
X841484Y889850D01*
X841760Y889508D01*
X842126Y889370D01*
X842492Y889508D01*
X842768Y889850D01*
X842953Y890264D01*
X843091Y890815D01*
X843138Y891437D01*
X843091Y892055D01*
X842953Y892610D01*
X842768Y893020D01*
X842492Y893366D01*
X842126Y893504D01*
G01X828516Y899409D02*
Y903543D01*
X829437D01*
X829803Y903335D01*
X830079Y903059D01*
X830307Y902650D01*
X830492Y902165D01*
X830539Y901476D01*
X830492Y900787D01*
X830307Y900303D01*
X830079Y899890D01*
X829803Y899614D01*
X829437Y899409D01*
X828516D01*
G01X832126Y903543D02*
X833228D01*
G01X832677D02*
Y899409D01*
G01X832126D02*
X833228D01*
G01X835827D02*
X835461Y899476D01*
X835138Y899752D01*
X834862Y900165D01*
X834677Y900650D01*
X834587Y901201D01*
Y901752D01*
X834677Y902303D01*
X834862Y902787D01*
X835138Y903197D01*
X835461Y903476D01*
X835827Y903543D01*
X836193Y903476D01*
X836516Y903197D01*
X836791Y902787D01*
X836976Y902303D01*
X837067Y901752D01*
Y901201D01*
X836976Y900650D01*
X836791Y900165D01*
X836516Y899752D01*
X836193Y899476D01*
X835827Y899409D01*
G01X838102Y902854D02*
X838378Y903268D01*
X838701Y903476D01*
X839067Y903543D01*
X839528Y903406D01*
X839850Y903059D01*
X839941Y902650D01*
X839894Y902232D01*
X839713Y901890D01*
X838791Y901201D01*
X838378Y900717D01*
X838102Y900028D01*
X838012Y899409D01*
X839941D01*
G01X841346Y899890D02*
X841665Y899547D01*
X842035Y899409D01*
X842402Y899547D01*
X842724Y899961D01*
X842953Y900583D01*
X843043Y901201D01*
Y901957D01*
X842953Y902579D01*
X842724Y903130D01*
X842449Y903406D01*
X842126Y903543D01*
X841760Y903406D01*
X841484Y903130D01*
X841299Y902717D01*
X841209Y902165D01*
X841299Y901685D01*
X841528Y901201D01*
X841803Y900925D01*
X842126Y900854D01*
X842492Y900992D01*
X842768Y901339D01*
X843043Y901957D01*
G01X828516Y909252D02*
Y913386D01*
X829437D01*
X829803Y913177D01*
X830079Y912902D01*
X830307Y912492D01*
X830492Y912008D01*
X830539Y911319D01*
X830492Y910630D01*
X830307Y910146D01*
X830079Y909732D01*
X829803Y909457D01*
X829437Y909252D01*
X828516D01*
G01X832126Y913386D02*
X833228D01*
G01X832677D02*
Y909252D01*
G01X832126D02*
X833228D01*
G01X835827D02*
X835461Y909319D01*
X835138Y909594D01*
X834862Y910008D01*
X834677Y910492D01*
X834587Y911043D01*
Y911594D01*
X834677Y912146D01*
X834862Y912630D01*
X835138Y913039D01*
X835461Y913319D01*
X835827Y913386D01*
X836193Y913319D01*
X836516Y913039D01*
X836791Y912630D01*
X836976Y912146D01*
X837067Y911594D01*
Y911043D01*
X836976Y910492D01*
X836791Y910008D01*
X836516Y909594D01*
X836193Y909319D01*
X835827Y909252D01*
G01X838102Y912697D02*
X838378Y913110D01*
X838701Y913319D01*
X839067Y913386D01*
X839528Y913248D01*
X839850Y912902D01*
X839941Y912492D01*
X839894Y912075D01*
X839713Y911732D01*
X838791Y911043D01*
X838378Y910559D01*
X838102Y909870D01*
X838012Y909252D01*
X839941D01*
G01X842126D02*
X842449Y909319D01*
X842815Y909528D01*
X843043Y909870D01*
X843138Y910354D01*
X843043Y910835D01*
X842768Y911248D01*
X842354Y911457D01*
X841898D01*
X841622Y911594D01*
X841390Y911937D01*
X841299Y912421D01*
X841437Y912902D01*
X841760Y913248D01*
X842126Y913386D01*
X842492Y913248D01*
X842815Y912902D01*
X842953Y912421D01*
X842862Y911937D01*
X842630Y911594D01*
X842354Y911457D01*
X841898D01*
X841484Y911248D01*
X841209Y910835D01*
X841114Y910354D01*
X841209Y909870D01*
X841437Y909528D01*
X841803Y909319D01*
X842126Y909252D01*
G01X828516Y919291D02*
Y923425D01*
X829437D01*
X829803Y923217D01*
X830079Y922941D01*
X830307Y922531D01*
X830492Y922047D01*
X830539Y921358D01*
X830492Y920669D01*
X830307Y920185D01*
X830079Y919772D01*
X829803Y919496D01*
X829437Y919291D01*
X828516D01*
G01X832126Y923425D02*
X833228D01*
G01X832677D02*
Y919291D01*
G01X832126D02*
X833228D01*
G01X835827D02*
X835461Y919358D01*
X835138Y919634D01*
X834862Y920047D01*
X834677Y920531D01*
X834587Y921083D01*
Y921634D01*
X834677Y922185D01*
X834862Y922669D01*
X835138Y923079D01*
X835461Y923358D01*
X835827Y923425D01*
X836193Y923358D01*
X836516Y923079D01*
X836791Y922669D01*
X836976Y922185D01*
X837067Y921634D01*
Y921083D01*
X836976Y920531D01*
X836791Y920047D01*
X836516Y919634D01*
X836193Y919358D01*
X835827Y919291D01*
G01X838102Y922736D02*
X838378Y923150D01*
X838701Y923358D01*
X839067Y923425D01*
X839528Y923287D01*
X839850Y922941D01*
X839941Y922531D01*
X839894Y922114D01*
X839713Y921772D01*
X838791Y921083D01*
X838378Y920598D01*
X838102Y919909D01*
X838012Y919291D01*
X839941D01*
G01X842035D02*
X842126Y920185D01*
X842264Y920945D01*
X842449Y921634D01*
X842677Y922390D01*
X843043Y923425D01*
X841209D01*
G01X828319Y929528D02*
Y933661D01*
X829240D01*
X829606Y933453D01*
X829882Y933177D01*
X830110Y932768D01*
X830295Y932283D01*
X830343Y931594D01*
X830295Y930906D01*
X830110Y930421D01*
X829882Y930008D01*
X829606Y929732D01*
X829240Y929528D01*
X828319D01*
G01X831929Y933661D02*
X833031D01*
G01X832480D02*
Y929528D01*
G01X831929D02*
X833031D01*
G01X835630D02*
X835264Y929594D01*
X834941Y929870D01*
X834665Y930283D01*
X834480Y930768D01*
X834390Y931319D01*
Y931870D01*
X834480Y932421D01*
X834665Y932906D01*
X834941Y933315D01*
X835264Y933594D01*
X835630Y933661D01*
X835996Y933594D01*
X836319Y933315D01*
X836594Y932906D01*
X836780Y932421D01*
X836870Y931870D01*
Y931319D01*
X836780Y930768D01*
X836594Y930283D01*
X836319Y929870D01*
X835996Y929594D01*
X835630Y929528D01*
G01X837906Y932972D02*
X838181Y933386D01*
X838504Y933594D01*
X838870Y933661D01*
X839331Y933524D01*
X839654Y933177D01*
X839744Y932768D01*
X839697Y932350D01*
X839516Y932008D01*
X838594Y931319D01*
X838181Y930835D01*
X837906Y930146D01*
X837815Y929528D01*
X839744D01*
G01X841055Y931248D02*
X841378Y931732D01*
X841654Y932008D01*
X842020Y932146D01*
X842343Y932008D01*
X842571Y931732D01*
X842756Y931319D01*
X842803Y930835D01*
X842756Y930421D01*
X842571Y930008D01*
X842295Y929665D01*
X841976Y929528D01*
X841606Y929665D01*
X841287Y930079D01*
X841102Y930701D01*
X841055Y931386D01*
X841150Y932283D01*
X841287Y932768D01*
X841516Y933248D01*
X841839Y933594D01*
X842157Y933661D01*
X842480Y933524D01*
X842709Y933177D01*
G01X828516Y939370D02*
Y943504D01*
X829437D01*
X829803Y943295D01*
X830079Y943020D01*
X830307Y942610D01*
X830492Y942126D01*
X830539Y941437D01*
X830492Y940748D01*
X830307Y940264D01*
X830079Y939850D01*
X829803Y939575D01*
X829437Y939370D01*
X828516D01*
G01X832126Y943504D02*
X833228D01*
G01X832677D02*
Y939370D01*
G01X832126D02*
X833228D01*
G01X835827D02*
X835461Y939437D01*
X835138Y939713D01*
X834862Y940126D01*
X834677Y940610D01*
X834587Y941161D01*
Y941713D01*
X834677Y942264D01*
X834862Y942748D01*
X835138Y943157D01*
X835461Y943437D01*
X835827Y943504D01*
X836193Y943437D01*
X836516Y943157D01*
X836791Y942748D01*
X836976Y942264D01*
X837067Y941713D01*
Y941161D01*
X836976Y940610D01*
X836791Y940126D01*
X836516Y939713D01*
X836193Y939437D01*
X835827Y939370D01*
G01X838102Y942815D02*
X838378Y943228D01*
X838701Y943437D01*
X839067Y943504D01*
X839528Y943366D01*
X839850Y943020D01*
X839941Y942610D01*
X839894Y942193D01*
X839713Y941850D01*
X838791Y941161D01*
X838378Y940677D01*
X838102Y939988D01*
X838012Y939370D01*
X839941D01*
G01X841114Y939988D02*
X841390Y939646D01*
X841713Y939437D01*
X842126Y939370D01*
X842539Y939508D01*
X842862Y939783D01*
X843091Y940264D01*
X843138Y940815D01*
X843043Y941366D01*
X842815Y941713D01*
X842492Y941988D01*
X842173Y942055D01*
X841850Y941988D01*
X841437Y941713D01*
X841575Y943504D01*
X842815D01*
G01X852429Y884055D02*
Y879921D01*
X854264D01*
G01X857413D02*
X855579D01*
Y884055D01*
X857413D01*
G01X856681Y882059D02*
X855579D01*
G01X858634Y879921D02*
Y884055D01*
X859555D01*
X859921Y883846D01*
X860197Y883571D01*
X860425Y883161D01*
X860610Y882677D01*
X860657Y881988D01*
X860610Y881299D01*
X860425Y880815D01*
X860197Y880402D01*
X859921Y880126D01*
X859555Y879921D01*
X858634D01*
G01X862106Y880402D02*
X862335Y880126D01*
X862657Y879921D01*
X862933D01*
X863209Y880059D01*
X863394Y880264D01*
X863484Y880539D01*
X863437Y880957D01*
X863256Y881161D01*
X862429Y881575D01*
X862244Y882059D01*
X862335Y882402D01*
X862520Y882606D01*
X862795Y882677D01*
X863071Y882606D01*
X863346Y882402D01*
G01X866902Y838976D02*
Y843110D01*
X867823D01*
X868189Y842902D01*
X868465Y842626D01*
X868693Y842217D01*
X868878Y841732D01*
X868925Y841043D01*
X868878Y840354D01*
X868693Y839870D01*
X868465Y839457D01*
X868189Y839181D01*
X867823Y838976D01*
X866902D01*
G01X870512Y843110D02*
X871614D01*
G01X871063D02*
Y838976D01*
G01X870512D02*
X871614D01*
G01X874213D02*
X873846Y839043D01*
X873524Y839319D01*
X873248Y839732D01*
X873063Y840217D01*
X872972Y840768D01*
Y841319D01*
X873063Y841870D01*
X873248Y842354D01*
X873524Y842764D01*
X873846Y843043D01*
X874213Y843110D01*
X874579Y843043D01*
X874902Y842764D01*
X875177Y842354D01*
X875362Y841870D01*
X875453Y841319D01*
Y840768D01*
X875362Y840217D01*
X875177Y839732D01*
X874902Y839319D01*
X874579Y839043D01*
X874213Y838976D01*
G01X877272D02*
X877362Y839870D01*
X877500Y840630D01*
X877685Y841319D01*
X877913Y842075D01*
X878280Y843110D01*
X876445D01*
G01X867795Y848130D02*
X868713D01*
Y846890D01*
X868437Y846476D01*
X868118Y846201D01*
X867657Y846063D01*
X867197Y846201D01*
X866878Y846476D01*
X866602Y846890D01*
X866417Y847370D01*
X866327Y847921D01*
Y848406D01*
X866417Y848819D01*
X866602Y849303D01*
X866878Y849713D01*
X867154Y849988D01*
X867520Y850197D01*
X867843D01*
X868209Y850059D01*
X868484Y849783D01*
G01X870028Y846063D02*
Y848819D01*
G01Y848268D02*
X870256Y848543D01*
X870484Y848748D01*
X870807Y848819D01*
X871035Y848748D01*
X871311Y848543D01*
G01X873130Y847921D02*
X874598D01*
X874461Y848406D01*
X874232Y848681D01*
X873909Y848819D01*
X873591Y848748D01*
X873315Y848543D01*
X873130Y848059D01*
X873039Y847646D01*
Y847236D01*
X873130Y846819D01*
X873358Y846406D01*
X873634Y846130D01*
X873957Y846063D01*
X874280Y846201D01*
X874598Y846614D01*
G01X876280Y847921D02*
X877748D01*
X877610Y848406D01*
X877382Y848681D01*
X877059Y848819D01*
X876740Y848748D01*
X876465Y848543D01*
X876280Y848059D01*
X876189Y847646D01*
Y847236D01*
X876280Y846819D01*
X876508Y846406D01*
X876783Y846130D01*
X877106Y846063D01*
X877429Y846201D01*
X877748Y846614D01*
G01X879339Y846063D02*
Y848819D01*
G01Y848130D02*
X879520Y848472D01*
X879795Y848748D01*
X880165Y848819D01*
X880484Y848748D01*
X880760Y848472D01*
X880898Y847992D01*
Y846063D01*
G01X883268Y845925D02*
X883177Y845996D01*
Y846130D01*
X883268Y846201D01*
X883358Y846130D01*
Y845996D01*
X883268Y845925D01*
G01Y847783D02*
X883177Y847854D01*
Y847992D01*
X883268Y848059D01*
X883358Y847992D01*
Y847854D01*
X883268Y847783D01*
G01X864567Y979988D02*
X860433D01*
Y981134D01*
X860642Y981504D01*
X860917Y981732D01*
X861469Y981823D01*
X862020Y981732D01*
X862362Y981457D01*
X862571Y981134D01*
Y979988D01*
G01Y981134D02*
X864567Y981823D01*
G01Y983091D02*
X860433Y985020D01*
G01Y983091D02*
X864567Y985020D01*
G01Y986193D02*
X860433D01*
Y987114D01*
X860642Y987480D01*
X860917Y987756D01*
X861327Y987984D01*
X861811Y988169D01*
X862500Y988217D01*
X863189Y988169D01*
X863673Y987984D01*
X864087Y987756D01*
X864362Y987480D01*
X864567Y987114D01*
Y986193D01*
G01Y991272D02*
X863189Y989437D01*
X861811Y991272D01*
G01X864567Y994421D02*
X863189Y992587D01*
X861811Y994421D01*
G01X884280Y794732D02*
X884004Y794941D01*
X883681Y795079D01*
X883315D01*
X882902Y794870D01*
X882579Y794528D01*
X882350Y794114D01*
X882165Y793425D01*
X882118Y792803D01*
X882213Y792185D01*
X882350Y791772D01*
X882626Y791358D01*
X882945Y791083D01*
X883268Y790945D01*
X883591D01*
X883909Y791083D01*
X884185Y791287D01*
X884417Y791563D01*
G01X887429Y794732D02*
X887154Y794941D01*
X886831Y795079D01*
X886465D01*
X886051Y794870D01*
X885728Y794528D01*
X885500Y794114D01*
X885315Y793425D01*
X885268Y792803D01*
X885362Y792185D01*
X885500Y791772D01*
X885776Y791358D01*
X886094Y791083D01*
X886417Y790945D01*
X886740D01*
X887059Y791083D01*
X887335Y791287D01*
X887567Y791563D01*
G01X888969Y792323D02*
X890165D01*
G01X891567Y790945D02*
X892717Y795079D01*
X893866Y790945D01*
G01X893453Y792390D02*
X891980D01*
G01X894811Y790945D02*
Y795079D01*
X896921Y790945D01*
Y795079D01*
G01X899016D02*
Y790945D01*
G01X897961Y795079D02*
X900071D01*
G01X903083Y790945D02*
X901248D01*
Y795079D01*
X903083D01*
G01X902350Y793083D02*
X901248D01*
G01X904260Y790945D02*
Y795079D01*
X906370Y790945D01*
Y795079D01*
G01X907409Y790945D02*
Y795079D01*
X909520Y790945D01*
Y795079D01*
G01X910465Y790945D02*
X911614Y795079D01*
X912764Y790945D01*
G01X912350Y792390D02*
X910878D01*
G01X914165Y792323D02*
X915362D01*
G01X916902Y790945D02*
Y795079D01*
X917823D01*
X918189Y794870D01*
X918465Y794594D01*
X918693Y794185D01*
X918878Y793701D01*
X918925Y793012D01*
X918878Y792323D01*
X918693Y791839D01*
X918465Y791425D01*
X918189Y791150D01*
X917823Y790945D01*
X916902D01*
G01X920051D02*
Y795079D01*
G01X921799D02*
X920051Y792528D01*
G01X922075Y790945D02*
X920835Y793701D01*
G01X869488Y980906D02*
X873622D01*
G01X869488Y979850D02*
Y981961D01*
G01X873622Y983091D02*
X869488Y985020D01*
G01Y983091D02*
X873622Y985020D01*
G01Y986193D02*
X869488D01*
Y987114D01*
X869697Y987480D01*
X869972Y987756D01*
X870382Y987984D01*
X870866Y988169D01*
X871555Y988217D01*
X872244Y988169D01*
X872728Y987984D01*
X873142Y987756D01*
X873417Y987480D01*
X873622Y987114D01*
Y986193D01*
G01Y989437D02*
X872244Y991272D01*
X870866Y989437D01*
G01X873622Y992587D02*
X872244Y994421D01*
X870866Y992587D01*
G01X884646Y980382D02*
X880512D01*
Y981528D01*
X880720Y981898D01*
X880996Y982126D01*
X881547Y982217D01*
X882098Y982126D01*
X882441Y981850D01*
X882650Y981528D01*
Y980382D01*
G01Y981528D02*
X884646Y982217D01*
G01Y985366D02*
Y983531D01*
X880512D01*
Y985366D01*
G01X882508Y984634D02*
Y983531D01*
G01X884094Y986634D02*
X884441Y987000D01*
X884646Y987413D01*
Y987783D01*
X884441Y988150D01*
X884094Y988425D01*
X883610Y988563D01*
X883130Y988472D01*
X882717Y988240D01*
X882441Y987827D01*
X882303Y987276D01*
X882028Y986957D01*
X881547Y986819D01*
X881063Y986909D01*
X880720Y987138D01*
X880512Y987461D01*
Y987783D01*
X880650Y988102D01*
X880996Y988378D01*
G01X884646Y991665D02*
Y989831D01*
X880512D01*
Y991665D01*
G01X882508Y990933D02*
Y989831D01*
G01X880512Y993898D02*
X884646D01*
G01X880512Y992843D02*
Y994953D01*
G01X887193Y797244D02*
Y801378D01*
X888386Y797933D01*
X889579Y801378D01*
Y797244D01*
G01X891535D02*
X891260Y797311D01*
X890984Y797587D01*
X890799Y798071D01*
X890709Y798622D01*
X890799Y799173D01*
X890984Y799654D01*
X891260Y799929D01*
X891535Y800000D01*
X891811Y799929D01*
X892087Y799654D01*
X892272Y799173D01*
X892315Y798622D01*
X892272Y798071D01*
X892087Y797587D01*
X891811Y797311D01*
X891535Y797244D01*
G01X893906Y800000D02*
Y798071D01*
X894087Y797587D01*
X894362Y797311D01*
X894685Y797244D01*
X895008Y797311D01*
X895283Y797587D01*
X895465Y798071D01*
G01Y797244D02*
Y800000D01*
G01X897055Y797244D02*
Y800000D01*
G01Y799311D02*
X897236Y799654D01*
X897512Y799929D01*
X897882Y800000D01*
X898201Y799929D01*
X898476Y799654D01*
X898614Y799173D01*
Y797244D01*
G01X900984Y801378D02*
Y797244D01*
G01X900343Y800000D02*
X901626D01*
G01X907008Y797244D02*
Y800760D01*
X907098Y801102D01*
X907283Y801311D01*
X907559Y801378D01*
X907835Y801240D01*
X907972Y800894D01*
G01X907421Y799724D02*
X906504D01*
G01X910433Y797244D02*
X910157Y797311D01*
X909882Y797587D01*
X909697Y798071D01*
X909606Y798622D01*
X909697Y799173D01*
X909882Y799654D01*
X910157Y799929D01*
X910433Y800000D01*
X910709Y799929D01*
X910984Y799654D01*
X911169Y799173D01*
X911213Y798622D01*
X911169Y798071D01*
X910984Y797587D01*
X910709Y797311D01*
X910433Y797244D01*
G01X912941D02*
Y800000D01*
G01Y799449D02*
X913169Y799724D01*
X913398Y799929D01*
X913720Y800000D01*
X913949Y799929D01*
X914224Y799724D01*
G01X916732Y797106D02*
X916642Y797177D01*
Y797311D01*
X916732Y797382D01*
X916823Y797311D01*
Y797177D01*
X916732Y797106D01*
G01Y798965D02*
X916642Y799035D01*
Y799173D01*
X916732Y799240D01*
X916823Y799173D01*
Y799035D01*
X916732Y798965D01*
G01X890748Y987598D02*
X894882D01*
G01X890748Y986543D02*
Y988654D01*
G01X894882Y989555D02*
X890748D01*
X894193Y990748D01*
X890748Y991941D01*
X894882D01*
G01X894331Y992933D02*
X894677Y993299D01*
X894882Y993713D01*
Y994083D01*
X894677Y994449D01*
X894331Y994724D01*
X893846Y994862D01*
X893366Y994772D01*
X892953Y994539D01*
X892677Y994126D01*
X892539Y993575D01*
X892264Y993256D01*
X891783Y993118D01*
X891299Y993209D01*
X890957Y993437D01*
X890748Y993760D01*
Y994083D01*
X890886Y994402D01*
X891232Y994677D01*
G01X910039Y987598D02*
X914173D01*
G01X910039Y986543D02*
Y988654D01*
G01X914173Y989736D02*
X910039D01*
Y990657D01*
X910248Y991024D01*
X910524Y991299D01*
X910933Y991528D01*
X911417Y991713D01*
X912106Y991760D01*
X912795Y991713D01*
X913280Y991528D01*
X913693Y991299D01*
X913969Y991024D01*
X914173Y990657D01*
Y989736D01*
G01Y993898D02*
X914106Y993531D01*
X913831Y993209D01*
X913417Y992933D01*
X912933Y992748D01*
X912382Y992657D01*
X911831D01*
X911280Y992748D01*
X910795Y992933D01*
X910386Y993209D01*
X910106Y993531D01*
X910039Y993898D01*
X910106Y994264D01*
X910386Y994587D01*
X910795Y994862D01*
X911280Y995047D01*
X911831Y995138D01*
X912382D01*
X912933Y995047D01*
X913417Y994862D01*
X913831Y994587D01*
X914106Y994264D01*
X914173Y993898D01*
G01X899803Y987598D02*
X903937D01*
G01X899803Y986543D02*
Y988654D01*
G01X900150Y991760D02*
X899941Y991484D01*
X899803Y991161D01*
Y990795D01*
X900012Y990382D01*
X900354Y990059D01*
X900768Y989831D01*
X901457Y989646D01*
X902079Y989598D01*
X902697Y989693D01*
X903110Y989831D01*
X903524Y990106D01*
X903799Y990425D01*
X903937Y990748D01*
Y991071D01*
X903799Y991390D01*
X903594Y991665D01*
X903319Y991898D01*
G01X903937Y992886D02*
X899803D01*
G01Y994634D02*
X902354Y992886D01*
G01X903937Y994909D02*
X901181Y993669D01*
G01X919882Y987598D02*
X924016D01*
G01X919882Y986543D02*
Y988654D01*
G01X924016Y989736D02*
X919882D01*
Y990657D01*
X920091Y991024D01*
X920366Y991299D01*
X920776Y991528D01*
X921260Y991713D01*
X921949Y991760D01*
X922638Y991713D01*
X923122Y991528D01*
X923535Y991299D01*
X923811Y991024D01*
X924016Y990657D01*
Y989736D01*
G01X919882Y993346D02*
Y994449D01*
G01Y993898D02*
X924016D01*
G01Y993346D02*
Y994449D01*
G01X933307Y987028D02*
X933654Y987394D01*
X933858Y987807D01*
Y988177D01*
X933654Y988543D01*
X933307Y988819D01*
X932823Y988957D01*
X932343Y988866D01*
X931929Y988634D01*
X931654Y988220D01*
X931516Y987669D01*
X931240Y987350D01*
X930760Y987213D01*
X930276Y987303D01*
X929933Y987531D01*
X929724Y987854D01*
Y988177D01*
X929862Y988496D01*
X930209Y988772D01*
G01X929724Y989764D02*
X933858Y990406D01*
X929724Y991142D01*
X933858Y991878D01*
X929724Y992520D01*
G01X933858Y994291D02*
X933791Y993925D01*
X933516Y993602D01*
X933102Y993327D01*
X932618Y993142D01*
X932067Y993051D01*
X931516D01*
X930965Y993142D01*
X930480Y993327D01*
X930071Y993602D01*
X929791Y993925D01*
X929724Y994291D01*
X929791Y994657D01*
X930071Y994980D01*
X930480Y995256D01*
X930965Y995441D01*
X931516Y995531D01*
X932067D01*
X932618Y995441D01*
X933102Y995256D01*
X933516Y994980D01*
X933791Y994657D01*
X933858Y994291D01*
G01X943571Y847047D02*
Y851181D01*
X944717D01*
X945087Y850972D01*
X945315Y850697D01*
X945406Y850146D01*
X945315Y849594D01*
X945039Y849252D01*
X944717Y849043D01*
X943571D01*
G01X944717D02*
X945406Y847047D01*
G01X946949Y848906D02*
X948417D01*
X948280Y849390D01*
X948051Y849665D01*
X947728Y849803D01*
X947409Y849732D01*
X947134Y849528D01*
X946949Y849043D01*
X946858Y848630D01*
Y848220D01*
X946949Y847803D01*
X947177Y847390D01*
X947453Y847114D01*
X947776Y847047D01*
X948098Y847185D01*
X948417Y847598D01*
G01X949961Y849803D02*
X950787Y847047D01*
X951614Y849803D01*
G01X953937Y846909D02*
X953846Y846980D01*
Y847114D01*
X953937Y847185D01*
X954028Y847114D01*
Y846980D01*
X953937Y846909D01*
G01Y848768D02*
X953846Y848839D01*
Y848976D01*
X953937Y849043D01*
X954028Y848976D01*
Y848839D01*
X953937Y848768D01*
G01X959087Y847047D02*
X960236Y851181D01*
X961386Y847047D01*
G01X960972Y848492D02*
X959500D01*
G01X943571Y858465D02*
Y854331D01*
X945406D01*
G01X946720D02*
Y858465D01*
X947823D01*
X948189Y858256D01*
X948465Y857776D01*
X948555Y857224D01*
X948465Y856673D01*
X948236Y856260D01*
X947823Y856051D01*
X946720D01*
G01X950189Y855709D02*
X951386D01*
G01X954949Y858118D02*
X954673Y858327D01*
X954350Y858465D01*
X953984D01*
X953571Y858256D01*
X953248Y857913D01*
X953020Y857500D01*
X952835Y856811D01*
X952787Y856189D01*
X952882Y855571D01*
X953020Y855157D01*
X953295Y854744D01*
X953614Y854469D01*
X953937Y854331D01*
X954260D01*
X954579Y854469D01*
X954854Y854673D01*
X955087Y854949D01*
G01X958098Y858118D02*
X957823Y858327D01*
X957500Y858465D01*
X957134D01*
X956720Y858256D01*
X956398Y857913D01*
X956169Y857500D01*
X955984Y856811D01*
X955937Y856189D01*
X956031Y855571D01*
X956169Y855157D01*
X956445Y854744D01*
X956764Y854469D01*
X957087Y854331D01*
X957409D01*
X957728Y854469D01*
X958004Y854673D01*
X958236Y854949D01*
G01X959362Y857776D02*
X959638Y858189D01*
X959961Y858398D01*
X960327Y858465D01*
X960787Y858327D01*
X961110Y857980D01*
X961201Y857571D01*
X961154Y857154D01*
X960972Y856811D01*
X960051Y856122D01*
X959638Y855638D01*
X959362Y854949D01*
X959272Y854331D01*
X961201D01*
G01X962512Y856051D02*
X962835Y856535D01*
X963110Y856811D01*
X963476Y856949D01*
X963799Y856811D01*
X964028Y856535D01*
X964213Y856122D01*
X964260Y855638D01*
X964213Y855224D01*
X964028Y854811D01*
X963752Y854469D01*
X963433Y854331D01*
X963063Y854469D01*
X962744Y854882D01*
X962559Y855504D01*
X962512Y856189D01*
X962606Y857087D01*
X962744Y857571D01*
X962972Y858051D01*
X963295Y858398D01*
X963614Y858465D01*
X963937Y858327D01*
X964165Y857980D01*
G01X965524Y854949D02*
X965799Y854606D01*
X966122Y854398D01*
X966535Y854331D01*
X966949Y854469D01*
X967272Y854744D01*
X967500Y855224D01*
X967547Y855776D01*
X967453Y856327D01*
X967224Y856673D01*
X966902Y856949D01*
X966583Y857016D01*
X966260Y856949D01*
X965846Y856673D01*
X965984Y858465D01*
X967224D01*
G01X968811Y857776D02*
X969087Y858189D01*
X969409Y858398D01*
X969776Y858465D01*
X970236Y858327D01*
X970559Y857980D01*
X970650Y857571D01*
X970602Y857154D01*
X970421Y856811D01*
X969500Y856122D01*
X969087Y855638D01*
X968811Y854949D01*
X968720Y854331D01*
X970650D01*
G01X971917D02*
Y858465D01*
X973063D01*
X973433Y858256D01*
X973661Y857980D01*
X973752Y857429D01*
X973661Y856878D01*
X973386Y856535D01*
X973063Y856327D01*
X971917D01*
G01X973063D02*
X973752Y854331D01*
G01X975894D02*
X975984Y855224D01*
X976122Y855984D01*
X976307Y856673D01*
X976535Y857429D01*
X976902Y858465D01*
X975067D01*
G01X943689Y839764D02*
Y843898D01*
X944882Y840453D01*
X946075Y843898D01*
Y839764D01*
G01X949043Y843551D02*
X948768Y843760D01*
X948445Y843898D01*
X948079D01*
X947665Y843689D01*
X947343Y843346D01*
X947114Y842933D01*
X946929Y842244D01*
X946882Y841622D01*
X946976Y841004D01*
X947114Y840591D01*
X947390Y840177D01*
X947709Y839902D01*
X948031Y839764D01*
X948354D01*
X948673Y839902D01*
X948949Y840106D01*
X949181Y840382D01*
G01X950169Y843898D02*
Y840937D01*
X950354Y840315D01*
X950720Y839902D01*
X951181Y839764D01*
X951642Y839902D01*
X952008Y840315D01*
X952193Y840937D01*
Y843898D01*
G01X954331D02*
X953965Y843760D01*
X953689Y843413D01*
X953504Y843004D01*
X953366Y842449D01*
X953319Y841831D01*
X953366Y841209D01*
X953504Y840657D01*
X953689Y840244D01*
X953965Y839902D01*
X954331Y839764D01*
X954697Y839902D01*
X954972Y840244D01*
X955157Y840657D01*
X955295Y841209D01*
X955343Y841831D01*
X955295Y842449D01*
X955157Y843004D01*
X954972Y843413D01*
X954697Y843760D01*
X954331Y843898D01*
G01X957390Y839764D02*
X957480Y840657D01*
X957618Y841417D01*
X957803Y842106D01*
X958031Y842862D01*
X958398Y843898D01*
X956563D01*
G01X959618Y840382D02*
X959894Y840039D01*
X960217Y839831D01*
X960630Y839764D01*
X961043Y839902D01*
X961366Y840177D01*
X961594Y840657D01*
X961642Y841209D01*
X961547Y841760D01*
X961319Y842106D01*
X960996Y842382D01*
X960677Y842449D01*
X960354Y842382D01*
X959941Y842106D01*
X960079Y843898D01*
X961319D01*
G01X962177Y869689D02*
X962154Y873823D01*
X963071Y873827D01*
X963441Y873622D01*
X963717Y873350D01*
X963949Y872937D01*
X964138Y872457D01*
X964185Y871768D01*
X964146Y871079D01*
X963965Y870594D01*
X963736Y870181D01*
X963465Y869902D01*
X963098Y869693D01*
X962177Y869689D01*
G01X965760Y873843D02*
X966862Y873850D01*
G01X966311Y873846D02*
X966339Y869713D01*
G01X965787Y869709D02*
X966890Y869717D01*
G01X969488Y869732D02*
X969122Y869799D01*
X968795Y870075D01*
X968520Y870484D01*
X968331Y870965D01*
X968236Y871516D01*
X968232Y872067D01*
X968323Y872618D01*
X968504Y873102D01*
X968776Y873520D01*
X969094Y873795D01*
X969461Y873866D01*
X969831Y873799D01*
X970154Y873528D01*
X970433Y873114D01*
X970618Y872634D01*
X970713Y872083D01*
X970717Y871531D01*
X970630Y870980D01*
X970449Y870496D01*
X970173Y870083D01*
X969854Y869803D01*
X969488Y869732D01*
G01X972638Y869752D02*
X972610Y873886D01*
X972067Y873055D01*
G01X972087Y869748D02*
X973189Y869756D01*
G01X975697Y869772D02*
X975783Y870669D01*
X975913Y871425D01*
X976094Y872118D01*
X976319Y872878D01*
X976681Y873913D01*
X974843Y873902D01*
G01X962571Y879531D02*
X962547Y883665D01*
X963465Y883669D01*
X963835Y883465D01*
X964110Y883193D01*
X964343Y882780D01*
X964531Y882299D01*
X964579Y881610D01*
X964539Y880921D01*
X964358Y880437D01*
X964130Y880024D01*
X963858Y879744D01*
X963492Y879535D01*
X962571Y879531D01*
G01X966154Y883685D02*
X967256Y883693D01*
G01X966705Y883689D02*
X966732Y879555D01*
G01X966181Y879551D02*
X967283Y879559D01*
G01X969882Y879575D02*
X969516Y879642D01*
X969189Y879917D01*
X968913Y880327D01*
X968724Y880807D01*
X968630Y881358D01*
X968626Y881909D01*
X968717Y882461D01*
X968898Y882945D01*
X969169Y883362D01*
X969488Y883638D01*
X969854Y883709D01*
X970224Y883642D01*
X970547Y883370D01*
X970827Y882957D01*
X971012Y882476D01*
X971106Y881925D01*
X971110Y881374D01*
X971024Y880823D01*
X970843Y880339D01*
X970567Y879925D01*
X970248Y879646D01*
X969882Y879575D01*
G01X973031Y879594D02*
X973004Y883728D01*
X972461Y882898D01*
G01X972480Y879591D02*
X973583Y879598D01*
G01X975299Y881331D02*
X975614Y881815D01*
X975890Y882094D01*
X976256Y882232D01*
X976579Y882098D01*
X976811Y881823D01*
X976996Y881413D01*
X977047Y880929D01*
X977004Y880516D01*
X976823Y880102D01*
X976547Y879756D01*
X976228Y879614D01*
X975858Y879752D01*
X975535Y880161D01*
X975346Y880780D01*
X975295Y881469D01*
X975382Y882366D01*
X975516Y882850D01*
X975744Y883335D01*
X976063Y883681D01*
X976386Y883752D01*
X976709Y883614D01*
X976937Y883272D01*
G01X969067Y904142D02*
X969094Y900008D01*
G01X968012Y904134D02*
X970126Y904150D01*
G01X971051Y900020D02*
X971024Y904154D01*
X972240Y900717D01*
X973413Y904169D01*
X973437Y900035D01*
G01X974425Y900594D02*
X974795Y900252D01*
X975209Y900047D01*
X975579Y900051D01*
X975945Y900260D01*
X976217Y900606D01*
X976350Y901087D01*
X976256Y901571D01*
X976024Y901980D01*
X975610Y902256D01*
X975059Y902390D01*
X974732Y902661D01*
X974594Y903142D01*
X974681Y903626D01*
X974909Y903972D01*
X975228Y904181D01*
X975551Y904185D01*
X975874Y904047D01*
X976150Y903705D01*
G01X969067Y894299D02*
X969094Y890165D01*
G01X968012Y894291D02*
X970126Y894307D01*
G01X973232Y893980D02*
X972953Y894185D01*
X972630Y894323D01*
X972264Y894319D01*
X971850Y894110D01*
X971531Y893764D01*
X971307Y893350D01*
X971126Y892657D01*
X971083Y892039D01*
X971181Y891421D01*
X971319Y891008D01*
X971598Y890594D01*
X971921Y890323D01*
X972244Y890185D01*
X972567Y890189D01*
X972886Y890327D01*
X973161Y890535D01*
X973390Y890815D01*
G01X974382Y890201D02*
X974358Y894335D01*
G01X976102Y894343D02*
X974374Y891783D01*
G01X976406Y890213D02*
X975146Y892961D01*
G01X963358Y911850D02*
X963543Y912055D01*
X963681Y912402D01*
X963772Y912886D01*
X963681Y913295D01*
X963496Y913571D01*
X963177Y913780D01*
X961937D01*
Y909646D01*
X963453D01*
X963772Y909921D01*
X963957Y910335D01*
X964047Y910819D01*
X963957Y911299D01*
X963681Y911713D01*
X963358Y911850D01*
X961937D01*
G01X965224Y909646D02*
Y913780D01*
X966327D01*
X966693Y913571D01*
X966969Y913091D01*
X967059Y912539D01*
X966969Y911988D01*
X966740Y911575D01*
X966327Y911366D01*
X965224D01*
G01X968374Y909646D02*
Y913780D01*
X969520D01*
X969890Y913571D01*
X970118Y913295D01*
X970209Y912744D01*
X970118Y912193D01*
X969843Y911850D01*
X969520Y911642D01*
X968374D01*
G01X969520D02*
X970209Y909646D01*
G01X971476Y910197D02*
X971843Y909850D01*
X972256Y909646D01*
X972626D01*
X972992Y909850D01*
X973268Y910197D01*
X973406Y910681D01*
X973315Y911161D01*
X973083Y911575D01*
X972669Y911850D01*
X972118Y911988D01*
X971799Y912264D01*
X971661Y912744D01*
X971752Y913228D01*
X971980Y913571D01*
X972303Y913780D01*
X972626D01*
X972945Y913642D01*
X973220Y913295D01*
G01X975591Y913780D02*
Y909646D01*
G01X974535Y913780D02*
X976646D01*
G01X961980Y919685D02*
Y923819D01*
X962902D01*
X963268Y923610D01*
X963543Y923335D01*
X963772Y922925D01*
X963957Y922441D01*
X964004Y921752D01*
X963957Y921063D01*
X963772Y920579D01*
X963543Y920165D01*
X963268Y919890D01*
X962902Y919685D01*
X961980D01*
G01X965591Y923819D02*
X966693D01*
G01X966142D02*
Y919685D01*
G01X965591D02*
X966693D01*
G01X969291D02*
X968925Y919752D01*
X968602Y920028D01*
X968327Y920441D01*
X968142Y920925D01*
X968051Y921476D01*
Y922028D01*
X968142Y922579D01*
X968327Y923063D01*
X968602Y923472D01*
X968925Y923752D01*
X969291Y923819D01*
X969657Y923752D01*
X969980Y923472D01*
X970256Y923063D01*
X970441Y922579D01*
X970531Y922028D01*
Y921476D01*
X970441Y920925D01*
X970256Y920441D01*
X969980Y920028D01*
X969657Y919752D01*
X969291Y919685D01*
G01X972441D02*
Y923819D01*
X971890Y922992D01*
G01Y919685D02*
X972992D01*
G01X975591D02*
X975913Y919752D01*
X976280Y919961D01*
X976508Y920303D01*
X976602Y920787D01*
X976508Y921268D01*
X976232Y921681D01*
X975819Y921890D01*
X975362D01*
X975087Y922028D01*
X974854Y922370D01*
X974764Y922854D01*
X974902Y923335D01*
X975224Y923681D01*
X975591Y923819D01*
X975957Y923681D01*
X976280Y923335D01*
X976417Y922854D01*
X976327Y922370D01*
X976094Y922028D01*
X975819Y921890D01*
X975362D01*
X974949Y921681D01*
X974673Y921268D01*
X974579Y920787D01*
X974673Y920303D01*
X974902Y919961D01*
X975268Y919752D01*
X975591Y919685D01*
G01X961980Y929724D02*
Y933858D01*
X962902D01*
X963268Y933650D01*
X963543Y933374D01*
X963772Y932965D01*
X963957Y932480D01*
X964004Y931791D01*
X963957Y931102D01*
X963772Y930618D01*
X963543Y930205D01*
X963268Y929929D01*
X962902Y929724D01*
X961980D01*
G01X965591Y933858D02*
X966693D01*
G01X966142D02*
Y929724D01*
G01X965591D02*
X966693D01*
G01X969291D02*
X968925Y929791D01*
X968602Y930067D01*
X968327Y930480D01*
X968142Y930965D01*
X968051Y931516D01*
Y932067D01*
X968142Y932618D01*
X968327Y933102D01*
X968602Y933512D01*
X968925Y933791D01*
X969291Y933858D01*
X969657Y933791D01*
X969980Y933512D01*
X970256Y933102D01*
X970441Y932618D01*
X970531Y932067D01*
Y931516D01*
X970441Y930965D01*
X970256Y930480D01*
X969980Y930067D01*
X969657Y929791D01*
X969291Y929724D01*
G01X972441D02*
Y933858D01*
X971890Y933031D01*
G01Y929724D02*
X972992D01*
G01X974811Y930205D02*
X975130Y929862D01*
X975500Y929724D01*
X975866Y929862D01*
X976189Y930276D01*
X976417Y930898D01*
X976508Y931516D01*
Y932272D01*
X976417Y932894D01*
X976189Y933445D01*
X975913Y933720D01*
X975591Y933858D01*
X975224Y933720D01*
X974949Y933445D01*
X974764Y933031D01*
X974673Y932480D01*
X974764Y932000D01*
X974992Y931516D01*
X975268Y931240D01*
X975591Y931169D01*
X975957Y931307D01*
X976232Y931654D01*
X976508Y932272D01*
G01X961980Y939764D02*
Y943898D01*
X962902D01*
X963268Y943689D01*
X963543Y943413D01*
X963772Y943004D01*
X963957Y942520D01*
X964004Y941831D01*
X963957Y941142D01*
X963772Y940657D01*
X963543Y940244D01*
X963268Y939969D01*
X962902Y939764D01*
X961980D01*
G01X965591Y943898D02*
X966693D01*
G01X966142D02*
Y939764D01*
G01X965591D02*
X966693D01*
G01X969291D02*
X968925Y939831D01*
X968602Y940106D01*
X968327Y940520D01*
X968142Y941004D01*
X968051Y941555D01*
Y942106D01*
X968142Y942657D01*
X968327Y943142D01*
X968602Y943551D01*
X968925Y943831D01*
X969291Y943898D01*
X969657Y943831D01*
X969980Y943551D01*
X970256Y943142D01*
X970441Y942657D01*
X970531Y942106D01*
Y941555D01*
X970441Y941004D01*
X970256Y940520D01*
X969980Y940106D01*
X969657Y939831D01*
X969291Y939764D01*
G01X971567Y943209D02*
X971843Y943622D01*
X972165Y943831D01*
X972531Y943898D01*
X972992Y943760D01*
X973315Y943413D01*
X973406Y943004D01*
X973358Y942587D01*
X973177Y942244D01*
X972256Y941555D01*
X971843Y941071D01*
X971567Y940382D01*
X971476Y939764D01*
X973406D01*
G01X975591Y943898D02*
X975224Y943760D01*
X974949Y943413D01*
X974764Y943004D01*
X974626Y942449D01*
X974579Y941831D01*
X974626Y941209D01*
X974764Y940657D01*
X974949Y940244D01*
X975224Y939902D01*
X975591Y939764D01*
X975957Y939902D01*
X976232Y940244D01*
X976417Y940657D01*
X976555Y941209D01*
X976602Y941831D01*
X976555Y942449D01*
X976417Y943004D01*
X976232Y943413D01*
X975957Y943760D01*
X975591Y943898D01*
G01X965327Y949606D02*
Y953740D01*
X966248D01*
X966614Y953531D01*
X966890Y953256D01*
X967118Y952846D01*
X967303Y952362D01*
X967350Y951673D01*
X967303Y950984D01*
X967118Y950500D01*
X966890Y950087D01*
X966614Y949811D01*
X966248Y949606D01*
X965327D01*
G01X968937Y953740D02*
X970039D01*
G01X969488D02*
Y949606D01*
G01X968937D02*
X970039D01*
G01X972638D02*
X972272Y949673D01*
X971949Y949949D01*
X971673Y950362D01*
X971488Y950846D01*
X971398Y951398D01*
Y951949D01*
X971488Y952500D01*
X971673Y952984D01*
X971949Y953394D01*
X972272Y953673D01*
X972638Y953740D01*
X973004Y953673D01*
X973327Y953394D01*
X973602Y952984D01*
X973787Y952500D01*
X973878Y951949D01*
Y951398D01*
X973787Y950846D01*
X973602Y950362D01*
X973327Y949949D01*
X973004Y949673D01*
X972638Y949606D01*
G01X974913Y951327D02*
X975236Y951811D01*
X975512Y952087D01*
X975878Y952224D01*
X976201Y952087D01*
X976429Y951811D01*
X976614Y951398D01*
X976661Y950913D01*
X976614Y950500D01*
X976429Y950087D01*
X976154Y949744D01*
X975835Y949606D01*
X975465Y949744D01*
X975146Y950157D01*
X974961Y950780D01*
X974913Y951465D01*
X975008Y952362D01*
X975146Y952846D01*
X975374Y953327D01*
X975697Y953673D01*
X976016Y953740D01*
X976339Y953602D01*
X976567Y953256D01*
G01X966114Y960236D02*
Y964370D01*
X967035D01*
X967402Y964161D01*
X967677Y963886D01*
X967906Y963476D01*
X968091Y962992D01*
X968138Y962303D01*
X968091Y961614D01*
X967906Y961130D01*
X967677Y960717D01*
X967402Y960441D01*
X967035Y960236D01*
X966114D01*
G01X969724Y964370D02*
X970827D01*
G01X970276D02*
Y960236D01*
G01X969724D02*
X970827D01*
G01X973425D02*
X973059Y960303D01*
X972736Y960579D01*
X972461Y960992D01*
X972276Y961476D01*
X972185Y962028D01*
Y962579D01*
X972276Y963130D01*
X972461Y963614D01*
X972736Y964024D01*
X973059Y964303D01*
X973425Y964370D01*
X973791Y964303D01*
X974114Y964024D01*
X974390Y963614D01*
X974575Y963130D01*
X974665Y962579D01*
Y962028D01*
X974575Y961476D01*
X974390Y960992D01*
X974114Y960579D01*
X973791Y960303D01*
X973425Y960236D01*
G01X976484D02*
X976575Y961130D01*
X976713Y961890D01*
X976898Y962579D01*
X977126Y963335D01*
X977492Y964370D01*
X975657D01*
G01X984028Y995118D02*
X984213Y995323D01*
X984350Y995669D01*
X984441Y996154D01*
X984350Y996563D01*
X984165Y996839D01*
X983846Y997047D01*
X982606D01*
Y992913D01*
X984122D01*
X984441Y993189D01*
X984626Y993602D01*
X984717Y994087D01*
X984626Y994567D01*
X984350Y994980D01*
X984028Y995118D01*
X982606D01*
G01X986811Y997047D02*
Y992913D01*
G01X985756Y997047D02*
X987866D01*
G01X988906Y992913D02*
Y997047D01*
X991016Y992913D01*
Y997047D01*
G01X992512Y994291D02*
X993709D01*
G01X995386Y996358D02*
X995661Y996772D01*
X995984Y996980D01*
X996350Y997047D01*
X996811Y996909D01*
X997134Y996563D01*
X997224Y996154D01*
X997177Y995736D01*
X996996Y995394D01*
X996075Y994705D01*
X995661Y994220D01*
X995386Y993531D01*
X995295Y992913D01*
X997224D01*
G01X982846Y985433D02*
Y989567D01*
X983768D01*
X984134Y989358D01*
X984409Y989083D01*
X984638Y988673D01*
X984823Y988189D01*
X984870Y987500D01*
X984823Y986811D01*
X984638Y986327D01*
X984409Y985913D01*
X984134Y985638D01*
X983768Y985433D01*
X982846D01*
G01X986457Y989567D02*
X987559D01*
G01X987008D02*
Y985433D01*
G01X986457D02*
X987559D01*
G01X990157D02*
X989791Y985500D01*
X989469Y985776D01*
X989193Y986189D01*
X989008Y986673D01*
X988917Y987224D01*
Y987776D01*
X989008Y988327D01*
X989193Y988811D01*
X989469Y989220D01*
X989791Y989500D01*
X990157Y989567D01*
X990524Y989500D01*
X990846Y989220D01*
X991122Y988811D01*
X991307Y988327D01*
X991398Y987776D01*
Y987224D01*
X991307Y986673D01*
X991122Y986189D01*
X990846Y985776D01*
X990524Y985500D01*
X990157Y985433D01*
G01X993307D02*
Y989567D01*
X992756Y988740D01*
G01Y985433D02*
X993858D01*
G01X997008D02*
Y989567D01*
X995307Y986606D01*
X997606D01*
G01X998201Y869291D02*
Y873425D01*
X999122D01*
X999488Y873217D01*
X999764Y872941D01*
X999992Y872531D01*
X1000177Y872047D01*
X1000224Y871358D01*
X1000177Y870669D01*
X999992Y870185D01*
X999764Y869772D01*
X999488Y869496D01*
X999122Y869291D01*
X998201D01*
G01X1001811Y873425D02*
X1002913D01*
G01X1002362D02*
Y869291D01*
G01X1001811D02*
X1002913D01*
G01X1005512D02*
X1005146Y869358D01*
X1004823Y869634D01*
X1004547Y870047D01*
X1004362Y870531D01*
X1004272Y871083D01*
Y871634D01*
X1004362Y872185D01*
X1004547Y872669D01*
X1004823Y873079D01*
X1005146Y873358D01*
X1005512Y873425D01*
X1005878Y873358D01*
X1006201Y873079D01*
X1006476Y872669D01*
X1006661Y872185D01*
X1006752Y871634D01*
Y871083D01*
X1006661Y870531D01*
X1006476Y870047D01*
X1006201Y869634D01*
X1005878Y869358D01*
X1005512Y869291D01*
G01X1008661D02*
Y873425D01*
X1008110Y872598D01*
G01Y869291D02*
X1009213D01*
G01X1010799Y869909D02*
X1011075Y869567D01*
X1011398Y869358D01*
X1011811Y869291D01*
X1012224Y869429D01*
X1012547Y869705D01*
X1012776Y870185D01*
X1012823Y870736D01*
X1012728Y871287D01*
X1012500Y871634D01*
X1012177Y871909D01*
X1011858Y871976D01*
X1011535Y871909D01*
X1011122Y871634D01*
X1011260Y873425D01*
X1012500D01*
G01X998201Y879331D02*
Y883465D01*
X999122D01*
X999488Y883256D01*
X999764Y882980D01*
X999992Y882571D01*
X1000177Y882087D01*
X1000224Y881398D01*
X1000177Y880709D01*
X999992Y880224D01*
X999764Y879811D01*
X999488Y879535D01*
X999122Y879331D01*
X998201D01*
G01X1001811Y883465D02*
X1002913D01*
G01X1002362D02*
Y879331D01*
G01X1001811D02*
X1002913D01*
G01X1005512D02*
X1005146Y879398D01*
X1004823Y879673D01*
X1004547Y880087D01*
X1004362Y880571D01*
X1004272Y881122D01*
Y881673D01*
X1004362Y882224D01*
X1004547Y882709D01*
X1004823Y883118D01*
X1005146Y883398D01*
X1005512Y883465D01*
X1005878Y883398D01*
X1006201Y883118D01*
X1006476Y882709D01*
X1006661Y882224D01*
X1006752Y881673D01*
Y881122D01*
X1006661Y880571D01*
X1006476Y880087D01*
X1006201Y879673D01*
X1005878Y879398D01*
X1005512Y879331D01*
G01X1008661D02*
Y883465D01*
X1008110Y882638D01*
G01Y879331D02*
X1009213D01*
G01X1012362D02*
Y883465D01*
X1010661Y880504D01*
X1012961D01*
G01X998201Y889370D02*
Y893504D01*
X999122D01*
X999488Y893295D01*
X999764Y893020D01*
X999992Y892610D01*
X1000177Y892126D01*
X1000224Y891437D01*
X1000177Y890748D01*
X999992Y890264D01*
X999764Y889850D01*
X999488Y889575D01*
X999122Y889370D01*
X998201D01*
G01X1001811Y893504D02*
X1002913D01*
G01X1002362D02*
Y889370D01*
G01X1001811D02*
X1002913D01*
G01X1005512D02*
X1005146Y889437D01*
X1004823Y889713D01*
X1004547Y890126D01*
X1004362Y890610D01*
X1004272Y891161D01*
Y891713D01*
X1004362Y892264D01*
X1004547Y892748D01*
X1004823Y893157D01*
X1005146Y893437D01*
X1005512Y893504D01*
X1005878Y893437D01*
X1006201Y893157D01*
X1006476Y892748D01*
X1006661Y892264D01*
X1006752Y891713D01*
Y891161D01*
X1006661Y890610D01*
X1006476Y890126D01*
X1006201Y889713D01*
X1005878Y889437D01*
X1005512Y889370D01*
G01X1008661D02*
Y893504D01*
X1008110Y892677D01*
G01Y889370D02*
X1009213D01*
G01X1010799Y890197D02*
X1011075Y889713D01*
X1011445Y889437D01*
X1011858Y889370D01*
X1012224Y889437D01*
X1012591Y889783D01*
X1012823Y890197D01*
X1012866Y890610D01*
X1012776Y891091D01*
X1012453Y891437D01*
X1012134Y891575D01*
X1011720D01*
G01X1012134D02*
X1012409Y891780D01*
X1012638Y892126D01*
X1012728Y892539D01*
X1012638Y892953D01*
X1012409Y893295D01*
X1011996Y893504D01*
X1011583Y893437D01*
X1011169Y893157D01*
G01X998201Y899409D02*
Y903543D01*
X999122D01*
X999488Y903335D01*
X999764Y903059D01*
X999992Y902650D01*
X1000177Y902165D01*
X1000224Y901476D01*
X1000177Y900787D01*
X999992Y900303D01*
X999764Y899890D01*
X999488Y899614D01*
X999122Y899409D01*
X998201D01*
G01X1001811Y903543D02*
X1002913D01*
G01X1002362D02*
Y899409D01*
G01X1001811D02*
X1002913D01*
G01X1005512D02*
X1005146Y899476D01*
X1004823Y899752D01*
X1004547Y900165D01*
X1004362Y900650D01*
X1004272Y901201D01*
Y901752D01*
X1004362Y902303D01*
X1004547Y902787D01*
X1004823Y903197D01*
X1005146Y903476D01*
X1005512Y903543D01*
X1005878Y903476D01*
X1006201Y903197D01*
X1006476Y902787D01*
X1006661Y902303D01*
X1006752Y901752D01*
Y901201D01*
X1006661Y900650D01*
X1006476Y900165D01*
X1006201Y899752D01*
X1005878Y899476D01*
X1005512Y899409D01*
G01X1008661D02*
X1008984Y899476D01*
X1009350Y899685D01*
X1009579Y900028D01*
X1009673Y900512D01*
X1009579Y900992D01*
X1009303Y901406D01*
X1008890Y901614D01*
X1008433D01*
X1008157Y901752D01*
X1007925Y902094D01*
X1007835Y902579D01*
X1007972Y903059D01*
X1008295Y903406D01*
X1008661Y903543D01*
X1009028Y903406D01*
X1009350Y903059D01*
X1009488Y902579D01*
X1009398Y902094D01*
X1009165Y901752D01*
X1008890Y901614D01*
X1008433D01*
X1008020Y901406D01*
X1007744Y900992D01*
X1007650Y900512D01*
X1007744Y900028D01*
X1007972Y899685D01*
X1008339Y899476D01*
X1008661Y899409D01*
G01X998201Y909252D02*
Y913386D01*
X999122D01*
X999488Y913177D01*
X999764Y912902D01*
X999992Y912492D01*
X1000177Y912008D01*
X1000224Y911319D01*
X1000177Y910630D01*
X999992Y910146D01*
X999764Y909732D01*
X999488Y909457D01*
X999122Y909252D01*
X998201D01*
G01X1001811Y913386D02*
X1002913D01*
G01X1002362D02*
Y909252D01*
G01X1001811D02*
X1002913D01*
G01X1005512D02*
X1005146Y909319D01*
X1004823Y909594D01*
X1004547Y910008D01*
X1004362Y910492D01*
X1004272Y911043D01*
Y911594D01*
X1004362Y912146D01*
X1004547Y912630D01*
X1004823Y913039D01*
X1005146Y913319D01*
X1005512Y913386D01*
X1005878Y913319D01*
X1006201Y913039D01*
X1006476Y912630D01*
X1006661Y912146D01*
X1006752Y911594D01*
Y911043D01*
X1006661Y910492D01*
X1006476Y910008D01*
X1006201Y909594D01*
X1005878Y909319D01*
X1005512Y909252D01*
G01X1007882Y909732D02*
X1008201Y909390D01*
X1008571Y909252D01*
X1008937Y909390D01*
X1009260Y909803D01*
X1009488Y910425D01*
X1009579Y911043D01*
Y911799D01*
X1009488Y912421D01*
X1009260Y912972D01*
X1008984Y913248D01*
X1008661Y913386D01*
X1008295Y913248D01*
X1008020Y912972D01*
X1007835Y912559D01*
X1007744Y912008D01*
X1007835Y911528D01*
X1008063Y911043D01*
X1008339Y910768D01*
X1008661Y910697D01*
X1009028Y910835D01*
X1009303Y911181D01*
X1009579Y911799D01*
G01X998295Y923425D02*
Y919291D01*
X1000130D01*
G01X1001445D02*
Y923425D01*
X1002547D01*
X1002913Y923217D01*
X1003189Y922736D01*
X1003280Y922185D01*
X1003189Y921634D01*
X1002961Y921220D01*
X1002547Y921012D01*
X1001445D01*
G01X1004594Y919291D02*
Y923425D01*
X1005740D01*
X1006110Y923217D01*
X1006339Y922941D01*
X1006429Y922390D01*
X1006339Y921839D01*
X1006063Y921496D01*
X1005740Y921287D01*
X1004594D01*
G01X1005740D02*
X1006429Y919291D01*
G01X1007697Y919843D02*
X1008063Y919496D01*
X1008476Y919291D01*
X1008846D01*
X1009213Y919496D01*
X1009488Y919843D01*
X1009626Y920327D01*
X1009535Y920807D01*
X1009303Y921220D01*
X1008890Y921496D01*
X1008339Y921634D01*
X1008020Y921909D01*
X1007882Y922390D01*
X1007972Y922874D01*
X1008201Y923217D01*
X1008524Y923425D01*
X1008846D01*
X1009165Y923287D01*
X1009441Y922941D01*
G01X1011811Y923425D02*
Y919291D01*
G01X1010756Y923425D02*
X1012866D01*
G01X998201Y939370D02*
Y943504D01*
X999122D01*
X999488Y943295D01*
X999764Y943020D01*
X999992Y942610D01*
X1000177Y942126D01*
X1000224Y941437D01*
X1000177Y940748D01*
X999992Y940264D01*
X999764Y939850D01*
X999488Y939575D01*
X999122Y939370D01*
X998201D01*
G01X1001811Y943504D02*
X1002913D01*
G01X1002362D02*
Y939370D01*
G01X1001811D02*
X1002913D01*
G01X1005512D02*
X1005146Y939437D01*
X1004823Y939713D01*
X1004547Y940126D01*
X1004362Y940610D01*
X1004272Y941161D01*
Y941713D01*
X1004362Y942264D01*
X1004547Y942748D01*
X1004823Y943157D01*
X1005146Y943437D01*
X1005512Y943504D01*
X1005878Y943437D01*
X1006201Y943157D01*
X1006476Y942748D01*
X1006661Y942264D01*
X1006752Y941713D01*
Y941161D01*
X1006661Y940610D01*
X1006476Y940126D01*
X1006201Y939713D01*
X1005878Y939437D01*
X1005512Y939370D01*
G01X1008661D02*
Y943504D01*
X1008110Y942677D01*
G01Y939370D02*
X1009213D01*
G01X1011811D02*
Y943504D01*
X1011260Y942677D01*
G01Y939370D02*
X1012362D01*
G01X998201Y949409D02*
Y953543D01*
X999122D01*
X999488Y953335D01*
X999764Y953059D01*
X999992Y952650D01*
X1000177Y952165D01*
X1000224Y951476D01*
X1000177Y950787D01*
X999992Y950303D01*
X999764Y949890D01*
X999488Y949614D01*
X999122Y949409D01*
X998201D01*
G01X1001811Y953543D02*
X1002913D01*
G01X1002362D02*
Y949409D01*
G01X1001811D02*
X1002913D01*
G01X1005512D02*
X1005146Y949476D01*
X1004823Y949752D01*
X1004547Y950165D01*
X1004362Y950650D01*
X1004272Y951201D01*
Y951752D01*
X1004362Y952303D01*
X1004547Y952787D01*
X1004823Y953197D01*
X1005146Y953476D01*
X1005512Y953543D01*
X1005878Y953476D01*
X1006201Y953197D01*
X1006476Y952787D01*
X1006661Y952303D01*
X1006752Y951752D01*
Y951201D01*
X1006661Y950650D01*
X1006476Y950165D01*
X1006201Y949752D01*
X1005878Y949476D01*
X1005512Y949409D01*
G01X1008661D02*
Y953543D01*
X1008110Y952717D01*
G01Y949409D02*
X1009213D01*
G01X1010937Y952854D02*
X1011213Y953268D01*
X1011535Y953476D01*
X1011902Y953543D01*
X1012362Y953406D01*
X1012685Y953059D01*
X1012776Y952650D01*
X1012728Y952232D01*
X1012547Y951890D01*
X1011626Y951201D01*
X1011213Y950717D01*
X1010937Y950028D01*
X1010846Y949409D01*
X1012776D01*
G01X1016535Y1089043D02*
X1012402D01*
Y1090189D01*
X1012610Y1090559D01*
X1012886Y1090787D01*
X1013437Y1090878D01*
X1013988Y1090787D01*
X1014331Y1090512D01*
X1014539Y1090189D01*
Y1089043D01*
G01Y1090189D02*
X1016535Y1090878D01*
G01X1014677Y1092421D02*
Y1093890D01*
X1014193Y1093752D01*
X1013917Y1093524D01*
X1013780Y1093201D01*
X1013850Y1092882D01*
X1014055Y1092606D01*
X1014539Y1092421D01*
X1014953Y1092331D01*
X1015362D01*
X1015780Y1092421D01*
X1016193Y1092650D01*
X1016469Y1092925D01*
X1016535Y1093248D01*
X1016398Y1093571D01*
X1015984Y1093890D01*
G01X1013780Y1095433D02*
X1016535Y1096260D01*
X1013780Y1097087D01*
G01X1016673Y1099409D02*
X1016602Y1099319D01*
X1016469D01*
X1016398Y1099409D01*
X1016469Y1099500D01*
X1016602D01*
X1016673Y1099409D01*
G01X1014815D02*
X1014744Y1099319D01*
X1014606D01*
X1014539Y1099409D01*
X1014606Y1099500D01*
X1014744D01*
X1014815Y1099409D01*
G01X1016535Y1104559D02*
X1012402Y1105709D01*
X1016535Y1106858D01*
G01X1015091Y1106445D02*
Y1104972D01*
G01X1016535Y1122823D02*
X1012402D01*
X1015846Y1124016D01*
X1012402Y1125209D01*
X1016535D01*
G01X1012748Y1128177D02*
X1012539Y1127902D01*
X1012402Y1127579D01*
Y1127213D01*
X1012610Y1126799D01*
X1012953Y1126476D01*
X1013366Y1126248D01*
X1014055Y1126063D01*
X1014677Y1126016D01*
X1015295Y1126110D01*
X1015709Y1126248D01*
X1016122Y1126524D01*
X1016398Y1126843D01*
X1016535Y1127165D01*
Y1127488D01*
X1016398Y1127807D01*
X1016193Y1128083D01*
X1015917Y1128315D01*
G01X1012402Y1129303D02*
X1015362D01*
X1015984Y1129488D01*
X1016398Y1129854D01*
X1016535Y1130315D01*
X1016398Y1130776D01*
X1015984Y1131142D01*
X1015362Y1131327D01*
X1012402D01*
G01Y1133465D02*
X1012539Y1133098D01*
X1012886Y1132823D01*
X1013295Y1132638D01*
X1013850Y1132500D01*
X1014469Y1132453D01*
X1015091Y1132500D01*
X1015642Y1132638D01*
X1016055Y1132823D01*
X1016398Y1133098D01*
X1016535Y1133465D01*
X1016398Y1133831D01*
X1016055Y1134106D01*
X1015642Y1134291D01*
X1015091Y1134429D01*
X1014469Y1134476D01*
X1013850Y1134429D01*
X1013295Y1134291D01*
X1012886Y1134106D01*
X1012539Y1133831D01*
X1012402Y1133465D01*
G01X1016535Y1136524D02*
X1015642Y1136614D01*
X1014882Y1136752D01*
X1014193Y1136937D01*
X1013437Y1137165D01*
X1012402Y1137531D01*
Y1135697D01*
G01X1015917Y1138752D02*
X1016260Y1139028D01*
X1016469Y1139350D01*
X1016535Y1139764D01*
X1016398Y1140177D01*
X1016122Y1140500D01*
X1015642Y1140728D01*
X1015091Y1140776D01*
X1014539Y1140681D01*
X1014193Y1140453D01*
X1013917Y1140130D01*
X1013850Y1139811D01*
X1013917Y1139488D01*
X1014193Y1139075D01*
X1012402Y1139213D01*
Y1140453D01*
M02*
