G04 ================== begin FILE IDENTIFICATION RECORD ==================*
G04 Layout Name:  MCU075A.brd*
G04 Film Name:    MCU075A_paste_top*
G04 File Format:  Gerber RS274X*
G04 File Origin:  Cadence Allegro 17.2-S072*
G04 Origin Date:  Wed Aug 04 16:23:20 2021*
G04 *
G04 Layer:  DRAWING FORMAT/TITLE_BLOCK*
G04 Layer:  BOARD GEOMETRY/TOP PASTE*
G04 Layer:  PIN/FILMMASKTOP*
G04 Layer:  BOARD GEOMETRY/OUTLINE*
G04 *
G04 Offset:    (0.000 0.000)*
G04 Mirror:    No*
G04 Mode:      Positive*
G04 Rotation:  0*
G04 FullContactRelief:  No*
G04 UndefLineWidth:     0.099*
G04 ================== end FILE IDENTIFICATION RECORD ====================*
%FSLAX25Y25*MOIN*%
%IR0*IPPOS*OFA0.00000B0.00000*MIA0B0*SFA1.00000B1.00000*%
%AMMACRO74*
4,1,41,-.019685,0.0,
-.019685,-.010079,
-.019556,-.011574,
-.019169,-.013025,
-.018536,-.014386,
-.017677,-.015617,
-.016616,-.01668,
-.015387,-.017542,
-.014028,-.018178,
-.012578,-.018568,
-.011102,-.018701,
.011102,-.018701,
.012597,-.018565,
.014046,-.018171,
.015404,-.017532,
.016631,-.016667,
.017689,-.015602,
.018546,-.014369,
.019176,-.013006,
.019559,-.011555,
.019685,-.010079,
.019685,.010079,
.019556,.011574,
.019169,.013025,
.018536,.014386,
.017677,.015617,
.016616,.01668,
.015387,.017542,
.014028,.018178,
.012578,.018568,
.011102,.018701,
-.011102,.018701,
-.012597,.018565,
-.014046,.018171,
-.015404,.017532,
-.016631,.016667,
-.017689,.015602,
-.018546,.014369,
-.019176,.013006,
-.019559,.011555,
-.019685,.010079,
-.019685,0.0,
0.0*
%
%ADD74MACRO74*%
%AMMACRO48*
4,1,41,0.0,.019685,
-.010079,.019685,
-.011574,.019556,
-.013025,.019169,
-.014386,.018536,
-.015617,.017677,
-.01668,.016616,
-.017542,.015387,
-.018178,.014028,
-.018568,.012578,
-.018701,.011102,
-.018701,-.011102,
-.018565,-.012597,
-.018171,-.014046,
-.017532,-.015404,
-.016667,-.016631,
-.015602,-.017689,
-.014369,-.018546,
-.013006,-.019176,
-.011555,-.019559,
-.010079,-.019685,
.010079,-.019685,
.011574,-.019556,
.013025,-.019169,
.014386,-.018536,
.015617,-.017677,
.01668,-.016616,
.017542,-.015387,
.018178,-.014028,
.018568,-.012578,
.018701,-.011102,
.018701,.011102,
.018565,.012597,
.018171,.014046,
.017532,.015404,
.016667,.016631,
.015602,.017689,
.014369,.018546,
.013006,.019176,
.011555,.019559,
.010079,.019685,
0.0,.019685,
0.0*
%
%ADD48MACRO48*%
%AMMACRO68*
4,1,41,0.0,-.01378,
.006654,-.01378,
.007551,-.013699,
.00842,-.013465,
.009236,-.013082,
.009973,-.012564,
.010608,-.011926,
.011124,-.011187,
.011503,-.01037,
.011734,-.0095,
.011811,-.008622,
.011811,.008622,
.011731,.009519,
.011496,.010389,
.011114,.011204,
.010596,.011941,
.009958,.012577,
.009219,.013092,
.008402,.013471,
.007531,.013703,
.006654,.01378,
-.006654,.01378,
-.007551,.013699,
-.00842,.013465,
-.009236,.013082,
-.009973,.012564,
-.010608,.011926,
-.011124,.011187,
-.011503,.01037,
-.011734,.0095,
-.011811,.008622,
-.011811,-.008622,
-.011731,-.009519,
-.011496,-.010389,
-.011114,-.011204,
-.010596,-.011941,
-.009958,-.012577,
-.009219,-.013092,
-.008402,-.013471,
-.007531,-.013703,
-.006654,-.01378,
0.0,-.01378,
0.0*
%
%ADD68MACRO68*%
%AMMACRO83*
4,1,22,-.005906,.015748,
-.005906,-.012795,
-.005861,-.013308,
-.005727,-.013805,
-.00551,-.014272,
-.005215,-.014693,
-.004851,-.015057,
-.004429,-.015352,
-.003963,-.01557,
-.003465,-.015703,
-.002953,-.015748,
.002953,-.015748,
.003465,-.015703,
.003963,-.01557,
.004429,-.015352,
.004851,-.015057,
.005215,-.014693,
.00551,-.014272,
.005727,-.013805,
.005861,-.013308,
.005906,-.012795,
.005906,.015748,
-.005906,.015748,
0.0*
%
%ADD83MACRO83*%
%AMMACRO80*
4,1,22,-.015748,-.005906,
.012795,-.005906,
.013308,-.005861,
.013805,-.005727,
.014272,-.00551,
.014693,-.005215,
.015057,-.004851,
.015352,-.004429,
.01557,-.003963,
.015703,-.003465,
.015748,-.002953,
.015748,.002953,
.015703,.003465,
.01557,.003963,
.015352,.004429,
.015057,.004851,
.014693,.005215,
.014272,.00551,
.013805,.005727,
.013308,.005861,
.012795,.005906,
-.015748,.005906,
-.015748,-.005906,
0.0*
%
%ADD80MACRO80*%
%AMMACRO71*
4,1,45,0.0,-.014764,
.003465,-.014764,
.003892,-.014723,
.004305,-.014609,
.004692,-.014424,
.005042,-.014175,
.005342,-.01387,
.005586,-.013516,
.005764,-.013126,
.005872,-.012711,
.005906,-.012284,
.005906,-.012283,
.005906,.012283,
.005872,.012711,
.005764,.013126,
.005586,.013516,
.005343,.01387,
.005042,.014175,
.004692,.014424,
.004305,.014609,
.003892,.014723,
.003465,.014764,
.003465,.014764,
-.003465,.014764,
-.003892,.014723,
-.004305,.014609,
-.004692,.014424,
-.005042,.014175,
-.005342,.01387,
-.005586,.013516,
-.005764,.013126,
-.005872,.012711,
-.005906,.012284,
-.005906,.012283,
-.005906,-.012283,
-.005872,-.012711,
-.005764,-.013126,
-.005586,-.013516,
-.005343,-.01387,
-.005042,-.014175,
-.004692,-.014424,
-.004305,-.014609,
-.003892,-.014723,
-.003465,-.014764,
-.003465,-.014764,
0.0,-.014764,
0.0*
%
%ADD71MACRO71*%
%AMMACRO64*
4,1,45,.050197,0.0,
.050197,.023858,
.049858,.027747,
.04885,.031517,
.047202,.035055,
.044965,.038254,
.042206,.041015,
.03901,.043255,
.035473,.044906,
.031703,.045918,
.027815,.04626,
.027795,.04626,
-.027795,.04626,
-.031684,.045921,
-.035454,.044913,
-.038992,.043265,
-.042191,.041027,
-.044952,.038269,
-.047192,.035073,
-.048843,.031536,
-.049855,.027766,
-.050197,.023878,
-.050197,.023858,
-.050197,-.023858,
-.049858,-.027747,
-.04885,-.031517,
-.047202,-.035055,
-.044965,-.038254,
-.042206,-.041015,
-.03901,-.043255,
-.035473,-.044906,
-.031703,-.045918,
-.027815,-.04626,
-.027795,-.04626,
.027795,-.04626,
.031684,-.045921,
.035454,-.044913,
.038992,-.043265,
.042191,-.041027,
.044952,-.038269,
.047192,-.035073,
.048843,-.031536,
.049855,-.027766,
.050197,-.023878,
.050197,-.023858,
.050197,0.0,
0.0*
%
%ADD64MACRO64*%
%ADD78R,.066929X.011811*%
%AMMACRO41*
4,1,41,.018701,0.0,
.018701,.008858,
.018566,.010396,
.018167,.011888,
.017514,.013287,
.016628,.014552,
.015537,.015644,
.014272,.01653,
.012872,.017182,
.011381,.017582,
.009843,.017717,
-.009843,.017717,
-.011381,.017582,
-.012872,.017182,
-.014272,.01653,
-.015537,.015644,
-.016628,.014552,
-.017514,.013287,
-.018167,.011888,
-.018566,.010396,
-.018701,.008858,
-.018701,-.008858,
-.018566,-.010396,
-.018167,-.011888,
-.017514,-.013287,
-.016628,-.014552,
-.015537,-.015644,
-.014272,-.01653,
-.012872,-.017182,
-.011381,-.017582,
-.009843,-.017717,
.009843,-.017717,
.011381,-.017582,
.012872,-.017182,
.014272,-.01653,
.015537,-.015644,
.016628,-.014552,
.017514,-.013287,
.018167,-.011888,
.018566,-.010396,
.018701,-.008858,
.018701,0.0,
0.0*
%
%ADD41MACRO41*%
%AMMACRO20*
4,1,41,.023622,0.0,
.023622,.001969,
.023592,.00231,
.023503,.002642,
.023358,.002953,
.023162,.003234,
.022919,.003476,
.022638,.003673,
.022327,.003818,
.021995,.003907,
.021654,.003937,
-.021654,.003937,
-.021995,.003907,
-.022327,.003818,
-.022638,.003673,
-.022919,.003476,
-.023162,.003234,
-.023358,.002953,
-.023503,.002642,
-.023592,.00231,
-.023622,.001969,
-.023622,-.001969,
-.023592,-.00231,
-.023503,-.002642,
-.023358,-.002953,
-.023162,-.003234,
-.022919,-.003476,
-.022638,-.003673,
-.022327,-.003818,
-.021995,-.003907,
-.021654,-.003937,
.021654,-.003937,
.021995,-.003907,
.022327,-.003818,
.022638,-.003673,
.022919,-.003476,
.023162,-.003234,
.023358,-.002953,
.023503,-.002642,
.023592,-.00231,
.023622,-.001969,
.023622,0.0,
0.0*
%
%ADD20MACRO20*%
%AMMACRO25*
4,1,41,0.0,-.023622,
.001969,-.023622,
.00231,-.023592,
.002642,-.023503,
.002953,-.023358,
.003234,-.023162,
.003476,-.022919,
.003673,-.022638,
.003818,-.022327,
.003907,-.021995,
.003937,-.021654,
.003937,.021654,
.003907,.021995,
.003818,.022327,
.003673,.022638,
.003476,.022919,
.003234,.023162,
.002953,.023358,
.002642,.023503,
.00231,.023592,
.001969,.023622,
-.001969,.023622,
-.00231,.023592,
-.002642,.023503,
-.002953,.023358,
-.003234,.023162,
-.003476,.022919,
-.003673,.022638,
-.003818,.022327,
-.003907,.021995,
-.003937,.021654,
-.003937,-.021654,
-.003907,-.021995,
-.003818,-.022327,
-.003673,-.022638,
-.003476,-.022919,
-.003234,-.023162,
-.002953,-.023358,
-.002642,-.023503,
-.00231,-.023592,
-.001969,-.023622,
0.0,-.023622,
0.0*
%
%ADD25MACRO25*%
%AMMACRO103*
4,1,20,.047244,-.03248,
-.047244,-.03248,
-.047244,-.01378,
-.074803,-.01378,
-.074803,-.005906,
-.047244,-.005906,
-.047244,.005906,
-.074803,.005906,
-.074803,.01378,
-.047244,.01378,
-.047244,.03248,
.047244,.03248,
.047244,.01378,
.074803,.01378,
.074803,.005906,
.047244,.005906,
.047244,-.005906,
.074803,-.005906,
.074803,-.01378,
.047244,-.01378,
.047244,-.03248,
0.0*
%
%ADD103MACRO103*%
%ADD89O,.061024X.023622*%
%ADD88O,.021693X.080709*%
%AMMACRO39*
4,1,41,-.01378,0.0,
-.01378,-.002953,
-.013735,-.003465,
-.013601,-.003963,
-.013384,-.004429,
-.013089,-.004851,
-.012725,-.005215,
-.012303,-.00551,
-.011837,-.005727,
-.01134,-.005861,
-.010827,-.005906,
.010827,-.005906,
.01134,-.005861,
.011837,-.005727,
.012303,-.00551,
.012725,-.005215,
.013089,-.004851,
.013384,-.004429,
.013601,-.003963,
.013735,-.003465,
.01378,-.002953,
.01378,.002953,
.013735,.003465,
.013601,.003963,
.013384,.004429,
.013089,.004851,
.012725,.005215,
.012303,.00551,
.011837,.005727,
.01134,.005861,
.010827,.005906,
-.010827,.005906,
-.01134,.005861,
-.011837,.005727,
-.012303,.00551,
-.012725,.005215,
-.013089,.004851,
-.013384,.004429,
-.013601,.003963,
-.013735,.003465,
-.01378,.002953,
-.01378,0.0,
0.0*
%
%ADD39MACRO39*%
%AMMACRO67*
4,1,42,-.05315,0.0,
-.05315,-.011339,
-.052974,-.013304,
-.05246,-.015209,
-.051623,-.016995,
-.050489,-.01861,
-.049091,-.020002,
-.047473,-.021131,
-.045684,-.021962,
-.043777,-.022469,
-.041811,-.022638,
.041811,-.022638,
.043777,-.022469,
.045684,-.021962,
.047473,-.021131,
.049091,-.020002,
.050489,-.01861,
.051623,-.016995,
.05246,-.015209,
.052974,-.013304,
.05315,-.011339,
.05315,.011339,
.052974,.013304,
.05246,.015209,
.051623,.016995,
.050489,.01861,
.049091,.020002,
.047473,.021131,
.045684,.021962,
.043777,.022469,
.041811,.022638,
-.041811,.022638,
-.043777,.022469,
-.045684,.021962,
-.047473,.021131,
-.049091,.020002,
-.050489,.01861,
-.051623,.016995,
-.05246,.015209,
-.052974,.013304,
-.05315,.011339,
-.05315,.011339,
-.05315,0.0,
0.0*
%
%ADD67MACRO67*%
%ADD73C,.070866*%
%ADD38R,.035433X.066929*%
%AMMACRO29*
4,1,45,-.007874,0.0,
-.007874,-.003465,
-.007818,-.004062,
-.00766,-.004642,
-.007403,-.005184,
-.007055,-.005674,
-.006628,-.006096,
-.006135,-.006438,
-.005589,-.006689,
-.005008,-.006841,
-.004409,-.00689,
-.004409,-.00689,
.004409,-.00689,
.005008,-.006841,
.005589,-.006689,
.006135,-.006438,
.006628,-.006096,
.007055,-.005674,
.007403,-.005184,
.00766,-.004642,
.007818,-.004062,
.007874,-.003465,
.007874,-.003465,
.007874,.003465,
.007818,.004062,
.00766,.004642,
.007403,.005184,
.007055,.005674,
.006628,.006096,
.006135,.006438,
.005589,.006689,
.005008,.006841,
.004409,.00689,
.004409,.00689,
-.004409,.00689,
-.005008,.006841,
-.005589,.006689,
-.006135,.006438,
-.006628,.006096,
-.007055,.005674,
-.007403,.005184,
-.00766,.004642,
-.007818,.004062,
-.007874,.003465,
-.007874,.003465,
-.007874,0.0,
0.0*
%
%ADD29MACRO29*%
%AMMACRO28*
4,1,45,0.0,.007874,
-.003465,.007874,
-.004062,.007818,
-.004642,.00766,
-.005184,.007403,
-.005674,.007055,
-.006096,.006628,
-.006438,.006135,
-.006689,.005589,
-.006841,.005008,
-.00689,.004409,
-.00689,.004409,
-.00689,-.004409,
-.006841,-.005008,
-.006689,-.005589,
-.006438,-.006135,
-.006096,-.006628,
-.005674,-.007055,
-.005184,-.007403,
-.004642,-.00766,
-.004062,-.007818,
-.003465,-.007874,
-.003465,-.007874,
.003465,-.007874,
.004062,-.007818,
.004642,-.00766,
.005184,-.007403,
.005674,-.007055,
.006096,-.006628,
.006438,-.006135,
.006689,-.005589,
.006841,-.005008,
.00689,-.004409,
.00689,-.004409,
.00689,.004409,
.006841,.005008,
.006689,.005589,
.006438,.006135,
.006096,.006628,
.005674,.007055,
.005184,.007403,
.004642,.00766,
.004062,.007818,
.003465,.007874,
.003465,.007874,
0.0,.007874,
0.0*
%
%ADD28MACRO28*%
%ADD14C,.05*%
%AMMACRO53*
4,1,42,.019685,0.0,
.019685,.00937,
.01954,.010993,
.019114,.012567,
.018422,.014043,
.017485,.015376,
.01633,.016526,
.014993,.017458,
.013514,.018144,
.011939,.018562,
.010315,.018701,
.010315,.018701,
-.010315,.018701,
-.011939,.018562,
-.013514,.018144,
-.014993,.017458,
-.01633,.016526,
-.017485,.015376,
-.018422,.014043,
-.019114,.012567,
-.01954,.010993,
-.019685,.00937,
-.019685,-.00937,
-.01954,-.010993,
-.019114,-.012567,
-.018422,-.014043,
-.017485,-.015376,
-.01633,-.016526,
-.014993,-.017458,
-.013514,-.018144,
-.011939,-.018562,
-.010315,-.018701,
.010315,-.018701,
.011939,-.018562,
.013514,-.018144,
.014993,-.017458,
.01633,-.016526,
.017485,-.015376,
.018422,-.014043,
.019114,-.012567,
.01954,-.010993,
.019685,-.00937,
.019685,0.0,
0.0*
%
%ADD53MACRO53*%
%AMMACRO70*
4,1,41,0.0,-.019685,
.00937,-.019685,
.010993,-.01954,
.012567,-.019114,
.014043,-.018422,
.015376,-.017485,
.016526,-.01633,
.017458,-.014993,
.018144,-.013514,
.018562,-.011939,
.018701,-.010315,
.018701,.010315,
.018562,.011939,
.018144,.013514,
.017458,.014993,
.016526,.01633,
.015376,.017485,
.014043,.018422,
.012567,.019114,
.010993,.01954,
.00937,.019685,
-.00937,.019685,
-.010993,.01954,
-.012567,.019114,
-.014043,.018422,
-.015376,.017485,
-.016526,.01633,
-.017458,.014993,
-.018144,.013514,
-.018562,.011939,
-.018701,.010315,
-.018701,-.010315,
-.018562,-.011939,
-.018144,-.013514,
-.017458,-.014993,
-.016526,-.01633,
-.015376,-.017485,
-.014043,-.018422,
-.012567,-.019114,
-.010993,-.01954,
-.00937,-.019685,
0.0,-.019685,
0.0*
%
%ADD70MACRO70*%
%AMMACRO99*
4,1,45,0.0,.027559,
-.008346,.027559,
-.010312,.027391,
-.012219,.026883,
-.014009,.026052,
-.015627,.024924,
-.017024,.023531,
-.018159,.021917,
-.018996,.02013,
-.01951,.018225,
-.019685,.01626,
-.019685,.01622,
-.019685,-.01622,
-.019516,-.018186,
-.019009,-.020093,
-.018178,-.021883,
-.01705,-.023501,
-.015657,-.024898,
-.014043,-.026033,
-.012256,-.02687,
-.010351,-.027384,
-.008386,-.027559,
-.008346,-.027559,
.008346,-.027559,
.010312,-.027391,
.012219,-.026883,
.014009,-.026052,
.015627,-.024924,
.017024,-.023531,
.018159,-.021917,
.018996,-.02013,
.01951,-.018225,
.019685,-.01626,
.019685,-.01622,
.019685,.01622,
.019516,.018186,
.019009,.020093,
.018178,.021883,
.01705,.023501,
.015657,.024898,
.014043,.026033,
.012256,.02687,
.010351,.027384,
.008386,.027559,
.008346,.027559,
0.0,.027559,
0.0*
%
%ADD99MACRO99*%
%AMMACRO40*
4,1,45,-.027559,0.0,
-.027559,-.008346,
-.027391,-.010312,
-.026883,-.012219,
-.026052,-.014009,
-.024924,-.015627,
-.023531,-.017024,
-.021917,-.018159,
-.02013,-.018996,
-.018225,-.01951,
-.01626,-.019685,
-.01622,-.019685,
.01622,-.019685,
.018186,-.019516,
.020093,-.019009,
.021883,-.018178,
.023501,-.01705,
.024898,-.015657,
.026033,-.014043,
.02687,-.012256,
.027384,-.010351,
.027559,-.008386,
.027559,-.008346,
.027559,.008346,
.027391,.010312,
.026883,.012219,
.026052,.014009,
.024924,.015627,
.023531,.017024,
.021917,.018159,
.02013,.018996,
.018225,.01951,
.01626,.019685,
.01622,.019685,
-.01622,.019685,
-.018186,.019516,
-.020093,.019009,
-.021883,.018178,
-.023501,.01705,
-.024898,.015657,
-.026033,.014043,
-.02687,.012256,
-.027384,.010351,
-.027559,.008386,
-.027559,.008346,
-.027559,0.0,
0.0*
%
%ADD40MACRO40*%
%ADD30R,.127953X.127953*%
%AMMACRO90*
4,1,41,0.0,-.019685,
.002953,-.019685,
.003465,-.01964,
.003963,-.019507,
.004429,-.019289,
.004851,-.018994,
.005215,-.01863,
.00551,-.018209,
.005727,-.017742,
.005861,-.017245,
.005906,-.016732,
.005906,.016732,
.005861,.017245,
.005727,.017742,
.00551,.018209,
.005215,.01863,
.004851,.018994,
.004429,.019289,
.003963,.019507,
.003465,.01964,
.002953,.019685,
-.002953,.019685,
-.003465,.01964,
-.003963,.019507,
-.004429,.019289,
-.004851,.018994,
-.005215,.01863,
-.00551,.018209,
-.005727,.017742,
-.005861,.017245,
-.005906,.016732,
-.005906,-.016732,
-.005861,-.017245,
-.005727,-.017742,
-.00551,-.018209,
-.005215,-.01863,
-.004851,-.018994,
-.004429,-.019289,
-.003963,-.019507,
-.003465,-.01964,
-.002953,-.019685,
0.0,-.019685,
0.0*
%
%ADD90MACRO90*%
%ADD60R,.206693X.206693*%
%AMMACRO12*
4,1,41,-.018701,0.0,
-.018701,-.008858,
-.018566,-.010396,
-.018167,-.011888,
-.017514,-.013287,
-.016628,-.014552,
-.015537,-.015644,
-.014272,-.01653,
-.012872,-.017182,
-.011381,-.017582,
-.009843,-.017717,
.009843,-.017717,
.011381,-.017582,
.012872,-.017182,
.014272,-.01653,
.015537,-.015644,
.016628,-.014552,
.017514,-.013287,
.018167,-.011888,
.018566,-.010396,
.018701,-.008858,
.018701,.008858,
.018566,.010396,
.018167,.011888,
.017514,.013287,
.016628,.014552,
.015537,.015644,
.014272,.01653,
.012872,.017182,
.011381,.017582,
.009843,.017717,
-.009843,.017717,
-.011381,.017582,
-.012872,.017182,
-.014272,.01653,
-.015537,.015644,
-.016628,.014552,
-.017514,.013287,
-.018167,.011888,
-.018566,.010396,
-.018701,.008858,
-.018701,0.0,
0.0*
%
%ADD12MACRO12*%
%AMMACRO106*
4,1,41,-.015748,0.0,
-.015748,-.001969,
-.015718,-.00231,
-.015629,-.002642,
-.015484,-.002953,
-.015287,-.003234,
-.015045,-.003476,
-.014764,-.003673,
-.014453,-.003818,
-.014121,-.003907,
-.01378,-.003937,
.01378,-.003937,
.014121,-.003907,
.014453,-.003818,
.014764,-.003673,
.015045,-.003476,
.015287,-.003234,
.015484,-.002953,
.015629,-.002642,
.015718,-.00231,
.015748,-.001969,
.015748,.001969,
.015718,.00231,
.015629,.002642,
.015484,.002953,
.015287,.003234,
.015045,.003476,
.014764,.003673,
.014453,.003818,
.014121,.003907,
.01378,.003937,
-.01378,.003937,
-.014121,.003907,
-.014453,.003818,
-.014764,.003673,
-.015045,.003476,
-.015287,.003234,
-.015484,.002953,
-.015629,.002642,
-.015718,.00231,
-.015748,.001969,
-.015748,0.0,
0.0*
%
%ADD106MACRO106*%
%AMMACRO105*
4,1,41,0.0,.015748,
-.001969,.015748,
-.00231,.015718,
-.002642,.015629,
-.002953,.015484,
-.003234,.015287,
-.003476,.015045,
-.003673,.014764,
-.003818,.014453,
-.003907,.014121,
-.003937,.01378,
-.003937,-.01378,
-.003907,-.014121,
-.003818,-.014453,
-.003673,-.014764,
-.003476,-.015045,
-.003234,-.015287,
-.002953,-.015484,
-.002642,-.015629,
-.00231,-.015718,
-.001969,-.015748,
.001969,-.015748,
.00231,-.015718,
.002642,-.015629,
.002953,-.015484,
.003234,-.015287,
.003476,-.015045,
.003673,-.014764,
.003818,-.014453,
.003907,-.014121,
.003937,-.01378,
.003937,.01378,
.003907,.014121,
.003818,.014453,
.003673,.014764,
.003476,.015045,
.003234,.015287,
.002953,.015484,
.002642,.015629,
.00231,.015718,
.001969,.015748,
0.0,.015748,
0.0*
%
%ADD105MACRO105*%
%AMMACRO42*
4,1,45,0.0,.018701,
-.008346,.018701,
-.0098,.018577,
-.011209,.018203,
-.012532,.01759,
-.013729,.016756,
-.014762,.015727,
-.015602,.014535,
-.016221,.013215,
-.016602,.011807,
-.016732,.010354,
-.016732,.010315,
-.016732,-.010315,
-.016609,-.011768,
-.016234,-.013178,
-.015621,-.014501,
-.014788,-.015697,
-.013759,-.016731,
-.012566,-.01757,
-.011246,-.01819,
-.009838,-.01857,
-.008386,-.018701,
-.008346,-.018701,
.008346,-.018701,
.0098,-.018577,
.011209,-.018203,
.012532,-.01759,
.013729,-.016756,
.014762,-.015727,
.015602,-.014535,
.016221,-.013215,
.016602,-.011807,
.016732,-.010354,
.016732,-.010315,
.016732,.010315,
.016609,.011768,
.016234,.013178,
.015621,.014501,
.014788,.015697,
.013759,.016731,
.012566,.01757,
.011246,.01819,
.009838,.01857,
.008386,.018701,
.008346,.018701,
0.0,.018701,
0.0*
%
%ADD42MACRO42*%
%AMMACRO84*
4,1,41,-.028543,0.0,
-.028543,-.011339,
-.028368,-.013304,
-.027854,-.015209,
-.027017,-.016995,
-.025883,-.01861,
-.024485,-.020002,
-.022867,-.021131,
-.021077,-.021962,
-.019171,-.022469,
-.017244,-.022638,
.017244,-.022638,
.019209,-.022462,
.021114,-.021948,
.022901,-.021112,
.024515,-.019977,
.025908,-.018579,
.027037,-.016961,
.027867,-.015172,
.028375,-.013265,
.028543,-.011339,
.028543,.011339,
.028368,.013304,
.027854,.015209,
.027017,.016995,
.025883,.01861,
.024485,.020002,
.022867,.021131,
.021077,.021962,
.019171,.022469,
.017244,.022638,
-.017244,.022638,
-.019209,.022462,
-.021114,.021948,
-.022901,.021112,
-.024515,.019977,
-.025908,.018579,
-.027037,.016961,
-.027867,.015172,
-.028375,.013265,
-.028543,.011339,
-.028543,0.0,
0.0*
%
%ADD84MACRO84*%
%AMMACRO76*
4,1,41,0.0,.028543,
-.011339,.028543,
-.013304,.028368,
-.015209,.027854,
-.016995,.027017,
-.01861,.025883,
-.020002,.024485,
-.021131,.022867,
-.021962,.021077,
-.022469,.019171,
-.022638,.017244,
-.022638,-.017244,
-.022462,-.019209,
-.021948,-.021114,
-.021112,-.022901,
-.019977,-.024515,
-.018579,-.025908,
-.016961,-.027037,
-.015172,-.027867,
-.013265,-.028375,
-.011339,-.028543,
.011339,-.028543,
.013304,-.028368,
.015209,-.027854,
.016995,-.027017,
.01861,-.025883,
.020002,-.024485,
.021131,-.022867,
.021962,-.021077,
.022469,-.019171,
.022638,-.017244,
.022638,.017244,
.022462,.019209,
.021948,.021114,
.021112,.022901,
.019977,.024515,
.018579,.025908,
.016961,.027037,
.015172,.027867,
.013265,.028375,
.011339,.028543,
0.0,.028543,
0.0*
%
%ADD76MACRO76*%
%AMMACRO100*
4,1,41,.025591,0.0,
.025591,.008858,
.025456,.010396,
.025056,.011888,
.024404,.013287,
.023518,.014552,
.022426,.015644,
.021161,.01653,
.019762,.017182,
.018271,.017582,
.016732,.017717,
-.016732,.017717,
-.018271,.017582,
-.019762,.017182,
-.021161,.01653,
-.022426,.015644,
-.023518,.014552,
-.024404,.013287,
-.025056,.011888,
-.025456,.010396,
-.025591,.008858,
-.025591,-.008858,
-.025456,-.010396,
-.025056,-.011888,
-.024404,-.013287,
-.023518,-.014552,
-.022426,-.015644,
-.021161,-.01653,
-.019762,-.017182,
-.018271,-.017582,
-.016732,-.017717,
.016732,-.017717,
.018271,-.017582,
.019762,-.017182,
.021161,-.01653,
.022426,-.015644,
.023518,-.014552,
.024404,-.013287,
.025056,-.011888,
.025456,-.010396,
.025591,-.008858,
.025591,0.0,
0.0*
%
%ADD100MACRO100*%
%AMMACRO93*
4,1,41,.028543,0.0,
.028543,.002953,
.028498,.003465,
.028365,.003963,
.028148,.004429,
.027852,.004851,
.027489,.005215,
.027067,.00551,
.0266,.005727,
.026103,.005861,
.025591,.005906,
-.025591,.005906,
-.026103,.005861,
-.0266,.005727,
-.027067,.00551,
-.027489,.005215,
-.027852,.004851,
-.028148,.004429,
-.028365,.003963,
-.028498,.003465,
-.028543,.002953,
-.028543,-.002953,
-.028498,-.003465,
-.028365,-.003963,
-.028148,-.004429,
-.027852,-.004851,
-.027489,-.005215,
-.027067,-.00551,
-.0266,-.005727,
-.026103,-.005861,
-.025591,-.005906,
.025591,-.005906,
.026103,-.005861,
.0266,-.005727,
.027067,-.00551,
.027489,-.005215,
.027852,-.004851,
.028148,-.004429,
.028365,-.003963,
.028498,-.003465,
.028543,-.002953,
.028543,0.0,
0.0*
%
%ADD93MACRO93*%
%AMMACRO44*
4,1,41,0.0,.012795,
-.001969,.012795,
-.00231,.012765,
-.002642,.012677,
-.002953,.012532,
-.003234,.012335,
-.003476,.012092,
-.003673,.011811,
-.003818,.0115,
-.003907,.011169,
-.003937,.010827,
-.003937,-.010827,
-.003907,-.011169,
-.003818,-.0115,
-.003673,-.011811,
-.003476,-.012092,
-.003234,-.012335,
-.002953,-.012532,
-.002642,-.012677,
-.00231,-.012765,
-.001969,-.012795,
.001969,-.012795,
.00231,-.012765,
.002642,-.012677,
.002953,-.012532,
.003234,-.012335,
.003476,-.012092,
.003673,-.011811,
.003818,-.0115,
.003907,-.011169,
.003937,-.010827,
.003937,.010827,
.003907,.011169,
.003818,.0115,
.003673,.011811,
.003476,.012092,
.003234,.012335,
.002953,.012532,
.002642,.012677,
.00231,.012765,
.001969,.012795,
0.0,.012795,
0.0*
%
%ADD44MACRO44*%
%AMMACRO94*
4,1,41,0.0,-.028543,
.002953,-.028543,
.003465,-.028498,
.003963,-.028365,
.004429,-.028148,
.004851,-.027852,
.005215,-.027489,
.00551,-.027067,
.005727,-.0266,
.005861,-.026103,
.005906,-.025591,
.005906,.025591,
.005861,.026103,
.005727,.0266,
.00551,.027067,
.005215,.027489,
.004851,.027852,
.004429,.028148,
.003963,.028365,
.003465,.028498,
.002953,.028543,
-.002953,.028543,
-.003465,.028498,
-.003963,.028365,
-.004429,.028148,
-.004851,.027852,
-.005215,.027489,
-.00551,.027067,
-.005727,.0266,
-.005861,.026103,
-.005906,.025591,
-.005906,-.025591,
-.005861,-.026103,
-.005727,-.0266,
-.00551,-.027067,
-.005215,-.027489,
-.004851,-.027852,
-.004429,-.028148,
-.003963,-.028365,
-.003465,-.028498,
-.002953,-.028543,
0.0,-.028543,
0.0*
%
%ADD94MACRO94*%
%AMMACRO102*
4,1,41,0.0,.015748,
-.001969,.015748,
-.002481,.015703,
-.002978,.01557,
-.003445,.015352,
-.003866,.015057,
-.00423,.014693,
-.004526,.014272,
-.004743,.013805,
-.004876,.013308,
-.004921,.012795,
-.004921,-.012795,
-.004876,-.013308,
-.004743,-.013805,
-.004526,-.014272,
-.00423,-.014693,
-.003866,-.015057,
-.003445,-.015352,
-.002978,-.01557,
-.002481,-.015703,
-.001969,-.015748,
.001969,-.015748,
.002481,-.015703,
.002978,-.01557,
.003445,-.015352,
.003866,-.015057,
.00423,-.014693,
.004526,-.014272,
.004743,-.013805,
.004876,-.013308,
.004921,-.012795,
.004921,.012795,
.004876,.013308,
.004743,.013805,
.004526,.014272,
.00423,.014693,
.003866,.015057,
.003445,.015352,
.002978,.01557,
.002481,.015703,
.001969,.015748,
0.0,.015748,
0.0*
%
%ADD102MACRO102*%
%AMMACRO75*
4,1,43,.026575,0.0,
.026575,.004409,
.026466,.005692,
.026136,.006935,
.025596,.008103,
.02486,.009159,
.023953,.010071,
.022901,.010812,
.021736,.011359,
.020494,.011695,
.019213,.011811,
-.019213,.011811,
-.020494,.011695,
-.021736,.011359,
-.022901,.010812,
-.023953,.010071,
-.02486,.009159,
-.025596,.008103,
-.026136,.006935,
-.026466,.005692,
-.026575,.004409,
-.026575,.004409,
-.026575,-.004409,
-.026466,-.005692,
-.026136,-.006935,
-.025596,-.008103,
-.02486,-.009159,
-.023953,-.010071,
-.022901,-.010812,
-.021736,-.011359,
-.020494,-.011695,
-.019213,-.011811,
-.019213,-.011811,
.019213,-.011811,
.020494,-.011695,
.021736,-.011359,
.022901,-.010812,
.023953,-.010071,
.02486,-.009159,
.025596,-.008103,
.026136,-.006935,
.026466,-.005692,
.026575,-.004409,
.026575,0.0,
0.0*
%
%ADD75MACRO75*%
%AMMACRO33*
4,1,43,0.0,-.027559,
.004409,-.027559,
.005179,-.027495,
.005925,-.027299,
.006627,-.026976,
.007261,-.026535,
.007809,-.025992,
.008255,-.025362,
.008584,-.024663,
.008788,-.023918,
.008858,-.02315,
.008858,.02315,
.008788,.023918,
.008584,.024663,
.008255,.025362,
.007809,.025992,
.007261,.026535,
.006627,.026976,
.005925,.027299,
.005179,.027495,
.004409,.027559,
.004409,.027559,
-.004409,.027559,
-.005179,.027495,
-.005925,.027299,
-.006627,.026976,
-.007261,.026535,
-.007809,.025992,
-.008255,.025362,
-.008584,.024663,
-.008788,.023918,
-.008858,.02315,
-.008858,.02315,
-.008858,-.02315,
-.008788,-.023918,
-.008584,-.024663,
-.008255,-.025362,
-.007809,-.025992,
-.007261,-.026535,
-.006627,-.026976,
-.005925,-.027299,
-.005179,-.027495,
-.004409,-.027559,
0.0,-.027559,
0.0*
%
%ADD33MACRO33*%
%AMMACRO13*
4,1,45,-.027598,0.0,
-.027598,-.012283,
-.027423,-.014249,
-.026909,-.016154,
-.026072,-.01794,
-.024938,-.019555,
-.02354,-.020947,
-.021922,-.022076,
-.020133,-.022907,
-.018226,-.023414,
-.01626,-.023583,
-.01622,-.023583,
.01622,-.023583,
.018187,-.023421,
.020095,-.02292,
.021888,-.022096,
.02351,-.020973,
.024912,-.019585,
.026052,-.017974,
.026895,-.016191,
.027416,-.014288,
.027598,-.012323,
.027598,-.012283,
.027598,.012283,
.027423,.014249,
.026909,.016154,
.026072,.01794,
.024938,.019555,
.02354,.020947,
.021922,.022076,
.020133,.022907,
.018226,.023414,
.01626,.023583,
.01622,.023583,
-.01622,.023583,
-.018187,.023421,
-.020095,.02292,
-.021888,.022096,
-.02351,.020973,
-.024912,.019585,
-.026052,.017974,
-.026895,.016191,
-.027416,.014288,
-.027598,.012323,
-.027598,.012283,
-.027598,0.0,
0.0*
%
%ADD13MACRO13*%
%AMMACRO21*
4,1,40,-.010315,-.004331,
-.010231,-.005288,
-.009983,-.006216,
-.009577,-.007087,
-.009025,-.007874,
-.008346,-.008553,
-.007559,-.009104,
-.006688,-.00951,
-.00576,-.009759,
-.004803,-.009843,
.004803,-.009843,
.00576,-.009759,
.006688,-.00951,
.007559,-.009104,
.008346,-.008553,
.009025,-.007874,
.009577,-.007087,
.009983,-.006216,
.010231,-.005288,
.010315,-.004331,
.010315,.004331,
.010231,.005288,
.009983,.006216,
.009577,.007087,
.009025,.007874,
.008346,.008553,
.007559,.009104,
.006688,.00951,
.00576,.009759,
.004803,.009843,
-.004803,.009843,
-.00576,.009759,
-.006688,.00951,
-.007559,.009104,
-.008346,.008553,
-.009025,.007874,
-.009577,.007087,
-.009983,.006216,
-.010231,.005288,
-.010315,.004331,
-.010315,-.004331,
0.0*
%
%ADD21MACRO21*%
%AMMACRO16*
4,1,44,.004213,.010354,
.003486,.010981,
.002652,.011459,
.001749,.011786,
.000802,.01195,
-.000158,.011948,
-.001104,.011779,
-.002006,.011449,
-.002837,.010967,
-.003572,.010347,
-.003583,.010354,
-.010354,.003583,
-.010965,.00284,
-.011448,.002009,
-.011779,.001107,
-.011948,.000161,
-.011951,-.0008,
-.011786,-.001746,
-.01146,-.00265,
-.010982,-.003483,
-.010367,-.004221,
-.010354,-.004213,
-.004213,-.010354,
-.003486,-.010981,
-.002652,-.011459,
-.001749,-.011786,
-.000802,-.01195,
.000158,-.011948,
.001104,-.011779,
.002006,-.011449,
.002837,-.010967,
.003572,-.010347,
.003583,-.010354,
.010354,-.003583,
.010965,-.00284,
.011448,-.002009,
.011779,-.001107,
.011948,-.000161,
.011951,.0008,
.011786,.001746,
.01146,.00265,
.010982,.003483,
.010367,.004221,
.010354,.004213,
.004213,.010354,
0.0*
%
%ADD16MACRO16*%
%AMMACRO15*
4,1,44,-.004213,-.010354,
-.003486,-.010981,
-.002652,-.011459,
-.001749,-.011786,
-.000802,-.01195,
.000158,-.011948,
.001104,-.011779,
.002006,-.011449,
.002837,-.010967,
.003572,-.010347,
.003583,-.010354,
.010354,-.003583,
.010965,-.00284,
.011448,-.002009,
.011779,-.001107,
.011948,-.000161,
.011951,.0008,
.011786,.001746,
.01146,.00265,
.010982,.003483,
.010367,.004221,
.010354,.004213,
.004213,.010354,
.003486,.010981,
.002652,.011459,
.001749,.011786,
.000802,.01195,
-.000158,.011948,
-.001104,.011779,
-.002006,.011449,
-.002837,.010967,
-.003572,.010347,
-.003583,.010354,
-.010354,.003583,
-.010965,.00284,
-.011448,.002009,
-.011779,.001107,
-.011948,.000161,
-.011951,-.0008,
-.011786,-.001746,
-.01146,-.00265,
-.010982,-.003483,
-.010367,-.004221,
-.010354,-.004213,
-.004213,-.010354,
0.0*
%
%ADD15MACRO15*%
%AMMACRO11*
4,1,40,-.004331,.010315,
-.005288,.010231,
-.006216,.009983,
-.007087,.009577,
-.007874,.009025,
-.008553,.008346,
-.009104,.007559,
-.00951,.006688,
-.009759,.00576,
-.009843,.004803,
-.009843,-.004803,
-.009759,-.00576,
-.00951,-.006688,
-.009104,-.007559,
-.008553,-.008346,
-.007874,-.009025,
-.007087,-.009577,
-.006216,-.009983,
-.005288,-.010231,
-.004331,-.010315,
.004331,-.010315,
.005288,-.010231,
.006216,-.009983,
.007087,-.009577,
.007874,-.009025,
.008553,-.008346,
.009104,-.007559,
.00951,-.006688,
.009759,-.00576,
.009843,-.004803,
.009843,.004803,
.009759,.00576,
.00951,.006688,
.009104,.007559,
.008553,.008346,
.007874,.009025,
.007087,.009577,
.006216,.009983,
.005288,.010231,
.004331,.010315,
-.004331,.010315,
0.0*
%
%ADD11MACRO11*%
%AMMACRO63*
4,1,41,0.0,.012795,
-.005315,.012795,
-.00658,.012685,
-.007806,.012356,
-.008957,.011819,
-.009997,.011091,
-.010894,.010194,
-.011623,.009154,
-.012159,.008003,
-.012488,.006777,
-.012598,.005512,
-.012598,-.005512,
-.012488,-.006777,
-.012159,-.008003,
-.011623,-.009154,
-.010894,-.010194,
-.009997,-.011091,
-.008957,-.011819,
-.007806,-.012356,
-.00658,-.012685,
-.005315,-.012795,
.005315,-.012795,
.00658,-.012685,
.007806,-.012356,
.008957,-.011819,
.009997,-.011091,
.010894,-.010194,
.011623,-.009154,
.012159,-.008003,
.012488,-.006777,
.012598,-.005512,
.012598,.005512,
.012488,.006777,
.012159,.008003,
.011623,.009154,
.010894,.010194,
.009997,.011091,
.008957,.011819,
.007806,.012356,
.00658,.012685,
.005315,.012795,
0.0,.012795,
0.0*
%
%ADD63MACRO63*%
%AMMACRO23*
4,1,41,-.012795,0.0,
-.012795,-.005315,
-.012685,-.00658,
-.012356,-.007806,
-.011819,-.008957,
-.011091,-.009997,
-.010194,-.010894,
-.009154,-.011623,
-.008003,-.012159,
-.006777,-.012488,
-.005512,-.012598,
.005512,-.012598,
.006777,-.012488,
.008003,-.012159,
.009154,-.011623,
.010194,-.010894,
.011091,-.009997,
.011819,-.008957,
.012356,-.007806,
.012685,-.00658,
.012795,-.005315,
.012795,.005315,
.012685,.00658,
.012356,.007806,
.011819,.008957,
.011091,.009997,
.010194,.010894,
.009154,.011623,
.008003,.012159,
.006777,.012488,
.005512,.012598,
-.005512,.012598,
-.006777,.012488,
-.008003,.012159,
-.009154,.011623,
-.010194,.010894,
-.011091,.009997,
-.011819,.008957,
-.012356,.007806,
-.012685,.00658,
-.012795,.005315,
-.012795,0.0,
0.0*
%
%ADD23MACRO23*%
%AMMACRO87*
4,1,41,.019685,0.0,
.019685,.010079,
.019556,.011574,
.019169,.013025,
.018536,.014386,
.017677,.015617,
.016616,.01668,
.015387,.017542,
.014028,.018178,
.012578,.018568,
.011102,.018701,
-.011102,.018701,
-.012597,.018565,
-.014046,.018171,
-.015404,.017532,
-.016631,.016667,
-.017689,.015602,
-.018546,.014369,
-.019176,.013006,
-.019559,.011555,
-.019685,.010079,
-.019685,-.010079,
-.019556,-.011574,
-.019169,-.013025,
-.018536,-.014386,
-.017677,-.015617,
-.016616,-.01668,
-.015387,-.017542,
-.014028,-.018178,
-.012578,-.018568,
-.011102,-.018701,
.011102,-.018701,
.012597,-.018565,
.014046,-.018171,
.015404,-.017532,
.016631,-.016667,
.017689,-.015602,
.018546,-.014369,
.019176,-.013006,
.019559,-.011555,
.019685,-.010079,
.019685,0.0,
0.0*
%
%ADD87MACRO87*%
%AMMACRO54*
4,1,45,-.014764,0.0,
-.014764,-.003465,
-.014723,-.003892,
-.014609,-.004305,
-.014424,-.004692,
-.014175,-.005042,
-.01387,-.005342,
-.013516,-.005586,
-.013126,-.005764,
-.012711,-.005872,
-.012284,-.005906,
-.012283,-.005906,
.012283,-.005906,
.012711,-.005872,
.013126,-.005764,
.013516,-.005586,
.01387,-.005343,
.014175,-.005042,
.014424,-.004692,
.014609,-.004305,
.014723,-.003892,
.014764,-.003465,
.014764,-.003465,
.014764,.003465,
.014723,.003892,
.014609,.004305,
.014424,.004692,
.014175,.005042,
.01387,.005342,
.013516,.005586,
.013126,.005764,
.012711,.005872,
.012284,.005906,
.012283,.005906,
-.012283,.005906,
-.012711,.005872,
-.013126,.005764,
-.013516,.005586,
-.01387,.005343,
-.014175,.005042,
-.014424,.004692,
-.014609,.004305,
-.014723,.003892,
-.014764,.003465,
-.014764,.003465,
-.014764,0.0,
0.0*
%
%ADD54MACRO54*%
%AMMACRO69*
4,1,45,-.015748,0.0,
-.015748,-.004173,
-.015709,-.004643,
-.015588,-.0051,
-.01539,-.005528,
-.015121,-.005915,
-.014789,-.00625,
-.014403,-.006522,
-.013976,-.006723,
-.013521,-.006847,
-.013051,-.00689,
-.013031,-.00689,
.013031,-.00689,
.013502,-.00685,
.013958,-.00673,
.014386,-.006532,
.014774,-.006263,
.015108,-.00593,
.01538,-.005545,
.015581,-.005118,
.015705,-.004663,
.015748,-.004193,
.015748,-.004173,
.015748,.004173,
.015709,.004643,
.015588,.0051,
.01539,.005528,
.015121,.005915,
.014789,.00625,
.014403,.006522,
.013976,.006723,
.013521,.006847,
.013051,.00689,
.013031,.00689,
-.013031,.00689,
-.013502,.00685,
-.013958,.00673,
-.014386,.006532,
-.014774,.006263,
-.015108,.00593,
-.01538,.005545,
-.015581,.005118,
-.015705,.004663,
-.015748,.004193,
-.015748,.004173,
-.015748,0.0,
0.0*
%
%ADD69MACRO69*%
%AMMACRO81*
4,1,22,.015748,.005906,
-.012795,.005906,
-.013308,.005861,
-.013805,.005727,
-.014272,.00551,
-.014693,.005215,
-.015057,.004851,
-.015352,.004429,
-.01557,.003963,
-.015703,.003465,
-.015748,.002953,
-.015748,-.002953,
-.015703,-.003465,
-.01557,-.003963,
-.015352,-.004429,
-.015057,-.004851,
-.014693,-.005215,
-.014272,-.00551,
-.013805,-.005727,
-.013308,-.005861,
-.012795,-.005906,
.015748,-.005906,
.015748,.005906,
0.0*
%
%ADD81MACRO81*%
%AMMACRO49*
4,1,44,-.007402,.017717,
.007402,.017717,
.008686,.017605,
.009931,.017273,
.0111,.016729,
.012157,.015991,
.013069,.01508,
.013809,.014025,
.014355,.012857,
.01469,.011612,
.014803,.010328,
.014803,.010315,
.014803,-.010315,
.014692,-.011599,
.014359,-.012845,
.013816,-.014013,
.013077,-.01507,
.012167,-.015982,
.011111,-.016723,
.009944,-.017268,
.008699,-.017603,
.007415,-.017717,
.007402,-.017717,
-.007402,-.017717,
-.008686,-.017605,
-.009931,-.017273,
-.0111,-.016729,
-.012157,-.015991,
-.013069,-.01508,
-.013809,-.014025,
-.014355,-.012857,
-.01469,-.011612,
-.014803,-.010328,
-.014803,-.010315,
-.014803,.010315,
-.014692,.011599,
-.014359,.012845,
-.013816,.014013,
-.013077,.01507,
-.012167,.015982,
-.011111,.016723,
-.009944,.017268,
-.008699,.017603,
-.007415,.017717,
-.007402,.017717,
0.0*
%
%ADD49MACRO49*%
%AMMACRO82*
4,1,22,.005906,-.015748,
.005906,.012795,
.005861,.013308,
.005727,.013805,
.00551,.014272,
.005215,.014693,
.004851,.015057,
.004429,.015352,
.003963,.01557,
.003465,.015703,
.002953,.015748,
-.002953,.015748,
-.003465,.015703,
-.003963,.01557,
-.004429,.015352,
-.004851,.015057,
-.005215,.014693,
-.00551,.014272,
-.005727,.013805,
-.005861,.013308,
-.005906,.012795,
-.005906,-.015748,
.005906,-.015748,
0.0*
%
%ADD82MACRO82*%
%AMMACRO19*
4,1,41,-.018701,0.0,
-.018701,-.008858,
-.018566,-.010396,
-.018167,-.011888,
-.017514,-.013287,
-.016628,-.014552,
-.015537,-.015644,
-.014272,-.01653,
-.012872,-.017182,
-.011381,-.017582,
-.009843,-.017717,
.009843,-.017717,
.011381,-.017582,
.012872,-.017182,
.014272,-.01653,
.015537,-.015644,
.016628,-.014552,
.017514,-.013287,
.018167,-.011888,
.018566,-.010396,
.018701,-.008858,
.018701,.008858,
.018566,.010396,
.018167,.011888,
.017514,.013287,
.016628,.014552,
.015537,.015644,
.014272,.01653,
.012872,.017182,
.011381,.017582,
.009843,.017717,
-.009843,.017717,
-.011381,.017582,
-.012872,.017182,
-.014272,.01653,
-.015537,.015644,
-.016628,.014552,
-.017514,.013287,
-.018167,.011888,
-.018566,.010396,
-.018701,.008858,
-.018701,0.0,
0.0*
%
%ADD19MACRO19*%
%AMMACRO86*
4,1,41,.027559,0.0,
.027559,.011811,
.02738,.013862,
.026847,.015851,
.025977,.017717,
.024796,.019403,
.02334,.020859,
.021654,.02204,
.019788,.02291,
.017799,.023443,
.015748,.023622,
-.015748,.023622,
-.017799,.023443,
-.019788,.02291,
-.021654,.02204,
-.02334,.020859,
-.024796,.019403,
-.025977,.017717,
-.026847,.015851,
-.02738,.013862,
-.027559,.011811,
-.027559,-.011811,
-.02738,-.013862,
-.026847,-.015851,
-.025977,-.017717,
-.024796,-.019403,
-.02334,-.020859,
-.021654,-.02204,
-.019788,-.02291,
-.017799,-.023443,
-.015748,-.023622,
.015748,-.023622,
.017799,-.023443,
.019788,-.02291,
.021654,-.02204,
.02334,-.020859,
.024796,-.019403,
.025977,-.017717,
.026847,-.015851,
.02738,-.013862,
.027559,-.011811,
.027559,0.0,
0.0*
%
%ADD86MACRO86*%
%AMMACRO66*
4,1,41,.035433,0.0,
.035433,.009843,
.035284,.011552,
.034839,.013209,
.034114,.014764,
.03313,.016169,
.031917,.017382,
.030512,.018366,
.028957,.019091,
.0273,.019536,
.025591,.019685,
-.025591,.019685,
-.0273,.019536,
-.028957,.019091,
-.030512,.018366,
-.031917,.017382,
-.03313,.016169,
-.034114,.014764,
-.034839,.013209,
-.035284,.011552,
-.035433,.009843,
-.035433,-.009843,
-.035284,-.011552,
-.034839,-.013209,
-.034114,-.014764,
-.03313,-.016169,
-.031917,-.017382,
-.030512,-.018366,
-.028957,-.019091,
-.0273,-.019536,
-.025591,-.019685,
.025591,-.019685,
.0273,-.019536,
.028957,-.019091,
.030512,-.018366,
.031917,-.017382,
.03313,-.016169,
.034114,-.014764,
.034839,-.013209,
.035284,-.011552,
.035433,-.009843,
.035433,0.0,
0.0*
%
%ADD66MACRO66*%
%ADD72R,.098425X.064961*%
%ADD27O,.033504X.011811*%
%AMMACRO101*
4,1,20,-.047244,.03248,
.047244,.03248,
.047244,.01378,
.074803,.01378,
.074803,.005906,
.047244,.005906,
.047244,-.005906,
.074803,-.005906,
.074803,-.01378,
.047244,-.01378,
.047244,-.03248,
-.047244,-.03248,
-.047244,-.01378,
-.074803,-.01378,
-.074803,-.005906,
-.047244,-.005906,
-.047244,.005906,
-.074803,.005906,
-.074803,.01378,
-.047244,.01378,
-.047244,.03248,
0.0*
%
%ADD101MACRO101*%
%ADD55R,.064961X.098425*%
%ADD26O,.011811X.033504*%
%ADD95O,.009843X.025591*%
%AMMACRO62*
4,1,41,0.0,.019685,
-.00937,.019685,
-.010993,.01954,
-.012567,.019114,
-.014043,.018422,
-.015376,.017485,
-.016526,.01633,
-.017458,.014993,
-.018144,.013514,
-.018562,.011939,
-.018701,.010315,
-.018701,-.010315,
-.018562,-.011939,
-.018144,-.013514,
-.017458,-.014993,
-.016526,-.01633,
-.015376,-.017485,
-.014043,-.018422,
-.012567,-.019114,
-.010993,-.01954,
-.00937,-.019685,
.00937,-.019685,
.010993,-.01954,
.012567,-.019114,
.014043,-.018422,
.015376,-.017485,
.016526,-.01633,
.017458,-.014993,
.018144,-.013514,
.018562,-.011939,
.018701,-.010315,
.018701,.010315,
.018562,.011939,
.018144,.013514,
.017458,.014993,
.016526,.01633,
.015376,.017485,
.014043,.018422,
.012567,.019114,
.010993,.01954,
.00937,.019685,
0.0,.019685,
0.0*
%
%ADD62MACRO62*%
%AMMACRO56*
4,1,42,-.019685,0.0,
-.019685,-.00937,
-.01954,-.010993,
-.019114,-.012567,
-.018422,-.014043,
-.017485,-.015376,
-.01633,-.016526,
-.014993,-.017458,
-.013514,-.018144,
-.011939,-.018562,
-.010315,-.018701,
.010315,-.018701,
.011939,-.018562,
.013514,-.018144,
.014993,-.017458,
.01633,-.016526,
.017485,-.015376,
.018422,-.014043,
.019114,-.012567,
.01954,-.010993,
.019685,-.00937,
.019685,.00937,
.01954,.010993,
.019114,.012567,
.018422,.014043,
.017485,.015376,
.01633,.016526,
.014993,.017458,
.013514,.018144,
.011939,.018562,
.010315,.018701,
.010315,.018701,
-.010315,.018701,
-.011939,.018562,
-.013514,.018144,
-.014993,.017458,
-.01633,.016526,
-.017485,.015376,
-.018422,.014043,
-.019114,.012567,
-.01954,.010993,
-.019685,.00937,
-.019685,0.0,
0.0*
%
%ADD56MACRO56*%
%AMMACRO107*
4,1,43,.035433,0.0,
.035433,.011339,
.035258,.013304,
.034744,.015209,
.033907,.016995,
.032772,.01861,
.031375,.020002,
.029757,.021131,
.027967,.021962,
.02606,.022469,
.024094,.022638,
.024094,.022638,
-.024094,.022638,
-.02606,.022469,
-.027967,.021962,
-.029757,.021131,
-.031375,.020002,
-.032772,.01861,
-.033907,.016995,
-.034744,.015209,
-.035258,.013304,
-.035433,.011339,
-.035433,.011339,
-.035433,-.011339,
-.035258,-.013304,
-.034744,-.015209,
-.033907,-.016995,
-.032772,-.01861,
-.031375,-.020002,
-.029757,-.021131,
-.027967,-.021962,
-.02606,-.022469,
-.024094,-.022638,
.024094,-.022638,
.02606,-.022469,
.027967,-.021962,
.029757,-.021131,
.031375,-.020002,
.032772,-.01861,
.033907,-.016995,
.034744,-.015209,
.035258,-.013304,
.035433,-.011339,
.035433,0.0,
0.0*
%
%ADD107MACRO107*%
%AMMACRO57*
4,1,45,.007874,0.0,
.007874,.003465,
.007818,.004062,
.00766,.004642,
.007403,.005184,
.007055,.005674,
.006628,.006096,
.006135,.006438,
.005589,.006689,
.005008,.006841,
.004409,.00689,
.004409,.00689,
-.004409,.00689,
-.005008,.006841,
-.005589,.006689,
-.006135,.006438,
-.006628,.006096,
-.007055,.005674,
-.007403,.005184,
-.00766,.004642,
-.007818,.004062,
-.007874,.003465,
-.007874,.003465,
-.007874,-.003465,
-.007818,-.004062,
-.00766,-.004642,
-.007403,-.005184,
-.007055,-.005674,
-.006628,-.006096,
-.006135,-.006438,
-.005589,-.006689,
-.005008,-.006841,
-.004409,-.00689,
-.004409,-.00689,
.004409,-.00689,
.005008,-.006841,
.005589,-.006689,
.006135,-.006438,
.006628,-.006096,
.007055,-.005674,
.007403,-.005184,
.00766,-.004642,
.007818,-.004062,
.007874,-.003465,
.007874,-.003465,
.007874,0.0,
0.0*
%
%ADD57MACRO57*%
%AMMACRO24*
4,1,45,0.0,-.007874,
.003465,-.007874,
.004062,-.007818,
.004642,-.00766,
.005184,-.007403,
.005674,-.007055,
.006096,-.006628,
.006438,-.006135,
.006689,-.005589,
.006841,-.005008,
.00689,-.004409,
.00689,-.004409,
.00689,.004409,
.006841,.005008,
.006689,.005589,
.006438,.006135,
.006096,.006628,
.005674,.007055,
.005184,.007403,
.004642,.00766,
.004062,.007818,
.003465,.007874,
.003465,.007874,
-.003465,.007874,
-.004062,.007818,
-.004642,.00766,
-.005184,.007403,
-.005674,.007055,
-.006096,.006628,
-.006438,.006135,
-.006689,.005589,
-.006841,.005008,
-.00689,.004409,
-.00689,.004409,
-.00689,-.004409,
-.006841,-.005008,
-.006689,-.005589,
-.006438,-.006135,
-.006096,-.006628,
-.005674,-.007055,
-.005184,-.007403,
-.004642,-.00766,
-.004062,-.007818,
-.003465,-.007874,
-.003465,-.007874,
0.0,-.007874,
0.0*
%
%ADD24MACRO24*%
%AMMACRO92*
4,1,41,0.0,.019685,
-.002953,.019685,
-.003465,.01964,
-.003963,.019507,
-.004429,.019289,
-.004851,.018994,
-.005215,.01863,
-.00551,.018209,
-.005727,.017742,
-.005861,.017245,
-.005906,.016732,
-.005906,-.016732,
-.005861,-.017245,
-.005727,-.017742,
-.00551,-.018209,
-.005215,-.01863,
-.004851,-.018994,
-.004429,-.019289,
-.003963,-.019507,
-.003465,-.01964,
-.002953,-.019685,
.002953,-.019685,
.003465,-.01964,
.003963,-.019507,
.004429,-.019289,
.004851,-.018994,
.005215,-.01863,
.00551,-.018209,
.005727,-.017742,
.005861,-.017245,
.005906,-.016732,
.005906,.016732,
.005861,.017245,
.005727,.017742,
.00551,.018209,
.005215,.01863,
.004851,.018994,
.004429,.019289,
.003963,.019507,
.003465,.01964,
.002953,.019685,
0.0,.019685,
0.0*
%
%ADD92MACRO92*%
%AMMACRO91*
4,1,41,-.019685,0.0,
-.019685,-.002953,
-.01964,-.003465,
-.019507,-.003963,
-.019289,-.004429,
-.018994,-.004851,
-.01863,-.005215,
-.018209,-.00551,
-.017742,-.005727,
-.017245,-.005861,
-.016732,-.005906,
.016732,-.005906,
.017245,-.005861,
.017742,-.005727,
.018209,-.00551,
.01863,-.005215,
.018994,-.004851,
.019289,-.004429,
.019507,-.003963,
.01964,-.003465,
.019685,-.002953,
.019685,.002953,
.01964,.003465,
.019507,.003963,
.019289,.004429,
.018994,.004851,
.01863,.005215,
.018209,.00551,
.017742,.005727,
.017245,.005861,
.016732,.005906,
-.016732,.005906,
-.017245,.005861,
-.017742,.005727,
-.018209,.00551,
-.01863,.005215,
-.018994,.004851,
-.019289,.004429,
-.019507,.003963,
-.01964,.003465,
-.019685,.002953,
-.019685,0.0,
0.0*
%
%ADD91MACRO91*%
%ADD46O,.029528X.033465*%
%AMMACRO96*
4,1,41,0.0,.023622,
-.002953,.023622,
-.003807,.023547,
-.004636,.023325,
-.005413,.022963,
-.006116,.022471,
-.006723,.021864,
-.007215,.021161,
-.007577,.020384,
-.007799,.019555,
-.007874,.018701,
-.007874,-.018701,
-.007799,-.019555,
-.007577,-.020384,
-.007215,-.021161,
-.006723,-.021864,
-.006116,-.022471,
-.005413,-.022963,
-.004636,-.023325,
-.003807,-.023547,
-.002953,-.023622,
.002953,-.023622,
.003807,-.023547,
.004636,-.023325,
.005413,-.022963,
.006116,-.022471,
.006723,-.021864,
.007215,-.021161,
.007577,-.020384,
.007799,-.019555,
.007874,-.018701,
.007874,.018701,
.007799,.019555,
.007577,.020384,
.007215,.021161,
.006723,.021864,
.006116,.022471,
.005413,.022963,
.004636,.023325,
.003807,.023547,
.002953,.023622,
0.0,.023622,
0.0*
%
%ADD96MACRO96*%
%AMMACRO17*
4,1,45,0.0,-.027559,
.008346,-.027559,
.010312,-.027391,
.012219,-.026883,
.014009,-.026052,
.015627,-.024924,
.017024,-.023531,
.018159,-.021917,
.018996,-.02013,
.01951,-.018225,
.019685,-.01626,
.019685,-.01622,
.019685,.01622,
.019516,.018186,
.019009,.020093,
.018178,.021883,
.01705,.023501,
.015657,.024898,
.014043,.026033,
.012256,.02687,
.010351,.027384,
.008386,.027559,
.008346,.027559,
-.008346,.027559,
-.010312,.027391,
-.012219,.026883,
-.014009,.026052,
-.015627,.024924,
-.017024,.023531,
-.018159,.021917,
-.018996,.02013,
-.01951,.018225,
-.019685,.01626,
-.019685,.01622,
-.019685,-.01622,
-.019516,-.018186,
-.019009,-.020093,
-.018178,-.021883,
-.01705,-.023501,
-.015657,-.024898,
-.014043,-.026033,
-.012256,-.02687,
-.010351,-.027384,
-.008386,-.027559,
-.008346,-.027559,
0.0,-.027559,
0.0*
%
%ADD17MACRO17*%
%AMMACRO36*
4,1,41,.018701,0.0,
.018701,.008858,
.018566,.010396,
.018167,.011888,
.017514,.013287,
.016628,.014552,
.015537,.015644,
.014272,.01653,
.012872,.017182,
.011381,.017582,
.009843,.017717,
-.009843,.017717,
-.011381,.017582,
-.012872,.017182,
-.014272,.01653,
-.015537,.015644,
-.016628,.014552,
-.017514,.013287,
-.018167,.011888,
-.018566,.010396,
-.018701,.008858,
-.018701,-.008858,
-.018566,-.010396,
-.018167,-.011888,
-.017514,-.013287,
-.016628,-.014552,
-.015537,-.015644,
-.014272,-.01653,
-.012872,-.017182,
-.011381,-.017582,
-.009843,-.017717,
.009843,-.017717,
.011381,-.017582,
.012872,-.017182,
.014272,-.01653,
.015537,-.015644,
.016628,-.014552,
.017514,-.013287,
.018167,-.011888,
.018566,-.010396,
.018701,-.008858,
.018701,0.0,
0.0*
%
%ADD36MACRO36*%
%AMMACRO47*
4,1,41,0.0,.025591,
-.008858,.025591,
-.010396,.025456,
-.011888,.025056,
-.013287,.024404,
-.014552,.023518,
-.015644,.022426,
-.01653,.021161,
-.017182,.019762,
-.017582,.018271,
-.017717,.016732,
-.017717,-.016732,
-.017582,-.018271,
-.017182,-.019762,
-.01653,-.021161,
-.015644,-.022426,
-.014552,-.023518,
-.013287,-.024404,
-.011888,-.025056,
-.010396,-.025456,
-.008858,-.025591,
.008858,-.025591,
.010396,-.025456,
.011888,-.025056,
.013287,-.024404,
.014552,-.023518,
.015644,-.022426,
.01653,-.021161,
.017182,-.019762,
.017582,-.018271,
.017717,-.016732,
.017717,.016732,
.017582,.018271,
.017182,.019762,
.01653,.021161,
.015644,.022426,
.014552,.023518,
.013287,.024404,
.011888,.025056,
.010396,.025456,
.008858,.025591,
0.0,.025591,
0.0*
%
%ADD47MACRO47*%
%AMMACRO18*
4,1,41,-.025591,0.0,
-.025591,-.008858,
-.025456,-.010396,
-.025056,-.011888,
-.024404,-.013287,
-.023518,-.014552,
-.022426,-.015644,
-.021161,-.01653,
-.019762,-.017182,
-.018271,-.017582,
-.016732,-.017717,
.016732,-.017717,
.018271,-.017582,
.019762,-.017182,
.021161,-.01653,
.022426,-.015644,
.023518,-.014552,
.024404,-.013287,
.025056,-.011888,
.025456,-.010396,
.025591,-.008858,
.025591,.008858,
.025456,.010396,
.025056,.011888,
.024404,.013287,
.023518,.014552,
.022426,.015644,
.021161,.01653,
.019762,.017182,
.018271,.017582,
.016732,.017717,
-.016732,.017717,
-.018271,.017582,
-.019762,.017182,
-.021161,.01653,
-.022426,.015644,
-.023518,.014552,
-.024404,.013287,
-.025056,.011888,
-.025456,.010396,
-.025591,.008858,
-.025591,0.0,
0.0*
%
%ADD18MACRO18*%
%AMMACRO31*
4,1,42,0.0,-.041339,
.014252,-.041339,
.016731,-.041125,
.019134,-.040485,
.02139,-.039436,
.02343,-.038012,
.025192,-.036256,
.026621,-.03422,
.027676,-.031967,
.028323,-.029565,
.028543,-.027087,
.028543,.027087,
.028323,.029565,
.027676,.031967,
.026621,.03422,
.025192,.036256,
.02343,.038012,
.02139,.039436,
.019134,.040485,
.016731,.041125,
.014252,.041339,
.014252,.041339,
-.014252,.041339,
-.016731,.041125,
-.019134,.040485,
-.02139,.039436,
-.02343,.038012,
-.025192,.036256,
-.026621,.03422,
-.027676,.031967,
-.028323,.029565,
-.028543,.027087,
-.028543,-.027087,
-.028323,-.029565,
-.027676,-.031967,
-.026621,-.03422,
-.025192,-.036256,
-.02343,-.038012,
-.02139,-.039436,
-.019134,-.040485,
-.016731,-.041125,
-.014252,-.041339,
0.0,-.041339,
0.0*
%
%ADD31MACRO31*%
%AMMACRO98*
4,1,41,0.0,.029528,
-.002953,.029528,
-.003978,.029438,
-.004973,.029171,
-.005906,.028736,
-.006749,.028146,
-.007477,.027418,
-.008067,.026575,
-.008502,.025642,
-.008769,.024648,
-.008858,.023622,
-.008858,-.023622,
-.008769,-.024648,
-.008502,-.025642,
-.008067,-.026575,
-.007477,-.027418,
-.006749,-.028146,
-.005906,-.028736,
-.004973,-.029171,
-.003978,-.029438,
-.002953,-.029528,
.002953,-.029528,
.003978,-.029438,
.004973,-.029171,
.005906,-.028736,
.006749,-.028146,
.007477,-.027418,
.008067,-.026575,
.008502,-.025642,
.008769,-.024648,
.008858,-.023622,
.008858,.023622,
.008769,.024648,
.008502,.025642,
.008067,.026575,
.007477,.027418,
.006749,.028146,
.005906,.028736,
.004973,.029171,
.003978,.029438,
.002953,.029528,
0.0,.029528,
0.0*
%
%ADD98MACRO98*%
%AMMACRO77*
4,1,43,-.026575,0.0,
-.026575,-.004409,
-.026466,-.005692,
-.026136,-.006935,
-.025596,-.008103,
-.02486,-.009159,
-.023953,-.010071,
-.022901,-.010812,
-.021736,-.011359,
-.020494,-.011695,
-.019213,-.011811,
-.019213,-.011811,
.019213,-.011811,
.020494,-.011695,
.021736,-.011359,
.022901,-.010812,
.023953,-.010071,
.02486,-.009159,
.025596,-.008103,
.026136,-.006935,
.026466,-.005692,
.026575,-.004409,
.026575,.004409,
.026466,.005692,
.026136,.006935,
.025596,.008103,
.02486,.009159,
.023953,.010071,
.022901,.010812,
.021736,.011359,
.020494,.011695,
.019213,.011811,
-.019213,.011811,
-.020494,.011695,
-.021736,.011359,
-.022901,.010812,
-.023953,.010071,
-.02486,.009159,
-.025596,.008103,
-.026136,.006935,
-.026466,.005692,
-.026575,.004409,
-.026575,.004409,
-.026575,0.0,
0.0*
%
%ADD77MACRO77*%
%AMMACRO51*
4,1,44,0.0,.026575,
-.004409,.026575,
-.005692,.026466,
-.006935,.026136,
-.008103,.025596,
-.009159,.02486,
-.010071,.023953,
-.010812,.022901,
-.011359,.021736,
-.011695,.020494,
-.011811,.019213,
-.011811,.019213,
-.011811,-.019213,
-.011695,-.020494,
-.011359,-.021736,
-.010812,-.022901,
-.010071,-.023953,
-.009159,-.02486,
-.008103,-.025596,
-.006935,-.026136,
-.005692,-.026466,
-.004409,-.026575,
.004409,-.026575,
.005692,-.026466,
.006935,-.026136,
.008103,-.025596,
.009159,-.02486,
.010071,-.023953,
.010812,-.022901,
.011359,-.021736,
.011695,-.020494,
.011811,-.019213,
.011811,-.019213,
.011811,.019213,
.011695,.020494,
.011359,.021736,
.010812,.022901,
.010071,.023953,
.009159,.02486,
.008103,.025596,
.006935,.026136,
.005692,.026466,
.004409,.026575,
.004409,.026575,
0.0,.026575,
0.0*
%
%ADD51MACRO51*%
%AMMACRO43*
4,1,41,.017717,0.0,
.017717,.001969,
.017687,.00231,
.017598,.002642,
.017453,.002953,
.017256,.003234,
.017013,.003476,
.016732,.003673,
.016421,.003818,
.01609,.003907,
.015748,.003937,
-.015748,.003937,
-.01609,.003907,
-.016421,.003818,
-.016732,.003673,
-.017013,.003476,
-.017256,.003234,
-.017453,.002953,
-.017598,.002642,
-.017687,.00231,
-.017717,.001969,
-.017717,-.001969,
-.017687,-.00231,
-.017598,-.002642,
-.017453,-.002953,
-.017256,-.003234,
-.017013,-.003476,
-.016732,-.003673,
-.016421,-.003818,
-.01609,-.003907,
-.015748,-.003937,
.015748,-.003937,
.01609,-.003907,
.016421,-.003818,
.016732,-.003673,
.017013,-.003476,
.017256,-.003234,
.017453,-.002953,
.017598,-.002642,
.017687,-.00231,
.017717,-.001969,
.017717,0.0,
0.0*
%
%ADD43MACRO43*%
%AMMACRO35*
4,1,41,0.0,-.037402,
.01378,-.037402,
.016172,-.037192,
.018492,-.036571,
.020669,-.035555,
.022637,-.034178,
.024335,-.032479,
.025713,-.030512,
.026728,-.028335,
.02735,-.026015,
.027559,-.023622,
.027559,.023622,
.02735,.026015,
.026728,.028335,
.025713,.030512,
.024335,.032479,
.022637,.034178,
.020669,.035555,
.018492,.036571,
.016172,.037192,
.01378,.037402,
-.01378,.037402,
-.016172,.037192,
-.018492,.036571,
-.020669,.035555,
-.022637,.034178,
-.024335,.032479,
-.025713,.030512,
-.026728,.028335,
-.02735,.026015,
-.027559,.023622,
-.027559,-.023622,
-.02735,-.026015,
-.026728,-.028335,
-.025713,-.030512,
-.024335,-.032479,
-.022637,-.034178,
-.020669,-.035555,
-.018492,-.036571,
-.016172,-.037192,
-.01378,-.037402,
0.0,-.037402,
0.0*
%
%ADD35MACRO35*%
%AMMACRO61*
4,1,41,.028543,0.0,
.028543,.011339,
.028368,.013304,
.027854,.015209,
.027017,.016995,
.025883,.01861,
.024485,.020002,
.022867,.021131,
.021077,.021962,
.019171,.022469,
.017244,.022638,
-.017244,.022638,
-.019209,.022462,
-.021114,.021948,
-.022901,.021112,
-.024515,.019977,
-.025908,.018579,
-.027037,.016961,
-.027867,.015172,
-.028375,.013265,
-.028543,.011339,
-.028543,-.011339,
-.028368,-.013304,
-.027854,-.015209,
-.027017,-.016995,
-.025883,-.01861,
-.024485,-.020002,
-.022867,-.021131,
-.021077,-.021962,
-.019171,-.022469,
-.017244,-.022638,
.017244,-.022638,
.019209,-.022462,
.021114,-.021948,
.022901,-.021112,
.024515,-.019977,
.025908,-.018579,
.027037,-.016961,
.027867,-.015172,
.028375,-.013265,
.028543,-.011339,
.028543,0.0,
0.0*
%
%ADD61MACRO61*%
%AMMACRO58*
4,1,41,.017717,0.0,
.017717,.002953,
.017672,.003465,
.017538,.003963,
.017321,.004429,
.017026,.004851,
.016662,.005215,
.01624,.00551,
.015774,.005727,
.015277,.005861,
.014764,.005906,
-.014764,.005906,
-.015277,.005861,
-.015774,.005727,
-.01624,.00551,
-.016662,.005215,
-.017026,.004851,
-.017321,.004429,
-.017538,.003963,
-.017672,.003465,
-.017717,.002953,
-.017717,-.002953,
-.017672,-.003465,
-.017538,-.003963,
-.017321,-.004429,
-.017026,-.004851,
-.016662,-.005215,
-.01624,-.00551,
-.015774,-.005727,
-.015277,-.005861,
-.014764,-.005906,
.014764,-.005906,
.015277,-.005861,
.015774,-.005727,
.01624,-.00551,
.016662,-.005215,
.017026,-.004851,
.017321,-.004429,
.017538,-.003963,
.017672,-.003465,
.017717,-.002953,
.017717,0.0,
0.0*
%
%ADD58MACRO58*%
%AMMACRO85*
4,1,41,0.0,-.028543,
.011339,-.028543,
.013304,-.028368,
.015209,-.027854,
.016995,-.027017,
.01861,-.025883,
.020002,-.024485,
.021131,-.022867,
.021962,-.021077,
.022469,-.019171,
.022638,-.017244,
.022638,.017244,
.022462,.019209,
.021948,.021114,
.021112,.022901,
.019977,.024515,
.018579,.025908,
.016961,.027037,
.015172,.027867,
.013265,.028375,
.011339,.028543,
-.011339,.028543,
-.013304,.028368,
-.015209,.027854,
-.016995,.027017,
-.01861,.025883,
-.020002,.024485,
-.021131,.022867,
-.021962,.021077,
-.022469,.019171,
-.022638,.017244,
-.022638,-.017244,
-.022462,-.019209,
-.021948,-.021114,
-.021112,-.022901,
-.019977,-.024515,
-.018579,-.025908,
-.016961,-.027037,
-.015172,-.027867,
-.013265,-.028375,
-.011339,-.028543,
0.0,-.028543,
0.0*
%
%ADD85MACRO85*%
%AMMACRO79*
4,1,41,0.0,-.008858,
.001969,-.008858,
.002652,-.008798,
.003315,-.008621,
.003937,-.008331,
.004499,-.007937,
.004984,-.007452,
.005378,-.00689,
.005668,-.006268,
.005846,-.005605,
.005906,-.004921,
.005906,.004921,
.005846,.005605,
.005668,.006268,
.005378,.00689,
.004984,.007452,
.004499,.007937,
.003937,.008331,
.003315,.008621,
.002652,.008798,
.001969,.008858,
-.001969,.008858,
-.002652,.008798,
-.003315,.008621,
-.003937,.008331,
-.004499,.007937,
-.004984,.007452,
-.005378,.00689,
-.005668,.006268,
-.005846,.005605,
-.005906,.004921,
-.005906,-.004921,
-.005846,-.005605,
-.005668,-.006268,
-.005378,-.00689,
-.004984,-.007452,
-.004499,-.007937,
-.003937,-.008331,
-.003315,-.008621,
-.002652,-.008798,
-.001969,-.008858,
0.0,-.008858,
0.0*
%
%ADD79MACRO79*%
%AMMACRO65*
4,1,41,0.0,-.03937,
.020433,-.03937,
.023723,-.039081,
.026913,-.038224,
.029905,-.036827,
.03261,-.034931,
.034944,-.032594,
.036837,-.029888,
.038231,-.026894,
.039084,-.023704,
.03937,-.020433,
.03937,.020433,
.039081,.023723,
.038224,.026913,
.036827,.029905,
.034931,.03261,
.032594,.034944,
.029888,.036837,
.026894,.038231,
.023704,.039084,
.020433,.03937,
-.020433,.03937,
-.023723,.039081,
-.026913,.038224,
-.029905,.036827,
-.03261,.034931,
-.034944,.032594,
-.036837,.029888,
-.038231,.026894,
-.039084,.023704,
-.03937,.020433,
-.03937,-.020433,
-.039081,-.023723,
-.038224,-.026913,
-.036827,-.029905,
-.034931,-.03261,
-.032594,-.034944,
-.029888,-.036837,
-.026894,-.038231,
-.023704,-.039084,
-.020433,-.03937,
0.0,-.03937,
0.0*
%
%ADD65MACRO65*%
%AMMACRO59*
4,1,41,0.0,-.017717,
.002953,-.017717,
.003465,-.017672,
.003963,-.017538,
.004429,-.017321,
.004851,-.017026,
.005215,-.016662,
.00551,-.01624,
.005727,-.015774,
.005861,-.015277,
.005906,-.014764,
.005906,.014764,
.005861,.015277,
.005727,.015774,
.00551,.01624,
.005215,.016662,
.004851,.017026,
.004429,.017321,
.003963,.017538,
.003465,.017672,
.002953,.017717,
-.002953,.017717,
-.003465,.017672,
-.003963,.017538,
-.004429,.017321,
-.004851,.017026,
-.005215,.016662,
-.00551,.01624,
-.005727,.015774,
-.005861,.015277,
-.005906,.014764,
-.005906,-.014764,
-.005861,-.015277,
-.005727,-.015774,
-.00551,-.01624,
-.005215,-.016662,
-.004851,-.017026,
-.004429,-.017321,
-.003963,-.017538,
-.003465,-.017672,
-.002953,-.017717,
0.0,-.017717,
0.0*
%
%ADD59MACRO59*%
%AMMACRO45*
4,1,41,.012795,0.0,
.012795,.001969,
.012765,.00231,
.012677,.002642,
.012532,.002953,
.012335,.003234,
.012092,.003476,
.011811,.003673,
.0115,.003818,
.011169,.003907,
.010827,.003937,
-.010827,.003937,
-.011169,.003907,
-.0115,.003818,
-.011811,.003673,
-.012092,.003476,
-.012335,.003234,
-.012532,.002953,
-.012677,.002642,
-.012765,.00231,
-.012795,.001969,
-.012795,-.001969,
-.012765,-.00231,
-.012677,-.002642,
-.012532,-.002953,
-.012335,-.003234,
-.012092,-.003476,
-.011811,-.003673,
-.0115,-.003818,
-.011169,-.003907,
-.010827,-.003937,
.010827,-.003937,
.011169,-.003907,
.0115,-.003818,
.011811,-.003673,
.012092,-.003476,
.012335,-.003234,
.012532,-.002953,
.012677,-.002642,
.012765,-.00231,
.012795,-.001969,
.012795,0.0,
0.0*
%
%ADD45MACRO45*%
%AMMACRO97*
4,1,41,.094488,0.0,
.094488,.011339,
.094313,.013304,
.093799,.015209,
.092962,.016995,
.091827,.01861,
.09043,.020002,
.088812,.021131,
.087022,.021962,
.085115,.022469,
.08315,.022638,
-.08315,.022638,
-.085115,.022469,
-.087022,.021962,
-.088812,.021131,
-.09043,.020002,
-.091827,.01861,
-.092962,.016995,
-.093799,.015209,
-.094313,.013304,
-.094488,.011339,
-.094488,-.011339,
-.094313,-.013304,
-.093799,-.015209,
-.092962,-.016995,
-.091827,-.01861,
-.09043,-.020002,
-.088812,-.021131,
-.087022,-.021962,
-.085115,-.022469,
-.08315,-.022638,
.08315,-.022638,
.085115,-.022469,
.087022,-.021962,
.088812,-.021131,
.09043,-.020002,
.091827,-.01861,
.092962,-.016995,
.093799,-.015209,
.094313,-.013304,
.094488,-.011339,
.094488,0.0,
0.0*
%
%ADD97MACRO97*%
%AMMACRO104*
4,1,41,0.0,-.015748,
.001969,-.015748,
.002481,-.015703,
.002978,-.01557,
.003445,-.015352,
.003866,-.015057,
.00423,-.014693,
.004526,-.014272,
.004743,-.013805,
.004876,-.013308,
.004921,-.012795,
.004921,.012795,
.004876,.013308,
.004743,.013805,
.004526,.014272,
.00423,.014693,
.003866,.015057,
.003445,.015352,
.002978,.01557,
.002481,.015703,
.001969,.015748,
-.001969,.015748,
-.002481,.015703,
-.002978,.01557,
-.003445,.015352,
-.003866,.015057,
-.00423,.014693,
-.004526,.014272,
-.004743,.013805,
-.004876,.013308,
-.004921,.012795,
-.004921,-.012795,
-.004876,-.013308,
-.004743,-.013805,
-.004526,-.014272,
-.00423,-.014693,
-.003866,-.015057,
-.003445,-.015352,
-.002978,-.01557,
-.002481,-.015703,
-.001969,-.015748,
0.0,-.015748,
0.0*
%
%ADD104MACRO104*%
%AMMACRO22*
4,1,40,.010315,.004331,
.010231,.005288,
.009983,.006216,
.009577,.007087,
.009025,.007874,
.008346,.008553,
.007559,.009104,
.006688,.00951,
.00576,.009759,
.004803,.009843,
-.004803,.009843,
-.00576,.009759,
-.006688,.00951,
-.007559,.009104,
-.008346,.008553,
-.009025,.007874,
-.009577,.007087,
-.009983,.006216,
-.010231,.005288,
-.010315,.004331,
-.010315,-.004331,
-.010231,-.005288,
-.009983,-.006216,
-.009577,-.007087,
-.009025,-.007874,
-.008346,-.008553,
-.007559,-.009104,
-.006688,-.00951,
-.00576,-.009759,
-.004803,-.009843,
.004803,-.009843,
.00576,-.009759,
.006688,-.00951,
.007559,-.009104,
.008346,-.008553,
.009025,-.007874,
.009577,-.007087,
.009983,-.006216,
.010231,-.005288,
.010315,-.004331,
.010315,.004331,
0.0*
%
%ADD22MACRO22*%
%AMMACRO10*
4,1,40,.004331,-.010315,
.005288,-.010231,
.006216,-.009983,
.007087,-.009577,
.007874,-.009025,
.008553,-.008346,
.009104,-.007559,
.00951,-.006688,
.009759,-.00576,
.009843,-.004803,
.009843,.004803,
.009759,.00576,
.00951,.006688,
.009104,.007559,
.008553,.008346,
.007874,.009025,
.007087,.009577,
.006216,.009983,
.005288,.010231,
.004331,.010315,
-.004331,.010315,
-.005288,.010231,
-.006216,.009983,
-.007087,.009577,
-.007874,.009025,
-.008553,.008346,
-.009104,.007559,
-.00951,.006688,
-.009759,.00576,
-.009843,.004803,
-.009843,-.004803,
-.009759,-.00576,
-.00951,-.006688,
-.009104,-.007559,
-.008553,-.008346,
-.007874,-.009025,
-.007087,-.009577,
-.006216,-.009983,
-.005288,-.010231,
-.004331,-.010315,
.004331,-.010315,
0.0*
%
%ADD10MACRO10*%
%AMMACRO52*
4,1,41,.012795,0.0,
.012795,.005315,
.012685,.00658,
.012356,.007806,
.011819,.008957,
.011091,.009997,
.010194,.010894,
.009154,.011623,
.008003,.012159,
.006777,.012488,
.005512,.012598,
-.005512,.012598,
-.006777,.012488,
-.008003,.012159,
-.009154,.011623,
-.010194,.010894,
-.011091,.009997,
-.011819,.008957,
-.012356,.007806,
-.012685,.00658,
-.012795,.005315,
-.012795,-.005315,
-.012685,-.00658,
-.012356,-.007806,
-.011819,-.008957,
-.011091,-.009997,
-.010194,-.010894,
-.009154,-.011623,
-.008003,-.012159,
-.006777,-.012488,
-.005512,-.012598,
.005512,-.012598,
.006777,-.012488,
.008003,-.012159,
.009154,-.011623,
.010194,-.010894,
.011091,-.009997,
.011819,-.008957,
.012356,-.007806,
.012685,-.00658,
.012795,-.005315,
.012795,0.0,
0.0*
%
%ADD52MACRO52*%
%AMMACRO37*
4,1,41,0.0,-.027559,
.011339,-.027559,
.013304,-.027384,
.015209,-.02687,
.016995,-.026033,
.01861,-.024898,
.020002,-.023501,
.021131,-.021883,
.021962,-.020093,
.022469,-.018186,
.022638,-.01622,
.022638,.01622,
.022469,.018186,
.021962,.020093,
.021131,.021883,
.020002,.023501,
.01861,.024898,
.016995,.026033,
.015209,.02687,
.013304,.027384,
.011339,.027559,
-.011339,.027559,
-.013304,.027384,
-.015209,.02687,
-.016995,.026033,
-.01861,.024898,
-.020002,.023501,
-.021131,.021883,
-.021962,.020093,
-.022469,.018186,
-.022638,.01622,
-.022638,-.01622,
-.022469,-.018186,
-.021962,-.020093,
-.021131,-.021883,
-.020002,-.023501,
-.01861,-.024898,
-.016995,-.026033,
-.015209,-.02687,
-.013304,-.027384,
-.011339,-.027559,
0.0,-.027559,
0.0*
%
%ADD37MACRO37*%
%AMMACRO34*
4,1,41,0.0,-.007913,
.003189,-.007913,
.003661,-.007871,
.004119,-.007748,
.004549,-.007547,
.004937,-.007274,
.005272,-.006939,
.005543,-.00655,
.005743,-.00612,
.005865,-.005662,
.005906,-.005197,
.005906,.005197,
.005864,.005669,
.00574,.006127,
.005539,.006556,
.005267,.006944,
.004931,.007279,
.004543,.007551,
.004113,.00775,
.003655,.007873,
.003189,.007913,
-.003189,.007913,
-.003661,.007871,
-.004119,.007748,
-.004549,.007547,
-.004937,.007274,
-.005272,.006939,
-.005543,.00655,
-.005743,.00612,
-.005865,.005662,
-.005906,.005197,
-.005906,-.005197,
-.005864,-.005669,
-.00574,-.006127,
-.005539,-.006556,
-.005267,-.006944,
-.004931,-.007279,
-.004543,-.007551,
-.004113,-.00775,
-.003655,-.007873,
-.003189,-.007913,
0.0,-.007913,
0.0*
%
%ADD34MACRO34*%
%ADD32O,.035394X.015709*%
%AMMACRO50*
4,1,41,0.0,-.012795,
.005315,-.012795,
.00658,-.012685,
.007806,-.012356,
.008957,-.011819,
.009997,-.011091,
.010894,-.010194,
.011623,-.009154,
.012159,-.008003,
.012488,-.006777,
.012598,-.005512,
.012598,.005512,
.012488,.006777,
.012159,.008003,
.011623,.009154,
.010894,.010194,
.009997,.011091,
.008957,.011819,
.007806,.012356,
.00658,.012685,
.005315,.012795,
-.005315,.012795,
-.00658,.012685,
-.007806,.012356,
-.008957,.011819,
-.009997,.011091,
-.010894,.010194,
-.011623,.009154,
-.012159,.008003,
-.012488,.006777,
-.012598,.005512,
-.012598,-.005512,
-.012488,-.006777,
-.012159,-.008003,
-.011623,-.009154,
-.010894,-.010194,
-.009997,-.011091,
-.008957,-.011819,
-.007806,-.012356,
-.00658,-.012685,
-.005315,-.012795,
0.0,-.012795,
0.0*
%
%ADD50MACRO50*%
%ADD108C,.003898*%
%ADD109C,.003937*%
G75*
%LPD*%
G75*
G54D100*
X1000791Y979232D03*
Y995768D03*
G54D101*
X1000000Y1031417D03*
G54D102*
X1003937Y1025630D03*
X1001969D03*
X1000000D03*
X998031D03*
X996063D03*
Y1037205D03*
X998031D03*
X1000000D03*
X1001969D03*
X1003937D03*
G54D10*
X791339Y1043504D03*
X796457D03*
Y1072535D03*
X796654Y1087402D03*
X807087Y1127953D03*
X822441Y1033465D03*
X819291Y1031496D03*
X815945D03*
X810039Y1151669D03*
X852913Y851669D03*
X843504Y1114661D03*
X848031Y1121354D03*
X862756Y851669D03*
X868701Y1034740D03*
Y1027953D03*
X868898Y1073228D03*
X862402Y1103638D03*
X869291D03*
X865945D03*
X865354Y1119685D03*
X859055Y1140748D03*
X862402Y1137299D03*
X881890Y933559D03*
X883858Y1027953D03*
Y1034740D03*
X877362Y1064173D03*
X871260Y1055512D03*
X872835Y1073228D03*
X877559Y1140252D03*
X885433Y933559D03*
X893701Y939465D03*
X899606Y1027953D03*
Y1034740D03*
X893110Y1060528D03*
X886614Y1096551D03*
X894291Y1113386D03*
X906496Y1122929D03*
X930709Y881496D03*
X917717Y882575D03*
Y889173D03*
X929134Y888386D03*
X922047Y931197D03*
X926772Y1051669D03*
X925197Y1068008D03*
X925000Y1079425D03*
X917913Y1083268D03*
X921457Y1079331D03*
X921063Y1095079D03*
X923031Y1122142D03*
X923228Y1134252D03*
X926181Y1134346D03*
X930512Y1155512D03*
X940157Y1094882D03*
X941142Y1126575D03*
X940354Y1119291D03*
X944882Y1117417D03*
X944685Y1127260D03*
Y1135724D03*
X947835Y1047732D03*
X947441Y1056197D03*
Y1063386D03*
X950787Y1085134D03*
X960630Y1094291D03*
X949213Y1101181D03*
X952362D03*
X959449Y1141929D03*
X972441Y1027756D03*
X976575Y1074409D03*
X973622D03*
X970472Y1085134D03*
X968701Y1100000D03*
X964764Y1150685D03*
X989764Y1033362D03*
X980906Y1051921D03*
X991535Y1068205D03*
X980315Y1116236D03*
X987205Y1140551D03*
X1009449Y1037598D03*
X1009843Y1090646D03*
G54D103*
X1001181Y1069370D03*
G54D104*
X1005118Y1063583D03*
X1003150D03*
X1001181D03*
X999213D03*
X997244D03*
Y1075157D03*
X999213D03*
X1001181D03*
X1003150D03*
X1005118D03*
G54D11*
X791339Y1039866D03*
X796457D03*
Y1068898D03*
X796654Y1083764D03*
X807087Y1124315D03*
X822441Y1029827D03*
X819291Y1027858D03*
X815945D03*
X810039Y1148031D03*
X852913Y848031D03*
X843504Y1111024D03*
X848031Y1117717D03*
X862756Y848031D03*
X868701Y1031102D03*
Y1024315D03*
X868898Y1069591D03*
X862402Y1100000D03*
X869291D03*
X865945D03*
X865354Y1116047D03*
X859055Y1137110D03*
X862402Y1133661D03*
X881890Y929921D03*
X883858Y1024315D03*
Y1031102D03*
X871260Y1051874D03*
X877362Y1060535D03*
X872835Y1069591D03*
X877559Y1136614D03*
X885433Y929921D03*
X893701Y935827D03*
X899606Y1024315D03*
Y1031102D03*
X893110Y1056890D03*
X886614Y1092913D03*
X894291Y1109748D03*
X906496Y1119291D03*
X930709Y877858D03*
X917717Y878937D03*
X929134Y884748D03*
X917717Y885535D03*
X922047Y927559D03*
X926772Y1048031D03*
X925197Y1064370D03*
X925000Y1075787D03*
X917913Y1079630D03*
X921457Y1075693D03*
X921063Y1091441D03*
X923228Y1130614D03*
X923031Y1118504D03*
X926181Y1130709D03*
X930512Y1151874D03*
X940157Y1091244D03*
X940354Y1115654D03*
X944882Y1113780D03*
X941142Y1122937D03*
X944685Y1123622D03*
Y1132087D03*
X947441Y1052559D03*
X947835Y1044094D03*
X947441Y1059748D03*
X950787Y1081496D03*
X949213Y1097543D03*
X952362D03*
X960630Y1090654D03*
X959449Y1138291D03*
X972441Y1024118D03*
X976575Y1070772D03*
X970472Y1081496D03*
X973622Y1070772D03*
X968701Y1096362D03*
X964764Y1147047D03*
X989764Y1029724D03*
X980906Y1048283D03*
X991535Y1064567D03*
X980315Y1112598D03*
X987205Y1136913D03*
X1009449Y1033961D03*
X1009843Y1087008D03*
G54D20*
X802677Y1044921D03*
Y1046496D03*
Y1048071D03*
Y1049646D03*
Y1051220D03*
Y1052795D03*
Y1054370D03*
Y1055945D03*
Y1057520D03*
Y1059094D03*
Y1060669D03*
Y1062244D03*
Y1063819D03*
Y1065394D03*
Y1066969D03*
Y1068543D03*
Y1070118D03*
Y1071693D03*
Y1073268D03*
Y1074843D03*
Y1076417D03*
Y1077992D03*
Y1079567D03*
Y1081142D03*
Y1082717D03*
Y1084291D03*
Y1085866D03*
Y1087441D03*
Y1089016D03*
Y1090591D03*
Y1092165D03*
Y1093740D03*
X862677Y1052795D03*
Y1051220D03*
Y1049646D03*
Y1048071D03*
Y1046496D03*
Y1044921D03*
Y1068543D03*
Y1066969D03*
Y1065394D03*
Y1063819D03*
Y1062244D03*
Y1060669D03*
Y1059094D03*
Y1057520D03*
Y1055945D03*
Y1054370D03*
Y1084291D03*
Y1082717D03*
Y1081142D03*
Y1079567D03*
Y1077992D03*
Y1076417D03*
Y1074843D03*
Y1073268D03*
Y1071693D03*
Y1070118D03*
Y1093740D03*
Y1092165D03*
Y1090591D03*
Y1089016D03*
Y1087441D03*
Y1085866D03*
G54D21*
X796457Y1064567D03*
Y1061024D03*
X800638Y1117961D03*
X813874Y983071D03*
X829228Y1033661D03*
X829425Y1029921D03*
X852063Y1033071D03*
X850787Y1104528D03*
X844094Y1125197D03*
X843701Y1136811D03*
X860921Y1020472D03*
X859543Y1107480D03*
X857969Y1104528D03*
X857772Y1126969D03*
X866780Y1142717D03*
X884252Y913780D03*
Y908661D03*
X875291Y1082283D03*
X875197Y1078937D03*
Y1089567D03*
X875291Y1085827D03*
X875197Y1092717D03*
X886220Y902756D03*
X889173Y1069882D03*
X894685Y1106299D03*
X894780Y1103150D03*
X906197Y1076181D03*
X905803Y1092717D03*
X925685Y904331D03*
X926866Y922835D03*
X927654Y1019291D03*
X917913Y1076181D03*
X918008Y1073031D03*
X918795Y1134252D03*
X934252Y874409D03*
X935827Y890551D03*
X938386Y1060236D03*
X957575Y1009055D03*
X947732Y1071850D03*
X962496Y1073819D03*
X975787Y1102953D03*
X974606Y1138189D03*
X987693Y1048425D03*
Y1051969D03*
X984740Y1045079D03*
X984646Y1055118D03*
X984843Y1128740D03*
Y1122638D03*
X984937Y1119685D03*
X984843Y1131693D03*
X1007575Y968898D03*
X994189Y1145866D03*
G54D105*
X1005315Y1081693D03*
X1003740D03*
X1002165D03*
X1000591D03*
X999016D03*
Y1089173D03*
X1000591D03*
X1002165D03*
X1003740D03*
X1005315D03*
G54D12*
X791339Y1047441D03*
Y1053740D03*
G54D30*
X825394Y1121260D03*
G54D22*
X792819Y1064567D03*
Y1061024D03*
X797000Y1117961D03*
X810236Y983071D03*
X825591Y1033661D03*
X825787Y1029921D03*
X848425Y1033071D03*
X847150Y1104528D03*
X840457Y1125197D03*
X854134Y1126969D03*
X840063Y1136811D03*
X857283Y1020472D03*
X855906Y1107480D03*
X854331Y1104528D03*
X863142Y1142717D03*
X880614Y913780D03*
Y908661D03*
X882583Y902756D03*
X871654Y1082283D03*
X871559Y1078937D03*
Y1089567D03*
X871654Y1085827D03*
X871559Y1092717D03*
X885535Y1069882D03*
X891047Y1106299D03*
X891142Y1103150D03*
X914276Y1076181D03*
X902559D03*
X914370Y1073031D03*
X902165Y1092717D03*
X915157Y1134252D03*
X930614Y874409D03*
X922047Y904331D03*
X923228Y922835D03*
X924016Y1019291D03*
X932189Y890551D03*
X934748Y1060236D03*
X944094Y1071850D03*
X953937Y1009055D03*
X958858Y1073819D03*
X972150Y1102953D03*
X970969Y1138189D03*
X984055Y1048425D03*
Y1051969D03*
X981102Y1045079D03*
X981008Y1055118D03*
X981205Y1128740D03*
Y1122638D03*
X981299Y1119685D03*
X981205Y1131693D03*
X990551Y1145866D03*
X1003937Y968898D03*
G54D31*
X822591Y1143110D03*
X841976D03*
G54D13*
X793307Y1122835D03*
Y1129528D03*
X801969Y1122835D03*
Y1129528D03*
G54D106*
X1005906Y1086220D03*
Y1084646D03*
X998425D03*
Y1086220D03*
G54D40*
X854528Y1155118D03*
X881102D03*
G54D50*
X877362Y1053543D03*
Y1057087D03*
X917520Y1111220D03*
Y1114764D03*
X943701Y1091339D03*
Y1094882D03*
X958661Y1062598D03*
Y1066142D03*
X947047Y1081496D03*
Y1085039D03*
X955118Y1070276D03*
Y1073819D03*
X956693Y1094488D03*
Y1098031D03*
X962598Y1062598D03*
Y1066142D03*
X966535Y1062598D03*
Y1066142D03*
X974213Y1081496D03*
Y1085039D03*
X966142Y1070276D03*
Y1073819D03*
X964567Y1094488D03*
Y1098031D03*
X1005315Y1119882D03*
Y1123425D03*
X1010039Y1079921D03*
Y1083465D03*
G54D32*
X835039Y1027559D03*
Y1030118D03*
Y1032677D03*
X843701D03*
Y1027559D03*
G54D107*
X1008268Y1095276D03*
Y1107087D03*
G54D23*
X792913Y1057480D03*
X796457D03*
X919685Y1047835D03*
X923228D03*
X944094Y1068307D03*
X947638D03*
X965354Y1090748D03*
X968898D03*
X988976Y1082480D03*
X992520D03*
X988976Y1078740D03*
X992520D03*
X988976Y1086220D03*
X992520D03*
X988976Y1089764D03*
X992520D03*
X980709Y1106102D03*
X984252D03*
G54D14*
X795866Y814961D03*
X992126Y1156693D03*
X1009646Y814961D03*
G54D41*
X862756Y837402D03*
Y843701D03*
G54D108*
G01X994346Y687303D02*
Y690402D01*
X995343Y687819D01*
X996339Y690402D01*
Y687303D01*
G01X999283Y690142D02*
X999055Y690299D01*
X998787Y690402D01*
X998480D01*
X998134Y690248D01*
X997866Y689988D01*
X997673Y689677D01*
X997520Y689161D01*
X997484Y688697D01*
X997559Y688232D01*
X997673Y687921D01*
X997906Y687614D01*
X998173Y687406D01*
X998441Y687303D01*
X998709D01*
X998976Y687406D01*
X999209Y687563D01*
X999398Y687768D01*
G01X1000697Y690402D02*
Y688181D01*
X1000850Y687717D01*
X1001157Y687406D01*
X1001539Y687303D01*
X1001921Y687406D01*
X1002228Y687717D01*
X1002382Y688181D01*
Y690402D01*
G01X1004638D02*
X1004331Y690299D01*
X1004102Y690039D01*
X1003949Y689728D01*
X1003835Y689319D01*
X1003795Y688850D01*
X1003835Y688386D01*
X1003949Y687976D01*
X1004102Y687665D01*
X1004331Y687406D01*
X1004638Y687303D01*
X1004945Y687406D01*
X1005173Y687665D01*
X1005327Y687976D01*
X1005441Y688386D01*
X1005480Y688850D01*
X1005441Y689319D01*
X1005327Y689728D01*
X1005173Y690039D01*
X1004945Y690299D01*
X1004638Y690402D01*
G01X1007661Y687303D02*
X1007736Y687976D01*
X1007850Y688543D01*
X1008004Y689059D01*
X1008197Y689626D01*
X1008504Y690402D01*
X1006969D01*
G01X1009992Y687768D02*
X1010220Y687508D01*
X1010488Y687354D01*
X1010835Y687303D01*
X1011181Y687406D01*
X1011449Y687614D01*
X1011638Y687976D01*
X1011677Y688386D01*
X1011602Y688799D01*
X1011409Y689059D01*
X1011142Y689264D01*
X1010874Y689319D01*
X1010606Y689264D01*
X1010260Y689059D01*
X1010374Y690402D01*
X1011409D01*
G01X1016264Y687303D02*
Y690402D01*
X1017224D01*
X1017531Y690248D01*
X1017720Y690039D01*
X1017799Y689626D01*
X1017720Y689213D01*
X1017492Y688957D01*
X1017224Y688799D01*
X1016264D01*
G01X1017224D02*
X1017799Y687303D01*
G01X1019555Y688697D02*
X1020780D01*
X1020665Y689059D01*
X1020476Y689264D01*
X1020205Y689370D01*
X1019937Y689319D01*
X1019709Y689161D01*
X1019555Y688799D01*
X1019480Y688492D01*
Y688181D01*
X1019555Y687870D01*
X1019748Y687563D01*
X1019976Y687354D01*
X1020244Y687303D01*
X1020512Y687406D01*
X1020780Y687717D01*
G01X1022539Y689370D02*
X1023228Y687303D01*
X1023917Y689370D01*
G01X1026327Y687201D02*
X1026252Y687252D01*
Y687354D01*
X1026327Y687406D01*
X1026402Y687354D01*
Y687252D01*
X1026327Y687201D01*
G01X1031567Y687303D02*
X1032524Y690402D01*
X1033480Y687303D01*
G01X1033138Y688386D02*
X1031909D01*
G01X994280Y698374D02*
Y695276D01*
X995815D01*
G01X997378D02*
Y698374D01*
X998299D01*
X998606Y698220D01*
X998835Y697858D01*
X998913Y697445D01*
X998835Y697031D01*
X998646Y696720D01*
X998299Y696567D01*
X997378D01*
G01X1000744Y696307D02*
X1001744D01*
G01X1005185Y698114D02*
X1004957Y698272D01*
X1004689Y698374D01*
X1004382D01*
X1004035Y698220D01*
X1003768Y697961D01*
X1003575Y697650D01*
X1003421Y697134D01*
X1003386Y696669D01*
X1003461Y696205D01*
X1003575Y695894D01*
X1003807Y695587D01*
X1004075Y695378D01*
X1004343Y695276D01*
X1004610D01*
X1004878Y695378D01*
X1005110Y695535D01*
X1005299Y695740D01*
G01X1008283Y698114D02*
X1008055Y698272D01*
X1007787Y698374D01*
X1007480D01*
X1007134Y698220D01*
X1006866Y697961D01*
X1006673Y697650D01*
X1006520Y697134D01*
X1006484Y696669D01*
X1006559Y696205D01*
X1006673Y695894D01*
X1006906Y695587D01*
X1007173Y695378D01*
X1007441Y695276D01*
X1007709D01*
X1007976Y695378D01*
X1008209Y695535D01*
X1008398Y695740D01*
G01X1009811Y697858D02*
X1010039Y698169D01*
X1010311Y698323D01*
X1010614Y698374D01*
X1011000Y698272D01*
X1011268Y698012D01*
X1011343Y697701D01*
X1011307Y697394D01*
X1011154Y697134D01*
X1010386Y696618D01*
X1010039Y696256D01*
X1009811Y695740D01*
X1009736Y695276D01*
X1011343D01*
G01X1012909Y696567D02*
X1013177Y696929D01*
X1013409Y697134D01*
X1013713Y697236D01*
X1013984Y697134D01*
X1014173Y696929D01*
X1014327Y696618D01*
X1014366Y696256D01*
X1014327Y695949D01*
X1014173Y695638D01*
X1013945Y695378D01*
X1013677Y695276D01*
X1013370Y695378D01*
X1013102Y695689D01*
X1012949Y696154D01*
X1012909Y696669D01*
X1012988Y697343D01*
X1013102Y697701D01*
X1013291Y698063D01*
X1013563Y698323D01*
X1013831Y698374D01*
X1014098Y698272D01*
X1014287Y698012D01*
G01X1015894Y695740D02*
X1016122Y695480D01*
X1016390Y695327D01*
X1016736Y695276D01*
X1017083Y695378D01*
X1017350Y695587D01*
X1017539Y695949D01*
X1017579Y696358D01*
X1017504Y696772D01*
X1017311Y697031D01*
X1017043Y697236D01*
X1016776Y697291D01*
X1016508Y697236D01*
X1016161Y697031D01*
X1016276Y698374D01*
X1017311D01*
G01X1019106Y697858D02*
X1019335Y698169D01*
X1019606Y698323D01*
X1019909Y698374D01*
X1020295Y698272D01*
X1020563Y698012D01*
X1020638Y697701D01*
X1020602Y697394D01*
X1020449Y697134D01*
X1019681Y696618D01*
X1019335Y696256D01*
X1019106Y695740D01*
X1019031Y695276D01*
X1020638D01*
G01X1022165D02*
Y698374D01*
X1023126D01*
X1023433Y698220D01*
X1023622Y698012D01*
X1023701Y697598D01*
X1023622Y697185D01*
X1023394Y696929D01*
X1023126Y696772D01*
X1022165D01*
G01X1023126D02*
X1023701Y695276D01*
G01X1025957D02*
X1026031Y695949D01*
X1026146Y696516D01*
X1026299Y697031D01*
X1026492Y697598D01*
X1026799Y698374D01*
X1025264D01*
G01X793157Y787402D02*
X1011961D01*
G03X1017717Y793157I0J5756D01*
G01Y962598D01*
G03X1013386Y975000I-19922J0D01*
G02X1009055Y987402I15591J12402D01*
G02X1013386Y999803I19922J0D01*
G03X1017717Y1012205I-15591J12402D01*
G01Y1156843D01*
G03X1011961Y1162598I-5756J0D01*
G01X849606D01*
Y1157874D01*
X843307D01*
Y1149606D01*
X839764D01*
Y1157874D01*
X824803D01*
Y1149606D01*
X821260D01*
Y1157874D01*
X814961D01*
Y1162598D01*
X793157D01*
G03X787402Y1156843I0J-5756D01*
G01Y1012205D01*
G03X791732Y999803I19922J0D01*
G02X796063Y987402I-15591J-12402D01*
G02X791732Y975000I-19922J0D01*
G03X787402Y962598I15591J-12402D01*
G01Y793157D01*
G03X793157Y787402I5756J0D01*
G01X944339Y688780D02*
Y696280D01*
X946579D01*
X947323Y695906D01*
X947886Y695031D01*
X948071Y694031D01*
X947886Y693031D01*
X947417Y692280D01*
X946579Y691906D01*
X944339D01*
G01X951280Y688780D02*
Y696280D01*
X953705Y690028D01*
X956130Y696280D01*
Y688780D01*
G01X968705Y696280D02*
Y688780D01*
G01X966559Y696280D02*
X970850D01*
G01X976205Y688780D02*
X975457Y688906D01*
X974807Y689406D01*
X974244Y690154D01*
X973870Y691028D01*
X973685Y692028D01*
Y693031D01*
X973870Y694031D01*
X974244Y694906D01*
X974807Y695654D01*
X975457Y696154D01*
X976205Y696280D01*
X976953Y696154D01*
X977602Y695654D01*
X978165Y694906D01*
X978539Y694031D01*
X978724Y693031D01*
Y692028D01*
X978539Y691028D01*
X978165Y690154D01*
X977602Y689406D01*
X976953Y688906D01*
X976205Y688780D01*
G01X981839D02*
Y696280D01*
X984079D01*
X984823Y695906D01*
X985386Y695031D01*
X985571Y694031D01*
X985386Y693031D01*
X984917Y692280D01*
X984079Y691906D01*
X981839D01*
G01X951602Y668650D02*
Y676150D01*
X953469D01*
X954213Y675776D01*
X954772Y675276D01*
X955240Y674524D01*
X955614Y673650D01*
X955705Y672398D01*
X955614Y671150D01*
X955240Y670276D01*
X954772Y669524D01*
X954213Y669024D01*
X953469Y668650D01*
X951602D01*
G01X958819D02*
X961154Y676150D01*
X963488Y668650D01*
G01X962646Y671276D02*
X959661D01*
G01X968654Y676150D02*
Y668650D01*
G01X966508Y676150D02*
X970799D01*
G01X978020Y668650D02*
X974287D01*
Y676150D01*
X978020D01*
G01X976528Y672524D02*
X974287D01*
G01X983654Y668402D02*
X983469Y668524D01*
Y668776D01*
X983654Y668898D01*
X983839Y668776D01*
Y668524D01*
X983654Y668402D01*
G01Y671776D02*
X983469Y671898D01*
Y672150D01*
X983654Y672276D01*
X983839Y672150D01*
Y671898D01*
X983654Y671776D01*
G01X996882Y674902D02*
X997441Y675650D01*
X998094Y676024D01*
X998839Y676150D01*
X999772Y675902D01*
X1000425Y675276D01*
X1000614Y674524D01*
X1000520Y673776D01*
X1000146Y673150D01*
X998280Y671898D01*
X997441Y671024D01*
X996882Y669776D01*
X996693Y668650D01*
X1000614D01*
G01X1006154Y676150D02*
X1005406Y675902D01*
X1004846Y675276D01*
X1004472Y674524D01*
X1004193Y673524D01*
X1004102Y672398D01*
X1004193Y671276D01*
X1004472Y670276D01*
X1004846Y669524D01*
X1005406Y668898D01*
X1006154Y668650D01*
X1006902Y668898D01*
X1007461Y669524D01*
X1007835Y670276D01*
X1008114Y671276D01*
X1008205Y672398D01*
X1008114Y673524D01*
X1007835Y674524D01*
X1007461Y675276D01*
X1006902Y675902D01*
X1006154Y676150D01*
G01X1011882Y674902D02*
X1012441Y675650D01*
X1013094Y676024D01*
X1013839Y676150D01*
X1014772Y675902D01*
X1015425Y675276D01*
X1015614Y674524D01*
X1015520Y673776D01*
X1015146Y673150D01*
X1013280Y671898D01*
X1012441Y671024D01*
X1011882Y669776D01*
X1011693Y668650D01*
X1015614D01*
G01X1021154D02*
Y676150D01*
X1020035Y674650D01*
G01Y668650D02*
X1022272D01*
G01X1027441Y671150D02*
X1029866D01*
G01X1036154Y676150D02*
X1035406Y675902D01*
X1034846Y675276D01*
X1034472Y674524D01*
X1034193Y673524D01*
X1034102Y672398D01*
X1034193Y671276D01*
X1034472Y670276D01*
X1034846Y669524D01*
X1035406Y668898D01*
X1036154Y668650D01*
X1036902Y668898D01*
X1037461Y669524D01*
X1037835Y670276D01*
X1038114Y671276D01*
X1038205Y672398D01*
X1038114Y673524D01*
X1037835Y674524D01*
X1037461Y675276D01*
X1036902Y675902D01*
X1036154Y676150D01*
G01X1041602Y669776D02*
X1042161Y669150D01*
X1042815Y668776D01*
X1043654Y668650D01*
X1044492Y668898D01*
X1045146Y669398D01*
X1045614Y670276D01*
X1045705Y671276D01*
X1045520Y672276D01*
X1045051Y672902D01*
X1044402Y673398D01*
X1043748Y673524D01*
X1043094Y673398D01*
X1042256Y672902D01*
X1042535Y676150D01*
X1045051D01*
G01X1049941Y671150D02*
X1052366D01*
G01X1056882Y674902D02*
X1057441Y675650D01*
X1058094Y676024D01*
X1058839Y676150D01*
X1059772Y675902D01*
X1060425Y675276D01*
X1060614Y674524D01*
X1060520Y673776D01*
X1060146Y673150D01*
X1058280Y671898D01*
X1057441Y671024D01*
X1056882Y669776D01*
X1056693Y668650D01*
X1060614D01*
G01X1065969D02*
X1066154Y670276D01*
X1066433Y671650D01*
X1066807Y672902D01*
X1067272Y674276D01*
X1068020Y676150D01*
X1064287D01*
G01X953457Y715323D02*
Y707823D01*
G01X951311Y715323D02*
X955602D01*
G01X962823Y707823D02*
X959091D01*
Y715323D01*
X962823D01*
G01X961331Y711697D02*
X959091D01*
G01X966496Y707823D02*
X970417Y715323D01*
G01X966496D02*
X970417Y707823D01*
G01X973622D02*
X975957Y715323D01*
X978291Y707823D01*
G01X977449Y710449D02*
X974465D01*
G01X981496Y708823D02*
X982244Y708197D01*
X983083Y707823D01*
X983831D01*
X984575Y708197D01*
X985138Y708823D01*
X985417Y709697D01*
X985228Y710571D01*
X984764Y711323D01*
X983921Y711823D01*
X982803Y712075D01*
X982150Y712571D01*
X981870Y713449D01*
X982059Y714323D01*
X982524Y714949D01*
X983177Y715323D01*
X983831D01*
X984484Y715075D01*
X985043Y714449D01*
G01X997339Y715323D02*
X999575D01*
G01X998457D02*
Y707823D01*
G01X997339D02*
X999575D01*
G01X1003811D02*
Y715323D01*
X1008102Y707823D01*
Y715323D01*
G01X1011496Y708823D02*
X1012244Y708197D01*
X1013083Y707823D01*
X1013831D01*
X1014575Y708197D01*
X1015138Y708823D01*
X1015417Y709697D01*
X1015228Y710571D01*
X1014764Y711323D01*
X1013921Y711823D01*
X1012803Y712075D01*
X1012150Y712571D01*
X1011870Y713449D01*
X1012059Y714323D01*
X1012524Y714949D01*
X1013177Y715323D01*
X1013831D01*
X1014484Y715075D01*
X1015043Y714449D01*
G01X1020957Y715323D02*
Y707823D01*
G01X1018811Y715323D02*
X1023102D01*
G01X1026591Y707823D02*
Y715323D01*
X1028921D01*
X1029669Y714949D01*
X1030138Y714449D01*
X1030323Y713449D01*
X1030138Y712449D01*
X1029575Y711823D01*
X1028921Y711449D01*
X1026591D01*
G01X1028921D02*
X1030323Y707823D01*
G01X1033906Y715323D02*
Y709949D01*
X1034276Y708823D01*
X1035024Y708071D01*
X1035957Y707823D01*
X1036890Y708071D01*
X1037638Y708823D01*
X1038008Y709949D01*
Y715323D01*
G01X1041031Y707823D02*
Y715323D01*
X1043457Y709071D01*
X1045882Y715323D01*
Y707823D01*
G01X1052823D02*
X1049091D01*
Y715323D01*
X1052823D01*
G01X1051331Y711697D02*
X1049091D01*
G01X1056311Y707823D02*
Y715323D01*
X1060602Y707823D01*
Y715323D01*
G01X1065957D02*
Y707823D01*
G01X1063811Y715323D02*
X1068102D01*
G01X1071496Y708823D02*
X1072244Y708197D01*
X1073083Y707823D01*
X1073831D01*
X1074575Y708197D01*
X1075138Y708823D01*
X1075417Y709697D01*
X1075228Y710571D01*
X1074764Y711323D01*
X1073921Y711823D01*
X1072803Y712075D01*
X1072150Y712571D01*
X1071870Y713449D01*
X1072059Y714323D01*
X1072524Y714949D01*
X1073177Y715323D01*
X1073831D01*
X1074484Y715075D01*
X1075043Y714449D01*
G54D51*
X881693Y1055945D03*
Y1064961D03*
X889173Y1055945D03*
X885433Y1064961D03*
X889173D03*
G54D24*
X804567Y1103937D03*
X802362D03*
X804567Y1100984D03*
X802362D03*
X811929Y1133071D03*
X809724D03*
X829646Y1020472D03*
X827441D03*
X829646Y1023622D03*
X827441D03*
X825630Y1137205D03*
X823425D03*
X840787Y1109843D03*
X838583D03*
X841378Y1127953D03*
X839173D03*
X842362Y1122441D03*
X840157D03*
X894528Y836220D03*
X892323D03*
X896693Y856496D03*
X894488D03*
Y878346D03*
X892283D03*
X898268Y895276D03*
X896063D03*
X892559D03*
X890354D03*
G54D15*
X800787Y865748D03*
X803150Y863386D03*
G54D33*
X837402Y1141732D03*
X834843D03*
X832283D03*
X829724D03*
X827165D03*
G54D42*
X869685Y897638D03*
Y903346D03*
X874213Y897638D03*
Y903346D03*
G54D60*
X904134Y915551D03*
G54D109*
G01X791634Y721260D02*
Y662205D01*
X1086909D01*
Y721260D01*
X791634D01*
G01X939272D02*
Y662205D01*
G01Y681890D02*
X1086909D01*
G01Y701575D02*
X939272D01*
G01X989177D02*
Y681890D01*
G54D34*
X832283Y1136969D03*
X830315D03*
X828346D03*
X832283Y1134646D03*
X830315D03*
X828346D03*
G54D52*
X882480Y1105906D03*
X878937D03*
X882480Y1123228D03*
X878937D03*
X896654Y1069882D03*
X893110D03*
X905906Y1096063D03*
X902362D03*
X931102Y1099409D03*
X927559D03*
X958858Y1069882D03*
X955709Y1090748D03*
X952165D03*
X958858Y1101772D03*
X976181Y1037992D03*
X972638D03*
X962402Y1069882D03*
Y1101772D03*
G54D61*
X898819Y943898D03*
Y936811D03*
X913386Y1048622D03*
Y1055709D03*
X935236Y1110827D03*
Y1127756D03*
Y1117913D03*
Y1134843D03*
G54D43*
X864961Y1026378D03*
X880118D03*
X895866D03*
G54D16*
X798217Y863177D03*
X800579Y860815D03*
G54D70*
X908268Y1072047D03*
X901969D03*
G54D25*
X822441Y1039331D03*
X820866D03*
X819291D03*
X817717D03*
X816142D03*
X814567D03*
X812992D03*
X811417D03*
X809843D03*
X808268D03*
Y1099331D03*
X809843D03*
X811417D03*
X812992D03*
X814567D03*
X816142D03*
X817717D03*
X819291D03*
X820866D03*
X822441D03*
X836614Y1039331D03*
X835039D03*
X833465D03*
X831890D03*
X830315D03*
X828740D03*
X827165D03*
X825591D03*
X824016D03*
Y1099331D03*
X825591D03*
X827165D03*
X828740D03*
X830315D03*
X831890D03*
X833465D03*
X835039D03*
X836614D03*
X852362Y1039331D03*
X850787D03*
X849213D03*
X847638D03*
X846063D03*
X844488D03*
X842913D03*
X841339D03*
X839764D03*
X838189D03*
Y1099331D03*
X839764D03*
X841339D03*
X842913D03*
X844488D03*
X846063D03*
X847638D03*
X849213D03*
X850787D03*
X852362D03*
X857087Y1039331D03*
X855512D03*
X853937D03*
Y1099331D03*
X855512D03*
X857087D03*
G54D35*
X835976Y1152165D03*
X828591D03*
G54D17*
X797047Y974213D03*
Y1000787D03*
G54D62*
X891732Y949213D03*
X898031D03*
X951969Y872441D03*
X958268D03*
X951575Y882283D03*
X957874D03*
X951575Y892520D03*
X957874D03*
X951575Y902362D03*
X957874D03*
G54D26*
X822441Y1111614D03*
X820472D03*
X818504D03*
Y1130906D03*
X820472D03*
X822441D03*
X832283Y1111614D03*
X830315D03*
X828346D03*
X826378D03*
X824409D03*
Y1130906D03*
X826378D03*
X828346D03*
X830315D03*
X832283D03*
G54D44*
X864606Y1023917D03*
X863031D03*
X861457D03*
X859882D03*
Y1033563D03*
X861457D03*
X863031D03*
X864606D03*
X879764Y1023917D03*
X878189D03*
X876614D03*
X875039D03*
Y1033563D03*
X876614D03*
X878189D03*
X879764D03*
X895512Y1023917D03*
X893937D03*
X892362D03*
X890787D03*
Y1033563D03*
X892362D03*
X893937D03*
X895512D03*
G54D53*
X873031Y1111811D03*
Y1118110D03*
X889764Y942126D03*
Y935827D03*
X926969Y1124606D03*
Y1118307D03*
G54D71*
X913583Y1130512D03*
X911024D03*
X913583Y1118701D03*
X911024D03*
X918701Y1130512D03*
X916142D03*
X918701Y1118701D03*
X916142D03*
G54D80*
X942323Y988780D03*
X942126Y1022047D03*
Y1024016D03*
Y1025984D03*
G54D45*
X859035Y1026378D03*
Y1027953D03*
Y1029528D03*
Y1031102D03*
X865453D03*
Y1029528D03*
Y1027953D03*
X874193Y1026378D03*
Y1027953D03*
Y1029528D03*
Y1031102D03*
X880610D03*
Y1029528D03*
Y1027953D03*
X889941Y1026378D03*
Y1027953D03*
Y1029528D03*
Y1031102D03*
X896358D03*
Y1029528D03*
Y1027953D03*
G54D18*
X804134Y979232D03*
Y995768D03*
G54D36*
X852913Y837402D03*
Y843701D03*
G54D27*
X815748Y1114370D03*
Y1116339D03*
Y1118307D03*
Y1120276D03*
Y1122244D03*
Y1124213D03*
Y1126181D03*
Y1128150D03*
X835039Y1114370D03*
Y1128150D03*
Y1126181D03*
Y1124213D03*
Y1122244D03*
Y1120276D03*
Y1118307D03*
Y1116339D03*
G54D72*
X914862Y1124606D03*
G54D81*
X936417Y988780D03*
X936220Y1022047D03*
Y1024016D03*
Y1025984D03*
G54D54*
X878543Y1110827D03*
Y1113386D03*
Y1115945D03*
Y1118504D03*
X890354Y1110827D03*
Y1113386D03*
Y1115945D03*
Y1118504D03*
G54D63*
X896457Y1060827D03*
Y1057283D03*
X903150Y1122441D03*
Y1118898D03*
X955709Y1143110D03*
Y1139567D03*
X1001575Y1097835D03*
Y1094291D03*
Y1105512D03*
Y1101969D03*
G54D90*
X960571Y1079449D03*
G54D37*
X852756Y1112205D03*
Y1122047D03*
X860630Y1112205D03*
Y1122047D03*
G54D46*
X867717Y1129331D03*
X881496D03*
G54D91*
X957087Y1080118D03*
Y1082087D03*
Y1084055D03*
Y1086024D03*
X964055Y1080118D03*
Y1082087D03*
Y1084055D03*
Y1086024D03*
G54D55*
X884449Y1114665D03*
X908071Y1084547D03*
G54D19*
X796457Y1047441D03*
Y1053740D03*
G54D82*
X941339Y991732D03*
X939370D03*
X937402D03*
X939173Y1026969D03*
G54D28*
X809606Y1112992D03*
X811811D03*
X809409Y1117126D03*
X811614D03*
X808622Y1120669D03*
X810827D03*
X818071Y1136024D03*
X820276D03*
G54D73*
X921654Y853543D03*
G54D64*
X893898Y1130512D03*
Y1154921D03*
G54D65*
X910630Y842520D03*
Y864567D03*
X932677Y842520D03*
Y864567D03*
G54D47*
X859547Y1148031D03*
X876083D03*
G54D92*
X960571Y1086417D03*
G54D56*
X881890Y1135827D03*
Y1142126D03*
X940945Y1041732D03*
Y1048031D03*
G54D29*
X820866Y1105669D03*
Y1107874D03*
X818110Y1105669D03*
Y1107874D03*
X811811Y1107638D03*
Y1109843D03*
X834646Y1105669D03*
Y1107874D03*
X831890Y1105669D03*
Y1107874D03*
X829134Y1105669D03*
Y1107874D03*
X826378Y1105669D03*
Y1107874D03*
X823622Y1105669D03*
Y1107874D03*
X839370Y1112756D03*
Y1114961D03*
X838583Y1130472D03*
Y1132677D03*
X894488Y840709D03*
Y842913D03*
Y854291D03*
Y856496D03*
Y872402D03*
Y874606D03*
Y882441D03*
X892520Y889528D03*
Y891732D03*
X896063Y889528D03*
Y891732D03*
X894488Y884646D03*
G54D38*
X851378Y1133858D03*
G54D83*
X941339Y985827D03*
X939370D03*
X937402D03*
X939173Y1021063D03*
G54D74*
X924803Y881890D03*
Y888189D03*
G54D57*
X886024Y895315D03*
Y893110D03*
G54D66*
X911811Y879134D03*
Y888976D03*
G54D75*
X930157Y1064370D03*
Y1071850D03*
X939173Y1068110D03*
Y1064370D03*
Y1071850D03*
G54D93*
X950000Y1113780D03*
Y1115748D03*
Y1117717D03*
Y1119685D03*
Y1121654D03*
Y1123622D03*
Y1125591D03*
Y1127559D03*
X975197Y1113780D03*
Y1127559D03*
Y1125591D03*
Y1123622D03*
Y1121654D03*
Y1119685D03*
Y1117717D03*
Y1115748D03*
G54D84*
X942520Y1102067D03*
Y1109154D03*
X1005512Y1130315D03*
Y1137402D03*
G54D39*
X847244Y1130906D03*
Y1132874D03*
Y1134843D03*
Y1136811D03*
X855512Y1130906D03*
Y1132874D03*
Y1134843D03*
Y1136811D03*
G54D48*
X867126Y1135433D03*
X873425D03*
X890551Y1096850D03*
X896850D03*
G54D85*
X947638Y1141732D03*
X940551D03*
X975197Y1097244D03*
X982283D03*
X992913Y1115945D03*
X1000000D03*
G54D58*
X890551Y904724D03*
Y906693D03*
Y908661D03*
Y910630D03*
Y912598D03*
Y914567D03*
Y916535D03*
Y918504D03*
Y920472D03*
Y922441D03*
Y924409D03*
Y926378D03*
X917717Y914567D03*
Y912598D03*
Y910630D03*
Y908661D03*
Y906693D03*
Y904724D03*
Y926378D03*
Y924409D03*
Y922441D03*
Y920472D03*
Y918504D03*
Y916535D03*
G54D49*
X873228Y954724D03*
X878740D03*
X930512Y1048228D03*
X936024D03*
G54D94*
X959646Y1108071D03*
X957677D03*
X955709D03*
Y1133268D03*
X957677D03*
X959646D03*
X969488Y1108071D03*
X967520D03*
X965551D03*
X963583D03*
X961614D03*
Y1133268D03*
X963583D03*
X965551D03*
X967520D03*
X969488D03*
G54D76*
X932087Y1077953D03*
X927165Y1141732D03*
X939173Y1077953D03*
X934252Y1141732D03*
G54D67*
X915157Y1023425D03*
Y1035236D03*
X993307Y1094685D03*
Y1106496D03*
G54D59*
X899213Y901969D03*
X897244D03*
X895276D03*
X893307D03*
Y929134D03*
X895276D03*
X897244D03*
X899213D03*
X914961Y901969D03*
X912992D03*
X911024D03*
X909055D03*
X907087D03*
X905118D03*
X903150D03*
X901181D03*
Y929134D03*
X903150D03*
X905118D03*
X907087D03*
X909055D03*
X911024D03*
X912992D03*
X914961D03*
G54D77*
X926181Y1087598D03*
Y1091339D03*
Y1095079D03*
X935197Y1087598D03*
Y1095079D03*
G54D95*
X955709Y1147047D03*
X957677D03*
X959646D03*
X955709Y1158465D03*
X957677D03*
X959646D03*
X961614Y1147047D03*
Y1158465D03*
G54D86*
X948189Y1156890D03*
X938189D03*
X948189Y1148228D03*
X938189D03*
G54D68*
X911220Y1066339D03*
X902559D03*
G54D96*
X980906Y1031024D03*
X986024D03*
X980906Y1038583D03*
X983465D03*
X986024D03*
G54D69*
X913976Y1080709D03*
Y1083268D03*
X902165Y1080709D03*
Y1083268D03*
X913976Y1085827D03*
Y1088386D03*
X902165Y1085827D03*
Y1088386D03*
G54D87*
X960630Y972835D03*
Y966535D03*
X955118Y972835D03*
Y966535D03*
G54D78*
X936811Y883071D03*
G54D97*
X1000000Y1044291D03*
Y1055709D03*
G54D79*
X939764Y878346D03*
X937795D03*
X935827D03*
X933858D03*
X939764Y887795D03*
X937795D03*
X935827D03*
X933858D03*
G54D88*
X957638Y980709D03*
X952638D03*
X947638D03*
X957638Y998819D03*
X952638D03*
X947638D03*
X947555Y1015484D03*
X952555D03*
X957555D03*
X947555Y1033594D03*
X952555D03*
X957555D03*
X967638Y980709D03*
X962638D03*
X967638Y998819D03*
X962638D03*
X962555Y1015484D03*
X967555D03*
X962555Y1033594D03*
X967555D03*
G54D98*
X991634Y1123622D03*
Y1140551D03*
X999311Y1123622D03*
X996752D03*
X994193D03*
Y1140551D03*
X996752D03*
X999311D03*
G54D89*
X953228Y1042618D03*
Y1047618D03*
Y1052618D03*
Y1057618D03*
X974488Y1052618D03*
Y1047618D03*
Y1042618D03*
Y1057618D03*
G54D99*
X1007878Y974213D03*
Y1000787D03*
M02*
