G04 ================== begin FILE IDENTIFICATION RECORD ==================*
G04 Layout Name:  MCU075A.brd*
G04 Film Name:    MCU075A_soldmask_top*
G04 File Format:  Gerber RS274X*
G04 File Origin:  Cadence Allegro 17.2-S072*
G04 Origin Date:  Wed Aug 04 16:23:20 2021*
G04 *
G04 Layer:  DRAWING FORMAT/TITLE_BLOCK*
G04 Layer:  BOARD GEOMETRY/TOP SOLDER MASK*
G04 Layer:  PACKAGE GEOMETRY/SOLDERMASK_TOP*
G04 Layer:  VIA CLASS/SOLDERMASK_TOP*
G04 Layer:  PIN/SOLDERMASK_TOP*
G04 Layer:  BOARD GEOMETRY/OUTLINE*
G04 *
G04 Offset:    (0.000 0.000)*
G04 Mirror:    No*
G04 Mode:      Positive*
G04 Rotation:  0*
G04 FullContactRelief:  No*
G04 UndefLineWidth:     0.099*
G04 ================== end FILE IDENTIFICATION RECORD ====================*
%FSLAX25Y25*MOIN*%
%IR0*IPPOS*OFA0.00000B0.00000*MIA0B0*SFA1.00000B1.00000*%
%AMMACRO59*
4,1,41,.014764,0.0,
.014764,.007283,
.014653,.008548,
.014325,.009775,
.013788,.010925,
.01306,.011965,
.012162,.012863,
.011122,.013591,
.009971,.014128,
.008745,.014456,
.00748,.014567,
-.00748,.014567,
-.008745,.014456,
-.009971,.014128,
-.011122,.013591,
-.012162,.012863,
-.01306,.011965,
-.013788,.010925,
-.014325,.009775,
-.014653,.008548,
-.014764,.007283,
-.014764,-.007283,
-.014653,-.008548,
-.014325,-.009775,
-.013788,-.010925,
-.01306,-.011965,
-.012162,-.012863,
-.011122,-.013591,
-.009971,-.014128,
-.008745,-.014456,
-.00748,-.014567,
.00748,-.014567,
.008745,-.014456,
.009971,-.014128,
.011122,-.013591,
.012162,-.012863,
.01306,-.011965,
.013788,-.010925,
.014325,-.009775,
.014653,-.008548,
.014764,-.007283,
.014764,0.0,
0.0*
%
%ADD59MACRO59*%
%AMMACRO56*
4,1,41,0.0,.020709,
-.008898,.020709,
-.010437,.020565,
-.011929,.020156,
-.013326,.019494,
-.014588,.018599,
-.015675,.0175,
-.016554,.016228,
-.017199,.014822,
-.017591,.013326,
-.017717,.011811,
-.017717,-.011811,
-.017586,-.013352,
-.017191,-.014847,
-.016541,-.01625,
-.015658,-.01752,
-.014568,-.018616,
-.013304,-.019507,
-.011904,-.020165,
-.010412,-.020569,
-.008898,-.020709,
.008898,-.020709,
.010437,-.020565,
.011929,-.020156,
.013326,-.019494,
.014588,-.018599,
.015675,-.0175,
.016554,-.016228,
.017199,-.014822,
.017591,-.013326,
.017717,-.011811,
.017717,.011811,
.017586,.013352,
.017191,.014847,
.016541,.01625,
.015658,.01752,
.014568,.018616,
.013304,.019507,
.011904,.020165,
.010412,.020569,
.008898,.020709,
0.0,.020709,
0.0*
%
%ADD56MACRO56*%
%AMMACRO40*
4,1,44,-.003898,.009803,
.003898,.009803,
.004582,.009757,
.005249,.009593,
.005876,.009315,
.006446,.008933,
.006941,.008457,
.007346,.007903,
.007648,.007287,
.007839,.006628,
.007913,.005946,
.007913,.005906,
.007913,-.005906,
.007847,-.006589,
.007663,-.00725,
.007367,-.007869,
.006967,-.008427,
.006477,-.008908,
.005911,-.009296,
.005287,-.00958,
.004622,-.009751,
.003938,-.009804,
.003898,-.009803,
-.003898,-.009803,
-.004582,-.009757,
-.005249,-.009593,
-.005876,-.009315,
-.006446,-.008933,
-.006941,-.008457,
-.007346,-.007903,
-.007648,-.007287,
-.007839,-.006628,
-.007913,-.005946,
-.007913,-.005906,
-.007913,.005906,
-.007847,.006589,
-.007663,.00725,
-.007367,.007869,
-.006967,.008427,
-.006477,.008908,
-.005911,.009296,
-.005287,.00958,
-.004622,.009751,
-.003938,.009804,
-.003898,.009803,
0.0*
%
%ADD40MACRO40*%
%AMMACRO71*
4,1,44,.05315,-.024094,
.05315,.024094,
.052772,.028453,
.051643,.03268,
.049797,.036646,
.04729,.040232,
.044199,.043328,
.040617,.04584,
.036654,.047692,
.032429,.048828,
.028071,.049213,
.028031,.049213,
-.028031,.049213,
-.03239,.048835,
-.036617,.047706,
-.040583,.04586,
-.044169,.043353,
-.047265,.040262,
-.049777,.03668,
-.051629,.032717,
-.052765,.028492,
-.05315,.024134,
-.05315,.024094,
-.05315,-.024094,
-.052772,-.028453,
-.051643,-.03268,
-.049797,-.036646,
-.04729,-.040232,
-.044199,-.043328,
-.040617,-.04584,
-.036654,-.047692,
-.032429,-.048828,
-.028071,-.049213,
-.028031,-.049213,
.028031,-.049213,
.03239,-.048835,
.036617,-.047706,
.040583,-.04586,
.044169,-.043353,
.047265,-.040262,
.049777,-.03668,
.051629,-.032717,
.052765,-.028492,
.05315,-.024134,
.05315,-.024094,
0.0*
%
%ADD71MACRO71*%
%AMMACRO57*
4,1,41,0.0,-.014764,
.007283,-.014764,
.008548,-.014653,
.009775,-.014325,
.010925,-.013788,
.011965,-.01306,
.012863,-.012162,
.013591,-.011122,
.014128,-.009971,
.014456,-.008745,
.014567,-.00748,
.014567,.00748,
.014456,.008745,
.014128,.009971,
.013591,.011122,
.012863,.012162,
.011965,.01306,
.010925,.013788,
.009775,.014325,
.008548,.014653,
.007283,.014764,
-.007283,.014764,
-.008548,.014653,
-.009775,.014325,
-.010925,.013788,
-.011965,.01306,
-.012863,.012162,
-.013591,.011122,
-.014128,.009971,
-.014456,.008745,
-.014567,.00748,
-.014567,-.00748,
-.014456,-.008745,
-.014128,-.009971,
-.013591,-.011122,
-.012863,-.012162,
-.011965,-.01306,
-.010925,-.013788,
-.009775,-.014325,
-.008548,-.014653,
-.007283,-.014764,
0.0,-.014764,
0.0*
%
%ADD57MACRO57*%
%AMMACRO43*
4,1,41,0.0,-.030512,
.012795,-.030512,
.015017,-.030317,
.017172,-.02974,
.019193,-.028798,
.02102,-.027518,
.022597,-.025941,
.023876,-.024114,
.024819,-.022093,
.025396,-.019938,
.025591,-.017717,
.025591,.017717,
.025396,.019938,
.024819,.022093,
.023876,.024114,
.022597,.025941,
.02102,.027518,
.019193,.028798,
.017172,.02974,
.015017,.030317,
.012795,.030512,
-.012795,.030512,
-.015017,.030317,
-.017172,.02974,
-.019193,.028798,
-.02102,.027518,
-.022597,.025941,
-.023876,.024114,
-.024819,.022093,
-.025396,.019938,
-.025591,.017717,
-.025591,-.017717,
-.025396,-.019938,
-.024819,-.022093,
-.023876,-.024114,
-.022597,-.025941,
-.02102,-.027518,
-.019193,-.028798,
-.017172,-.02974,
-.015017,-.030317,
-.012795,-.030512,
0.0,-.030512,
0.0*
%
%ADD43MACRO43*%
%AMMACRO72*
4,1,41,0.0,-.042323,
.021181,-.042323,
.024855,-.041998,
.028418,-.04104,
.031759,-.039478,
.034779,-.037359,
.037385,-.034749,
.039498,-.031725,
.041053,-.028381,
.042005,-.024817,
.042323,-.021181,
.042323,.021181,
.041998,.024855,
.04104,.028418,
.039478,.031759,
.037359,.034779,
.034749,.037385,
.031725,.039498,
.028381,.041053,
.024817,.042005,
.021181,.042323,
-.021181,.042323,
-.024855,.041998,
-.028418,.04104,
-.031759,.039478,
-.034779,.037359,
-.037385,.034749,
-.039498,.031725,
-.041053,.028381,
-.042005,.024817,
-.042323,.021181,
-.042323,-.021181,
-.041998,-.024855,
-.04104,-.028418,
-.039478,-.031759,
-.037359,-.034779,
-.034749,-.037385,
-.031725,-.039498,
-.028381,-.041053,
-.024817,-.042005,
-.021181,-.042323,
0.0,-.042323,
0.0*
%
%ADD72MACRO72*%
%AMMACRO25*
4,1,41,.013268,0.0,
.013268,.004331,
.013139,.005801,
.012757,.007226,
.012134,.008563,
.011287,.009772,
.010244,.010815,
.009035,.011661,
.007698,.012285,
.006273,.012667,
.004803,.012795,
-.004803,.012795,
-.006273,.012667,
-.007698,.012285,
-.009035,.011661,
-.010244,.010815,
-.011287,.009772,
-.012134,.008563,
-.012757,.007226,
-.013139,.005801,
-.013268,.004331,
-.013268,-.004331,
-.013139,-.005801,
-.012757,-.007226,
-.012134,-.008563,
-.011287,-.009772,
-.010244,-.010815,
-.009035,-.011661,
-.007698,-.012285,
-.006273,-.012667,
-.004803,-.012795,
.004803,-.012795,
.006273,-.012667,
.007698,-.012285,
.009035,-.011661,
.010244,-.010815,
.011287,-.009772,
.012134,-.008563,
.012757,-.007226,
.013139,-.005801,
.013268,-.004331,
.013268,0.0,
0.0*
%
%ADD25MACRO25*%
%AMMACRO11*
4,1,41,0.0,-.013268,
.004331,-.013268,
.005801,-.013139,
.007226,-.012757,
.008563,-.012134,
.009772,-.011287,
.010815,-.010244,
.011661,-.009035,
.012285,-.007698,
.012667,-.006273,
.012795,-.004803,
.012795,.004803,
.012667,.006273,
.012285,.007698,
.011661,.009035,
.010815,.010244,
.009772,.011287,
.008563,.012134,
.007226,.012757,
.005801,.013139,
.004331,.013268,
-.004331,.013268,
-.005801,.013139,
-.007226,.012757,
-.008563,.012134,
-.009772,.011287,
-.010815,.010244,
-.011661,.009035,
-.012285,.007698,
-.012667,.006273,
-.012795,.004803,
-.012795,-.004803,
-.012667,-.006273,
-.012285,-.007698,
-.011661,-.009035,
-.010815,-.010244,
-.009772,-.011287,
-.008563,-.012134,
-.007226,-.012757,
-.005801,-.013139,
-.004331,-.013268,
0.0,-.013268,
0.0*
%
%ADD11MACRO11*%
%AMMACRO78*
4,1,41,0.0,-.016732,
.003937,-.016732,
.004621,-.016672,
.005284,-.016495,
.005906,-.016205,
.006468,-.015811,
.006953,-.015326,
.007347,-.014764,
.007637,-.014142,
.007814,-.013479,
.007874,-.012795,
.007874,.012795,
.007814,.013479,
.007637,.014142,
.007347,.014764,
.006953,.015326,
.006468,.015811,
.005906,.016205,
.005284,.016495,
.004621,.016672,
.003937,.016732,
-.003937,.016732,
-.004621,.016672,
-.005284,.016495,
-.005906,.016205,
-.006468,.015811,
-.006953,.015326,
-.007347,.014764,
-.007637,.014142,
-.007814,.013479,
-.007874,.012795,
-.007874,-.012795,
-.007814,-.013479,
-.007637,-.014142,
-.007347,-.014764,
-.006953,-.015326,
-.006468,-.015811,
-.005906,-.016205,
-.005284,-.016495,
-.004621,-.016672,
-.003937,-.016732,
0.0,-.016732,
0.0*
%
%ADD78MACRO78*%
%ADD53O,.035433X.03937*%
%ADD95O,.027598X.086614*%
%ADD19C,.043307*%
%ADD27C,.047244*%
%AMMACRO75*
4,1,44,-.007362,.016732,
.007362,.016732,
.008644,.016624,
.009888,.016294,
.011056,.015753,
.012112,.015018,
.013024,.01411,
.013765,.013058,
.014312,.011894,
.014648,.010652,
.014764,.00937,
.014764,.00937,
.014764,-.00937,
.014648,-.010652,
.014312,-.011894,
.013765,-.013058,
.013024,-.01411,
.012112,-.015018,
.011056,-.015753,
.009888,-.016294,
.008644,-.016624,
.007362,-.016732,
.007362,-.016732,
-.007362,-.016732,
-.008644,-.016624,
-.009888,-.016294,
-.011056,-.015753,
-.012112,-.015018,
-.013024,-.01411,
-.013765,-.013058,
-.014312,-.011894,
-.014648,-.010652,
-.014764,-.00937,
-.014764,-.00937,
-.014764,.00937,
-.014648,.010652,
-.014312,.011894,
-.013765,.013058,
-.013024,.01411,
-.012112,.015018,
-.011056,.015753,
-.009888,.016294,
-.008644,.016624,
-.007362,.016732,
-.007362,.016732,
0.0*
%
%ADD75MACRO75*%
%ADD15C,.055906*%
%ADD96O,.066929X.029528*%
%ADD47C,.133898*%
%ADD29C,.070866*%
%AMMACRO49*
4,1,45,0.0,.021654,
-.008346,.021654,
-.010312,.021485,
-.012219,.020978,
-.014009,.020147,
-.015627,.019018,
-.017024,.017625,
-.018159,.016011,
-.018996,.014224,
-.01951,.01232,
-.019685,.010354,
-.019685,.010315,
-.019685,-.010315,
-.019516,-.012281,
-.019009,-.014187,
-.018178,-.015977,
-.01705,-.017595,
-.015657,-.018993,
-.014043,-.020127,
-.012256,-.020964,
-.010351,-.021478,
-.008386,-.021654,
-.008346,-.021654,
.008346,-.021654,
.010312,-.021485,
.012219,-.020978,
.014009,-.020147,
.015627,-.019018,
.017024,-.017625,
.018159,-.016011,
.018996,-.014224,
.01951,-.01232,
.019685,-.010354,
.019685,-.010315,
.019685,.010315,
.019516,.012281,
.019009,.014187,
.018178,.015977,
.01705,.017595,
.015657,.018993,
.014043,.020127,
.012256,.020964,
.010351,.021478,
.008386,.021654,
.008346,.021654,
0.0,.021654,
0.0*
%
%ADD49MACRO49*%
%ADD38O,.041299X.021693*%
%ADD85R,.072835X.017717*%
%ADD35R,.133858X.133858*%
%ADD80C,.076772*%
%ADD67R,.212598X.212598*%
%AMMACRO23*
4,1,41,.025591,0.0,
.025591,.001969,
.025531,.002652,
.025353,.003315,
.025063,.003937,
.024669,.004499,
.024184,.004984,
.023622,.005378,
.023,.005668,
.022337,.005846,
.021654,.005906,
-.021654,.005906,
-.022337,.005846,
-.023,.005668,
-.023622,.005378,
-.024184,.004984,
-.024669,.004499,
-.025063,.003937,
-.025353,.003315,
-.025531,.002652,
-.025591,.001969,
-.025591,-.001969,
-.025531,-.002652,
-.025353,-.003315,
-.025063,-.003937,
-.024669,-.004499,
-.024184,-.004984,
-.023622,-.005378,
-.023,-.005668,
-.022337,-.005846,
-.021654,-.005906,
.021654,-.005906,
.022337,-.005846,
.023,-.005668,
.023622,-.005378,
.024184,-.004984,
.024669,-.004499,
.025063,-.003937,
.025353,-.003315,
.025531,-.002652,
.025591,-.001969,
.025591,0.0,
0.0*
%
%ADD23MACRO23*%
%ADD10C,.155512*%
%AMMACRO50*
4,1,41,.019685,0.0,
.019685,.002953,
.01964,.003465,
.019507,.003963,
.019289,.004429,
.018994,.004851,
.01863,.005215,
.018209,.00551,
.017742,.005727,
.017245,.005861,
.016732,.005906,
-.016732,.005906,
-.017245,.005861,
-.017742,.005727,
-.018209,.00551,
-.01863,.005215,
-.018994,.004851,
-.019289,.004429,
-.019507,.003963,
-.01964,.003465,
-.019685,.002953,
-.019685,-.002953,
-.01964,-.003465,
-.019507,-.003963,
-.019289,-.004429,
-.018994,-.004851,
-.01863,-.005215,
-.018209,-.00551,
-.017742,-.005727,
-.017245,-.005861,
-.016732,-.005906,
.016732,-.005906,
.017245,-.005861,
.017742,-.005727,
.018209,-.00551,
.01863,-.005215,
.018994,-.004851,
.019289,-.004429,
.019507,-.003963,
.01964,-.003465,
.019685,-.002953,
.019685,0.0,
0.0*
%
%ADD50MACRO50*%
%AMMACRO30*
4,1,41,0.0,-.025591,
.001969,-.025591,
.002652,-.025531,
.003315,-.025353,
.003937,-.025063,
.004499,-.024669,
.004984,-.024184,
.005378,-.023622,
.005668,-.023,
.005846,-.022337,
.005906,-.021654,
.005906,.021654,
.005846,.022337,
.005668,.023,
.005378,.023622,
.004984,.024184,
.004499,.024669,
.003937,.025063,
.003315,.025353,
.002652,.025531,
.001969,.025591,
-.001969,.025591,
-.002652,.025531,
-.003315,.025353,
-.003937,.025063,
-.004499,.024669,
-.004984,.024184,
-.005378,.023622,
-.005668,.023,
-.005846,.022337,
-.005906,.021654,
-.005906,-.021654,
-.005846,-.022337,
-.005668,-.023,
-.005378,-.023622,
-.004984,-.024184,
-.004499,-.024669,
-.003937,-.025063,
-.003315,-.025353,
-.002652,-.025531,
-.001969,-.025591,
0.0,-.025591,
0.0*
%
%ADD30MACRO30*%
%AMMACRO13*
4,1,41,-.021654,0.0,
-.021654,-.008858,
-.021474,-.010909,
-.020941,-.012898,
-.020071,-.014764,
-.01889,-.01645,
-.017434,-.017906,
-.015748,-.019087,
-.013882,-.019957,
-.011893,-.02049,
-.009843,-.020669,
.009843,-.020669,
.011893,-.02049,
.013882,-.019957,
.015748,-.019087,
.017434,-.017906,
.01889,-.01645,
.020071,-.014764,
.020941,-.012898,
.021474,-.010909,
.021654,-.008858,
.021654,.008858,
.021474,.010909,
.020941,.012898,
.020071,.014764,
.01889,.01645,
.017434,.017906,
.015748,.019087,
.013882,.019957,
.011893,.02049,
.009843,.020669,
-.009843,.020669,
-.011893,.02049,
-.013882,.019957,
-.015748,.019087,
-.017434,.017906,
-.01889,.01645,
-.020071,.014764,
-.020941,.012898,
-.021474,.010909,
-.021654,.008858,
-.021654,0.0,
0.0*
%
%ADD13MACRO13*%
%AMMACRO88*
4,1,22,.017717,-.007874,
.017717,.007874,
-.01378,.007874,
-.014463,.007814,
-.015126,.007637,
-.015748,.007347,
-.01631,.006953,
-.016795,.006468,
-.017189,.005906,
-.017479,.005284,
-.017657,.004621,
-.017717,.003937,
-.017717,-.003937,
-.017657,-.004621,
-.017479,-.005284,
-.017189,-.005906,
-.016795,-.006468,
-.01631,-.006953,
-.015748,-.007347,
-.015126,-.007637,
-.014463,-.007814,
-.01378,-.007874,
.017717,-.007874,
0.0*
%
%ADD88MACRO88*%
%AMMACRO69*
4,1,41,0.0,.022638,
-.00937,.022638,
-.011506,.022447,
-.013577,.021889,
-.015519,.02098,
-.017274,.019747,
-.018788,.018228,
-.020015,.016469,
-.020918,.014524,
-.02147,.012452,
-.021654,.010315,
-.021654,-.010315,
-.02147,-.012452,
-.020918,-.014524,
-.020015,-.016469,
-.018788,-.018228,
-.017274,-.019747,
-.015519,-.02098,
-.013577,-.021889,
-.011506,-.022447,
-.00937,-.022638,
.00937,-.022638,
.011506,-.022447,
.013577,-.021889,
.015519,-.02098,
.017274,-.019747,
.018788,-.018228,
.020015,-.016469,
.020918,-.014524,
.02147,-.012452,
.021654,-.010315,
.021654,.010315,
.02147,.012452,
.020918,.014524,
.020015,.016469,
.018788,.018228,
.017274,.019747,
.015519,.02098,
.013577,.021889,
.011506,.022447,
.00937,.022638,
0.0,.022638,
0.0*
%
%ADD69MACRO69*%
%AMMACRO65*
4,1,41,.019685,0.0,
.019685,.002953,
.01961,.003807,
.019388,.004636,
.019026,.005413,
.018534,.006116,
.017927,.006723,
.017224,.007215,
.016447,.007577,
.015618,.007799,
.014764,.007874,
-.014764,.007874,
-.015618,.007799,
-.016447,.007577,
-.017224,.007215,
-.017927,.006723,
-.018534,.006116,
-.019026,.005413,
-.019388,.004636,
-.01961,.003807,
-.019685,.002953,
-.019685,-.002953,
-.01961,-.003807,
-.019388,-.004636,
-.019026,-.005413,
-.018534,-.006116,
-.017927,-.006723,
-.017224,-.007215,
-.016447,-.007577,
-.015618,-.007799,
-.014764,-.007874,
.014764,-.007874,
.015618,-.007799,
.016447,-.007577,
.017224,-.007215,
.017927,-.006723,
.018534,-.006116,
.019026,-.005413,
.019388,-.004636,
.01961,-.003807,
.019685,-.002953,
.019685,0.0,
0.0*
%
%ADD65MACRO65*%
%AMMACRO63*
4,1,44,-.022638,0.0,
-.022638,-.00937,
-.022447,-.011506,
-.021889,-.013577,
-.02098,-.015519,
-.019747,-.017274,
-.018228,-.018788,
-.016469,-.020015,
-.014524,-.020918,
-.012452,-.02147,
-.010315,-.021654,
-.010315,-.021654,
.010315,-.021654,
.012452,-.02147,
.014524,-.020918,
.016469,-.020015,
.018228,-.018788,
.019747,-.017274,
.02098,-.015519,
.021889,-.013577,
.022447,-.011506,
.022638,-.00937,
.022638,.00937,
.022447,.011506,
.021889,.013577,
.02098,.015519,
.019747,.017274,
.018228,.018788,
.016469,.020015,
.014524,.020918,
.012452,.02147,
.010315,.021654,
.010315,.021654,
-.010315,.021654,
-.012452,.02147,
-.014524,.020918,
-.016469,.020015,
-.018228,.018788,
-.019747,.017274,
-.02098,.015519,
-.021889,.013577,
-.022447,.011506,
-.022638,.00937,
-.022638,.00937,
-.022638,0.0,
0.0*
%
%ADD63MACRO63*%
%AMMACRO91*
4,1,41,-.031496,0.0,
-.031496,-.011339,
-.031276,-.013817,
-.030629,-.016219,
-.029574,-.018472,
-.028144,-.020508,
-.026383,-.022264,
-.024343,-.023688,
-.022087,-.024737,
-.019683,-.025377,
-.017244,-.025591,
.017244,-.025591,
.019722,-.02537,
.022124,-.024723,
.024377,-.023669,
.026413,-.022239,
.02817,-.020477,
.029594,-.018438,
.030642,-.016182,
.031283,-.013778,
.031496,-.011339,
.031496,.011339,
.031276,.013817,
.030629,.016219,
.029574,.018472,
.028144,.020508,
.026383,.022264,
.024343,.023688,
.022087,.024737,
.019683,.025377,
.017244,.025591,
-.017244,.025591,
-.019722,.02537,
-.022124,.024723,
-.024377,.023669,
-.026413,.022239,
-.02817,.020477,
-.029594,.018438,
-.030642,.016182,
-.031283,.013778,
-.031496,.011339,
-.031496,0.0,
0.0*
%
%ADD91MACRO91*%
%AMMACRO89*
4,1,22,-.007874,-.017717,
.007874,-.017717,
.007874,.01378,
.007814,.014463,
.007637,.015126,
.007347,.015748,
.006953,.01631,
.006468,.016795,
.005906,.017189,
.005284,.017479,
.004621,.017657,
.003937,.017717,
-.003937,.017717,
-.004621,.017657,
-.005284,.017479,
-.005906,.017189,
-.006468,.016795,
-.006953,.01631,
-.007347,.015748,
-.007637,.015126,
-.007814,.014463,
-.007874,.01378,
-.007874,-.017717,
0.0*
%
%ADD89MACRO89*%
%AMMACRO83*
4,1,41,0.0,.031496,
-.011339,.031496,
-.013817,.031276,
-.016219,.030629,
-.018472,.029574,
-.020508,.028144,
-.022264,.026383,
-.023688,.024343,
-.024737,.022087,
-.025377,.019683,
-.025591,.017244,
-.025591,-.017244,
-.02537,-.019722,
-.024723,-.022124,
-.023669,-.024377,
-.022239,-.026413,
-.020477,-.02817,
-.018438,-.029594,
-.016182,-.030642,
-.013778,-.031283,
-.011339,-.031496,
.011339,-.031496,
.013817,-.031276,
.016219,-.030629,
.018472,-.029574,
.020508,-.028144,
.022264,-.026383,
.023688,-.024343,
.024737,-.022087,
.025377,-.019683,
.025591,-.017244,
.025591,.017244,
.02537,.019722,
.024723,.022124,
.023669,.024377,
.022239,.026413,
.020477,.02817,
.018438,.029594,
.016182,.030642,
.013778,.031283,
.011339,.031496,
0.0,.031496,
0.0*
%
%ADD83MACRO83*%
%AMMACRO66*
4,1,41,0.0,-.019685,
.002953,-.019685,
.003807,-.01961,
.004636,-.019388,
.005413,-.019026,
.006116,-.018534,
.006723,-.017927,
.007215,-.017224,
.007577,-.016447,
.007799,-.015618,
.007874,-.014764,
.007874,.014764,
.007799,.015618,
.007577,.016447,
.007215,.017224,
.006723,.017927,
.006116,.018534,
.005413,.019026,
.004636,.019388,
.003807,.01961,
.002953,.019685,
-.002953,.019685,
-.003807,.01961,
-.004636,.019388,
-.005413,.019026,
-.006116,.018534,
-.006723,.017927,
-.007215,.017224,
-.007577,.016447,
-.007799,.015618,
-.007874,.014764,
-.007874,-.014764,
-.007799,-.015618,
-.007577,-.016447,
-.007215,-.017224,
-.006723,-.017927,
-.006116,-.018534,
-.005413,-.019026,
-.004636,-.019388,
-.003807,-.01961,
-.002953,-.019685,
0.0,-.019685,
0.0*
%
%ADD66MACRO66*%
%AMMACRO97*
4,1,41,0.0,-.021654,
.002953,-.021654,
.003807,-.021579,
.004636,-.021357,
.005413,-.020994,
.006116,-.020502,
.006723,-.019896,
.007215,-.019193,
.007577,-.018415,
.007799,-.017587,
.007874,-.016732,
.007874,.016732,
.007799,.017587,
.007577,.018415,
.007215,.019193,
.006723,.019896,
.006116,.020502,
.005413,.020994,
.004636,.021357,
.003807,.021579,
.002953,.021654,
-.002953,.021654,
-.003807,.021579,
-.004636,.021357,
-.005413,.020994,
-.006116,.020502,
-.006723,.019896,
-.007215,.019193,
-.007577,.018415,
-.007799,.017587,
-.007874,.016732,
-.007874,-.016732,
-.007799,-.017587,
-.007577,-.018415,
-.007215,-.019193,
-.006723,-.019896,
-.006116,-.020502,
-.005413,-.020994,
-.004636,-.021357,
-.003807,-.021579,
-.002953,-.021654,
0.0,-.021654,
0.0*
%
%ADD97MACRO97*%
%AMMACRO45*
4,1,41,-.015748,0.0,
-.015748,-.002953,
-.015673,-.003807,
-.015451,-.004636,
-.015089,-.005413,
-.014597,-.006116,
-.01399,-.006723,
-.013287,-.007215,
-.01251,-.007577,
-.011681,-.007799,
-.010827,-.007874,
.010827,-.007874,
.011681,-.007799,
.01251,-.007577,
.013287,-.007215,
.01399,-.006723,
.014597,-.006116,
.015089,-.005413,
.015451,-.004636,
.015673,-.003807,
.015748,-.002953,
.015748,.002953,
.015673,.003807,
.015451,.004636,
.015089,.005413,
.014597,.006116,
.01399,.006723,
.013287,.007215,
.01251,.007577,
.011681,.007799,
.010827,.007874,
-.010827,.007874,
-.011681,.007799,
-.01251,.007577,
-.013287,.007215,
-.01399,.006723,
-.014597,.006116,
-.015089,.005413,
-.015451,.004636,
-.015673,.003807,
-.015748,.002953,
-.015748,0.0,
0.0*
%
%ADD45MACRO45*%
%ADD21C,.072795*%
%AMMACRO34*
4,1,42,-.009843,0.0,
-.009843,-.003465,
-.009757,-.004404,
-.009509,-.005315,
-.009107,-.006169,
-.008563,-.00694,
-.007894,-.007604,
-.007119,-.008143,
-.006262,-.008539,
-.00535,-.008779,
-.004409,-.008858,
.004409,-.008858,
.00535,-.008779,
.006262,-.008539,
.007119,-.008143,
.007894,-.007604,
.008563,-.00694,
.009107,-.006169,
.009509,-.005315,
.009757,-.004404,
.009843,-.003465,
.009843,.003465,
.009757,.004404,
.009509,.005315,
.009107,.006169,
.008563,.00694,
.007894,.007604,
.007119,.008143,
.006262,.008539,
.00535,.008779,
.004409,.008858,
.004409,.008858,
-.004409,.008858,
-.00535,.008779,
-.006262,.008539,
-.007119,.008143,
-.007894,.007604,
-.008563,.00694,
-.009107,.006169,
-.009509,.005315,
-.009757,.004404,
-.009843,.003465,
-.009843,0.0,
0.0*
%
%ADD34MACRO34*%
%AMMACRO33*
4,1,41,0.0,.009843,
-.003465,.009843,
-.004404,.009757,
-.005315,.009509,
-.006169,.009107,
-.00694,.008563,
-.007604,.007894,
-.008143,.007119,
-.008539,.006262,
-.008779,.00535,
-.008858,.004409,
-.008858,-.004409,
-.008779,-.00535,
-.008539,-.006262,
-.008143,-.007119,
-.007604,-.007894,
-.00694,-.008563,
-.006169,-.009107,
-.005315,-.009509,
-.004404,-.009757,
-.003465,-.009843,
.003465,-.009843,
.004404,-.009757,
.005315,-.009509,
.006169,-.009107,
.00694,-.008563,
.007604,-.007894,
.008143,-.007119,
.008539,-.006262,
.008779,-.00535,
.008858,-.004409,
.008858,.004409,
.008779,.00535,
.008539,.006262,
.008143,.007119,
.007604,.007894,
.00694,.008563,
.006169,.009107,
.005315,.009509,
.004404,.009757,
.003465,.009843,
0.0,.009843,
0.0*
%
%ADD33MACRO33*%
%AMMACRO54*
4,1,41,0.0,.028543,
-.008858,.028543,
-.010909,.028364,
-.012898,.027831,
-.014764,.026961,
-.01645,.02578,
-.017906,.024324,
-.019087,.022638,
-.019957,.020772,
-.02049,.018783,
-.020669,.016732,
-.020669,-.016732,
-.02049,-.018783,
-.019957,-.020772,
-.019087,-.022638,
-.017906,-.024324,
-.01645,-.02578,
-.014764,-.026961,
-.012898,-.027831,
-.010909,-.028364,
-.008858,-.028543,
.008858,-.028543,
.010909,-.028364,
.012898,-.027831,
.014764,-.026961,
.01645,-.02578,
.017906,-.024324,
.019087,-.022638,
.019957,-.020772,
.02049,-.018783,
.020669,-.016732,
.020669,.016732,
.02049,.018783,
.019957,.020772,
.019087,.022638,
.017906,.024324,
.01645,.02578,
.014764,.026961,
.012898,.027831,
.010909,.028364,
.008858,.028543,
0.0,.028543,
0.0*
%
%ADD54MACRO54*%
%AMMACRO20*
4,1,41,-.028543,0.0,
-.028543,-.008858,
-.028364,-.010909,
-.027831,-.012898,
-.026961,-.014764,
-.02578,-.01645,
-.024324,-.017906,
-.022638,-.019087,
-.020772,-.019957,
-.018783,-.02049,
-.016732,-.020669,
.016732,-.020669,
.018783,-.02049,
.020772,-.019957,
.022638,-.019087,
.024324,-.017906,
.02578,-.01645,
.026961,-.014764,
.027831,-.012898,
.028364,-.010909,
.028543,-.008858,
.028543,.008858,
.028364,.010909,
.027831,.012898,
.026961,.014764,
.02578,.01645,
.024324,.017906,
.022638,.019087,
.020772,.019957,
.018783,.02049,
.016732,.020669,
-.016732,.020669,
-.018783,.02049,
-.020772,.019957,
-.022638,.019087,
-.024324,.017906,
-.02578,.01645,
-.026961,.014764,
-.027831,.012898,
-.028364,.010909,
-.028543,.008858,
-.028543,0.0,
0.0*
%
%ADD20MACRO20*%
%AMMACRO113*
4,1,41,-.017717,0.0,
-.017717,-.002953,
-.017672,-.003465,
-.017538,-.003963,
-.017321,-.004429,
-.017026,-.004851,
-.016662,-.005215,
-.01624,-.00551,
-.015774,-.005727,
-.015277,-.005861,
-.014764,-.005906,
.014764,-.005906,
.015277,-.005861,
.015774,-.005727,
.01624,-.00551,
.016662,-.005215,
.017026,-.004851,
.017321,-.004429,
.017538,-.003963,
.017672,-.003465,
.017717,-.002953,
.017717,.002953,
.017672,.003465,
.017538,.003963,
.017321,.004429,
.017026,.004851,
.016662,.005215,
.01624,.00551,
.015774,.005727,
.015277,.005861,
.014764,.005906,
-.014764,.005906,
-.015277,.005861,
-.015774,.005727,
-.01624,.00551,
-.016662,.005215,
-.017026,.004851,
-.017321,.004429,
-.017538,.003963,
-.017672,.003465,
-.017717,.002953,
-.017717,0.0,
0.0*
%
%ADD113MACRO113*%
%AMMACRO112*
4,1,41,0.0,.017717,
-.002953,.017717,
-.003465,.017672,
-.003963,.017538,
-.004429,.017321,
-.004851,.017026,
-.005215,.016662,
-.00551,.01624,
-.005727,.015774,
-.005861,.015277,
-.005906,.014764,
-.005906,-.014764,
-.005861,-.015277,
-.005727,-.015774,
-.00551,-.01624,
-.005215,-.016662,
-.004851,-.017026,
-.004429,-.017321,
-.003963,-.017538,
-.003465,-.017672,
-.002953,-.017717,
.002953,-.017717,
.003465,-.017672,
.003963,-.017538,
.004429,-.017321,
.004851,-.017026,
.005215,-.016662,
.00551,-.01624,
.005727,-.015774,
.005861,-.015277,
.005906,-.014764,
.005906,.014764,
.005861,.015277,
.005727,.015774,
.00551,.01624,
.005215,.016662,
.004851,.017026,
.004429,.017321,
.003963,.017538,
.003465,.017672,
.002953,.017717,
0.0,.017717,
0.0*
%
%ADD112MACRO112*%
%AMMACRO106*
4,1,41,0.0,.030512,
-.011339,.030512,
-.013304,.030336,
-.015209,.029822,
-.016995,.028986,
-.01861,.027851,
-.020002,.026453,
-.021131,.024835,
-.021962,.023046,
-.022469,.021139,
-.022638,.019213,
-.022638,-.019213,
-.022462,-.021178,
-.021948,-.023083,
-.021112,-.024869,
-.019977,-.026484,
-.018579,-.027876,
-.016961,-.029005,
-.015172,-.029836,
-.013265,-.030343,
-.011339,-.030512,
.011339,-.030512,
.013304,-.030336,
.015209,-.029822,
.016995,-.028986,
.01861,-.027851,
.020002,-.026453,
.021131,-.024835,
.021962,-.023046,
.022469,-.021139,
.022638,-.019213,
.022638,.019213,
.022462,.021178,
.021948,.023083,
.021112,.024869,
.019977,.026484,
.018579,.027876,
.016961,.029005,
.015172,.029836,
.013265,.030343,
.011339,.030512,
0.0,.030512,
0.0*
%
%ADD106MACRO106*%
%AMMACRO46*
4,1,41,-.030512,0.0,
-.030512,-.011339,
-.030336,-.013304,
-.029822,-.015209,
-.028986,-.016995,
-.027851,-.01861,
-.026453,-.020002,
-.024835,-.021131,
-.023046,-.021962,
-.021139,-.022469,
-.019213,-.022638,
.019213,-.022638,
.021178,-.022462,
.023083,-.021948,
.024869,-.021112,
.026484,-.019977,
.027876,-.018579,
.029005,-.016961,
.029836,-.015172,
.030343,-.013265,
.030512,-.011339,
.030512,.011339,
.030336,.013304,
.029822,.015209,
.028986,.016995,
.027851,.01861,
.026453,.020002,
.024835,.021131,
.023046,.021962,
.021139,.022469,
.019213,.022638,
-.019213,.022638,
-.021178,.022462,
-.023083,.021948,
-.024869,.021112,
-.026484,.019977,
-.027876,.018579,
-.029005,.016961,
-.029836,.015172,
-.030343,.013265,
-.030512,.011339,
-.030512,0.0,
0.0*
%
%ADD46MACRO46*%
%AMMACRO108*
4,1,20,-.050197,.035433,
.050197,.035433,
.050197,.016732,
.077756,.016732,
.077756,.002953,
.050197,.002953,
.050197,-.002953,
.077756,-.002953,
.077756,-.016732,
.050197,-.016732,
.050197,-.035433,
-.050197,-.035433,
-.050197,-.016732,
-.077756,-.016732,
-.077756,-.002953,
-.050197,-.002953,
-.050197,.002953,
-.077756,.002953,
-.077756,.016732,
-.050197,.016732,
-.050197,.035433,
0.0*
%
%ADD108MACRO108*%
%AMMACRO100*
4,1,41,.030512,0.0,
.030512,.002953,
.030437,.003807,
.030215,.004636,
.029852,.005413,
.02936,.006116,
.028754,.006723,
.028051,.007215,
.027274,.007577,
.026445,.007799,
.025591,.007874,
-.025591,.007874,
-.026445,.007799,
-.027274,.007577,
-.028051,.007215,
-.028754,.006723,
-.02936,.006116,
-.029852,.005413,
-.030215,.004636,
-.030437,.003807,
-.030512,.002953,
-.030512,-.002953,
-.030437,-.003807,
-.030215,-.004636,
-.029852,-.005413,
-.02936,-.006116,
-.028754,-.006723,
-.028051,-.007215,
-.027274,-.007577,
-.026445,-.007799,
-.025591,-.007874,
.025591,-.007874,
.026445,-.007799,
.027274,-.007577,
.028051,-.007215,
.028754,-.006723,
.02936,-.006116,
.029852,-.005413,
.030215,-.004636,
.030437,-.003807,
.030512,-.002953,
.030512,0.0,
0.0*
%
%ADD100MACRO100*%
%AMMACRO74*
4,1,43,-.056102,0.0,
-.056102,-.011339,
-.055882,-.013817,
-.055235,-.016219,
-.05418,-.018472,
-.052751,-.020508,
-.050989,-.022264,
-.048949,-.023688,
-.046693,-.024737,
-.04429,-.025377,
-.041811,-.025591,
.041811,-.025591,
.04429,-.025377,
.046693,-.024737,
.048949,-.023688,
.050989,-.022264,
.052751,-.020508,
.05418,-.018472,
.055235,-.016219,
.055882,-.013817,
.056102,-.011339,
.056102,.011339,
.055882,.013817,
.055235,.016219,
.05418,.018472,
.052751,.020508,
.050989,.022264,
.048949,.023688,
.046693,.024737,
.04429,.025377,
.041811,.025591,
.041811,.025591,
-.041811,.025591,
-.04429,.025377,
-.046693,.024737,
-.048949,.023688,
-.050989,.022264,
-.052751,.020508,
-.05418,.018472,
-.055235,.016219,
-.055882,.013817,
-.056102,.011339,
-.056102,.011339,
-.056102,0.0,
0.0*
%
%ADD74MACRO74*%
%AMMACRO51*
4,1,41,0.0,.014764,
-.001969,.014764,
-.002652,.014704,
-.003315,.014526,
-.003937,.014236,
-.004499,.013843,
-.004984,.013357,
-.005378,.012795,
-.005668,.012173,
-.005846,.01151,
-.005906,.010827,
-.005906,-.010827,
-.005846,-.01151,
-.005668,-.012173,
-.005378,-.012795,
-.004984,-.013357,
-.004499,-.013843,
-.003937,-.014236,
-.003315,-.014526,
-.002652,-.014704,
-.001969,-.014764,
.001969,-.014764,
.002652,-.014704,
.003315,-.014526,
.003937,-.014236,
.004499,-.013843,
.004984,-.013357,
.005378,-.012795,
.005668,-.012173,
.005846,-.01151,
.005906,-.010827,
.005906,.010827,
.005846,.01151,
.005668,.012173,
.005378,.012795,
.004984,.013357,
.004499,.013843,
.003937,.014236,
.003315,.014526,
.002652,.014704,
.001969,.014764,
0.0,.014764,
0.0*
%
%ADD51MACRO51*%
%AMMACRO101*
4,1,41,0.0,-.030512,
.002953,-.030512,
.003807,-.030437,
.004636,-.030215,
.005413,-.029852,
.006116,-.02936,
.006723,-.028754,
.007215,-.028051,
.007577,-.027274,
.007799,-.026445,
.007874,-.025591,
.007874,.025591,
.007799,.026445,
.007577,.027274,
.007215,.028051,
.006723,.028754,
.006116,.02936,
.005413,.029852,
.004636,.030215,
.003807,.030437,
.002953,.030512,
-.002953,.030512,
-.003807,.030437,
-.004636,.030215,
-.005413,.029852,
-.006116,.02936,
-.006723,.028754,
-.007215,.028051,
-.007577,.027274,
-.007799,.026445,
-.007874,.025591,
-.007874,-.025591,
-.007799,-.026445,
-.007577,-.027274,
-.007215,-.028051,
-.006723,-.028754,
-.006116,-.02936,
-.005413,-.029852,
-.004636,-.030215,
-.003807,-.030437,
-.002953,-.030512,
0.0,-.030512,
0.0*
%
%ADD101MACRO101*%
%AMMACRO22*
4,1,43,-.021654,0.0,
-.021654,-.010315,
-.0215,-.01211,
-.021037,-.013851,
-.020279,-.015485,
-.019248,-.016963,
-.017977,-.018239,
-.016503,-.019275,
-.014872,-.020039,
-.013133,-.020509,
-.011339,-.020669,
.011339,-.020669,
.013133,-.020509,
.014872,-.020039,
.016503,-.019275,
.017977,-.018239,
.019248,-.016963,
.020279,-.015485,
.021037,-.013851,
.0215,-.01211,
.021654,-.010315,
.021654,-.010315,
.021654,.010315,
.0215,.01211,
.021037,.013851,
.020279,.015485,
.019248,.016963,
.017977,.018239,
.016503,.019275,
.014872,.020039,
.013133,.020509,
.011339,.020669,
.011339,.020669,
-.011339,.020669,
-.013133,.020509,
-.014872,.020039,
-.016503,.019275,
-.017977,.018239,
-.019248,.016963,
-.020279,.015485,
-.021037,.013851,
-.0215,.01211,
-.021654,.010315,
-.021654,0.0,
0.0*
%
%ADD22MACRO22*%
%AMMACRO109*
4,1,45,0.0,.017717,
-.003465,.017717,
-.004062,.017661,
-.004642,.017502,
-.005184,.017245,
-.005674,.016898,
-.006096,.016471,
-.006438,.015977,
-.006689,.015431,
-.006841,.01485,
-.00689,.014252,
-.00689,.014252,
-.00689,-.014252,
-.006841,-.01485,
-.006689,-.015431,
-.006438,-.015977,
-.006096,-.016471,
-.005674,-.016898,
-.005184,-.017245,
-.004642,-.017502,
-.004062,-.017661,
-.003465,-.017717,
-.003465,-.017717,
.003465,-.017717,
.004062,-.017661,
.004642,-.017502,
.005184,-.017245,
.005674,-.016898,
.006096,-.016471,
.006438,-.015977,
.006689,-.015431,
.006841,-.01485,
.00689,-.014252,
.00689,-.014252,
.00689,.014252,
.006841,.01485,
.006689,.015431,
.006438,.015977,
.006096,.016471,
.005674,.016898,
.005184,.017245,
.004642,.017502,
.004062,.017661,
.003465,.017717,
.003465,.017717,
0.0,.017717,
0.0*
%
%ADD109MACRO109*%
%AMMACRO81*
4,1,45,-.022598,0.0,
-.022598,-.010787,
-.022448,-.012669,
-.021972,-.014495,
-.021187,-.016211,
-.020116,-.017765,
-.018791,-.019109,
-.017253,-.020203,
-.015549,-.021013,
-.013729,-.021515,
-.011851,-.021693,
-.011811,-.021693,
.011811,-.021693,
.01369,-.021522,
.015512,-.021027,
.017219,-.020223,
.018761,-.019135,
.020091,-.017795,
.021168,-.016246,
.021959,-.014532,
.022441,-.012708,
.022599,-.010827,
.022598,-.010787,
.022598,.010787,
.022448,.012669,
.021972,.014495,
.021187,.016211,
.020116,.017765,
.018791,.019109,
.017253,.020203,
.015549,.021013,
.013729,.021515,
.011851,.021693,
.011811,.021693,
-.011811,.021693,
-.01369,.021522,
-.015512,.021027,
-.017219,.020223,
-.018761,.019135,
-.020091,.017795,
-.021168,.016246,
-.021959,.014532,
-.022441,.012708,
-.022599,.010827,
-.022598,.010787,
-.022598,0.0,
0.0*
%
%ADD81MACRO81*%
%AMMACRO55*
4,1,45,0.0,.022598,
-.010787,.022598,
-.012669,.022448,
-.014495,.021972,
-.016211,.021187,
-.017765,.020116,
-.019109,.018791,
-.020203,.017253,
-.021013,.015549,
-.021515,.013729,
-.021693,.011851,
-.021693,.011811,
-.021693,-.011811,
-.021522,-.01369,
-.021027,-.015512,
-.020223,-.017219,
-.019135,-.018761,
-.017795,-.020091,
-.016246,-.021168,
-.014532,-.021959,
-.012708,-.022441,
-.010827,-.022599,
-.010787,-.022598,
.010787,-.022598,
.012669,-.022448,
.014495,-.021972,
.016211,-.021187,
.017765,-.020116,
.019109,-.018791,
.020203,-.017253,
.021013,-.015549,
.021515,-.013729,
.021693,-.011851,
.021693,-.011811,
.021693,.011811,
.021522,.01369,
.021027,.015512,
.020223,.017219,
.019135,.018761,
.017795,.020091,
.016246,.021168,
.014532,.021959,
.012708,.022441,
.010827,.022599,
.010787,.022598,
0.0,.022598,
0.0*
%
%ADD55MACRO55*%
%AMMACRO39*
4,1,42,0.0,-.029528,
.004409,-.029528,
.005521,-.029434,
.006599,-.029148,
.007611,-.02868,
.008526,-.028043,
.009317,-.027257,
.00996,-.026346,
.010434,-.025337,
.010726,-.02426,
.010827,-.02315,
.010827,.02315,
.010726,.02426,
.010434,.025337,
.00996,.026346,
.009317,.027257,
.008526,.028043,
.007611,.02868,
.006599,.029148,
.005521,.029434,
.004409,.029528,
-.004409,.029528,
-.005521,.029434,
-.006599,.029148,
-.007611,.02868,
-.008526,.028043,
-.009317,.027257,
-.00996,.026346,
-.010434,.025337,
-.010726,.02426,
-.010827,.02315,
-.010827,.02315,
-.010827,-.02315,
-.010726,-.02426,
-.010434,-.025337,
-.00996,-.026346,
-.009317,-.027257,
-.008526,-.028043,
-.007611,-.02868,
-.006599,-.029148,
-.005521,-.029434,
-.004409,-.029528,
0.0,-.029528,
0.0*
%
%ADD39MACRO39*%
%AMMACRO82*
4,1,45,.029528,0.0,
.029528,.007362,
.029419,.008644,
.029089,.009888,
.028548,.011056,
.027813,.012112,
.026906,.013024,
.025854,.013765,
.024689,.014312,
.023447,.014648,
.022165,.014764,
.022126,.014764,
-.022126,.014764,
-.023408,.014655,
-.024652,.014325,
-.02582,.013785,
-.026876,.013049,
-.027788,.012142,
-.028529,.01109,
-.029076,.009925,
-.029412,.008683,
-.029528,.007402,
-.029528,.007362,
-.029528,-.007362,
-.029419,-.008644,
-.029089,-.009888,
-.028548,-.011056,
-.027813,-.012112,
-.026906,-.013024,
-.025854,-.013765,
-.024689,-.014312,
-.023447,-.014648,
-.022165,-.014764,
-.022126,-.014764,
.022126,-.014764,
.023408,-.014655,
.024652,-.014325,
.02582,-.013785,
.026876,-.013049,
.027788,-.012142,
.028529,-.01109,
.029076,-.009925,
.029412,-.008683,
.029528,-.007402,
.029528,-.007362,
.029528,0.0,
0.0*
%
%ADD82MACRO82*%
%AMMACRO70*
4,1,41,0.0,.014764,
-.007283,.014764,
-.008548,.014653,
-.009775,.014325,
-.010925,.013788,
-.011965,.01306,
-.012863,.012162,
-.013591,.011122,
-.014128,.009971,
-.014456,.008745,
-.014567,.00748,
-.014567,-.00748,
-.014456,-.008745,
-.014128,-.009971,
-.013591,-.011122,
-.012863,-.012162,
-.011965,-.01306,
-.010925,-.013788,
-.009775,-.014325,
-.008548,-.014653,
-.007283,-.014764,
.007283,-.014764,
.008548,-.014653,
.009775,-.014325,
.010925,-.013788,
.011965,-.01306,
.012863,-.012162,
.013591,-.011122,
.014128,-.009971,
.014456,-.008745,
.014567,-.00748,
.014567,.00748,
.014456,.008745,
.014128,.009971,
.013591,.011122,
.012863,.012162,
.011965,.01306,
.010925,.013788,
.009775,.014325,
.008548,.014653,
.007283,.014764,
0.0,.014764,
0.0*
%
%ADD70MACRO70*%
%AMMACRO26*
4,1,41,-.014764,0.0,
-.014764,-.007283,
-.014653,-.008548,
-.014325,-.009775,
-.013788,-.010925,
-.01306,-.011965,
-.012162,-.012863,
-.011122,-.013591,
-.009971,-.014128,
-.008745,-.014456,
-.00748,-.014567,
.00748,-.014567,
.008745,-.014456,
.009971,-.014128,
.011122,-.013591,
.012162,-.012863,
.01306,-.011965,
.013788,-.010925,
.014325,-.009775,
.014653,-.008548,
.014764,-.007283,
.014764,.007283,
.014653,.008548,
.014325,.009775,
.013788,.010925,
.01306,.011965,
.012162,.012863,
.011122,.013591,
.009971,.014128,
.008745,.014456,
.00748,.014567,
-.00748,.014567,
-.008745,.014456,
-.009971,.014128,
-.011122,.013591,
-.012162,.012863,
-.01306,.011965,
-.013788,.010925,
-.014325,.009775,
-.014653,.008548,
-.014764,.007283,
-.014764,0.0,
0.0*
%
%ADD26MACRO26*%
%AMMACRO14*
4,1,41,-.030512,0.0,
-.030512,-.014016,
-.030327,-.016198,
-.029767,-.018314,
-.028847,-.020302,
-.027596,-.022099,
-.026052,-.023652,
-.024262,-.024913,
-.02228,-.025844,
-.020167,-.026417,
-.017992,-.026614,
.017992,-.026614,
.020173,-.026416,
.022286,-.025842,
.024268,-.02491,
.026057,-.023648,
.0276,-.022094,
.02885,-.020296,
.029769,-.018308,
.030328,-.016191,
.030512,-.014016,
.030512,.014016,
.030327,.016198,
.029767,.018314,
.028847,.020302,
.027596,.022099,
.026052,.023652,
.024262,.024913,
.02228,.025844,
.020167,.026417,
.017992,.026614,
-.017992,.026614,
-.020173,.026416,
-.022286,.025842,
-.024268,.02491,
-.026057,.023648,
-.0276,.022094,
-.02885,.020296,
-.029769,.018308,
-.030328,.016191,
-.030512,.014016,
-.030512,0.0,
0.0*
%
%ADD14MACRO14*%
%AMMACRO24*
4,1,41,-.013268,0.0,
-.013268,-.004331,
-.013139,-.005801,
-.012757,-.007226,
-.012134,-.008563,
-.011287,-.009772,
-.010244,-.010815,
-.009035,-.011661,
-.007698,-.012285,
-.006273,-.012667,
-.004803,-.012795,
.004803,-.012795,
.006273,-.012667,
.007698,-.012285,
.009035,-.011661,
.010244,-.010815,
.011287,-.009772,
.012134,-.008563,
.012757,-.007226,
.013139,-.005801,
.013268,-.004331,
.013268,.004331,
.013139,.005801,
.012757,.007226,
.012134,.008563,
.011287,.009772,
.010244,.010815,
.009035,.011661,
.007698,.012285,
.006273,.012667,
.004803,.012795,
-.004803,.012795,
-.006273,.012667,
-.007698,.012285,
-.009035,.011661,
-.010244,.010815,
-.011287,.009772,
-.012134,.008563,
-.012757,.007226,
-.013139,.005801,
-.013268,.004331,
-.013268,0.0,
0.0*
%
%ADD24MACRO24*%
%AMMACRO17*
4,1,45,.00937,.00937,
.006339,.012441,
.005202,.013383,
.003926,.014123,
.00254,.014631,
.001087,.01489,
-.000388,.014892,
-.001842,.014639,
-.003229,.014137,
-.004508,.013401,
-.00564,.012455,
-.005669,.012441,
-.012441,.005669,
-.013384,.004533,
-.014124,.003257,
-.014631,.001871,
-.01489,.000418,
-.014892,-.001057,
-.014639,-.002511,
-.014136,-.003898,
-.013401,-.005177,
-.012454,-.006309,
-.012441,-.006339,
-.006339,-.012441,
-.005202,-.013383,
-.003926,-.014123,
-.00254,-.014631,
-.001087,-.01489,
.000388,-.014892,
.001842,-.014639,
.003229,-.014137,
.004508,-.013401,
.00564,-.012455,
.005669,-.012441,
.012441,-.005669,
.013384,-.004533,
.014124,-.003257,
.014631,-.001871,
.01489,-.000418,
.014892,.001057,
.014639,.002511,
.014136,.003898,
.013401,.005177,
.012454,.006309,
.012441,.006339,
.00937,.00937,
0.0*
%
%ADD17MACRO17*%
%AMMACRO16*
4,1,45,-.00937,-.00937,
-.006339,-.012441,
-.005202,-.013383,
-.003926,-.014123,
-.00254,-.014631,
-.001087,-.01489,
.000388,-.014892,
.001842,-.014639,
.003229,-.014137,
.004508,-.013401,
.00564,-.012455,
.005669,-.012441,
.012441,-.005669,
.013384,-.004533,
.014124,-.003257,
.014631,-.001871,
.01489,-.000418,
.014892,.001057,
.014639,.002511,
.014136,.003898,
.013401,.005177,
.012454,.006309,
.012441,.006339,
.006339,.012441,
.005202,.013383,
.003926,.014123,
.00254,.014631,
.001087,.01489,
-.000388,.014892,
-.001842,.014639,
-.003229,.014137,
-.004508,.013401,
-.00564,.012455,
-.005669,.012441,
-.012441,.005669,
-.013384,.004533,
-.014124,.003257,
-.014631,.001871,
-.01489,.000418,
-.014892,-.001057,
-.014639,-.002511,
-.014136,-.003898,
-.013401,-.005177,
-.012454,-.006309,
-.012441,-.006339,
-.00937,-.00937,
0.0*
%
%ADD16MACRO16*%
%AMMACRO12*
4,1,41,0.0,.013268,
-.004331,.013268,
-.005801,.013139,
-.007226,.012757,
-.008563,.012134,
-.009772,.011287,
-.010815,.010244,
-.011661,.009035,
-.012285,.007698,
-.012667,.006273,
-.012795,.004803,
-.012795,-.004803,
-.012667,-.006273,
-.012285,-.007698,
-.011661,-.009035,
-.010815,-.010244,
-.009772,-.011287,
-.008563,-.012134,
-.007226,-.012757,
-.005801,-.013139,
-.004331,-.013268,
.004331,-.013268,
.005801,-.013139,
.007226,-.012757,
.008563,-.012134,
.009772,-.011287,
.010815,-.010244,
.011661,-.009035,
.012285,-.007698,
.012667,-.006273,
.012795,-.004803,
.012795,.004803,
.012667,.006273,
.012285,.007698,
.011661,.009035,
.010815,.010244,
.009772,.011287,
.008563,.012134,
.007226,.012757,
.005801,.013139,
.004331,.013268,
0.0,.013268,
0.0*
%
%ADD12MACRO12*%
%AMMACRO61*
4,1,41,-.016732,0.0,
-.016732,-.003937,
-.016672,-.004621,
-.016495,-.005284,
-.016205,-.005906,
-.015811,-.006468,
-.015326,-.006953,
-.014764,-.007347,
-.014142,-.007637,
-.013479,-.007814,
-.012795,-.007874,
.012795,-.007874,
.013479,-.007814,
.014142,-.007637,
.014764,-.007347,
.015326,-.006953,
.015811,-.006468,
.016205,-.005906,
.016495,-.005284,
.016672,-.004621,
.016732,-.003937,
.016732,.003937,
.016672,.004621,
.016495,.005284,
.016205,.005906,
.015811,.006468,
.015326,.006953,
.014764,.007347,
.014142,.007637,
.013479,.007814,
.012795,.007874,
-.012795,.007874,
-.013479,.007814,
-.014142,.007637,
-.014764,.007347,
-.015326,.006953,
-.015811,.006468,
-.016205,.005906,
-.016495,.005284,
-.016672,.004621,
-.016732,.003937,
-.016732,0.0,
0.0*
%
%ADD61MACRO61*%
%AMMACRO76*
4,1,41,-.017717,0.0,
-.017717,-.003937,
-.017642,-.004792,
-.01742,-.00562,
-.017057,-.006398,
-.016565,-.0071,
-.015959,-.007707,
-.015256,-.008199,
-.014478,-.008561,
-.01365,-.008784,
-.012795,-.008858,
.012795,-.008858,
.01365,-.008784,
.014478,-.008561,
.015256,-.008199,
.015959,-.007707,
.016565,-.0071,
.017057,-.006398,
.01742,-.00562,
.017642,-.004792,
.017717,-.003937,
.017717,.003937,
.017642,.004792,
.01742,.00562,
.017057,.006398,
.016565,.0071,
.015959,.007707,
.015256,.008199,
.014478,.008561,
.01365,.008784,
.012795,.008858,
-.012795,.008858,
-.01365,.008784,
-.014478,.008561,
-.015256,.008199,
-.015959,.007707,
-.016565,.0071,
-.017057,.006398,
-.01742,.00562,
-.017642,.004792,
-.017717,.003937,
-.017717,0.0,
0.0*
%
%ADD76MACRO76*%
%ADD37O,.061024X.088583*%
%ADD44R,.041339X.072835*%
%ADD79R,.104331X.070866*%
%ADD102O,.01378X.029528*%
%ADD62R,.070866X.104331*%
%AMMACRO90*
4,1,22,.007874,.017717,
-.007874,.017717,
-.007874,-.01378,
-.007814,-.014463,
-.007637,-.015126,
-.007347,-.015748,
-.006953,-.01631,
-.006468,-.016795,
-.005906,-.017189,
-.005284,-.017479,
-.004621,-.017657,
-.003937,-.017717,
.003937,-.017717,
.004621,-.017657,
.005284,-.017479,
.005906,-.017189,
.006468,-.016795,
.006953,-.01631,
.007347,-.015748,
.007637,-.015126,
.007814,-.014463,
.007874,-.01378,
.007874,.017717,
0.0*
%
%ADD90MACRO90*%
%AMMACRO87*
4,1,22,-.017717,.007874,
-.017717,-.007874,
.01378,-.007874,
.014463,-.007814,
.015126,-.007637,
.015748,-.007347,
.01631,-.006953,
.016795,-.006468,
.017189,-.005906,
.017479,-.005284,
.017657,-.004621,
.017717,-.003937,
.017717,.003937,
.017657,.004621,
.017479,.005284,
.017189,.005906,
.016795,.006468,
.01631,.006953,
.015748,.007347,
.015126,.007637,
.014463,.007814,
.01378,.007874,
-.017717,.007874,
0.0*
%
%ADD87MACRO87*%
%AMMACRO99*
4,1,41,0.0,.021654,
-.002953,.021654,
-.003807,.021579,
-.004636,.021357,
-.005413,.020994,
-.006116,.020502,
-.006723,.019896,
-.007215,.019193,
-.007577,.018415,
-.007799,.017587,
-.007874,.016732,
-.007874,-.016732,
-.007799,-.017587,
-.007577,-.018415,
-.007215,-.019193,
-.006723,-.019896,
-.006116,-.020502,
-.005413,-.020994,
-.004636,-.021357,
-.003807,-.021579,
-.002953,-.021654,
.002953,-.021654,
.003807,-.021579,
.004636,-.021357,
.005413,-.020994,
.006116,-.020502,
.006723,-.019896,
.007215,-.019193,
.007577,-.018415,
.007799,-.017587,
.007874,-.016732,
.007874,.016732,
.007799,.017587,
.007577,.018415,
.007215,.019193,
.006723,.019896,
.006116,.020502,
.005413,.020994,
.004636,.021357,
.003807,.021579,
.002953,.021654,
0.0,.021654,
0.0*
%
%ADD99MACRO99*%
%AMMACRO98*
4,1,41,-.021654,0.0,
-.021654,-.002953,
-.021579,-.003807,
-.021357,-.004636,
-.020994,-.005413,
-.020502,-.006116,
-.019896,-.006723,
-.019193,-.007215,
-.018415,-.007577,
-.017587,-.007799,
-.016732,-.007874,
.016732,-.007874,
.017587,-.007799,
.018415,-.007577,
.019193,-.007215,
.019896,-.006723,
.020502,-.006116,
.020994,-.005413,
.021357,-.004636,
.021579,-.003807,
.021654,-.002953,
.021654,.002953,
.021579,.003807,
.021357,.004636,
.020994,.005413,
.020502,.006116,
.019896,.006723,
.019193,.007215,
.018415,.007577,
.017587,.007799,
.016732,.007874,
-.016732,.007874,
-.017587,.007799,
-.018415,.007577,
-.019193,.007215,
-.019896,.006723,
-.020502,.006116,
-.020994,.005413,
-.021357,.004636,
-.021579,.003807,
-.021654,.002953,
-.021654,0.0,
0.0*
%
%ADD98MACRO98*%
%AMMACRO42*
4,1,41,.021654,0.0,
.021654,.008858,
.021474,.010909,
.020941,.012898,
.020071,.014764,
.01889,.01645,
.017434,.017906,
.015748,.019087,
.013882,.019957,
.011893,.02049,
.009843,.020669,
-.009843,.020669,
-.011893,.02049,
-.013882,.019957,
-.015748,.019087,
-.017434,.017906,
-.01889,.01645,
-.020071,.014764,
-.020941,.012898,
-.021474,.010909,
-.021654,.008858,
-.021654,-.008858,
-.021474,-.010909,
-.020941,-.012898,
-.020071,-.014764,
-.01889,-.01645,
-.017434,-.017906,
-.015748,-.019087,
-.013882,-.019957,
-.011893,-.02049,
-.009843,-.020669,
.009843,-.020669,
.011893,-.02049,
.013882,-.019957,
.015748,-.019087,
.017434,-.017906,
.01889,-.01645,
.020071,-.014764,
.020941,-.012898,
.021474,-.010909,
.021654,-.008858,
.021654,0.0,
0.0*
%
%ADD42MACRO42*%
%AMMACRO60*
4,1,44,.022638,0.0,
.022638,.00937,
.022447,.011506,
.021889,.013577,
.02098,.015519,
.019747,.017274,
.018228,.018788,
.016469,.020015,
.014524,.020918,
.012452,.02147,
.010315,.021654,
.010315,.021654,
-.010315,.021654,
-.012452,.02147,
-.014524,.020918,
-.016469,.020015,
-.018228,.018788,
-.019747,.017274,
-.02098,.015519,
-.021889,.013577,
-.022447,.011506,
-.022638,.00937,
-.022638,.00937,
-.022638,-.00937,
-.022447,-.011506,
-.021889,-.013577,
-.02098,-.015519,
-.019747,-.017274,
-.018228,-.018788,
-.016469,-.020015,
-.014524,-.020918,
-.012452,-.02147,
-.010315,-.021654,
-.010315,-.021654,
.010315,-.021654,
.012452,-.02147,
.014524,-.020918,
.016469,-.020015,
.018228,-.018788,
.019747,-.017274,
.02098,-.015519,
.021889,-.013577,
.022447,-.011506,
.022638,-.00937,
.022638,0.0,
0.0*
%
%ADD60MACRO60*%
%AMMACRO77*
4,1,41,0.0,-.022638,
.00937,-.022638,
.011506,-.022447,
.013577,-.021889,
.015519,-.02098,
.017274,-.019747,
.018788,-.018228,
.020015,-.016469,
.020918,-.014524,
.02147,-.012452,
.021654,-.010315,
.021654,.010315,
.02147,.012452,
.020918,.014524,
.020015,.016469,
.018788,.018228,
.017274,.019747,
.015519,.02098,
.013577,.021889,
.011506,.022447,
.00937,.022638,
-.00937,.022638,
-.011506,.022447,
-.013577,.021889,
-.015519,.02098,
-.017274,.019747,
-.018788,.018228,
-.020015,.016469,
-.020918,.014524,
-.02147,.012452,
-.021654,.010315,
-.021654,-.010315,
-.02147,-.012452,
-.020918,-.014524,
-.020015,-.016469,
-.018788,-.018228,
-.017274,-.019747,
-.015519,-.02098,
-.013577,-.021889,
-.011506,-.022447,
-.00937,-.022638,
0.0,-.022638,
0.0*
%
%ADD77MACRO77*%
%AMMACRO68*
4,1,41,.031496,0.0,
.031496,.011339,
.031276,.013817,
.030629,.016219,
.029574,.018472,
.028144,.020508,
.026383,.022264,
.024343,.023688,
.022087,.024737,
.019683,.025377,
.017244,.025591,
-.017244,.025591,
-.019722,.02537,
-.022124,.024723,
-.024377,.023669,
-.026413,.022239,
-.02817,.020477,
-.029594,.018438,
-.030642,.016182,
-.031283,.013778,
-.031496,.011339,
-.031496,-.011339,
-.031276,-.013817,
-.030629,-.016219,
-.029574,-.018472,
-.028144,-.020508,
-.026383,-.022264,
-.024343,-.023688,
-.022087,-.024737,
-.019683,-.025377,
-.017244,-.025591,
.017244,-.025591,
.019722,-.02537,
.022124,-.024723,
.024377,-.023669,
.026413,-.022239,
.02817,-.020477,
.029594,-.018438,
.030642,-.016182,
.031283,-.013778,
.031496,-.011339,
.031496,0.0,
0.0*
%
%ADD68MACRO68*%
%AMMACRO92*
4,1,41,0.0,-.031496,
.011339,-.031496,
.013817,-.031276,
.016219,-.030629,
.018472,-.029574,
.020508,-.028144,
.022264,-.026383,
.023688,-.024343,
.024737,-.022087,
.025377,-.019683,
.025591,-.017244,
.025591,.017244,
.02537,.019722,
.024723,.022124,
.023669,.024377,
.022239,.026413,
.020477,.02817,
.018438,.029594,
.016182,.030642,
.013778,.031283,
.011339,.031496,
-.011339,.031496,
-.013817,.031276,
-.016219,.030629,
-.018472,.029574,
-.020508,.028144,
-.022264,.026383,
-.023688,.024343,
-.024737,.022087,
-.025377,.019683,
-.025591,.017244,
-.025591,-.017244,
-.02537,-.019722,
-.024723,-.022124,
-.023669,-.024377,
-.022239,-.026413,
-.020477,-.02817,
-.018438,-.029594,
-.016182,-.030642,
-.013778,-.031283,
-.011339,-.031496,
0.0,-.031496,
0.0*
%
%ADD92MACRO92*%
%AMMACRO110*
4,1,20,.050197,-.035433,
-.050197,-.035433,
-.050197,-.016732,
-.077756,-.016732,
-.077756,-.002953,
-.050197,-.002953,
-.050197,.002953,
-.077756,.002953,
-.077756,.016732,
-.050197,.016732,
-.050197,.035433,
.050197,.035433,
.050197,.016732,
.077756,.016732,
.077756,.002953,
.050197,.002953,
.050197,-.002953,
.077756,-.002953,
.077756,-.016732,
.050197,-.016732,
.050197,-.035433,
0.0*
%
%ADD110MACRO110*%
%ADD32O,.037402X.015709*%
%AMMACRO64*
4,1,42,.009843,0.0,
.009843,.003465,
.009757,.004404,
.009509,.005315,
.009107,.006169,
.008563,.00694,
.007894,.007604,
.007119,.008143,
.006262,.008539,
.00535,.008779,
.004409,.008858,
.004409,.008858,
-.004409,.008858,
-.00535,.008779,
-.006262,.008539,
-.007119,.008143,
-.007894,.007604,
-.008563,.00694,
-.009107,.006169,
-.009509,.005315,
-.009757,.004404,
-.009843,.003465,
-.009843,-.003465,
-.009757,-.004404,
-.009509,-.005315,
-.009107,-.006169,
-.008563,-.00694,
-.007894,-.007604,
-.007119,-.008143,
-.006262,-.008539,
-.00535,-.008779,
-.004409,-.008858,
.004409,-.008858,
.00535,-.008779,
.006262,-.008539,
.007119,-.008143,
.007894,-.007604,
.008563,-.00694,
.009107,-.006169,
.009509,-.005315,
.009757,-.004404,
.009843,-.003465,
.009843,0.0,
0.0*
%
%ADD64MACRO64*%
%ADD31O,.015709X.037402*%
%AMMACRO107*
4,1,41,.028543,0.0,
.028543,.008858,
.028364,.010909,
.027831,.012898,
.026961,.014764,
.02578,.01645,
.024324,.017906,
.022638,.019087,
.020772,.019957,
.018783,.02049,
.016732,.020669,
-.016732,.020669,
-.018783,.02049,
-.020772,.019957,
-.022638,.019087,
-.024324,.017906,
-.02578,.01645,
-.026961,.014764,
-.027831,.012898,
-.028364,.010909,
-.028543,.008858,
-.028543,-.008858,
-.028364,-.010909,
-.027831,-.012898,
-.026961,-.014764,
-.02578,-.01645,
-.024324,-.017906,
-.022638,-.019087,
-.020772,-.019957,
-.018783,-.02049,
-.016732,-.020669,
.016732,-.020669,
.018783,-.02049,
.020772,-.019957,
.022638,-.019087,
.024324,-.017906,
.02578,-.01645,
.026961,-.014764,
.027831,-.012898,
.028364,-.010909,
.028543,-.008858,
.028543,0.0,
0.0*
%
%ADD107MACRO107*%
%AMMACRO36*
4,1,42,0.0,-.043307,
.014252,-.043307,
.017072,-.043064,
.019808,-.042334,
.022375,-.041141,
.024696,-.03952,
.0267,-.037521,
.028326,-.035204,
.029526,-.03264,
.030262,-.029906,
.030512,-.027087,
.030512,.027087,
.030262,.029906,
.029526,.03264,
.028326,.035204,
.0267,.037521,
.024696,.03952,
.022375,.041141,
.019808,.042334,
.017072,.043064,
.014252,.043307,
.014252,.043307,
-.014252,.043307,
-.017072,.043064,
-.019808,.042334,
-.022375,.041141,
-.024696,.03952,
-.0267,.037521,
-.028326,.035204,
-.029526,.03264,
-.030262,.029906,
-.030512,.027087,
-.030512,-.027087,
-.030262,-.029906,
-.029526,-.03264,
-.028326,-.035204,
-.0267,-.037521,
-.024696,-.03952,
-.022375,-.041141,
-.019808,-.042334,
-.017072,-.043064,
-.014252,-.043307,
0.0,-.043307,
0.0*
%
%ADD36MACRO36*%
%AMMACRO28*
4,1,41,0.0,-.009843,
.003465,-.009843,
.004404,-.009757,
.005315,-.009509,
.006169,-.009107,
.00694,-.008563,
.007604,-.007894,
.008143,-.007119,
.008539,-.006262,
.008779,-.00535,
.008858,-.004409,
.008858,.004409,
.008779,.00535,
.008539,.006262,
.008143,.007119,
.007604,.007894,
.00694,.008563,
.006169,.009107,
.005315,.009509,
.004404,.009757,
.003465,.009843,
-.003465,.009843,
-.004404,.009757,
-.005315,.009509,
-.006169,.009107,
-.00694,.008563,
-.007604,.007894,
-.008143,.007119,
-.008539,.006262,
-.008779,.00535,
-.008858,.004409,
-.008858,-.004409,
-.008779,-.00535,
-.008539,-.006262,
-.008143,-.007119,
-.007604,-.007894,
-.00694,-.008563,
-.006169,-.009107,
-.005315,-.009509,
-.004404,-.009757,
-.003465,-.009843,
0.0,-.009843,
0.0*
%
%ADD28MACRO28*%
%AMMACRO105*
4,1,41,0.0,.031496,
-.005433,.031496,
-.006373,.03141,
-.007283,.031163,
-.008137,.030761,
-.008908,.030217,
-.009573,.029547,
-.010111,.028772,
-.010507,.027916,
-.010748,.027003,
-.010827,.026102,
-.010827,-.026102,
-.010741,-.027042,
-.010494,-.027953,
-.010092,-.028806,
-.009548,-.029577,
-.008878,-.030242,
-.008103,-.030781,
-.007246,-.031176,
-.006334,-.031417,
-.005433,-.031496,
.005433,-.031496,
.006373,-.03141,
.007283,-.031163,
.008137,-.030761,
.008908,-.030217,
.009573,-.029547,
.010111,-.028772,
.010507,-.027916,
.010748,-.027003,
.010827,-.026102,
.010827,.026102,
.010741,.027042,
.010494,.027953,
.010092,.028806,
.009548,.029577,
.008878,.030242,
.008103,.030781,
.007246,.031176,
.006334,.031417,
.005433,.031496,
0.0,.031496,
0.0*
%
%ADD105MACRO105*%
%AMMACRO84*
4,1,45,-.029528,0.0,
-.029528,-.007362,
-.029419,-.008644,
-.029089,-.009888,
-.028548,-.011056,
-.027813,-.012112,
-.026906,-.013024,
-.025854,-.013765,
-.024689,-.014312,
-.023447,-.014648,
-.022165,-.014764,
-.022126,-.014764,
.022126,-.014764,
.023408,-.014655,
.024652,-.014325,
.02582,-.013785,
.026876,-.013049,
.027788,-.012142,
.028529,-.01109,
.029076,-.009925,
.029412,-.008683,
.029528,-.007402,
.029528,-.007362,
.029528,.007362,
.029419,.008644,
.029089,.009888,
.028548,.011056,
.027813,.012112,
.026906,.013024,
.025854,.013765,
.024689,.014312,
.023447,.014648,
.022165,.014764,
.022126,.014764,
-.022126,.014764,
-.023408,.014655,
-.024652,.014325,
-.02582,.013785,
-.026876,.013049,
-.027788,.012142,
-.028529,.01109,
-.029076,.009925,
-.029412,.008683,
-.029528,.007402,
-.029528,.007362,
-.029528,0.0,
0.0*
%
%ADD84MACRO84*%
%AMMACRO58*
4,1,45,0.0,.029528,
-.007362,.029528,
-.008644,.029419,
-.009888,.029089,
-.011056,.028548,
-.012112,.027813,
-.013024,.026906,
-.013765,.025854,
-.014312,.024689,
-.014648,.023447,
-.014764,.022165,
-.014764,.022126,
-.014764,-.022126,
-.014655,-.023408,
-.014325,-.024652,
-.013785,-.02582,
-.013049,-.026876,
-.012142,-.027788,
-.01109,-.028529,
-.009925,-.029076,
-.008683,-.029412,
-.007402,-.029528,
-.007362,-.029528,
.007362,-.029528,
.008644,-.029419,
.009888,-.029089,
.011056,-.028548,
.012112,-.027813,
.013024,-.026906,
.013765,-.025854,
.014312,-.024689,
.014648,-.023447,
.014764,-.022165,
.014764,-.022126,
.014764,.022126,
.014655,.023408,
.014325,.024652,
.013785,.02582,
.013049,.026876,
.012142,.027788,
.01109,.028529,
.009925,.029076,
.008683,.029412,
.007402,.029528,
.007362,.029528,
0.0,.029528,
0.0*
%
%ADD58MACRO58*%
%AMMACRO103*
4,1,45,0.0,.026575,
-.004409,.026575,
-.005521,.026481,
-.006599,.026196,
-.007611,.025728,
-.008526,.025091,
-.009317,.024305,
-.00996,.023393,
-.010434,.022384,
-.010726,.021307,
-.010827,.020197,
-.010827,.020157,
-.010827,-.020157,
-.010733,-.021269,
-.010448,-.022347,
-.009979,-.023359,
-.009343,-.024274,
-.008557,-.025065,
-.007645,-.025708,
-.006636,-.026182,
-.005559,-.026474,
-.004449,-.026575,
-.004409,-.026575,
.004409,-.026575,
.005521,-.026481,
.006599,-.026196,
.007611,-.025728,
.008526,-.025091,
.009317,-.024305,
.00996,-.023393,
.010434,-.022384,
.010726,-.021307,
.010827,-.020197,
.010827,-.020157,
.010827,.020157,
.010733,.021269,
.010448,.022347,
.009979,.023359,
.009343,.024274,
.008557,.025065,
.007645,.025708,
.006636,.026182,
.005559,.026474,
.004449,.026575,
.004409,.026575,
0.0,.026575,
0.0*
%
%ADD103MACRO103*%
%AMMACRO41*
4,1,41,0.0,-.040354,
.01378,-.040354,
.016685,-.0401,
.019502,-.039345,
.022146,-.038113,
.024535,-.03644,
.026597,-.034377,
.02827,-.031988,
.029503,-.029345,
.030258,-.026528,
.030512,-.023622,
.030512,.023622,
.030258,.026528,
.029503,.029345,
.02827,.031988,
.026597,.034377,
.024535,.03644,
.022146,.038113,
.019502,.039345,
.016685,.0401,
.01378,.040354,
-.01378,.040354,
-.016685,.0401,
-.019502,.039345,
-.022146,.038113,
-.024535,.03644,
-.026597,.034377,
-.02827,.031988,
-.029503,.029345,
-.030258,.026528,
-.030512,.023622,
-.030512,-.023622,
-.030258,-.026528,
-.029503,-.029345,
-.02827,-.031988,
-.026597,-.034377,
-.024535,-.03644,
-.022146,-.038113,
-.019502,-.039345,
-.016685,-.0401,
-.01378,-.040354,
0.0,-.040354,
0.0*
%
%ADD41MACRO41*%
%AMMACRO18*
4,1,41,0.0,-.030512,
.011339,-.030512,
.013304,-.030336,
.015209,-.029822,
.016995,-.028986,
.01861,-.027851,
.020002,-.026453,
.021131,-.024835,
.021962,-.023046,
.022469,-.021139,
.022638,-.019213,
.022638,.019213,
.022462,.021178,
.021948,.023083,
.021112,.024869,
.019977,.026484,
.018579,.027876,
.016961,.029005,
.015172,.029836,
.013265,.030343,
.011339,.030512,
-.011339,.030512,
-.013304,.030336,
-.015209,.029822,
-.016995,.028986,
-.01861,.027851,
-.020002,.026453,
-.021131,.024835,
-.021962,.023046,
-.022469,.021139,
-.022638,.019213,
-.022638,-.019213,
-.022462,-.021178,
-.021948,-.023083,
-.021112,-.024869,
-.019977,-.026484,
-.018579,-.027876,
-.016961,-.029005,
-.015172,-.029836,
-.013265,-.030343,
-.011339,-.030512,
0.0,-.030512,
0.0*
%
%ADD18MACRO18*%
%AMMACRO114*
4,1,43,.038386,0.0,
.038386,.011339,
.038166,.013817,
.037518,.016219,
.036464,.018472,
.035034,.020508,
.033273,.022264,
.031233,.023688,
.028977,.024737,
.026573,.025377,
.024094,.025591,
.024094,.025591,
-.024094,.025591,
-.026573,.025377,
-.028977,.024737,
-.031233,.023688,
-.033273,.022264,
-.035034,.020508,
-.036464,.018472,
-.037518,.016219,
-.038166,.013817,
-.038386,.011339,
-.038386,.011339,
-.038386,-.011339,
-.038166,-.013817,
-.037518,-.016219,
-.036464,-.018472,
-.035034,-.020508,
-.033273,-.022264,
-.031233,-.023688,
-.028977,-.024737,
-.026573,-.025377,
-.024094,-.025591,
.024094,-.025591,
.026573,-.025377,
.028977,-.024737,
.031233,-.023688,
.033273,-.022264,
.035034,-.020508,
.036464,-.018472,
.037518,-.016219,
.038166,-.013817,
.038386,-.011339,
.038386,0.0,
0.0*
%
%ADD114MACRO114*%
%AMMACRO86*
4,1,41,0.0,-.010827,
.002953,-.010827,
.003807,-.010752,
.004636,-.01053,
.005413,-.010167,
.006116,-.009675,
.006723,-.009069,
.007215,-.008366,
.007577,-.007589,
.007799,-.00676,
.007874,-.005906,
.007874,.005906,
.007799,.00676,
.007577,.007589,
.007215,.008366,
.006723,.009069,
.006116,.009675,
.005413,.010167,
.004636,.01053,
.003807,.010752,
.002953,.010827,
-.002953,.010827,
-.003807,.010752,
-.004636,.01053,
-.005413,.010167,
-.006116,.009675,
-.006723,.009069,
-.007215,.008366,
-.007577,.007589,
-.007799,.00676,
-.007874,.005906,
-.007874,-.005906,
-.007799,-.00676,
-.007577,-.007589,
-.007215,-.008366,
-.006723,-.009069,
-.006116,-.009675,
-.005413,-.010167,
-.004636,-.01053,
-.003807,-.010752,
-.002953,-.010827,
0.0,-.010827,
0.0*
%
%ADD86MACRO86*%
%AMMACRO52*
4,1,41,.014764,0.0,
.014764,.001969,
.014704,.002652,
.014526,.003315,
.014236,.003937,
.013843,.004499,
.013357,.004984,
.012795,.005378,
.012173,.005668,
.01151,.005846,
.010827,.005906,
-.010827,.005906,
-.01151,.005846,
-.012173,.005668,
-.012795,.005378,
-.013357,.004984,
-.013843,.004499,
-.014236,.003937,
-.014526,.003315,
-.014704,.002652,
-.014764,.001969,
-.014764,-.001969,
-.014704,-.002652,
-.014526,-.003315,
-.014236,-.003937,
-.013843,-.004499,
-.013357,-.004984,
-.012795,-.005378,
-.012173,-.005668,
-.01151,-.005846,
-.010827,-.005906,
.010827,-.005906,
.01151,-.005846,
.012173,-.005668,
.012795,-.005378,
.013357,-.004984,
.013843,-.004499,
.014236,-.003937,
.014526,-.003315,
.014704,-.002652,
.014764,-.001969,
.014764,0.0,
0.0*
%
%ADD52MACRO52*%
%AMMACRO93*
4,1,41,.030512,0.0,
.030512,.011811,
.030288,.014375,
.029621,.016861,
.028534,.019193,
.027058,.021301,
.025238,.023121,
.02313,.024597,
.020798,.025684,
.018312,.026351,
.015748,.026575,
-.015748,.026575,
-.018312,.026351,
-.020798,.025684,
-.02313,.024597,
-.025238,.023121,
-.027058,.021301,
-.028534,.019193,
-.029621,.016861,
-.030288,.014375,
-.030512,.011811,
-.030512,-.011811,
-.030288,-.014375,
-.029621,-.016861,
-.028534,-.019193,
-.027058,-.021301,
-.025238,-.023121,
-.02313,-.024597,
-.020798,-.025684,
-.018312,-.026351,
-.015748,-.026575,
.015748,-.026575,
.018312,-.026351,
.020798,-.025684,
.02313,-.024597,
.025238,-.023121,
.027058,-.021301,
.028534,-.019193,
.029621,-.016861,
.030288,-.014375,
.030512,-.011811,
.030512,0.0,
0.0*
%
%ADD93MACRO93*%
%AMMACRO48*
4,1,43,.021654,0.0,
.021654,.010315,
.0215,.01211,
.021037,.013851,
.020279,.015485,
.019248,.016963,
.017977,.018239,
.016503,.019275,
.014872,.020039,
.013133,.020509,
.011339,.020669,
.011339,.020669,
-.011339,.020669,
-.013133,.020509,
-.014872,.020039,
-.016503,.019275,
-.017977,.018239,
-.019248,.016963,
-.020279,.015485,
-.021037,.013851,
-.0215,.01211,
-.021654,.010315,
-.021654,-.010315,
-.0215,-.01211,
-.021037,-.013851,
-.020279,-.015485,
-.019248,-.016963,
-.017977,-.018239,
-.016503,-.019275,
-.014872,-.020039,
-.013133,-.020509,
-.011339,-.020669,
.011339,-.020669,
.013133,-.020509,
.014872,-.020039,
.016503,-.019275,
.017977,-.018239,
.019248,-.016963,
.020279,-.015485,
.021037,-.013851,
.0215,-.01211,
.021654,-.010315,
.021654,-.010315,
.021654,0.0,
0.0*
%
%ADD48MACRO48*%
%AMMACRO104*
4,1,41,.097441,0.0,
.097441,.011339,
.097221,.013817,
.096574,.016219,
.095519,.018472,
.094089,.020508,
.092328,.022264,
.090288,.023688,
.088032,.024737,
.085628,.025377,
.08315,.025591,
-.08315,.025591,
-.085628,.025377,
-.088032,.024737,
-.090288,.023688,
-.092328,.022264,
-.094089,.020508,
-.095519,.018472,
-.096574,.016219,
-.097221,.013817,
-.097441,.011339,
-.097441,-.011339,
-.097221,-.013817,
-.096574,-.016219,
-.095519,-.018472,
-.094089,-.020508,
-.092328,-.022264,
-.090288,-.023688,
-.088032,-.024737,
-.085628,-.025377,
-.08315,-.025591,
.08315,-.025591,
.085628,-.025377,
.088032,-.024737,
.090288,-.023688,
.092328,-.022264,
.094089,-.020508,
.095519,-.018472,
.096574,-.016219,
.097221,-.013817,
.097441,-.011339,
.097441,0.0,
0.0*
%
%ADD104MACRO104*%
%AMMACRO94*
4,1,45,.022598,0.0,
.022598,.010787,
.022448,.012669,
.021972,.014495,
.021187,.016211,
.020116,.017765,
.018791,.019109,
.017253,.020203,
.015549,.021013,
.013729,.021515,
.011851,.021693,
.011811,.021693,
-.011811,.021693,
-.01369,.021522,
-.015512,.021027,
-.017219,.020223,
-.018761,.019135,
-.020091,.017795,
-.021168,.016246,
-.021959,.014532,
-.022441,.012708,
-.022599,.010827,
-.022598,.010787,
-.022598,-.010787,
-.022448,-.012669,
-.021972,-.014495,
-.021187,-.016211,
-.020116,-.017765,
-.018791,-.019109,
-.017253,-.020203,
-.015549,-.021013,
-.013729,-.021515,
-.011851,-.021693,
-.011811,-.021693,
.011811,-.021693,
.01369,-.021522,
.015512,-.021027,
.017219,-.020223,
.018761,-.019135,
.020091,-.017795,
.021168,-.016246,
.021959,-.014532,
.022441,-.012708,
.022599,-.010827,
.022598,-.010787,
.022598,0.0,
0.0*
%
%ADD94MACRO94*%
%AMMACRO111*
4,1,45,0.0,-.017717,
.003465,-.017717,
.004062,-.017661,
.004642,-.017502,
.005184,-.017245,
.005674,-.016898,
.006096,-.016471,
.006438,-.015977,
.006689,-.015431,
.006841,-.01485,
.00689,-.014252,
.00689,-.014252,
.00689,.014252,
.006841,.01485,
.006689,.015431,
.006438,.015977,
.006096,.016471,
.005674,.016898,
.005184,.017245,
.004642,.017502,
.004062,.017661,
.003465,.017717,
.003465,.017717,
-.003465,.017717,
-.004062,.017661,
-.004642,.017502,
-.005184,.017245,
-.005674,.016898,
-.006096,.016471,
-.006438,.015977,
-.006689,.015431,
-.006841,.01485,
-.00689,.014252,
-.00689,.014252,
-.00689,-.014252,
-.006841,-.01485,
-.006689,-.015431,
-.006438,-.015977,
-.006096,-.016471,
-.005674,-.016898,
-.005184,-.017245,
-.004642,-.017502,
-.004062,-.017661,
-.003465,-.017717,
-.003465,-.017717,
0.0,-.017717,
0.0*
%
%ADD111MACRO111*%
%AMMACRO73*
4,1,41,.038386,0.0,
.038386,.009843,
.038191,.012064,
.037614,.014219,
.036672,.01624,
.035392,.018067,
.033815,.019644,
.031988,.020924,
.029967,.021866,
.027812,.022443,
.025591,.022638,
-.025591,.022638,
-.027812,.022443,
-.029967,.021866,
-.031988,.020924,
-.033815,.019644,
-.035392,.018067,
-.036672,.01624,
-.037614,.014219,
-.038191,.012064,
-.038386,.009843,
-.038386,-.009843,
-.038191,-.012064,
-.037614,-.014219,
-.036672,-.01624,
-.035392,-.018067,
-.033815,-.019644,
-.031988,-.020924,
-.029967,-.021866,
-.027812,-.022443,
-.025591,-.022638,
.025591,-.022638,
.027812,-.022443,
.029967,-.021866,
.031988,-.020924,
.033815,-.019644,
.035392,-.018067,
.036672,-.01624,
.037614,-.014219,
.038191,-.012064,
.038386,-.009843,
.038386,0.0,
0.0*
%
%ADD73MACRO73*%
%ADD115C,.003898*%
%ADD116C,.003937*%
G75*
%LPD*%
G75*
G36*
G01X790480Y1004331D02*
X789370Y1009220D01*
X789374Y1024016D01*
X824803D01*
Y1004331D01*
X790480D01*
G37*
G54D100*
X950000Y1113780D03*
Y1115748D03*
Y1117717D03*
Y1119685D03*
Y1121654D03*
Y1123622D03*
Y1125591D03*
Y1127559D03*
X975197Y1113780D03*
Y1127559D03*
Y1125591D03*
Y1123622D03*
Y1121654D03*
Y1119685D03*
Y1117717D03*
Y1115748D03*
G54D110*
X1001181Y1069370D03*
G54D101*
X959646Y1108071D03*
X957677D03*
X955709D03*
Y1133268D03*
X957677D03*
X959646D03*
X969488Y1108071D03*
X967520D03*
X965551D03*
X963583D03*
X961614D03*
Y1133268D03*
X963583D03*
X965551D03*
X967520D03*
X969488D03*
G54D111*
X1005118Y1063583D03*
X1003150D03*
X1001181D03*
X999213D03*
X997244D03*
Y1075157D03*
X999213D03*
X1001181D03*
X1003150D03*
X1005118D03*
G54D102*
X955709Y1147047D03*
X957677D03*
X959646D03*
X955709Y1158465D03*
X957677D03*
X959646D03*
X961614Y1147047D03*
Y1158465D03*
G54D103*
X980906Y1031024D03*
X986024D03*
X980906Y1038583D03*
X983465D03*
X986024D03*
G54D112*
X1005315Y1081693D03*
X1003740D03*
X1002165D03*
X1000591D03*
X999016D03*
Y1089173D03*
X1000591D03*
X1002165D03*
X1003740D03*
X1005315D03*
G54D10*
X797244Y797244D03*
Y1152362D03*
X1007087Y797244D03*
Y1152362D03*
G54D104*
X1000000Y1044291D03*
Y1055709D03*
G54D113*
X1005906Y1086220D03*
Y1084646D03*
X998425D03*
Y1086220D03*
G54D20*
X804134Y979232D03*
Y995768D03*
G54D11*
X791339Y1043504D03*
X796457D03*
Y1072535D03*
X796654Y1087402D03*
X807087Y1127953D03*
X822441Y1033465D03*
X819291Y1031496D03*
X815945D03*
X810039Y1151669D03*
X852913Y851669D03*
X843504Y1114661D03*
X848031Y1121354D03*
X862756Y851669D03*
X868701Y1034740D03*
Y1027953D03*
X868898Y1073228D03*
X862402Y1103638D03*
X869291D03*
X865945D03*
X865354Y1119685D03*
X859055Y1140748D03*
X862402Y1137299D03*
X881890Y933559D03*
X883858Y1027953D03*
Y1034740D03*
X877362Y1064173D03*
X871260Y1055512D03*
X872835Y1073228D03*
X877559Y1140252D03*
X885433Y933559D03*
X893701Y939465D03*
X899606Y1027953D03*
Y1034740D03*
X893110Y1060528D03*
X886614Y1096551D03*
X894291Y1113386D03*
X906496Y1122929D03*
X930709Y881496D03*
X917717Y882575D03*
Y889173D03*
X929134Y888386D03*
X922047Y931197D03*
X926772Y1051669D03*
X925197Y1068008D03*
X925000Y1079425D03*
X917913Y1083268D03*
X921457Y1079331D03*
X921063Y1095079D03*
X923031Y1122142D03*
X923228Y1134252D03*
X926181Y1134346D03*
X930512Y1155512D03*
X940157Y1094882D03*
X941142Y1126575D03*
X940354Y1119291D03*
X944882Y1117417D03*
X944685Y1127260D03*
Y1135724D03*
X947835Y1047732D03*
X947441Y1056197D03*
Y1063386D03*
X950787Y1085134D03*
X960630Y1094291D03*
X949213Y1101181D03*
X952362D03*
X959449Y1141929D03*
X972441Y1027756D03*
X976575Y1074409D03*
X973622D03*
X970472Y1085134D03*
X968701Y1100000D03*
X964764Y1150685D03*
X989764Y1033362D03*
X980906Y1051921D03*
X991535Y1068205D03*
X980315Y1116236D03*
X987205Y1140551D03*
X1009449Y1037598D03*
X1009843Y1090646D03*
G54D114*
X1008268Y1095276D03*
Y1107087D03*
G54D105*
X991634Y1123622D03*
Y1140551D03*
X999311Y1123622D03*
X996752D03*
X994193D03*
Y1140551D03*
X996752D03*
X999311D03*
G54D12*
X791339Y1039866D03*
X796457D03*
Y1068898D03*
X796654Y1083764D03*
X807087Y1124315D03*
X822441Y1029827D03*
X819291Y1027858D03*
X815945D03*
X810039Y1148031D03*
X852913Y848031D03*
X843504Y1111024D03*
X848031Y1117717D03*
X862756Y848031D03*
X868701Y1031102D03*
Y1024315D03*
X868898Y1069591D03*
X862402Y1100000D03*
X869291D03*
X865945D03*
X865354Y1116047D03*
X859055Y1137110D03*
X862402Y1133661D03*
X881890Y929921D03*
X883858Y1024315D03*
Y1031102D03*
X871260Y1051874D03*
X877362Y1060535D03*
X872835Y1069591D03*
X877559Y1136614D03*
X885433Y929921D03*
X893701Y935827D03*
X899606Y1024315D03*
Y1031102D03*
X893110Y1056890D03*
X886614Y1092913D03*
X894291Y1109748D03*
X906496Y1119291D03*
X930709Y877858D03*
X917717Y878937D03*
X929134Y884748D03*
X917717Y885535D03*
X922047Y927559D03*
X926772Y1048031D03*
X925197Y1064370D03*
X925000Y1075787D03*
X917913Y1079630D03*
X921457Y1075693D03*
X921063Y1091441D03*
X923228Y1130614D03*
X923031Y1118504D03*
X926181Y1130709D03*
X930512Y1151874D03*
X940157Y1091244D03*
X940354Y1115654D03*
X944882Y1113780D03*
X941142Y1122937D03*
X944685Y1123622D03*
Y1132087D03*
X947441Y1052559D03*
X947835Y1044094D03*
X947441Y1059748D03*
X950787Y1081496D03*
X949213Y1097543D03*
X952362D03*
X960630Y1090654D03*
X959449Y1138291D03*
X972441Y1024118D03*
X976575Y1070772D03*
X970472Y1081496D03*
X973622Y1070772D03*
X968701Y1096362D03*
X964764Y1147047D03*
X989764Y1029724D03*
X980906Y1048283D03*
X991535Y1064567D03*
X980315Y1112598D03*
X987205Y1136913D03*
X1009449Y1033961D03*
X1009843Y1087008D03*
G54D21*
X799213Y1014173D03*
G54D30*
X822441Y1039331D03*
X820866D03*
X819291D03*
X817717D03*
X816142D03*
X814567D03*
X812992D03*
X811417D03*
X809843D03*
X808268D03*
Y1099331D03*
X809843D03*
X811417D03*
X812992D03*
X814567D03*
X816142D03*
X817717D03*
X819291D03*
X820866D03*
X822441D03*
X836614Y1039331D03*
X835039D03*
X833465D03*
X831890D03*
X830315D03*
X828740D03*
X827165D03*
X825591D03*
X824016D03*
Y1099331D03*
X825591D03*
X827165D03*
X828740D03*
X830315D03*
X831890D03*
X833465D03*
X835039D03*
X836614D03*
X852362Y1039331D03*
X850787D03*
X849213D03*
X847638D03*
X846063D03*
X844488D03*
X842913D03*
X841339D03*
X839764D03*
X838189D03*
Y1099331D03*
X839764D03*
X841339D03*
X842913D03*
X844488D03*
X846063D03*
X847638D03*
X849213D03*
X850787D03*
X852362D03*
X857087Y1039331D03*
X855512D03*
X853937D03*
Y1099331D03*
X855512D03*
X857087D03*
G54D115*
G01X994346Y687303D02*
Y690402D01*
X995343Y687819D01*
X996339Y690402D01*
Y687303D01*
G01X999283Y690142D02*
X999055Y690299D01*
X998787Y690402D01*
X998480D01*
X998134Y690248D01*
X997866Y689988D01*
X997673Y689677D01*
X997520Y689161D01*
X997484Y688697D01*
X997559Y688232D01*
X997673Y687921D01*
X997906Y687614D01*
X998173Y687406D01*
X998441Y687303D01*
X998709D01*
X998976Y687406D01*
X999209Y687563D01*
X999398Y687768D01*
G01X1000697Y690402D02*
Y688181D01*
X1000850Y687717D01*
X1001157Y687406D01*
X1001539Y687303D01*
X1001921Y687406D01*
X1002228Y687717D01*
X1002382Y688181D01*
Y690402D01*
G01X1004638D02*
X1004331Y690299D01*
X1004102Y690039D01*
X1003949Y689728D01*
X1003835Y689319D01*
X1003795Y688850D01*
X1003835Y688386D01*
X1003949Y687976D01*
X1004102Y687665D01*
X1004331Y687406D01*
X1004638Y687303D01*
X1004945Y687406D01*
X1005173Y687665D01*
X1005327Y687976D01*
X1005441Y688386D01*
X1005480Y688850D01*
X1005441Y689319D01*
X1005327Y689728D01*
X1005173Y690039D01*
X1004945Y690299D01*
X1004638Y690402D01*
G01X1007661Y687303D02*
X1007736Y687976D01*
X1007850Y688543D01*
X1008004Y689059D01*
X1008197Y689626D01*
X1008504Y690402D01*
X1006969D01*
G01X1009992Y687768D02*
X1010220Y687508D01*
X1010488Y687354D01*
X1010835Y687303D01*
X1011181Y687406D01*
X1011449Y687614D01*
X1011638Y687976D01*
X1011677Y688386D01*
X1011602Y688799D01*
X1011409Y689059D01*
X1011142Y689264D01*
X1010874Y689319D01*
X1010606Y689264D01*
X1010260Y689059D01*
X1010374Y690402D01*
X1011409D01*
G01X1016264Y687303D02*
Y690402D01*
X1017224D01*
X1017531Y690248D01*
X1017720Y690039D01*
X1017799Y689626D01*
X1017720Y689213D01*
X1017492Y688957D01*
X1017224Y688799D01*
X1016264D01*
G01X1017224D02*
X1017799Y687303D01*
G01X1019555Y688697D02*
X1020780D01*
X1020665Y689059D01*
X1020476Y689264D01*
X1020205Y689370D01*
X1019937Y689319D01*
X1019709Y689161D01*
X1019555Y688799D01*
X1019480Y688492D01*
Y688181D01*
X1019555Y687870D01*
X1019748Y687563D01*
X1019976Y687354D01*
X1020244Y687303D01*
X1020512Y687406D01*
X1020780Y687717D01*
G01X1022539Y689370D02*
X1023228Y687303D01*
X1023917Y689370D01*
G01X1026327Y687201D02*
X1026252Y687252D01*
Y687354D01*
X1026327Y687406D01*
X1026402Y687354D01*
Y687252D01*
X1026327Y687201D01*
G01X1031567Y687303D02*
X1032524Y690402D01*
X1033480Y687303D01*
G01X1033138Y688386D02*
X1031909D01*
G01X994280Y698374D02*
Y695276D01*
X995815D01*
G01X997378D02*
Y698374D01*
X998299D01*
X998606Y698220D01*
X998835Y697858D01*
X998913Y697445D01*
X998835Y697031D01*
X998646Y696720D01*
X998299Y696567D01*
X997378D01*
G01X1000744Y696307D02*
X1001744D01*
G01X1005185Y698114D02*
X1004957Y698272D01*
X1004689Y698374D01*
X1004382D01*
X1004035Y698220D01*
X1003768Y697961D01*
X1003575Y697650D01*
X1003421Y697134D01*
X1003386Y696669D01*
X1003461Y696205D01*
X1003575Y695894D01*
X1003807Y695587D01*
X1004075Y695378D01*
X1004343Y695276D01*
X1004610D01*
X1004878Y695378D01*
X1005110Y695535D01*
X1005299Y695740D01*
G01X1008283Y698114D02*
X1008055Y698272D01*
X1007787Y698374D01*
X1007480D01*
X1007134Y698220D01*
X1006866Y697961D01*
X1006673Y697650D01*
X1006520Y697134D01*
X1006484Y696669D01*
X1006559Y696205D01*
X1006673Y695894D01*
X1006906Y695587D01*
X1007173Y695378D01*
X1007441Y695276D01*
X1007709D01*
X1007976Y695378D01*
X1008209Y695535D01*
X1008398Y695740D01*
G01X1009811Y697858D02*
X1010039Y698169D01*
X1010311Y698323D01*
X1010614Y698374D01*
X1011000Y698272D01*
X1011268Y698012D01*
X1011343Y697701D01*
X1011307Y697394D01*
X1011154Y697134D01*
X1010386Y696618D01*
X1010039Y696256D01*
X1009811Y695740D01*
X1009736Y695276D01*
X1011343D01*
G01X1012909Y696567D02*
X1013177Y696929D01*
X1013409Y697134D01*
X1013713Y697236D01*
X1013984Y697134D01*
X1014173Y696929D01*
X1014327Y696618D01*
X1014366Y696256D01*
X1014327Y695949D01*
X1014173Y695638D01*
X1013945Y695378D01*
X1013677Y695276D01*
X1013370Y695378D01*
X1013102Y695689D01*
X1012949Y696154D01*
X1012909Y696669D01*
X1012988Y697343D01*
X1013102Y697701D01*
X1013291Y698063D01*
X1013563Y698323D01*
X1013831Y698374D01*
X1014098Y698272D01*
X1014287Y698012D01*
G01X1015894Y695740D02*
X1016122Y695480D01*
X1016390Y695327D01*
X1016736Y695276D01*
X1017083Y695378D01*
X1017350Y695587D01*
X1017539Y695949D01*
X1017579Y696358D01*
X1017504Y696772D01*
X1017311Y697031D01*
X1017043Y697236D01*
X1016776Y697291D01*
X1016508Y697236D01*
X1016161Y697031D01*
X1016276Y698374D01*
X1017311D01*
G01X1019106Y697858D02*
X1019335Y698169D01*
X1019606Y698323D01*
X1019909Y698374D01*
X1020295Y698272D01*
X1020563Y698012D01*
X1020638Y697701D01*
X1020602Y697394D01*
X1020449Y697134D01*
X1019681Y696618D01*
X1019335Y696256D01*
X1019106Y695740D01*
X1019031Y695276D01*
X1020638D01*
G01X1022165D02*
Y698374D01*
X1023126D01*
X1023433Y698220D01*
X1023622Y698012D01*
X1023701Y697598D01*
X1023622Y697185D01*
X1023394Y696929D01*
X1023126Y696772D01*
X1022165D01*
G01X1023126D02*
X1023701Y695276D01*
G01X1025957D02*
X1026031Y695949D01*
X1026146Y696516D01*
X1026299Y697031D01*
X1026492Y697598D01*
X1026799Y698374D01*
X1025264D01*
G01X793157Y787402D02*
X1011961D01*
G03X1017717Y793157I0J5756D01*
G01Y962598D01*
G03X1013386Y975000I-19922J0D01*
G02X1009055Y987402I15591J12402D01*
G02X1013386Y999803I19922J0D01*
G03X1017717Y1012205I-15591J12402D01*
G01Y1156843D01*
G03X1011961Y1162598I-5756J0D01*
G01X849606D01*
Y1157874D01*
X843307D01*
Y1149606D01*
X839764D01*
Y1157874D01*
X824803D01*
Y1149606D01*
X821260D01*
Y1157874D01*
X814961D01*
Y1162598D01*
X793157D01*
G03X787402Y1156843I0J-5756D01*
G01Y1012205D01*
G03X791732Y999803I19922J0D01*
G02X796063Y987402I-15591J-12402D01*
G02X791732Y975000I-19922J0D01*
G03X787402Y962598I15591J-12402D01*
G01Y793157D01*
G03X793157Y787402I5756J0D01*
G01X944244Y689780D02*
X944992Y689154D01*
X945831Y688780D01*
X946579D01*
X947323Y689154D01*
X947886Y689780D01*
X948165Y690654D01*
X947976Y691528D01*
X947512Y692280D01*
X946669Y692780D01*
X945551Y693031D01*
X944898Y693528D01*
X944618Y694406D01*
X944807Y695280D01*
X945272Y695906D01*
X945925Y696280D01*
X946579D01*
X947232Y696031D01*
X947791Y695406D01*
G01X951280Y688780D02*
Y696280D01*
X953705Y690028D01*
X956130Y696280D01*
Y688780D01*
G01X968705Y696280D02*
Y688780D01*
G01X966559Y696280D02*
X970850D01*
G01X976205Y688780D02*
X975457Y688906D01*
X974807Y689406D01*
X974244Y690154D01*
X973870Y691028D01*
X973685Y692028D01*
Y693031D01*
X973870Y694031D01*
X974244Y694906D01*
X974807Y695654D01*
X975457Y696154D01*
X976205Y696280D01*
X976953Y696154D01*
X977602Y695654D01*
X978165Y694906D01*
X978539Y694031D01*
X978724Y693031D01*
Y692028D01*
X978539Y691028D01*
X978165Y690154D01*
X977602Y689406D01*
X976953Y688906D01*
X976205Y688780D01*
G01X981839D02*
Y696280D01*
X984079D01*
X984823Y695906D01*
X985386Y695031D01*
X985571Y694031D01*
X985386Y693031D01*
X984917Y692280D01*
X984079Y691906D01*
X981839D01*
G01X951602Y668650D02*
Y676150D01*
X953469D01*
X954213Y675776D01*
X954772Y675276D01*
X955240Y674524D01*
X955614Y673650D01*
X955705Y672398D01*
X955614Y671150D01*
X955240Y670276D01*
X954772Y669524D01*
X954213Y669024D01*
X953469Y668650D01*
X951602D01*
G01X958819D02*
X961154Y676150D01*
X963488Y668650D01*
G01X962646Y671276D02*
X959661D01*
G01X968654Y676150D02*
Y668650D01*
G01X966508Y676150D02*
X970799D01*
G01X978020Y668650D02*
X974287D01*
Y676150D01*
X978020D01*
G01X976528Y672524D02*
X974287D01*
G01X983654Y668402D02*
X983469Y668524D01*
Y668776D01*
X983654Y668898D01*
X983839Y668776D01*
Y668524D01*
X983654Y668402D01*
G01Y671776D02*
X983469Y671898D01*
Y672150D01*
X983654Y672276D01*
X983839Y672150D01*
Y671898D01*
X983654Y671776D01*
G01X996882Y674902D02*
X997441Y675650D01*
X998094Y676024D01*
X998839Y676150D01*
X999772Y675902D01*
X1000425Y675276D01*
X1000614Y674524D01*
X1000520Y673776D01*
X1000146Y673150D01*
X998280Y671898D01*
X997441Y671024D01*
X996882Y669776D01*
X996693Y668650D01*
X1000614D01*
G01X1006154Y676150D02*
X1005406Y675902D01*
X1004846Y675276D01*
X1004472Y674524D01*
X1004193Y673524D01*
X1004102Y672398D01*
X1004193Y671276D01*
X1004472Y670276D01*
X1004846Y669524D01*
X1005406Y668898D01*
X1006154Y668650D01*
X1006902Y668898D01*
X1007461Y669524D01*
X1007835Y670276D01*
X1008114Y671276D01*
X1008205Y672398D01*
X1008114Y673524D01*
X1007835Y674524D01*
X1007461Y675276D01*
X1006902Y675902D01*
X1006154Y676150D01*
G01X1011882Y674902D02*
X1012441Y675650D01*
X1013094Y676024D01*
X1013839Y676150D01*
X1014772Y675902D01*
X1015425Y675276D01*
X1015614Y674524D01*
X1015520Y673776D01*
X1015146Y673150D01*
X1013280Y671898D01*
X1012441Y671024D01*
X1011882Y669776D01*
X1011693Y668650D01*
X1015614D01*
G01X1021154D02*
Y676150D01*
X1020035Y674650D01*
G01Y668650D02*
X1022272D01*
G01X1027441Y671150D02*
X1029866D01*
G01X1036154Y676150D02*
X1035406Y675902D01*
X1034846Y675276D01*
X1034472Y674524D01*
X1034193Y673524D01*
X1034102Y672398D01*
X1034193Y671276D01*
X1034472Y670276D01*
X1034846Y669524D01*
X1035406Y668898D01*
X1036154Y668650D01*
X1036902Y668898D01*
X1037461Y669524D01*
X1037835Y670276D01*
X1038114Y671276D01*
X1038205Y672398D01*
X1038114Y673524D01*
X1037835Y674524D01*
X1037461Y675276D01*
X1036902Y675902D01*
X1036154Y676150D01*
G01X1041602Y669776D02*
X1042161Y669150D01*
X1042815Y668776D01*
X1043654Y668650D01*
X1044492Y668898D01*
X1045146Y669398D01*
X1045614Y670276D01*
X1045705Y671276D01*
X1045520Y672276D01*
X1045051Y672902D01*
X1044402Y673398D01*
X1043748Y673524D01*
X1043094Y673398D01*
X1042256Y672902D01*
X1042535Y676150D01*
X1045051D01*
G01X1049941Y671150D02*
X1052366D01*
G01X1056882Y674902D02*
X1057441Y675650D01*
X1058094Y676024D01*
X1058839Y676150D01*
X1059772Y675902D01*
X1060425Y675276D01*
X1060614Y674524D01*
X1060520Y673776D01*
X1060146Y673150D01*
X1058280Y671898D01*
X1057441Y671024D01*
X1056882Y669776D01*
X1056693Y668650D01*
X1060614D01*
G01X1065969D02*
X1066154Y670276D01*
X1066433Y671650D01*
X1066807Y672902D01*
X1067272Y674276D01*
X1068020Y676150D01*
X1064287D01*
G01X953457Y715323D02*
Y707823D01*
G01X951311Y715323D02*
X955602D01*
G01X962823Y707823D02*
X959091D01*
Y715323D01*
X962823D01*
G01X961331Y711697D02*
X959091D01*
G01X966496Y707823D02*
X970417Y715323D01*
G01X966496D02*
X970417Y707823D01*
G01X973622D02*
X975957Y715323D01*
X978291Y707823D01*
G01X977449Y710449D02*
X974465D01*
G01X981496Y708823D02*
X982244Y708197D01*
X983083Y707823D01*
X983831D01*
X984575Y708197D01*
X985138Y708823D01*
X985417Y709697D01*
X985228Y710571D01*
X984764Y711323D01*
X983921Y711823D01*
X982803Y712075D01*
X982150Y712571D01*
X981870Y713449D01*
X982059Y714323D01*
X982524Y714949D01*
X983177Y715323D01*
X983831D01*
X984484Y715075D01*
X985043Y714449D01*
G01X997339Y715323D02*
X999575D01*
G01X998457D02*
Y707823D01*
G01X997339D02*
X999575D01*
G01X1003811D02*
Y715323D01*
X1008102Y707823D01*
Y715323D01*
G01X1011496Y708823D02*
X1012244Y708197D01*
X1013083Y707823D01*
X1013831D01*
X1014575Y708197D01*
X1015138Y708823D01*
X1015417Y709697D01*
X1015228Y710571D01*
X1014764Y711323D01*
X1013921Y711823D01*
X1012803Y712075D01*
X1012150Y712571D01*
X1011870Y713449D01*
X1012059Y714323D01*
X1012524Y714949D01*
X1013177Y715323D01*
X1013831D01*
X1014484Y715075D01*
X1015043Y714449D01*
G01X1020957Y715323D02*
Y707823D01*
G01X1018811Y715323D02*
X1023102D01*
G01X1026591Y707823D02*
Y715323D01*
X1028921D01*
X1029669Y714949D01*
X1030138Y714449D01*
X1030323Y713449D01*
X1030138Y712449D01*
X1029575Y711823D01*
X1028921Y711449D01*
X1026591D01*
G01X1028921D02*
X1030323Y707823D01*
G01X1033906Y715323D02*
Y709949D01*
X1034276Y708823D01*
X1035024Y708071D01*
X1035957Y707823D01*
X1036890Y708071D01*
X1037638Y708823D01*
X1038008Y709949D01*
Y715323D01*
G01X1041031Y707823D02*
Y715323D01*
X1043457Y709071D01*
X1045882Y715323D01*
Y707823D01*
G01X1052823D02*
X1049091D01*
Y715323D01*
X1052823D01*
G01X1051331Y711697D02*
X1049091D01*
G01X1056311Y707823D02*
Y715323D01*
X1060602Y707823D01*
Y715323D01*
G01X1065957D02*
Y707823D01*
G01X1063811Y715323D02*
X1068102D01*
G01X1071496Y708823D02*
X1072244Y708197D01*
X1073083Y707823D01*
X1073831D01*
X1074575Y708197D01*
X1075138Y708823D01*
X1075417Y709697D01*
X1075228Y710571D01*
X1074764Y711323D01*
X1073921Y711823D01*
X1072803Y712075D01*
X1072150Y712571D01*
X1071870Y713449D01*
X1072059Y714323D01*
X1072524Y714949D01*
X1073177Y715323D01*
X1073831D01*
X1074484Y715075D01*
X1075043Y714449D01*
G54D31*
X822441Y1111614D03*
X820472D03*
X818504D03*
Y1130906D03*
X820472D03*
X822441D03*
X832283Y1111614D03*
X830315D03*
X828346D03*
X826378D03*
X824409D03*
Y1130906D03*
X826378D03*
X828346D03*
X830315D03*
X832283D03*
G54D22*
X796457Y1047441D03*
Y1053740D03*
G54D106*
X1007878Y974213D03*
Y1000787D03*
G54D13*
X791339Y1047441D03*
Y1053740D03*
G54D40*
X832283Y1136969D03*
X830315D03*
X828346D03*
X832283Y1134646D03*
X830315D03*
X828346D03*
G54D116*
G01X791634Y721260D02*
Y662205D01*
X1086909D01*
Y721260D01*
X791634D01*
G01X939272D02*
Y662205D01*
G01Y681890D02*
X1086909D01*
G01Y701575D02*
X939272D01*
G01X989177D02*
Y681890D01*
G54D41*
X835976Y1152165D03*
X828591D03*
G54D107*
X1000791Y979232D03*
Y995768D03*
G54D32*
X815748Y1114370D03*
Y1116339D03*
Y1118307D03*
Y1120276D03*
Y1122244D03*
Y1124213D03*
Y1126181D03*
Y1128150D03*
X835039Y1114370D03*
Y1128150D03*
Y1126181D03*
Y1124213D03*
Y1122244D03*
Y1120276D03*
Y1118307D03*
Y1116339D03*
G54D14*
X793307Y1122835D03*
Y1129528D03*
X801969Y1122835D03*
Y1129528D03*
G54D50*
X864961Y1026378D03*
X880118D03*
X895866D03*
G54D23*
X802677Y1044921D03*
Y1046496D03*
Y1048071D03*
Y1049646D03*
Y1051220D03*
Y1052795D03*
Y1054370D03*
Y1055945D03*
Y1057520D03*
Y1059094D03*
Y1060669D03*
Y1062244D03*
Y1063819D03*
Y1065394D03*
Y1066969D03*
Y1068543D03*
Y1070118D03*
Y1071693D03*
Y1073268D03*
Y1074843D03*
Y1076417D03*
Y1077992D03*
Y1079567D03*
Y1081142D03*
Y1082717D03*
Y1084291D03*
Y1085866D03*
Y1087441D03*
Y1089016D03*
Y1090591D03*
Y1092165D03*
Y1093740D03*
X862677Y1052795D03*
Y1051220D03*
Y1049646D03*
Y1048071D03*
Y1046496D03*
Y1044921D03*
Y1068543D03*
Y1066969D03*
Y1065394D03*
Y1063819D03*
Y1062244D03*
Y1060669D03*
Y1059094D03*
Y1057520D03*
Y1055945D03*
Y1054370D03*
Y1084291D03*
Y1082717D03*
Y1081142D03*
Y1079567D03*
Y1077992D03*
Y1076417D03*
Y1074843D03*
Y1073268D03*
Y1071693D03*
Y1070118D03*
Y1093740D03*
Y1092165D03*
Y1090591D03*
Y1089016D03*
Y1087441D03*
Y1085866D03*
G54D60*
X873031Y1111811D03*
Y1118110D03*
X889764Y942126D03*
Y935827D03*
X926969Y1124606D03*
Y1118307D03*
G54D42*
X852913Y837402D03*
Y843701D03*
G54D24*
X796457Y1064567D03*
Y1061024D03*
X800638Y1117961D03*
X813874Y983071D03*
X829228Y1033661D03*
X829425Y1029921D03*
X852063Y1033071D03*
X850787Y1104528D03*
X844094Y1125197D03*
X843701Y1136811D03*
X860921Y1020472D03*
X859543Y1107480D03*
X857969Y1104528D03*
X857772Y1126969D03*
X866780Y1142717D03*
X884252Y913780D03*
Y908661D03*
X875291Y1082283D03*
X875197Y1078937D03*
Y1089567D03*
X875291Y1085827D03*
X875197Y1092717D03*
X886220Y902756D03*
X889173Y1069882D03*
X894685Y1106299D03*
X894780Y1103150D03*
X906197Y1076181D03*
X905803Y1092717D03*
X925685Y904331D03*
X926866Y922835D03*
X927654Y1019291D03*
X917913Y1076181D03*
X918008Y1073031D03*
X918795Y1134252D03*
X934252Y874409D03*
X935827Y890551D03*
X938386Y1060236D03*
X957575Y1009055D03*
X947732Y1071850D03*
X962496Y1073819D03*
X975787Y1102953D03*
X974606Y1138189D03*
X987693Y1048425D03*
Y1051969D03*
X984740Y1045079D03*
X984646Y1055118D03*
X984843Y1128740D03*
Y1122638D03*
X984937Y1119685D03*
X984843Y1131693D03*
X1007575Y968898D03*
X994189Y1145866D03*
G54D51*
X864606Y1023917D03*
X863031D03*
X861457D03*
X859882D03*
Y1033563D03*
X861457D03*
X863031D03*
X864606D03*
X879764Y1023917D03*
X878189D03*
X876614D03*
X875039D03*
Y1033563D03*
X876614D03*
X878189D03*
X879764D03*
X895512Y1023917D03*
X893937D03*
X892362D03*
X890787D03*
Y1033563D03*
X892362D03*
X893937D03*
X895512D03*
G54D108*
X1000000Y1031417D03*
G54D33*
X809606Y1112992D03*
X811811D03*
X809409Y1117126D03*
X811614D03*
X808622Y1120669D03*
X810827D03*
X818071Y1136024D03*
X820276D03*
G54D15*
X795866Y814961D03*
X992126Y1156693D03*
X1009646Y814961D03*
G54D52*
X859035Y1026378D03*
Y1027953D03*
Y1029528D03*
Y1031102D03*
X865453D03*
Y1029528D03*
Y1027953D03*
X874193Y1026378D03*
Y1027953D03*
Y1029528D03*
Y1031102D03*
X880610D03*
Y1029528D03*
Y1027953D03*
X889941Y1026378D03*
Y1027953D03*
Y1029528D03*
Y1031102D03*
X896358D03*
Y1029528D03*
Y1027953D03*
G54D61*
X878543Y1110827D03*
Y1113386D03*
Y1115945D03*
Y1118504D03*
X890354Y1110827D03*
Y1113386D03*
Y1115945D03*
Y1118504D03*
G54D16*
X800787Y865748D03*
X803150Y863386D03*
G54D70*
X896457Y1060827D03*
Y1057283D03*
X903150Y1122441D03*
Y1118898D03*
X955709Y1143110D03*
Y1139567D03*
X1001575Y1097835D03*
Y1094291D03*
Y1105512D03*
Y1101969D03*
G54D109*
X1003937Y1025630D03*
X1001969D03*
X1000000D03*
X998031D03*
X996063D03*
Y1037205D03*
X998031D03*
X1000000D03*
X1001969D03*
X1003937D03*
G54D34*
X820866Y1105669D03*
Y1107874D03*
X818110Y1105669D03*
Y1107874D03*
X811811Y1107638D03*
Y1109843D03*
X834646Y1105669D03*
Y1107874D03*
X831890Y1105669D03*
Y1107874D03*
X829134Y1105669D03*
Y1107874D03*
X826378Y1105669D03*
Y1107874D03*
X823622Y1105669D03*
Y1107874D03*
X839370Y1112756D03*
Y1114961D03*
X838583Y1130472D03*
Y1132677D03*
X894488Y840709D03*
Y842913D03*
Y854291D03*
Y856496D03*
Y872402D03*
Y874606D03*
Y882441D03*
X892520Y889528D03*
Y891732D03*
X896063Y889528D03*
Y891732D03*
X894488Y884646D03*
G54D25*
X792819Y1064567D03*
Y1061024D03*
X797000Y1117961D03*
X810236Y983071D03*
X825591Y1033661D03*
X825787Y1029921D03*
X848425Y1033071D03*
X847150Y1104528D03*
X840457Y1125197D03*
X854134Y1126969D03*
X840063Y1136811D03*
X857283Y1020472D03*
X855906Y1107480D03*
X854331Y1104528D03*
X863142Y1142717D03*
X880614Y913780D03*
Y908661D03*
X882583Y902756D03*
X871654Y1082283D03*
X871559Y1078937D03*
Y1089567D03*
X871654Y1085827D03*
X871559Y1092717D03*
X885535Y1069882D03*
X891047Y1106299D03*
X891142Y1103150D03*
X914276Y1076181D03*
X902559D03*
X914370Y1073031D03*
X902165Y1092717D03*
X915157Y1134252D03*
X930614Y874409D03*
X922047Y904331D03*
X923228Y922835D03*
X924016Y1019291D03*
X932189Y890551D03*
X934748Y1060236D03*
X944094Y1071850D03*
X953937Y1009055D03*
X958858Y1073819D03*
X972150Y1102953D03*
X970969Y1138189D03*
X984055Y1048425D03*
Y1051969D03*
X981102Y1045079D03*
X981008Y1055118D03*
X981205Y1128740D03*
Y1122638D03*
X981299Y1119685D03*
X981205Y1131693D03*
X990551Y1145866D03*
X1003937Y968898D03*
G54D43*
X852756Y1112205D03*
Y1122047D03*
X860630Y1112205D03*
Y1122047D03*
G54D62*
X884449Y1114665D03*
X908071Y1084547D03*
G54D44*
X851378Y1133858D03*
G54D17*
X798217Y863177D03*
X800579Y860815D03*
G54D26*
X792913Y1057480D03*
X796457D03*
X919685Y1047835D03*
X923228D03*
X944094Y1068307D03*
X947638D03*
X965354Y1090748D03*
X968898D03*
X988976Y1082480D03*
X992520D03*
X988976Y1078740D03*
X992520D03*
X988976Y1086220D03*
X992520D03*
X988976Y1089764D03*
X992520D03*
X980709Y1106102D03*
X984252D03*
G54D80*
X921654Y853543D03*
G54D35*
X825394Y1121260D03*
G54D53*
X867717Y1129331D03*
X881496D03*
G54D71*
X893898Y1130512D03*
Y1154921D03*
G54D18*
X797047Y974213D03*
Y1000787D03*
G54D36*
X822591Y1143110D03*
X841976D03*
G54D90*
X941339Y985827D03*
X939370D03*
X937402D03*
X939173Y1021063D03*
G54D81*
X924803Y881890D03*
Y888189D03*
G54D54*
X859547Y1148031D03*
X876083D03*
G54D45*
X847244Y1130906D03*
Y1132874D03*
Y1134843D03*
Y1136811D03*
X855512Y1130906D03*
Y1132874D03*
Y1134843D03*
Y1136811D03*
G54D63*
X881890Y1135827D03*
Y1142126D03*
X940945Y1041732D03*
Y1048031D03*
G54D27*
X798169Y1106024D03*
X802165Y1136024D03*
X794173D03*
G54D72*
X910630Y842520D03*
Y864567D03*
X932677Y842520D03*
Y864567D03*
G54D73*
X911811Y879134D03*
Y888976D03*
G54D28*
X804567Y1103937D03*
X802362D03*
X804567Y1100984D03*
X802362D03*
X811929Y1133071D03*
X809724D03*
X829646Y1020472D03*
X827441D03*
X829646Y1023622D03*
X827441D03*
X825630Y1137205D03*
X823425D03*
X840787Y1109843D03*
X838583D03*
X841378Y1127953D03*
X839173D03*
X842362Y1122441D03*
X840157D03*
X894528Y836220D03*
X892323D03*
X896693Y856496D03*
X894488D03*
Y878346D03*
X892283D03*
X898268Y895276D03*
X896063D03*
X892559D03*
X890354D03*
G54D64*
X886024Y895315D03*
Y893110D03*
G54D37*
X816732Y1152165D03*
X847835D03*
G54D82*
X930157Y1064370D03*
Y1071850D03*
X939173Y1068110D03*
Y1064370D03*
Y1071850D03*
G54D55*
X867126Y1135433D03*
X873425D03*
X890551Y1096850D03*
X896850D03*
G54D46*
X854528Y1155118D03*
X881102D03*
G54D91*
X942520Y1102067D03*
Y1109154D03*
X1005512Y1130315D03*
Y1137402D03*
G54D19*
X799409Y982957D03*
Y992012D03*
X863272Y1152756D03*
X872327D03*
X1005516Y992043D03*
Y982988D03*
G54D92*
X947638Y1141732D03*
X940551D03*
X975197Y1097244D03*
X982283D03*
X992913Y1115945D03*
X1000000D03*
G54D74*
X915157Y1023425D03*
Y1035236D03*
X993307Y1094685D03*
Y1106496D03*
G54D83*
X932087Y1077953D03*
X927165Y1141732D03*
X939173Y1077953D03*
X934252Y1141732D03*
G54D65*
X890551Y904724D03*
Y906693D03*
Y908661D03*
Y910630D03*
Y912598D03*
Y914567D03*
Y916535D03*
Y918504D03*
Y920472D03*
Y922441D03*
Y924409D03*
Y926378D03*
X917717Y914567D03*
Y912598D03*
Y910630D03*
Y908661D03*
Y906693D03*
Y904724D03*
Y926378D03*
Y924409D03*
Y922441D03*
Y920472D03*
Y918504D03*
Y916535D03*
G54D38*
X835039Y1027559D03*
Y1030118D03*
Y1032677D03*
X843701D03*
Y1027559D03*
G54D29*
X812598Y832362D03*
Y852362D03*
Y842362D03*
X822531Y872441D03*
Y882441D03*
X812531Y872441D03*
Y882441D03*
X822531Y892441D03*
Y902441D03*
X812531Y892441D03*
Y902441D03*
X822531Y912441D03*
X812531D03*
X822531Y922441D03*
Y932441D03*
X812531Y922441D03*
Y932441D03*
X822531Y942441D03*
X812531D03*
X822531Y952441D03*
Y962441D03*
X812531Y952441D03*
Y962441D03*
X832531Y1002441D03*
Y1012441D03*
X852807Y862492D03*
Y872492D03*
X842531Y1002441D03*
X852531D03*
X842531Y1012441D03*
X852531D03*
X862807Y862492D03*
Y872492D03*
X862531Y1002441D03*
Y1012441D03*
X872531Y1002441D03*
X882531D03*
X872531Y1012441D03*
X882531D03*
X892531Y1002441D03*
X902531D03*
X892531Y1012441D03*
X902531D03*
X912531Y1002441D03*
Y1012441D03*
X922531Y1002441D03*
X932531D03*
X922531Y1012441D03*
X932531D03*
X992520Y832362D03*
Y852362D03*
Y842362D03*
X992610Y872441D03*
Y882441D03*
X982610Y872441D03*
Y882441D03*
X992610Y892441D03*
Y902441D03*
X982610Y892441D03*
Y902441D03*
X992610Y912441D03*
X982610D03*
X992610Y922441D03*
Y932441D03*
X982610Y922441D03*
Y932441D03*
X992610Y942441D03*
X982610D03*
X992610Y952441D03*
Y962441D03*
X982610Y952441D03*
Y962441D03*
X983858Y1002441D03*
Y1012441D03*
Y1022441D03*
G54D47*
X872638Y797244D03*
X931693D03*
G54D56*
X873228Y954724D03*
X878740D03*
X930512Y1048228D03*
X936024D03*
G54D48*
X862756Y837402D03*
Y843701D03*
G54D93*
X948189Y1156890D03*
X938189D03*
X948189Y1148228D03*
X938189D03*
G54D84*
X926181Y1087598D03*
Y1091339D03*
Y1095079D03*
X935197Y1087598D03*
Y1095079D03*
G54D39*
X837402Y1141732D03*
X834843D03*
X832283D03*
X829724D03*
X827165D03*
G54D66*
X899213Y901969D03*
X897244D03*
X895276D03*
X893307D03*
Y929134D03*
X895276D03*
X897244D03*
X899213D03*
X914961Y901969D03*
X912992D03*
X911024D03*
X909055D03*
X907087D03*
X905118D03*
X903150D03*
X901181D03*
Y929134D03*
X903150D03*
X905118D03*
X907087D03*
X909055D03*
X911024D03*
X912992D03*
X914961D03*
G54D75*
X911220Y1066339D03*
X902559D03*
G54D57*
X877362Y1053543D03*
Y1057087D03*
X917520Y1111220D03*
Y1114764D03*
X943701Y1091339D03*
Y1094882D03*
X958661Y1062598D03*
Y1066142D03*
X947047Y1081496D03*
Y1085039D03*
X955118Y1070276D03*
Y1073819D03*
X956693Y1094488D03*
Y1098031D03*
X962598Y1062598D03*
Y1066142D03*
X966535Y1062598D03*
Y1066142D03*
X974213Y1081496D03*
Y1085039D03*
X966142Y1070276D03*
Y1073819D03*
X964567Y1094488D03*
Y1098031D03*
X1005315Y1119882D03*
Y1123425D03*
X1010039Y1079921D03*
Y1083465D03*
G54D94*
X960630Y972835D03*
Y966535D03*
X955118Y972835D03*
Y966535D03*
G54D58*
X881693Y1055945D03*
Y1064961D03*
X889173Y1055945D03*
X885433Y1064961D03*
X889173D03*
G54D76*
X913976Y1080709D03*
Y1083268D03*
X902165Y1080709D03*
Y1083268D03*
X913976Y1085827D03*
Y1088386D03*
X902165Y1085827D03*
Y1088386D03*
G54D67*
X904134Y915551D03*
G54D85*
X936811Y883071D03*
G54D49*
X869685Y897638D03*
Y903346D03*
X874213Y897638D03*
Y903346D03*
G54D86*
X939764Y878346D03*
X937795D03*
X935827D03*
X933858D03*
X939764Y887795D03*
X937795D03*
X935827D03*
X933858D03*
G54D68*
X898819Y943898D03*
Y936811D03*
X913386Y1048622D03*
Y1055709D03*
X935236Y1110827D03*
Y1127756D03*
Y1117913D03*
Y1134843D03*
G54D77*
X908268Y1072047D03*
X901969D03*
G54D95*
X957638Y980709D03*
X952638D03*
X947638D03*
X957638Y998819D03*
X952638D03*
X947638D03*
X947555Y1015484D03*
X952555D03*
X957555D03*
X947555Y1033594D03*
X952555D03*
X957555D03*
X967638Y980709D03*
X962638D03*
X967638Y998819D03*
X962638D03*
X962555Y1015484D03*
X967555D03*
X962555Y1033594D03*
X967555D03*
G54D59*
X882480Y1105906D03*
X878937D03*
X882480Y1123228D03*
X878937D03*
X896654Y1069882D03*
X893110D03*
X905906Y1096063D03*
X902362D03*
X931102Y1099409D03*
X927559D03*
X958858Y1069882D03*
X955709Y1090748D03*
X952165D03*
X958858Y1101772D03*
X976181Y1037992D03*
X972638D03*
X962402Y1069882D03*
Y1101772D03*
G54D87*
X942323Y988780D03*
X942126Y1022047D03*
Y1024016D03*
Y1025984D03*
G54D69*
X891732Y949213D03*
X898031D03*
X951969Y872441D03*
X958268D03*
X951575Y882283D03*
X957874D03*
X951575Y892520D03*
X957874D03*
X951575Y902362D03*
X957874D03*
G54D96*
X953228Y1042618D03*
Y1047618D03*
Y1052618D03*
Y1057618D03*
X974488Y1052618D03*
Y1047618D03*
Y1042618D03*
Y1057618D03*
G54D78*
X913583Y1130512D03*
X911024D03*
X913583Y1118701D03*
X911024D03*
X918701Y1130512D03*
X916142D03*
X918701Y1118701D03*
X916142D03*
G54D79*
X914862Y1124606D03*
G54D97*
X960571Y1079449D03*
G54D88*
X936417Y988780D03*
X936220Y1022047D03*
Y1024016D03*
Y1025984D03*
G54D98*
X957087Y1080118D03*
Y1082087D03*
Y1084055D03*
Y1086024D03*
X964055Y1080118D03*
Y1082087D03*
Y1084055D03*
Y1086024D03*
G54D89*
X941339Y991732D03*
X939370D03*
X937402D03*
X939173Y1026969D03*
G54D99*
X960571Y1086417D03*
M02*
