G04 ================== begin FILE IDENTIFICATION RECORD ==================*
G04 Layout Name:  MCU075A.brd*
G04 Film Name:    MCU075A_paste_bottom*
G04 File Format:  Gerber RS274X*
G04 File Origin:  Cadence Allegro 17.2-S072*
G04 Origin Date:  Wed Aug 04 16:23:20 2021*
G04 *
G04 Layer:  DRAWING FORMAT/TITLE_BLOCK*
G04 Layer:  BOARD GEOMETRY/BOTTOM PASTE*
G04 Layer:  PIN/FILMMASKBOTTOM*
G04 Layer:  BOARD GEOMETRY/OUTLINE*
G04 *
G04 Offset:    (0.000 0.000)*
G04 Mirror:    No*
G04 Mode:      Positive*
G04 Rotation:  0*
G04 FullContactRelief:  No*
G04 UndefLineWidth:     0.099*
G04 ================== end FILE IDENTIFICATION RECORD ====================*
%FSLAX25Y25*MOIN*%
%IR0*IPPOS*OFA0.00000B0.00000*MIA0B0*SFA1.00000B1.00000*%
%ADD10C,.05*%
%ADD11C,.003898*%
%ADD12C,.003937*%
G75*
%LPD*%
G75*
G54D10*
X795866Y814961D03*
X992126Y1156693D03*
X1009646Y814961D03*
G54D11*
G01X994346Y687303D02*
Y690402D01*
X995343Y687819D01*
X996339Y690402D01*
Y687303D01*
G01X999283Y690142D02*
X999055Y690299D01*
X998787Y690402D01*
X998480D01*
X998134Y690248D01*
X997866Y689988D01*
X997673Y689677D01*
X997520Y689161D01*
X997484Y688697D01*
X997559Y688232D01*
X997673Y687921D01*
X997906Y687614D01*
X998173Y687406D01*
X998441Y687303D01*
X998709D01*
X998976Y687406D01*
X999209Y687563D01*
X999398Y687768D01*
G01X1000697Y690402D02*
Y688181D01*
X1000850Y687717D01*
X1001157Y687406D01*
X1001539Y687303D01*
X1001921Y687406D01*
X1002228Y687717D01*
X1002382Y688181D01*
Y690402D01*
G01X1004638D02*
X1004331Y690299D01*
X1004102Y690039D01*
X1003949Y689728D01*
X1003835Y689319D01*
X1003795Y688850D01*
X1003835Y688386D01*
X1003949Y687976D01*
X1004102Y687665D01*
X1004331Y687406D01*
X1004638Y687303D01*
X1004945Y687406D01*
X1005173Y687665D01*
X1005327Y687976D01*
X1005441Y688386D01*
X1005480Y688850D01*
X1005441Y689319D01*
X1005327Y689728D01*
X1005173Y690039D01*
X1004945Y690299D01*
X1004638Y690402D01*
G01X1007661Y687303D02*
X1007736Y687976D01*
X1007850Y688543D01*
X1008004Y689059D01*
X1008197Y689626D01*
X1008504Y690402D01*
X1006969D01*
G01X1009992Y687768D02*
X1010220Y687508D01*
X1010488Y687354D01*
X1010835Y687303D01*
X1011181Y687406D01*
X1011449Y687614D01*
X1011638Y687976D01*
X1011677Y688386D01*
X1011602Y688799D01*
X1011409Y689059D01*
X1011142Y689264D01*
X1010874Y689319D01*
X1010606Y689264D01*
X1010260Y689059D01*
X1010374Y690402D01*
X1011409D01*
G01X1016264Y687303D02*
Y690402D01*
X1017224D01*
X1017531Y690248D01*
X1017720Y690039D01*
X1017799Y689626D01*
X1017720Y689213D01*
X1017492Y688957D01*
X1017224Y688799D01*
X1016264D01*
G01X1017224D02*
X1017799Y687303D01*
G01X1019555Y688697D02*
X1020780D01*
X1020665Y689059D01*
X1020476Y689264D01*
X1020205Y689370D01*
X1019937Y689319D01*
X1019709Y689161D01*
X1019555Y688799D01*
X1019480Y688492D01*
Y688181D01*
X1019555Y687870D01*
X1019748Y687563D01*
X1019976Y687354D01*
X1020244Y687303D01*
X1020512Y687406D01*
X1020780Y687717D01*
G01X1022539Y689370D02*
X1023228Y687303D01*
X1023917Y689370D01*
G01X1026327Y687201D02*
X1026252Y687252D01*
Y687354D01*
X1026327Y687406D01*
X1026402Y687354D01*
Y687252D01*
X1026327Y687201D01*
G01X1031567Y687303D02*
X1032524Y690402D01*
X1033480Y687303D01*
G01X1033138Y688386D02*
X1031909D01*
G01X994280Y698374D02*
Y695276D01*
X995815D01*
G01X997378D02*
Y698374D01*
X998299D01*
X998606Y698220D01*
X998835Y697858D01*
X998913Y697445D01*
X998835Y697031D01*
X998646Y696720D01*
X998299Y696567D01*
X997378D01*
G01X1000744Y696307D02*
X1001744D01*
G01X1005185Y698114D02*
X1004957Y698272D01*
X1004689Y698374D01*
X1004382D01*
X1004035Y698220D01*
X1003768Y697961D01*
X1003575Y697650D01*
X1003421Y697134D01*
X1003386Y696669D01*
X1003461Y696205D01*
X1003575Y695894D01*
X1003807Y695587D01*
X1004075Y695378D01*
X1004343Y695276D01*
X1004610D01*
X1004878Y695378D01*
X1005110Y695535D01*
X1005299Y695740D01*
G01X1008283Y698114D02*
X1008055Y698272D01*
X1007787Y698374D01*
X1007480D01*
X1007134Y698220D01*
X1006866Y697961D01*
X1006673Y697650D01*
X1006520Y697134D01*
X1006484Y696669D01*
X1006559Y696205D01*
X1006673Y695894D01*
X1006906Y695587D01*
X1007173Y695378D01*
X1007441Y695276D01*
X1007709D01*
X1007976Y695378D01*
X1008209Y695535D01*
X1008398Y695740D01*
G01X1009811Y697858D02*
X1010039Y698169D01*
X1010311Y698323D01*
X1010614Y698374D01*
X1011000Y698272D01*
X1011268Y698012D01*
X1011343Y697701D01*
X1011307Y697394D01*
X1011154Y697134D01*
X1010386Y696618D01*
X1010039Y696256D01*
X1009811Y695740D01*
X1009736Y695276D01*
X1011343D01*
G01X1012909Y696567D02*
X1013177Y696929D01*
X1013409Y697134D01*
X1013713Y697236D01*
X1013984Y697134D01*
X1014173Y696929D01*
X1014327Y696618D01*
X1014366Y696256D01*
X1014327Y695949D01*
X1014173Y695638D01*
X1013945Y695378D01*
X1013677Y695276D01*
X1013370Y695378D01*
X1013102Y695689D01*
X1012949Y696154D01*
X1012909Y696669D01*
X1012988Y697343D01*
X1013102Y697701D01*
X1013291Y698063D01*
X1013563Y698323D01*
X1013831Y698374D01*
X1014098Y698272D01*
X1014287Y698012D01*
G01X1015894Y695740D02*
X1016122Y695480D01*
X1016390Y695327D01*
X1016736Y695276D01*
X1017083Y695378D01*
X1017350Y695587D01*
X1017539Y695949D01*
X1017579Y696358D01*
X1017504Y696772D01*
X1017311Y697031D01*
X1017043Y697236D01*
X1016776Y697291D01*
X1016508Y697236D01*
X1016161Y697031D01*
X1016276Y698374D01*
X1017311D01*
G01X1019106Y697858D02*
X1019335Y698169D01*
X1019606Y698323D01*
X1019909Y698374D01*
X1020295Y698272D01*
X1020563Y698012D01*
X1020638Y697701D01*
X1020602Y697394D01*
X1020449Y697134D01*
X1019681Y696618D01*
X1019335Y696256D01*
X1019106Y695740D01*
X1019031Y695276D01*
X1020638D01*
G01X1022165D02*
Y698374D01*
X1023126D01*
X1023433Y698220D01*
X1023622Y698012D01*
X1023701Y697598D01*
X1023622Y697185D01*
X1023394Y696929D01*
X1023126Y696772D01*
X1022165D01*
G01X1023126D02*
X1023701Y695276D01*
G01X1025957D02*
X1026031Y695949D01*
X1026146Y696516D01*
X1026299Y697031D01*
X1026492Y697598D01*
X1026799Y698374D01*
X1025264D01*
G01X793157Y787402D02*
X1011961D01*
G03X1017717Y793157I0J5756D01*
G01Y962598D01*
G03X1013386Y975000I-19922J0D01*
G02X1009055Y987402I15591J12402D01*
G02X1013386Y999803I19922J0D01*
G03X1017717Y1012205I-15591J12402D01*
G01Y1156843D01*
G03X1011961Y1162598I-5756J0D01*
G01X849606D01*
Y1157874D01*
X843307D01*
Y1149606D01*
X839764D01*
Y1157874D01*
X824803D01*
Y1149606D01*
X821260D01*
Y1157874D01*
X814961D01*
Y1162598D01*
X793157D01*
G03X787402Y1156843I0J-5756D01*
G01Y1012205D01*
G03X791732Y999803I19922J0D01*
G02X796063Y987402I-15591J-12402D01*
G02X791732Y975000I-19922J0D01*
G03X787402Y962598I15591J-12402D01*
G01Y793157D01*
G03X793157Y787402I5756J0D01*
G01X944339Y688780D02*
Y696280D01*
X946579D01*
X947323Y695906D01*
X947886Y695031D01*
X948071Y694031D01*
X947886Y693031D01*
X947417Y692280D01*
X946579Y691906D01*
X944339D01*
G01X951280Y688780D02*
Y696280D01*
X953705Y690028D01*
X956130Y696280D01*
Y688780D01*
G01X969453Y692780D02*
X969823Y693154D01*
X970102Y693780D01*
X970291Y694654D01*
X970102Y695406D01*
X969732Y695906D01*
X969079Y696280D01*
X966559D01*
Y688780D01*
X969638D01*
X970291Y689280D01*
X970665Y690028D01*
X970850Y690906D01*
X970665Y691780D01*
X970102Y692528D01*
X969453Y692780D01*
X966559D01*
G01X976205Y688780D02*
X975457Y688906D01*
X974807Y689406D01*
X974244Y690154D01*
X973870Y691028D01*
X973685Y692028D01*
Y693031D01*
X973870Y694031D01*
X974244Y694906D01*
X974807Y695654D01*
X975457Y696154D01*
X976205Y696280D01*
X976953Y696154D01*
X977602Y695654D01*
X978165Y694906D01*
X978539Y694031D01*
X978724Y693031D01*
Y692028D01*
X978539Y691028D01*
X978165Y690154D01*
X977602Y689406D01*
X976953Y688906D01*
X976205Y688780D01*
G01X983705Y696280D02*
Y688780D01*
G01X981559Y696280D02*
X985850D01*
G01X951602Y668650D02*
Y676150D01*
X953469D01*
X954213Y675776D01*
X954772Y675276D01*
X955240Y674524D01*
X955614Y673650D01*
X955705Y672398D01*
X955614Y671150D01*
X955240Y670276D01*
X954772Y669524D01*
X954213Y669024D01*
X953469Y668650D01*
X951602D01*
G01X958819D02*
X961154Y676150D01*
X963488Y668650D01*
G01X962646Y671276D02*
X959661D01*
G01X968654Y676150D02*
Y668650D01*
G01X966508Y676150D02*
X970799D01*
G01X978020Y668650D02*
X974287D01*
Y676150D01*
X978020D01*
G01X976528Y672524D02*
X974287D01*
G01X983654Y668402D02*
X983469Y668524D01*
Y668776D01*
X983654Y668898D01*
X983839Y668776D01*
Y668524D01*
X983654Y668402D01*
G01Y671776D02*
X983469Y671898D01*
Y672150D01*
X983654Y672276D01*
X983839Y672150D01*
Y671898D01*
X983654Y671776D01*
G01X996882Y674902D02*
X997441Y675650D01*
X998094Y676024D01*
X998839Y676150D01*
X999772Y675902D01*
X1000425Y675276D01*
X1000614Y674524D01*
X1000520Y673776D01*
X1000146Y673150D01*
X998280Y671898D01*
X997441Y671024D01*
X996882Y669776D01*
X996693Y668650D01*
X1000614D01*
G01X1006154Y676150D02*
X1005406Y675902D01*
X1004846Y675276D01*
X1004472Y674524D01*
X1004193Y673524D01*
X1004102Y672398D01*
X1004193Y671276D01*
X1004472Y670276D01*
X1004846Y669524D01*
X1005406Y668898D01*
X1006154Y668650D01*
X1006902Y668898D01*
X1007461Y669524D01*
X1007835Y670276D01*
X1008114Y671276D01*
X1008205Y672398D01*
X1008114Y673524D01*
X1007835Y674524D01*
X1007461Y675276D01*
X1006902Y675902D01*
X1006154Y676150D01*
G01X1011882Y674902D02*
X1012441Y675650D01*
X1013094Y676024D01*
X1013839Y676150D01*
X1014772Y675902D01*
X1015425Y675276D01*
X1015614Y674524D01*
X1015520Y673776D01*
X1015146Y673150D01*
X1013280Y671898D01*
X1012441Y671024D01*
X1011882Y669776D01*
X1011693Y668650D01*
X1015614D01*
G01X1021154D02*
Y676150D01*
X1020035Y674650D01*
G01Y668650D02*
X1022272D01*
G01X1027441Y671150D02*
X1029866D01*
G01X1036154Y676150D02*
X1035406Y675902D01*
X1034846Y675276D01*
X1034472Y674524D01*
X1034193Y673524D01*
X1034102Y672398D01*
X1034193Y671276D01*
X1034472Y670276D01*
X1034846Y669524D01*
X1035406Y668898D01*
X1036154Y668650D01*
X1036902Y668898D01*
X1037461Y669524D01*
X1037835Y670276D01*
X1038114Y671276D01*
X1038205Y672398D01*
X1038114Y673524D01*
X1037835Y674524D01*
X1037461Y675276D01*
X1036902Y675902D01*
X1036154Y676150D01*
G01X1041602Y669776D02*
X1042161Y669150D01*
X1042815Y668776D01*
X1043654Y668650D01*
X1044492Y668898D01*
X1045146Y669398D01*
X1045614Y670276D01*
X1045705Y671276D01*
X1045520Y672276D01*
X1045051Y672902D01*
X1044402Y673398D01*
X1043748Y673524D01*
X1043094Y673398D01*
X1042256Y672902D01*
X1042535Y676150D01*
X1045051D01*
G01X1049941Y671150D02*
X1052366D01*
G01X1056882Y674902D02*
X1057441Y675650D01*
X1058094Y676024D01*
X1058839Y676150D01*
X1059772Y675902D01*
X1060425Y675276D01*
X1060614Y674524D01*
X1060520Y673776D01*
X1060146Y673150D01*
X1058280Y671898D01*
X1057441Y671024D01*
X1056882Y669776D01*
X1056693Y668650D01*
X1060614D01*
G01X1065969D02*
X1066154Y670276D01*
X1066433Y671650D01*
X1066807Y672902D01*
X1067272Y674276D01*
X1068020Y676150D01*
X1064287D01*
G01X953457Y715323D02*
Y707823D01*
G01X951311Y715323D02*
X955602D01*
G01X962823Y707823D02*
X959091D01*
Y715323D01*
X962823D01*
G01X961331Y711697D02*
X959091D01*
G01X966496Y707823D02*
X970417Y715323D01*
G01X966496D02*
X970417Y707823D01*
G01X973622D02*
X975957Y715323D01*
X978291Y707823D01*
G01X977449Y710449D02*
X974465D01*
G01X981496Y708823D02*
X982244Y708197D01*
X983083Y707823D01*
X983831D01*
X984575Y708197D01*
X985138Y708823D01*
X985417Y709697D01*
X985228Y710571D01*
X984764Y711323D01*
X983921Y711823D01*
X982803Y712075D01*
X982150Y712571D01*
X981870Y713449D01*
X982059Y714323D01*
X982524Y714949D01*
X983177Y715323D01*
X983831D01*
X984484Y715075D01*
X985043Y714449D01*
G01X997339Y715323D02*
X999575D01*
G01X998457D02*
Y707823D01*
G01X997339D02*
X999575D01*
G01X1003811D02*
Y715323D01*
X1008102Y707823D01*
Y715323D01*
G01X1011496Y708823D02*
X1012244Y708197D01*
X1013083Y707823D01*
X1013831D01*
X1014575Y708197D01*
X1015138Y708823D01*
X1015417Y709697D01*
X1015228Y710571D01*
X1014764Y711323D01*
X1013921Y711823D01*
X1012803Y712075D01*
X1012150Y712571D01*
X1011870Y713449D01*
X1012059Y714323D01*
X1012524Y714949D01*
X1013177Y715323D01*
X1013831D01*
X1014484Y715075D01*
X1015043Y714449D01*
G01X1020957Y715323D02*
Y707823D01*
G01X1018811Y715323D02*
X1023102D01*
G01X1026591Y707823D02*
Y715323D01*
X1028921D01*
X1029669Y714949D01*
X1030138Y714449D01*
X1030323Y713449D01*
X1030138Y712449D01*
X1029575Y711823D01*
X1028921Y711449D01*
X1026591D01*
G01X1028921D02*
X1030323Y707823D01*
G01X1033906Y715323D02*
Y709949D01*
X1034276Y708823D01*
X1035024Y708071D01*
X1035957Y707823D01*
X1036890Y708071D01*
X1037638Y708823D01*
X1038008Y709949D01*
Y715323D01*
G01X1041031Y707823D02*
Y715323D01*
X1043457Y709071D01*
X1045882Y715323D01*
Y707823D01*
G01X1052823D02*
X1049091D01*
Y715323D01*
X1052823D01*
G01X1051331Y711697D02*
X1049091D01*
G01X1056311Y707823D02*
Y715323D01*
X1060602Y707823D01*
Y715323D01*
G01X1065957D02*
Y707823D01*
G01X1063811Y715323D02*
X1068102D01*
G01X1071496Y708823D02*
X1072244Y708197D01*
X1073083Y707823D01*
X1073831D01*
X1074575Y708197D01*
X1075138Y708823D01*
X1075417Y709697D01*
X1075228Y710571D01*
X1074764Y711323D01*
X1073921Y711823D01*
X1072803Y712075D01*
X1072150Y712571D01*
X1071870Y713449D01*
X1072059Y714323D01*
X1072524Y714949D01*
X1073177Y715323D01*
X1073831D01*
X1074484Y715075D01*
X1075043Y714449D01*
G54D12*
G01X791634Y721260D02*
Y662205D01*
X1086909D01*
Y721260D01*
X791634D01*
G01X939272D02*
Y662205D01*
G01Y681890D02*
X1086909D01*
G01Y701575D02*
X939272D01*
G01X989177D02*
Y681890D01*
M02*
