G04 ================== begin FILE IDENTIFICATION RECORD ==================*
G04 Layout Name:  MCU075A.brd*
G04 Film Name:    MCU075A_Layer2*
G04 File Format:  Gerber RS274X*
G04 File Origin:  Cadence Allegro 17.2-S072*
G04 Origin Date:  Wed Aug 04 16:23:21 2021*
G04 *
G04 Layer:  BOARD GEOMETRY/LAYER2*
G04 Layer:  DRAWING FORMAT/TITLE_BLOCK*
G04 Layer:  BOARD GEOMETRY/OUTLINE*
G04 Layer:  ETCH/L2*
G04 Layer:  PIN/L2*
G04 Layer:  VIA CLASS/L2*
G04 *
G04 Offset:    (0.000 0.000)*
G04 Mirror:    No*
G04 Mode:      Positive*
G04 Rotation:  0*
G04 FullContactRelief:  No*
G04 UndefLineWidth:     0.020*
G04 ================== end FILE IDENTIFICATION RECORD ====================*
%FSLAX25Y25*MOIN*%
%IR0*IPPOS*OFA0.00000B0.00000*MIA0B0*SFA1.00000B1.00000*%
%ADD10C,.149606*%
%ADD15C,.064961*%
%ADD12C,.003898*%
%ADD13C,.06689*%
%ADD16O,.055118X.082677*%
%ADD14C,.003937*%
%ADD11C,.015748*%
%ADD17C,.019685*%
%ADD18C,.000787*%
%ADD19C,.005906*%
%ADD22C,.078898*%
%ADD24C,.052126*%
%ADD23C,.056063*%
%ADD21C,.076929*%
%ADD25C,.215276*%
%ADD20C,.024567*%
G75*
%LPD*%
G75*
G36*
G01X1015744Y1148264D02*
X1015748Y1012992D01*
Y1012228D01*
G02X1015744Y1012181I-393J9D01*
G01X1015354Y1009071D01*
G02X1015350Y1009039I-391J33D01*
G01X1015102Y1007795D01*
G03X1015094Y1007717I386J-78D01*
G01Y1007425D01*
X1015079Y1007370D01*
G02X1011843Y1001031I-17287J4831D01*
G03X1008276Y994524I17138J-13625D01*
G01X1008272D01*
G02X1008020Y994276I-373J127D01*
G01X1007409Y994087D01*
G02X1007059Y994146I-117J375D01*
G03X1005516Y994650I-1541J-2103D01*
G03Y989437I0J-2606D01*
G03X1006142Y989512I6J2607D01*
G02X1006488Y989433I96J-381D01*
G01X1006980Y989024D01*
G02X1007122Y988701I-251J-303D01*
G01Y988697D01*
G03X1007110Y986327I21856J-1294D01*
G02X1006969Y986004I-394J-19D01*
G01X1006476Y985598D01*
G02X1006134Y985520I-250J304D01*
G01X1006130D01*
G03X1005516Y985594I-620J-2531D01*
G03Y980382I0J-2606D01*
G03X1007008Y980854I-4J2605D01*
G01X1007012D01*
G02X1007358Y980906I225J-324D01*
G01X1007965Y980705D01*
G02X1008213Y980457I-125J-373D01*
G03X1011843Y973772I20764J6946D01*
G02X1015744Y962602I-14048J-11173D01*
G01Y835433D01*
G02X1015350Y835039I-394J0D01*
G01X995445D01*
G02X995173Y835150I1J393D01*
G03X992520Y836209I-2651J-2788D01*
G03X989866Y835150I-3J-3847D01*
G02X989594Y835039I-273J283D01*
G01X815524D01*
G02X815252Y835150I1J393D01*
G03X812598Y836209I-2651J-2788D01*
G03X809945Y835150I-3J-3847D01*
G02X809673Y835039I-273J283D01*
G01X789768D01*
G02X789374Y835433I0J394D01*
G01Y962602D01*
G02X793276Y973772I17950J-4D01*
G03X796862Y980331I-17135J13630D01*
G02X797102Y980575I373J-127D01*
G01X797689Y980783D01*
G02X798028Y980748I132J-371D01*
G01X798031Y980744D01*
G03X799409Y980350I1378J2215D01*
G03Y985563I0J2606D01*
G03X798941Y985520I5J-2606D01*
G02X798610Y985610I-72J388D01*
G01X798142Y986020D01*
G02X798008Y986335I261J297D01*
G01Y986339D01*
G03X798000Y988626I-21868J1068D01*
G02X798134Y988945I393J22D01*
G01X798602Y989358D01*
G02X798933Y989449I259J-297D01*
G01X798937D01*
G03X799409Y989406I473J2563D01*
G03Y994618I0J2606D01*
G03X797992Y994201I-2J-2607D01*
G02X797650Y994157I-216J329D01*
G01X797063Y994362D01*
G02X796819Y994602I126J372D01*
G01X796815D01*
G03X793276Y1001031I-20678J-7195D01*
G02X790039Y1007370I14051J11169D01*
G01X790024Y1007425D01*
Y1007717D01*
G03X790016Y1007795I-394J0D01*
G01X789768Y1009035D01*
G02X789764Y1009075I388J59D01*
G01X789370Y1012972D01*
Y1013012D01*
X789374Y1147020D01*
G02X789642Y1147394I394J1D01*
G01X790358Y1147630D01*
G02X790795Y1147496I125J-373D01*
G03X797244Y1144283I6449J4866D01*
G03X805323Y1152362I0J8079D01*
G03X801598Y1159169I-8083J0D01*
G01X801594D01*
G02X801429Y1159610I213J331D01*
G01X801642Y1160343D01*
G02X802020Y1160626I378J-111D01*
G01X812594D01*
G02X812988Y1160232I0J-394D01*
G01Y1156705D01*
X812902Y1156618D01*
G03X812787Y1156343I280J-277D01*
G01Y1143102D01*
G03X813181Y1142709I394J0D01*
G01X851976D01*
G03X852370Y1143102I0J394D01*
G01Y1156110D01*
G03X851976Y1156504I-394J0D01*
G01X851972D01*
G02X851579Y1156898I0J394D01*
G01Y1160232D01*
G02X851972Y1160626I394J0D01*
G01X1002311D01*
G02X1002689Y1160343I0J-394D01*
G01X1002902Y1159610D01*
G02X1002736Y1159169I-378J-110D01*
G01X1002732D01*
G03X999008Y1152362I4358J-6807D01*
G03X1007087Y1144283I8079J0D01*
G03X1014252Y1148630I0J8079D01*
G02X1014693Y1148831I349J-181D01*
G01X1015445Y1148650D01*
G02X1015744Y1148264I-95J-383D01*
G37*
G36*
G01X846063Y1155906D02*
X851378D01*
G02X851772Y1155512I0J-394D01*
G01Y1145291D01*
G02X851614Y1144972I-394J-4D01*
G01X851098Y1144594D01*
G02X850752Y1144531I-236J315D01*
G01Y1144535D01*
G03X850394Y1144587I-351J-1178D01*
G03X849193Y1143618I0J-1229D01*
G02X848807Y1143307I-385J83D01*
G01X813780D01*
G02X813386Y1143701I0J394D01*
G01Y1155512D01*
G02X813780Y1155906I394J0D01*
G01X818898D01*
G02X819291Y1155512I0J-394D01*
G01Y1147638D01*
G03X819685Y1147244I394J0D01*
G01X825232D01*
G02X825551Y1147087I4J-394D01*
G01X825929Y1146571D01*
G02X825992Y1146224I-315J-236D01*
G01X825988D01*
G03X825937Y1145866I1178J-351D01*
G03X827165Y1144638I1228J0D01*
G03X827870Y1144862I-3J1227D01*
G02X828126Y1144933I227J-323D01*
G01X828630Y1144894D01*
G02X828874Y1144783I-31J-393D01*
G03X829724Y1144441I850J884D01*
G03X830504Y1144720I0J1227D01*
G02X830752Y1144807I246J-307D01*
G01X831256D01*
G02X831504Y1144720I2J-393D01*
G03X832283Y1144441I780J947D01*
G03X833185Y1144835I0J1229D01*
G02X833449Y1144961I289J-267D01*
G01X833988Y1145000D01*
G02X834264Y1144913I28J-393D01*
G03X835039Y1144638I776J954D01*
G03X835720Y1144843I2J1229D01*
G02X835953Y1144909I220J-326D01*
G01X836417Y1144890D01*
G02X836646Y1144807I-13J-393D01*
G03X837402Y1144547I756J970D01*
G03X838630Y1145776I0J1228D01*
G03X838559Y1146189I-1229J2D01*
G02X838606Y1146547I371J133D01*
G01X838980Y1147079D01*
G02X839303Y1147244I321J-229D01*
G01X845276D01*
G03X845669Y1147638I0J394D01*
G01Y1155512D01*
G02X846063Y1155906I394J0D01*
G37*
%LPC*%
G75*
G36*
G01X934768Y912217D02*
X934693Y912677D01*
G03X934579Y912898I-389J-62D01*
G02X934209Y913776I856J878D01*
G02X936665I1228J0D01*
G02X936531Y913220I-1228J2D01*
G03X936496Y912976I352J-176D01*
G01X936571Y912516D01*
G03X936685Y912295I389J62D01*
G02X937055Y911417I-856J-878D01*
G02X934598I-1228J0D01*
G02X934732Y911972I1228J-2D01*
G03X934768Y912217I-352J176D01*
G37*
G36*
G01X830740Y913925D02*
X830508Y913996D01*
G03X830276I-116J-376D01*
G02X829902Y913937I-376J1169D01*
G02Y916394I0J1228D01*
G02X830858Y915937I0J-1230D01*
G03X831051Y915807I306J246D01*
G01X831283Y915736D01*
G03X831516I116J376D01*
G02X831890Y915795I376J-1169D01*
G02Y913339I0J-1228D01*
G02X830933Y913795I0J1230D01*
G03X830740Y913925I-306J-246D01*
G37*
G36*
G01X832146Y933244D02*
X831921Y933378D01*
G03X831665Y933429I-201J-339D01*
G02X831496Y933417I-170J1216D01*
G02Y935874I0J1228D01*
G02X832650Y935067I0J-1228D01*
G03X832815Y934866I370J136D01*
G01X833039Y934732D01*
G03X833295Y934681I201J339D01*
G02X833465Y934693I170J-1216D01*
G02Y932236I0J-1228D01*
G02X832311Y933043I0J1228D01*
G03X832146Y933244I-370J-136D01*
G37*
G36*
G01X898965Y966457D02*
X899098Y966661D01*
G03X899165Y966890I-326J220D01*
G01Y966929D01*
G02X901622I1228J0D01*
G02X900831Y965780I-1231J0D01*
G03X900642Y965630I138J-368D01*
G01X900508Y965425D01*
G03X900441Y965197I326J-220D01*
G01Y965157D01*
G02X897984I-1228J0D01*
G02X898776Y966307I1231J0D01*
G03X898965Y966457I-138J368D01*
G37*
G36*
G01X899724Y981898D02*
X899650Y982358D01*
G03X899535Y982575I-389J-67D01*
G02X899161Y983457I853J882D01*
G02X901618I1228J0D01*
G02X901488Y982906I-1229J-1D01*
G03X901453Y982661I352J-176D01*
G01X901528Y982201D01*
G03X901642Y981984I389J67D01*
G02X902016Y981102I-853J-882D01*
G02X899559I-1228J0D01*
G02X899689Y981654I1229J1D01*
G03X899724Y981898I-352J176D01*
G37*
G36*
G01X991181Y1037335D02*
Y1037575D01*
G03X991110Y1037799I-393J-1D01*
G02X990898Y1038492I1016J691D01*
G02X993354I1228J0D01*
G01Y1038457D01*
G03X993469Y1038169I393J-10D01*
G01X993878Y1037760D01*
G03X994165Y1037646I277J279D01*
G01X994201D01*
G02Y1035189I0J-1228D01*
G02X993508Y1035402I-2J1229D01*
G03X993283Y1035472I-225J-322D01*
G01X993043D01*
G03X992819Y1035402I1J-393D01*
G02X992126Y1035189I-691J1016D01*
G02X990898Y1036417I0J1228D01*
G02X991110Y1037110I1229J2D01*
G03X991181Y1037335I-322J225D01*
G37*
G36*
G01X883244Y1047874D02*
X883004D01*
G03X882780Y1047803I1J-393D01*
G02X882087Y1047591I-691J1016D01*
G02Y1050047I0J1228D01*
G02X882780Y1049835I2J-1229D01*
G03X883004Y1049764I225J322D01*
G01X883244D01*
G03X883469Y1049835I-1J393D01*
G02X884161Y1050047I691J-1016D01*
G02Y1047591I0J-1228D01*
G02X883469Y1047803I-2J1229D01*
G03X883244Y1047874I-225J-322D01*
G37*
G36*
G01X895646Y1053386D02*
X895406D01*
G03X895181Y1053315I1J-393D01*
G02X894488Y1053102I-691J1016D01*
G02Y1055559I0J1228D01*
G02X895181Y1055346I2J-1229D01*
G03X895406Y1055276I225J322D01*
G01X895646D01*
G03X895870Y1055346I-1J393D01*
G02X896563Y1055559I691J-1016D01*
G02Y1053102I0J-1228D01*
G02X895870Y1053315I-2J1229D01*
G03X895646Y1053386I-225J-322D01*
G37*
G36*
G01X808846Y1053630D02*
X808807Y1054094D01*
G03X808717Y1054315I-392J-32D01*
G01X808713Y1054319D01*
G02X808417Y1055118I934J799D01*
G02X810874I1228J0D01*
G02X810697Y1054484I-1228J2D01*
G01Y1054480D01*
G03X810642Y1054244I337J-203D01*
G01X810681Y1053780D01*
G03X810772Y1053559I392J32D01*
G01X810776Y1053555D01*
G02X811071Y1052756I-934J-799D01*
G02X808614I-1228J0D01*
G02X808791Y1053390I1228J-2D01*
G01Y1053394D01*
G03X808846Y1053630I-337J203D01*
G37*
G36*
G01X902291Y1062776D02*
X902047Y1062791D01*
G03X901823Y1062732I-16J-394D01*
G02X901181Y1062551I-642J1046D01*
G02Y1065008I0J1228D01*
G02X901925Y1064756I0J-1225D01*
G03X902146Y1064677I237J314D01*
G01X902390Y1064661D01*
G03X902614Y1064720I16J394D01*
G02X903256Y1064902I642J-1046D01*
G02Y1062445I0J-1228D01*
G02X902512Y1062697I0J1225D01*
G03X902291Y1062776I-237J-314D01*
G37*
G36*
G01X891543Y1066220D02*
Y1066457D01*
G03X891480Y1066665I-393J-5D01*
G02X891291Y1067323I1040J655D01*
G02X893748I1228J0D01*
G02X893559Y1066665I-1229J-3D01*
G03X893496Y1066457I330J-214D01*
G01Y1066220D01*
G03X893559Y1066012I393J5D01*
G02X893748Y1065354I-1040J-655D01*
G02X893559Y1064697I-1229J-3D01*
G03X893496Y1064488I330J-214D01*
G01Y1064252D01*
G03X893559Y1064043I393J5D01*
G02X893748Y1063386I-1040J-655D01*
G02X891291I-1228J0D01*
G02X891480Y1064043I1229J3D01*
G03X891543Y1064252I-330J214D01*
G01Y1064488D01*
G03X891480Y1064697I-393J-5D01*
G02X891291Y1065354I1040J655D01*
G02X891480Y1066012I1229J3D01*
G03X891543Y1066220I-330J214D01*
G37*
G36*
G01X902283Y1067921D02*
X902047D01*
G03X901839Y1067858I5J-393D01*
G02X901181Y1067669I-655J1040D01*
G02Y1070126I0J1228D01*
G02X901839Y1069937I3J-1229D01*
G03X902047Y1069874I214J330D01*
G01X902283D01*
G03X902492Y1069937I-5J393D01*
G02X903150Y1070126I655J-1040D01*
G02Y1067669I0J-1228D01*
G02X902492Y1067858I-3J1229D01*
G03X902283Y1067921I-214J-330D01*
G37*
G36*
G01X1000224Y1077102D02*
X999972D01*
G03X999740Y1077028I-2J-393D01*
G02X999016Y1076791I-724J993D01*
G02Y1079248I0J1228D01*
G02X999740Y1079012I0J-1229D01*
G03X999972Y1078937I231J318D01*
G01X1000224D01*
G03X1000457Y1079012I2J393D01*
G02X1001181Y1079248I724J-993D01*
G02Y1076791I0J-1228D01*
G02X1000457Y1077028I0J1229D01*
G03X1000224Y1077102I-231J-318D01*
G37*
G36*
G01X876626Y1091492D02*
X876618Y1091740D01*
G03X876539Y1091972I-393J-4D01*
G02X876287Y1092717I973J744D01*
G02X878744I1228J0D01*
G02X878520Y1092012I-1227J3D01*
G03X878449Y1091776I324J-226D01*
G01X878457Y1091528D01*
G03X878535Y1091295I393J4D01*
G02X878787Y1090551I-973J-744D01*
G02X876331I-1228J0D01*
G02X876555Y1091256I1227J-3D01*
G03X876626Y1091492I-324J226D01*
G37*
G36*
G01X882831Y1096646D02*
Y1096858D01*
G03X882780Y1097047I-394J-5D01*
G02X882630Y1097638I1079J588D01*
G02X885087I1228J0D01*
G02X884937Y1097047I-1229J-3D01*
G03X884886Y1096858I343J-194D01*
G01Y1096646D01*
G03X884937Y1096457I394J5D01*
G02X885087Y1095866I-1079J-588D01*
G02X882630I-1228J0D01*
G02X882780Y1096457I1229J3D01*
G03X882831Y1096646I-343J194D01*
G37*
G36*
G01X970713Y1098402D02*
Y1098646D01*
G03X970650Y1098870I-394J10D01*
G02X970441Y1099551I1019J685D01*
G02X972898I1228J0D01*
G02X972673Y1098846I-1227J3D01*
G03X972602Y1098626I324J-226D01*
G01Y1098382D01*
G03X972665Y1098157I394J-10D01*
G02X972874Y1097476I-1019J-685D01*
G02X972630Y1096744I-1228J2D01*
G03X972551Y1096504I316J-237D01*
G01X972555Y1096252D01*
G03X972634Y1096016I393J0D01*
G02X972882Y1095276I-980J-740D01*
G02X970425I-1228J0D01*
G02X970669Y1096008I1228J-2D01*
G03X970748Y1096248I-316J237D01*
G01X970744Y1096500D01*
G03X970665Y1096736I-393J0D01*
G02X970417Y1097476I980J740D01*
G02X970642Y1098181I1227J-3D01*
G03X970713Y1098402I-324J226D01*
G37*
G36*
G01X917976Y1098587D02*
Y1099051D01*
G03X917902Y1099280I-394J-2D01*
G01Y1099283D01*
G02X917669Y1100000I995J719D01*
G02X920126I1228J0D01*
G02X919894Y1099283I-1228J2D01*
G01Y1099280D01*
G03X919819Y1099051I319J-231D01*
G01Y1098587D01*
G03X919894Y1098358I394J2D01*
G01Y1098354D01*
G02X920126Y1097638I-995J-719D01*
G02X919858Y1096874I-1223J0D01*
G03X919776Y1096646I311J-242D01*
G01X919756Y1096185D01*
G03X919819Y1095949I392J-22D01*
G02X920020Y1095276I-1028J-673D01*
G02X917563I-1228J0D01*
G02X917831Y1096039I1223J0D01*
G03X917913Y1096268I-311J242D01*
G01X917933Y1096728D01*
G03X917870Y1096965I-392J22D01*
G02X917669Y1097638I1028J673D01*
G02X917902Y1098354I1228J-2D01*
G01Y1098358D01*
G03X917976Y1098587I-319J231D01*
G37*
G36*
G01X934413Y1108008D02*
X934878D01*
G03X935106Y1108083I-2J394D01*
G01X935110D01*
G02X935827Y1108315I719J-995D01*
G02X936520Y1108102I2J-1229D01*
G03X936744Y1108031I225J322D01*
G01X936984D01*
G03X937209Y1108102I-1J393D01*
G02X937902Y1108315I691J-1016D01*
G02Y1105858I0J-1228D01*
G02X937209Y1106071I-2J1229D01*
G03X936984Y1106142I-225J-322D01*
G01X936744D01*
G03X936520Y1106071I1J-393D01*
G02X935827Y1105858I-691J1016D01*
G02X935110Y1106091I2J1228D01*
G01X935106D01*
G03X934878Y1106165I-231J-319D01*
G01X934413D01*
G03X934185Y1106091I2J-394D01*
G01X934181D01*
G02X933465Y1105858I-719J995D01*
G02Y1108315I0J1228D01*
G02X934181Y1108083I-2J-1228D01*
G01X934185D01*
G03X934413Y1108008I231J319D01*
G37*
G36*
G01X899673Y1117882D02*
X899677Y1118346D01*
G03X899602Y1118579I-394J1D01*
G02X899374Y1119291I998J713D01*
G02X901831I1228J0D01*
G02X901594Y1118567I-1229J0D01*
G03X901520Y1118339I319J-231D01*
G01X901516Y1117874D01*
G03X901591Y1117642I394J-1D01*
G02X901819Y1116929I-998J-713D01*
G02X899362I-1228J0D01*
G02X899598Y1117654I1229J0D01*
G03X899673Y1117882I-319J231D01*
G37*
G36*
G01X929335Y1118161D02*
X929343Y1118406D01*
G03X929280Y1118630I-394J10D01*
G02X929087Y1119291I1037J661D01*
G02X931543I1228J0D01*
G02X931307Y1118567I-1229J0D01*
G03X931228Y1118346I315J-237D01*
G01X931220Y1118102D01*
G03X931283Y1117878I394J-10D01*
G02X931476Y1117217I-1037J-661D01*
G02X929020I-1228J0D01*
G02X929256Y1117941I1229J0D01*
G03X929335Y1118161I-315J237D01*
G37*
G36*
G01X934622Y1121890D02*
X934382D01*
G03X934157Y1121819I1J-393D01*
G02X933465Y1121606I-691J1016D01*
G02Y1124063I0J1228D01*
G02X934157Y1123850I2J-1229D01*
G03X934382Y1123780I225J322D01*
G01X934622D01*
G03X934846Y1123850I-1J393D01*
G02X935539Y1124063I691J-1016D01*
G02Y1121606I0J-1228D01*
G02X934846Y1121819I-2J1229D01*
G03X934622Y1121890I-225J-322D01*
G37*
G36*
G01X811307Y1123276D02*
X811173Y1123496D01*
G03X810976Y1123657I-335J-208D01*
G02X810189Y1124803I440J1146D01*
G02X812646I1228J0D01*
G02X812638Y1124673I-1228J9D01*
G03X812693Y1124429I392J-40D01*
G01X812827Y1124209D01*
G03X813024Y1124047I335J208D01*
G02X813811Y1122902I-440J-1146D01*
G02X813717Y1122425I-1229J-4D01*
G03X813693Y1122193I361J-154D01*
G01X813740Y1121953D01*
G03X813854Y1121752I384J85D01*
G02X814228Y1120866I-855J-883D01*
G02X811772I-1228J0D01*
G02X811866Y1121343I1229J4D01*
G03X811890Y1121575I-361J154D01*
G01X811843Y1121815D01*
G03X811728Y1122016I-384J-85D01*
G02X811354Y1122902I855J883D01*
G02X811362Y1123031I1228J-9D01*
G03X811307Y1123276I-392J40D01*
G37*
G36*
G01X878736Y1127059D02*
G02X879331Y1127213I594J-1074D01*
G02Y1124756I0J-1228D01*
G02X878736Y1124909I0J1228D01*
G03X878350I-193J-343D01*
G02X877756Y1124756I-594J1074D01*
G02Y1127213I0J1228D01*
G02X878350Y1127059I0J-1228D01*
G03X878736I193J343D01*
G37*
G36*
G01X960858Y1129650D02*
X961087Y1129555D01*
G03X961327Y1129539I145J367D01*
G02X961614Y1129575I293J-1192D01*
G02X961902Y1129539I-5J-1228D01*
G03X962142Y1129555I95J383D01*
G01X962370Y1129650D01*
G03X962555Y1129799I-143J366D01*
G02X963583Y1130354I1028J-673D01*
G02X964559Y1129870I0J-1226D01*
G03X964748Y1129736I312J240D01*
G01X964980Y1129661D01*
G03X965213Y1129657I123J373D01*
G02X965555Y1129705I338J-1182D01*
G02Y1127248I0J-1228D01*
G02X964579Y1127732I0J1226D01*
G03X964390Y1127866I-312J-240D01*
G01X964157Y1127941D01*
G03X963925Y1127945I-123J-373D01*
G02X963583Y1127898I-338J1182D01*
G02X963295Y1127933I5J1228D01*
G03X963055Y1127917I-95J-383D01*
G01X962827Y1127823D01*
G03X962642Y1127673I143J-366D01*
G02X960587I-1028J673D01*
G03X960402Y1127823I-328J-217D01*
G01X960173Y1127917D01*
G03X959933Y1127933I-145J-367D01*
G02X959646Y1127898I-293J1192D01*
G02Y1130354I0J1228D01*
G02X960673Y1129799I0J-1229D01*
G03X960858Y1129650I328J217D01*
G37*
G36*
G01X843543Y1132114D02*
Y1132354D01*
G03X843476Y1132579I-394J5D01*
G02X843264Y1133268I1015J691D01*
G02X845720I1228J0D01*
G02X845504Y1132571I-1230J0D01*
G03X845433Y1132346I323J-225D01*
G01Y1132106D01*
G03X845500Y1131882I394J-5D01*
G02X845713Y1131193I-1015J-691D01*
G02X843256I-1228J0D01*
G02X843472Y1131890I1230J0D01*
G03X843543Y1132114I-323J225D01*
G37*
G36*
G01X819126Y1132913D02*
X818886D01*
G03X818661Y1132843I1J-393D01*
G02X817969Y1132630I-691J1016D01*
G02Y1135087I0J1228D01*
G02X818661Y1134874I2J-1229D01*
G03X818886Y1134803I225J322D01*
G01X819126D01*
G03X819350Y1134874I-1J393D01*
G02X820043Y1135087I691J-1016D01*
G02Y1132630I0J-1228D01*
G02X819350Y1132843I-2J1229D01*
G03X819126Y1132913I-225J-322D01*
G37*
G36*
G01X1003705Y1142260D02*
X1004169D01*
G03X1004398Y1142335I-2J394D01*
G01X1004402D01*
G02X1005118Y1142567I719J-995D01*
G02X1005835Y1142335I-2J-1228D01*
G01X1005839D01*
G03X1006067Y1142260I231J319D01*
G01X1006531D01*
G03X1006760Y1142335I-2J394D01*
G01X1006764D01*
G02X1007480Y1142567I719J-995D01*
G02Y1140110I0J-1228D01*
G02X1006764Y1140343I2J1228D01*
G01X1006760D01*
G03X1006531Y1140417I-231J-319D01*
G01X1006067D01*
G03X1005839Y1140343I2J-394D01*
G01X1005835D01*
G02X1005118Y1140110I-719J995D01*
G02X1004402Y1140343I2J1228D01*
G01X1004398D01*
G03X1004169Y1140417I-231J-319D01*
G01X1003705D01*
G03X1003476Y1140343I2J-394D01*
G01X1003472D01*
G02X1002756Y1140110I-719J995D01*
G02Y1142567I0J1228D01*
G02X1003472Y1142335I-2J-1228D01*
G01X1003476D01*
G03X1003705Y1142260I231J319D01*
G37*
G36*
G01X946409Y889795D02*
G02X947638Y890992I1228J-32D01*
G02X948866Y889764I0J-1228D01*
G02X947669Y888535I-1229J0D01*
G03X946898Y887764I19J-791D01*
G02X945669Y886567I-1228J32D01*
G02X944441Y887795I0J1228D01*
G02X945638Y889024I1229J0D01*
G03X946409Y889795I-19J791D01*
G37*
G36*
G01X949921Y909102D02*
G02X951622Y910236I472J1134D01*
G02X951583Y909933I-1228J5D01*
G03X952047Y909008I768J-194D01*
G02X950346Y907874I-472J-1134D01*
G02X950386Y908177I1228J-5D01*
G03X949921Y909102I-768J194D01*
G37*
G36*
G01X931402Y920315D02*
G02X930957Y921260I781J945D01*
G02X933413I1228J0D01*
G02X933268Y920677I-1229J-2D01*
G03X933228Y920417I347J-185D01*
G01X933323Y919925D01*
G03X933457Y919697I387J74D01*
G02X933902Y918752I-781J-945D01*
G02X932673Y917524I-1228J0D01*
G02X932417Y917551I3J1228D01*
G03X932114Y917492I-82J-385D01*
G01X931642Y917173D01*
G03X931472Y916917I218J-328D01*
G01Y916913D01*
G02X930264Y915902I-1209J216D01*
G02Y918358I0J1228D01*
G02X930520Y918331I-3J-1228D01*
G03X930823Y918390I82J385D01*
G01X931295Y918709D01*
G03X931465Y918965I-218J328D01*
G01Y918969D01*
G02X931591Y919335I1210J-212D01*
G03X931630Y919594I-347J185D01*
G01X931535Y920087D01*
G03X931402Y920315I-387J-74D01*
G37*
G36*
G01X912441Y942630D02*
G02X911417Y942079I-1024J675D01*
G02Y944535I0J1228D01*
G02X911831Y944465I2J-1229D01*
G03X912756Y944772I266J745D01*
G02X913780Y945323I1024J-675D01*
G02Y942866I0J-1228D01*
G02X913366Y942937I-2J1229D01*
G03X912441Y942630I-266J-745D01*
G37*
G36*
G01X937768Y961209D02*
G02X937748Y961417I1208J219D01*
G02X940205I1228J0D01*
G02X939047Y960193I-1226J0D01*
G03X938315Y959264I48J-791D01*
G02X938335Y959055I-1208J-219D01*
G02X935878I-1228J0D01*
G02X937035Y960280I1226J0D01*
G03X937768Y961209I-48J791D01*
G37*
G36*
G01X947606Y967429D02*
G02X947591Y967618I1212J196D01*
G02X950047I1228J0D01*
G02X949134Y966429I-1231J0D01*
G03X948555Y965543I203J-765D01*
G02X948571Y965354I-1212J-196D01*
G02X946114I-1228J0D01*
G02X947028Y966543I1231J0D01*
G03X947606Y967429I-203J765D01*
G37*
G36*
G01X934642Y969358D02*
G02X934598Y969685I1185J323D01*
G02X937055I1228J0D01*
G02X936354Y968575I-1230J0D01*
G03X935929Y967650I337J-715D01*
G02X935972Y967323I-1185J-323D01*
G02X933516I-1228J0D01*
G02X934217Y968433I1230J0D01*
G03X934642Y969358I-337J715D01*
G37*
G36*
G01X947626Y972394D02*
G02X946409Y973622I12J1228D01*
G02X948866I1228J0D01*
G02X948846Y973413I-1227J11D01*
G03X949618Y972488I780J-133D01*
G02X950835Y971260I-12J-1228D01*
G02X948378I-1228J0D01*
G02X948398Y971469I1227J-11D01*
G03X947626Y972394I-780J133D01*
G37*
G36*
G01X922354Y986366D02*
G02X922252Y986362I-98J1225D01*
G02Y988819I0J1228D01*
G02X923465Y987795I0J-1230D01*
G03X923610Y987551I388J66D01*
G01X924035Y987224D01*
G03X924307Y987142I242J309D01*
G02X924409Y987146I98J-1225D01*
G02X925638Y985917I0J-1228D01*
G02X925591Y985579I-1229J-1D01*
G03X925602Y985327I378J-109D01*
G01X925689Y985091D01*
G03X925850Y984898I368J144D01*
G02X926425Y983858I-652J-1039D01*
G02X923969I-1228J0D01*
G02X924016Y984197I1229J1D01*
G03X924004Y984449I-378J109D01*
G01X923917Y984685D01*
G03X923756Y984878I-368J-144D01*
G02X923197Y985713I652J1041D01*
G03X923051Y985957I-388J-66D01*
G01X922626Y986283D01*
G03X922354Y986366I-242J-309D01*
G37*
G36*
G01X907591Y988740D02*
G02X907039Y989764I675J1024D01*
G02X909496I1228J0D01*
G02X909425Y989350I-1229J-2D01*
G03X909421Y989094I370J-134D01*
G01X909575Y988630D01*
G03X909732Y988425I374J125D01*
G02X910283Y987402I-675J-1024D01*
G02X909858Y986472I-1228J0D01*
G03X909720Y986189I256J-300D01*
G01X909701Y985610D01*
G03X909815Y985315I393J-18D01*
G02X910173Y984449I-868J-866D01*
G02X907717I-1228J0D01*
G02X908142Y985378I1228J0D01*
G03X908280Y985661I-256J300D01*
G01X908299Y986240D01*
G03X908185Y986535I-393J18D01*
G02X907827Y987402I868J866D01*
G02X907898Y987815I1229J2D01*
G03X907902Y988071I-370J134D01*
G01X907748Y988535D01*
G03X907591Y988740I-374J-125D01*
G37*
G36*
G01X921193Y1008835D02*
X921189D01*
G02X918685Y1012441I1345J3606D01*
G02X926378I3846J0D01*
G02X924035Y1008902I-3845J0D01*
G03X923811Y1008654I152J-363D01*
G01X923634Y1008071D01*
G03X923681Y1007740I377J-115D01*
G02X923882Y1007067I-1028J-673D01*
G02X923846Y1006772I-1229J-2D01*
G03X923870Y1006516I382J-94D01*
G01X924079Y1006063D01*
G03X924260Y1005878I356J167D01*
G02X926378Y1002441I-1730J-3437D01*
G02X918685I-3846J0D01*
G02X920988Y1005965I3847J0D01*
G03X921177Y1006142I-159J359D01*
G01X921409Y1006579D01*
G03X921449Y1006835I-349J185D01*
G01Y1006839D01*
G02X921425Y1007067I1204J240D01*
G02X921594Y1007693I1229J3D01*
G03X921630Y1008024I-337J203D01*
G01X921425Y1008598D01*
G03X921193Y1008835I-371J-132D01*
G37*
G36*
G01X892984Y1017165D02*
G02X892976Y1017315I1221J139D01*
G02X895433I1228J0D01*
G02X895075Y1016449I-1226J0D01*
G03X895106Y1015299I559J-560D01*
G02X896378Y1012441I-2576J-2858D01*
G02X888685I-3846J0D01*
G02X892256Y1016280I3849J0D01*
G03X892984Y1017165I-56J788D01*
G37*
G36*
G01X823398Y1026398D02*
G02X822441Y1025937I-957J763D01*
G02Y1028394I0J1228D01*
G02X823398Y1027933I0J-1224D01*
G03X824634I618J497D01*
G02X825591Y1028394I957J-763D01*
G02Y1025937I0J-1228D01*
G02X824634Y1026398I0J1224D01*
G03X823398I-618J-497D01*
G37*
G36*
G01X870205Y1030146D02*
G02X869744Y1031102I763J957D01*
G02X872201I1228J0D01*
G02X871740Y1030146I-1224J0D01*
G03Y1028909I497J-618D01*
G02X872201Y1027953I-763J-957D01*
G02X869744I-1228J0D01*
G02X870205Y1028909I1224J0D01*
G03Y1030146I-497J618D01*
G37*
G36*
G01X885362D02*
G02X884902Y1031102I763J957D01*
G02X887358I1228J0D01*
G02X886898Y1030146I-1224J0D01*
G03Y1028909I497J-618D01*
G02X887358Y1027953I-763J-957D01*
G02X884902I-1228J0D01*
G02X885362Y1028909I1224J0D01*
G03Y1030146I-497J618D01*
G37*
G36*
G01X901110D02*
G02X900650Y1031102I763J957D01*
G02X903106I1228J0D01*
G02X902646Y1030146I-1224J0D01*
G03Y1028909I497J-618D01*
G02X903106Y1027953I-763J-957D01*
G02X900650I-1228J0D01*
G02X901110Y1028909I1224J0D01*
G03Y1030146I-497J618D01*
G37*
G36*
G01X915303Y1039480D02*
G02X916142Y1039811I839J-898D01*
G02X917098Y1039350I0J-1224D01*
G03X917406Y1039205I306J248D01*
G01X918028D01*
G03X918335Y1039350I1J394D01*
G02X919291Y1039811I957J-763D01*
G02Y1037354I0J-1228D01*
G02X918335Y1037815I0J1224D01*
G03X918028Y1037961I-306J-248D01*
G01X917406D01*
G03X917098Y1037815I-1J-394D01*
G02X916142Y1037354I-957J763D01*
G02X915303Y1037685I0J1229D01*
G03X915035Y1037791I-269J-287D01*
G01X914492D01*
G03X914224Y1037685I1J-394D01*
G02X913386Y1037354I-839J898D01*
G02X912669Y1037587I2J1228D01*
G01X912665D01*
G03X912437Y1037661I-231J-319D01*
G01X911972D01*
G03X911744Y1037587I2J-394D01*
G01X911740D01*
G02X911024Y1037354I-719J995D01*
G02Y1039811I0J1228D01*
G02X911740Y1039579I-2J-1228D01*
G01X911744D01*
G03X911972Y1039504I231J319D01*
G01X912437D01*
G03X912665Y1039579I-2J394D01*
G01X912669D01*
G02X913386Y1039811I719J-995D01*
G02X914224Y1039480I0J-1229D01*
G03X914492Y1039374I269J287D01*
G01X915035D01*
G03X915303Y1039480I-1J394D01*
G37*
G36*
G01X878043Y1038146D02*
G02X876921Y1039370I107J1224D01*
G02X879378I1228J0D01*
G02X879331Y1039039I-1227J7D01*
G03X880028Y1038035I762J-215D01*
G02X881150Y1036811I-107J-1224D01*
G02X878693I-1228J0D01*
G02X878740Y1037142I1227J-7D01*
G03X878043Y1038146I-762J215D01*
G37*
G36*
G01X879291Y1043638D02*
G02X878154Y1042870I-1138J459D01*
G02Y1045327I0J1228D01*
G02X878661Y1045217I0J-1225D01*
G03X879724Y1045638I330J720D01*
G02X880862Y1046406I1138J-459D01*
G02Y1043949I0J-1228D01*
G02X880354Y1044059I0J1225D01*
G03X879291Y1043638I-330J-720D01*
G37*
G36*
G01X905547Y1049417D02*
G02X905268Y1050197I947J780D01*
G02X907724I1228J0D01*
G02X907445Y1049417I-1227J0D01*
G03Y1048417I614J-500D01*
G02X907724Y1047638I-947J-780D01*
G02X905268I-1228J0D01*
G02X905547Y1048417I1227J0D01*
G03Y1049417I-614J500D01*
G37*
G36*
G01X816000Y1093441D02*
G02X815354Y1093260I-642J1048D01*
G02Y1095717I0J1228D01*
G02X816445Y1095055I0J-1230D01*
G03X816689Y1094858I348J182D01*
G01X817248Y1094701D01*
G03X817559Y1094748I101J380D01*
G02X818205Y1094929I642J-1048D01*
G02X818965Y1094665I0J-1226D01*
G03X819209Y1094579I247J308D01*
G01X819469D01*
G03X819713Y1094665I-3J394D01*
G02X820472Y1094929I760J-963D01*
G02Y1092472I0J-1228D01*
G02X819713Y1092736I0J1226D01*
G03X819469Y1092823I-247J-308D01*
G01X819209D01*
G03X818965Y1092736I3J-394D01*
G02X818205Y1092472I-760J963D01*
G02X817114Y1093134I0J1230D01*
G03X816870Y1093331I-348J-182D01*
G01X816311Y1093488D01*
G03X816000Y1093441I-101J-380D01*
G37*
G36*
G01X837067Y1093398D02*
G02X837063Y1093504I1225J99D01*
G02X838291Y1094732I1228J0D01*
G02X838496Y1094717I8J-1229D01*
G03X838768Y1094768I68J387D01*
G01X839209Y1095039D01*
G03X839382Y1095256I-201J338D01*
G02X840551Y1096110I1169J-373D01*
G02Y1093654I0J-1228D01*
G02X840346Y1093669I-8J1229D01*
G03X840075Y1093618I-68J-387D01*
G01X839634Y1093346D01*
G03X839461Y1093130I201J-338D01*
G02X838496Y1092291I-1171J373D01*
G03X838248Y1092146I61J-389D01*
G01X837917Y1091720D01*
G03X837839Y1091445I314J-239D01*
G02X837843Y1091339I-1225J-99D01*
G02X835386I-1228J0D01*
G02X836409Y1092551I1230J0D01*
G03X836657Y1092697I-61J389D01*
G01X836988Y1093122D01*
G03X837067Y1093398I-314J239D01*
G37*
G36*
G01X800437Y1096024D02*
G02X799362Y1097244I156J1220D01*
G02X800591Y1098472I1228J0D01*
G02X801819Y1097264I0J-1229D01*
G03X802512Y1096492I790J13D01*
G02X803587Y1095272I-156J-1220D01*
G02X802358Y1094043I-1228J0D01*
G02X801130Y1095252I0J1229D01*
G03X800437Y1096024I-790J-13D01*
G37*
G36*
G01X872996Y1109583D02*
X873461D01*
G03X873689Y1109657I-2J394D01*
G01X873693D01*
G02X874409Y1109890I719J-995D01*
G02X875638Y1108693I0J-1229D01*
G03X875752Y1108421I394J6D01*
G01X876138Y1108035D01*
G03X876409Y1107921I277J280D01*
G02X877606Y1106693I-32J-1228D01*
G02X877417Y1106035I-1229J-3D01*
G03X877354Y1105827I330J-214D01*
G01Y1105591D01*
G03X877417Y1105382I393J5D01*
G02X877606Y1104724I-1040J-655D01*
G02X875150I-1228J0D01*
G02X875339Y1105382I1229J3D01*
G03X875402Y1105591I-330J214D01*
G01Y1105827D01*
G03X875339Y1106035I-393J-5D01*
G02X875150Y1106661I1040J655D01*
G03X875035Y1106933I-394J-6D01*
G01X874650Y1107319D01*
G03X874378Y1107433I-277J-280D01*
G02X873693Y1107665I34J1228D01*
G01X873689D01*
G03X873461Y1107740I-231J-319D01*
G01X872996D01*
G03X872768Y1107665I2J-394D01*
G01X872764D01*
G02X872047Y1107433I-719J995D01*
G02Y1109890I0J1228D01*
G02X872764Y1109657I-2J-1228D01*
G01X872768D01*
G03X872996Y1109583I231J319D01*
G37*
G54D22*
X799213Y1014173D03*
G54D24*
X863272Y1152756D03*
X872327D03*
G54D23*
X802165Y1136024D03*
X794173D03*
X798169Y1106024D03*
G54D21*
X812598Y852362D03*
X982610Y922441D03*
X992610Y932441D03*
X982610D03*
X992610Y942441D03*
X982610D03*
X992610Y952441D03*
X982610D03*
X992610Y872441D03*
Y962441D03*
X982610Y872441D03*
X992610Y882441D03*
X812531Y922441D03*
X822531Y932441D03*
X812531D03*
X822531Y942441D03*
X812531D03*
X822531Y952441D03*
X812531D03*
X822531Y872441D03*
Y962441D03*
X812531Y872441D03*
X822531Y882441D03*
X812531D03*
X822531Y892441D03*
X812531D03*
X822531Y902441D03*
X812531D03*
X822531Y912441D03*
X812531D03*
X822531Y922441D03*
X812531Y962441D03*
X982610Y882441D03*
X992610Y892441D03*
X982610D03*
X992610Y902441D03*
X982610D03*
X992610Y912441D03*
X982610D03*
X992610Y922441D03*
X982610Y962441D03*
X862807Y872492D03*
Y862492D03*
X852807Y872492D03*
Y862492D03*
X992520Y852362D03*
X812598Y842362D03*
X992520D03*
X983858Y1022441D03*
Y1002441D03*
Y1012441D03*
X902531Y1002441D03*
Y1012441D03*
X912531Y1002441D03*
Y1012441D03*
X832531Y1002441D03*
Y1012441D03*
X842531Y1002441D03*
X932531D03*
X842531Y1012441D03*
X852531Y1002441D03*
Y1012441D03*
X862531Y1002441D03*
Y1012441D03*
X872531Y1002441D03*
Y1012441D03*
X882531Y1002441D03*
Y1012441D03*
X892531Y1002441D03*
X932531Y1012441D03*
G54D25*
X921654Y853543D03*
G54D20*
X978831Y1039567D03*
X903346Y939567D03*
X883465Y916142D03*
X876772Y917717D03*
X883465Y937402D03*
X877953Y931102D03*
X920079Y938976D03*
X883465Y949803D03*
Y954724D03*
X868898D03*
X935827Y979031D03*
X938047Y976236D03*
X933075Y908661D03*
X935433Y946850D03*
X798228Y858465D03*
X889244Y979626D03*
X905516Y971260D03*
X950787Y914961D03*
X948898Y942441D03*
X952764Y918528D03*
X1007480Y882677D03*
X911811Y993701D03*
X931921Y1024055D03*
X927953Y991732D03*
X939370Y983465D03*
X950394Y975984D03*
X872531Y984154D03*
X944988Y1025984D03*
X917819Y946063D03*
X928150Y1022240D03*
X909252Y951969D03*
X946850Y1022079D03*
X917323Y992028D03*
X962984Y913394D03*
X962638Y1006988D03*
X909449Y971260D03*
X910433Y948031D03*
X915748Y949213D03*
X930709Y870866D03*
X959449Y914173D03*
X947638Y899606D03*
X863189Y1096457D03*
X967555Y1027953D03*
X926575Y884941D03*
X929528Y890846D03*
X849803Y1083858D03*
X881693Y1068906D03*
X937205Y1138386D03*
X807874Y1059154D03*
X927165Y1147244D03*
X1009449Y1039917D03*
X953764Y1083268D03*
X989173Y1040461D03*
X919291Y1087598D03*
X847835Y1045768D03*
X945677Y1121252D03*
X949957Y1068307D03*
X1012114Y1087008D03*
X865110Y1106299D03*
X794488Y1093307D03*
X794728Y1097189D03*
X858366Y1016831D03*
X968504Y1138189D03*
X840748Y1130315D03*
X941142Y1028346D03*
X813669Y1111665D03*
X816449Y1138437D03*
X838583Y1107087D03*
X962598Y1090157D03*
X923228Y1116142D03*
X860630Y1039173D03*
X1002165Y1085630D03*
X922441Y1064370D03*
X850787Y1106602D03*
X811024Y1128740D03*
X797630Y1112807D03*
X813780Y1133071D03*
X923126Y920079D03*
X815354Y1106299D03*
X808661Y1085433D03*
X824606Y1133858D03*
X845776Y1114370D03*
X812598Y1115354D03*
X829134Y1043701D03*
X794094Y1068898D03*
X794382Y1087402D03*
X848425Y1030917D03*
X867169Y1066925D03*
X995575Y1086220D03*
X818110Y1104087D03*
X861862Y1107480D03*
X868902Y1053941D03*
X872835Y1075787D03*
X911024Y1133276D03*
X797921Y1128740D03*
X939567Y1112402D03*
X1012587Y1083465D03*
X995669Y1089764D03*
X814567Y1052362D03*
X984843Y1124909D03*
X869780Y1044098D03*
X958661Y1090157D03*
X967413Y1083366D03*
X974213Y1076969D03*
X1003740Y1040157D03*
X807874Y1073228D03*
X810630Y1082780D03*
X987205Y1112205D03*
X806890Y1051083D03*
X797571Y1123760D03*
X815354Y1082283D03*
X996260Y1040157D03*
X893504Y1118504D03*
X811811Y1105610D03*
X832480Y1023622D03*
X825591Y1043307D03*
X820079Y1088189D03*
X1001969Y1060827D03*
X976772Y1138189D03*
X1006693Y1061024D03*
X987402Y1064173D03*
X842913Y1091732D03*
X849209Y1095280D03*
X967323Y1147244D03*
X861024Y1142717D03*
X922047Y906693D03*
X922835Y1056890D03*
X890748Y1124598D03*
X894094D03*
X897441D03*
X827165Y1138189D03*
X892126Y1136614D03*
X895669D03*
%LPD*%
G75*
G54D10*
X797244Y797244D03*
Y1152362D03*
X1007087Y797244D03*
Y1152362D03*
G54D11*
X790748Y839370D03*
X791142Y960039D03*
Y1036614D03*
X790354Y1026181D03*
X791339Y1050972D03*
X790748Y1058858D03*
X790945Y1062795D03*
Y1066732D03*
X803150Y836811D03*
X797244Y853543D03*
X797441Y884252D03*
X798228Y869882D03*
X804331Y876772D03*
X797244Y897244D03*
X794094Y948819D03*
X792913Y968110D03*
X797638Y996850D03*
X801575Y1037795D03*
X804331Y1031102D03*
X798276Y1025835D03*
X796457Y1050972D03*
X801772Y1042717D03*
X794094Y1066535D03*
X796850Y1081445D03*
X794185Y1072835D03*
X796260Y1074854D03*
X794382Y1083858D03*
X799213Y1101969D03*
X795669D03*
X807480Y1112992D03*
Y1115157D03*
X793835Y1118823D03*
X807433Y1117126D03*
X797244Y1140748D03*
X805512Y1132787D03*
X808268Y987402D03*
X807980Y995866D03*
X814961Y1000394D03*
X810039Y1025787D03*
X813780Y1028346D03*
X822441Y1044094D03*
X808661Y1067323D03*
X811024Y1062992D03*
X822835D03*
X822638Y1055118D03*
X812795Y1074409D03*
X811614Y1069685D03*
X817323Y1084449D03*
Y1090157D03*
X820472Y1126378D03*
Y1116535D03*
X809843Y1140945D03*
X816087Y1135228D03*
X810039Y1145713D03*
X814657Y1136736D03*
X830118Y836220D03*
X835433Y838189D03*
X826772Y853150D03*
X824409Y838583D03*
X837402Y857480D03*
X823622Y862992D03*
X831102Y888189D03*
X837008Y902756D03*
X832677Y968504D03*
X828937Y978150D03*
X826772Y995669D03*
X836024Y1020866D03*
X833465Y1020472D03*
X838189Y1032874D03*
X831980Y1031890D03*
Y1033965D03*
X833465Y1043307D03*
X834646Y1062992D03*
X834843Y1055118D03*
X834646Y1078740D03*
X824803Y1094882D03*
X833232Y1095374D03*
X824803Y1090551D03*
X831102Y1095079D03*
X835039Y1110630D03*
X825591Y1121260D03*
X830315Y1116535D03*
Y1126378D03*
X834252Y1131890D03*
Y1133858D03*
X836614Y1133965D03*
Y1131890D03*
X837402Y1137689D03*
X848425Y851969D03*
X846457Y838976D03*
X844488Y867323D03*
X841732Y883071D03*
Y914173D03*
X851969Y915748D03*
X839567Y931890D03*
X850787Y933268D03*
X843307Y939764D03*
X853543Y950000D03*
X840157Y950394D03*
X844094Y969488D03*
X851969Y1030799D03*
X843110Y1047244D03*
X842520Y1068898D03*
X850394Y1062992D03*
Y1055118D03*
Y1078740D03*
X852953Y1108358D03*
X844886Y1106732D03*
X849205Y1111024D03*
X847244Y1106799D03*
X849205Y1113386D03*
X841339Y1107768D03*
X845744Y1109803D03*
X846760Y1111614D03*
X844831Y1104657D03*
X841437Y1111917D03*
X843504Y1127953D03*
X846413Y1125197D03*
X851181Y1128740D03*
X845866Y1127953D03*
X849606Y1125984D03*
X844339Y1122441D03*
X850000Y1138583D03*
X852756D03*
X858268Y837008D03*
X868110Y851181D03*
X859055Y846063D03*
X868504Y864961D03*
X866142Y899409D03*
X854724Y886220D03*
X865945Y903346D03*
X853937Y902756D03*
X866929Y939764D03*
X857874Y974409D03*
X868898Y978543D03*
X857480Y996063D03*
X868898Y998425D03*
X857480Y1022744D03*
X854382Y1033071D03*
X861811Y1028740D03*
X866142Y1024016D03*
X856299Y1028740D03*
X857087Y1046654D03*
X868504Y1063386D03*
X854331Y1068898D03*
X867232Y1079134D03*
X858465D03*
X858661Y1084252D03*
X856307Y1111311D03*
Y1113386D03*
X860287Y1105118D03*
X868504Y1119488D03*
X864181Y1123622D03*
X857079Y1120866D03*
X860091Y1126772D03*
X857079Y1123228D03*
X860236Y1118004D03*
X864567Y1126772D03*
X862205D03*
X858465Y1143067D03*
X856693Y1140945D03*
X855512Y1138583D03*
X867323Y1149409D03*
X860433Y1158465D03*
X854331Y1150984D03*
X869291Y836614D03*
X877559Y836220D03*
X881181Y835827D03*
X877953Y848425D03*
X881496Y862992D03*
X873622Y874016D03*
X870866Y895866D03*
X870079Y885039D03*
X883071Y892126D03*
X875984Y909055D03*
X881142Y900480D03*
X869094Y909055D03*
X878346Y914173D03*
X880264Y902362D03*
X878295Y908366D03*
X870079Y915748D03*
X880709D03*
X874409Y933465D03*
X881496Y935827D03*
X879724Y975197D03*
X883071Y1037402D03*
X881693Y1023228D03*
X870866Y1034646D03*
Y1024016D03*
X871850Y1040945D03*
X869366Y1039409D03*
X875787Y1038780D03*
X869291Y1067272D03*
X875091Y1064173D03*
X872835Y1067272D03*
X877165Y1066492D03*
X875106Y1069291D03*
X877953Y1079232D03*
X883268Y1070669D03*
X877559Y1084252D03*
X874016Y1083858D03*
X884343Y1092913D03*
X871567Y1103650D03*
X871543Y1101575D03*
X882480Y1111220D03*
Y1118307D03*
X879724Y1145472D03*
X875197Y1140551D03*
X877559Y1142323D03*
X883071Y1145472D03*
X880118Y1151772D03*
X874016Y1158661D03*
X898031Y836614D03*
X885827Y836220D03*
X888583Y838189D03*
X898425Y848425D03*
X899016Y853346D03*
X899606Y838976D03*
X885827Y846850D03*
X897638Y841339D03*
X891339Y838583D03*
X885433Y853937D03*
X890157Y863386D03*
X898819Y864567D03*
X888780Y876575D03*
X899606Y873228D03*
X890945Y871654D03*
X888819Y879528D03*
X888583Y874409D03*
X898031Y882283D03*
X885433Y884646D03*
X890551Y899213D03*
X898425Y887402D03*
X898819Y893201D03*
X888583Y892126D03*
X885827Y889173D03*
X892520Y944094D03*
X894488D03*
Y942126D03*
X892520D03*
X895669Y976378D03*
X889764Y969685D03*
X887008Y995669D03*
X893701D03*
X884843Y1021457D03*
X889106Y1023819D03*
X892913Y1028740D03*
X891339Y1044291D03*
X898909Y1038976D03*
X886614Y1078937D03*
X888886Y1092717D03*
X886614Y1090594D03*
X884449Y1114764D03*
X886417Y1111220D03*
X885039Y1107874D03*
Y1105118D03*
X887795Y1106693D03*
X886417Y1118307D03*
X884646Y1147244D03*
X887591Y1152756D03*
Y1157283D03*
X892323Y1149008D03*
X896063D03*
X904331Y837795D03*
X914567D03*
X904528Y847638D03*
X905315Y864961D03*
X915157Y884252D03*
X910630Y869685D03*
X904331Y879921D03*
X900787Y884646D03*
X900244Y894850D03*
X902756Y956299D03*
X909449Y978346D03*
X901969Y1035039D03*
X901575Y1024803D03*
X911024Y1026772D03*
X913780D03*
X900185Y1054331D03*
X913780Y1064764D03*
X908071Y1066929D03*
X909244Y1055512D03*
X912992Y1059260D03*
X906102Y1080906D03*
X908071Y1084449D03*
X910039Y1080906D03*
X911425Y1071654D03*
X911413Y1073728D03*
X906102Y1087992D03*
X910039D03*
X908465Y1097047D03*
Y1094882D03*
Y1092323D03*
X907677Y1111811D03*
X911417Y1123031D03*
X914961Y1124606D03*
X911417Y1125984D03*
X900602Y1122441D03*
X906496Y1125248D03*
X902953Y1125008D03*
X914961Y1136524D03*
X902756Y1140945D03*
X912992Y1134646D03*
X909843Y1152756D03*
X900205Y1152953D03*
Y1157480D03*
X929528Y837402D03*
X921654Y839567D03*
X915354Y867717D03*
X925591Y871654D03*
X928004Y904331D03*
X925591Y906602D03*
X927165Y925106D03*
X925390Y921067D03*
X921260Y933858D03*
X919685Y931102D03*
X923622Y954331D03*
X929134Y950787D03*
X920079Y956299D03*
X925591Y967323D03*
X922047Y977559D03*
X916142Y1026772D03*
X918504D03*
X924213Y1051772D03*
X929921Y1052559D03*
X923228Y1068110D03*
X927469D03*
X917528Y1055709D03*
X927559Y1054921D03*
X928535Y1079921D03*
Y1076378D03*
X924409Y1083465D03*
X918791Y1090551D03*
X926969Y1107480D03*
X924016Y1105118D03*
X919685Y1108661D03*
X915748D03*
X918307Y1123031D03*
Y1125984D03*
X921260Y1124409D03*
X923622D03*
X924016Y1127559D03*
X929134Y1135039D03*
X923622Y1137008D03*
X916732Y1148819D03*
X929331Y1149567D03*
X916535Y1155906D03*
X940945Y837402D03*
X935039Y853543D03*
X945669Y846850D03*
X941732Y866142D03*
X935039Y881193D03*
X943307Y878346D03*
X933268Y885039D03*
X943307Y884646D03*
X945276Y989764D03*
X932283Y984252D03*
X941732Y1020079D03*
X945276Y1034449D03*
X937689Y1041142D03*
X945563Y1044094D03*
X939961Y1038386D03*
X942323D03*
X943307Y1065354D03*
X934646Y1071654D03*
X943701Y1088976D03*
X940945Y1088583D03*
X931102Y1102154D03*
X933465Y1102362D03*
X942520Y1116929D03*
X943701Y1129134D03*
X944882Y1137795D03*
X942126Y1135827D03*
X931693Y1149606D03*
X957480Y837008D03*
X954724Y844094D03*
X951181Y856299D03*
X948425Y894882D03*
X954724Y928740D03*
X954331Y951181D03*
X957874Y991732D03*
X955118Y984252D03*
X950268Y984646D03*
X951181Y1009449D03*
X954724Y1020472D03*
X960039Y1031693D03*
X957480Y1038976D03*
X947638Y1041776D03*
X948819Y1065646D03*
X946063D03*
X960630Y1082677D03*
Y1076378D03*
X947638Y1074122D03*
X950051Y1072047D03*
X955118Y1077165D03*
X960630Y1098425D03*
X959449Y1096457D03*
X946063Y1091339D03*
X949213Y1095276D03*
X952362D03*
X954331Y1115748D03*
Y1117717D03*
Y1125591D03*
X953161Y1144882D03*
X951087D03*
X951189Y1142126D03*
X950787Y1137795D03*
X947638D03*
X959449Y1144094D03*
X953929Y1159449D03*
X953941Y1157374D03*
X970079Y836614D03*
X968110Y846850D03*
X969291Y865748D03*
X966929Y855118D03*
X967717Y877165D03*
X966142Y895276D03*
X963780Y887008D03*
X962205Y899606D03*
X975591Y904724D03*
X965354Y909843D03*
X973622Y929921D03*
X974409Y920079D03*
X961811Y938976D03*
X972835Y955512D03*
X963780Y963780D03*
X965354Y987402D03*
X973622Y982283D03*
X976378Y999606D03*
X973622Y1010228D03*
X972441Y1030315D03*
X970472Y1055118D03*
X974016Y1060236D03*
X965354Y1059843D03*
X969685Y1064567D03*
X973622Y1068453D03*
X966142Y1077165D03*
X971350Y1070866D03*
X961811Y1096457D03*
X968504Y1094094D03*
X963386Y1112598D03*
X965354Y1101575D03*
X970866Y1123622D03*
Y1121654D03*
Y1115748D03*
X968110Y1128740D03*
X961811Y1142520D03*
X965354Y1137795D03*
X962598D03*
X976772Y1134252D03*
X964764Y1153004D03*
X973819Y1156102D03*
Y1149213D03*
X967035Y1150984D03*
X962492D03*
X979921Y836614D03*
X983071Y851181D03*
X988189Y877165D03*
X988583Y899606D03*
X985827Y970866D03*
X985039Y991732D03*
X979134Y1027165D03*
X989961D03*
X989370Y1068110D03*
X977953Y1055118D03*
X981496Y1065945D03*
X986409Y1082283D03*
X988933Y1076193D03*
X979528Y1081102D03*
X991339Y1070866D03*
X979528Y1085827D03*
X986409Y1089764D03*
Y1086220D03*
X985827Y1099606D03*
X985835Y1095669D03*
X982283Y1093102D03*
X987161Y1128740D03*
X988094Y1121362D03*
X982677Y1116142D03*
X989476Y1137008D03*
X988232Y1145866D03*
X987205Y1131693D03*
X984933Y1137008D03*
X983071Y1156693D03*
X982677Y1149213D03*
X1003543Y837795D03*
X1006299Y858268D03*
X1000000Y879528D03*
X1002362Y897638D03*
X999606Y925197D03*
X1004331Y974213D03*
X1002756Y987992D03*
X993110Y1010039D03*
X1003543Y1022768D03*
X996551D03*
X1007480Y1028346D03*
X993110Y1028543D03*
X1004134Y1050000D03*
X995669Y1083858D03*
X1006299Y1110638D03*
X1001579Y1108079D03*
X998819Y1111024D03*
X1003937Y1126764D03*
X1006693D03*
X999213Y1127953D03*
X996457Y1127862D03*
X1001575Y1124803D03*
Y1122047D03*
X1013386Y841142D03*
X1010630Y862992D03*
X1011417Y886220D03*
X1011614Y905709D03*
Y926772D03*
X1012205Y941732D03*
X1013386Y959449D03*
X1014173Y966535D03*
X1008268Y1005512D03*
X1013780Y1019685D03*
Y1028937D03*
Y1047244D03*
X1014961Y1068110D03*
X1012598Y1079528D03*
X1013780Y1075787D03*
X1014173Y1098425D03*
X1009449Y1110638D03*
G54D12*
G01X994346Y687303D02*
Y690402D01*
X995343Y687819D01*
X996339Y690402D01*
Y687303D01*
G01X999283Y690142D02*
X999055Y690299D01*
X998787Y690402D01*
X998480D01*
X998134Y690248D01*
X997866Y689988D01*
X997673Y689677D01*
X997520Y689161D01*
X997484Y688697D01*
X997559Y688232D01*
X997673Y687921D01*
X997906Y687614D01*
X998173Y687406D01*
X998441Y687303D01*
X998709D01*
X998976Y687406D01*
X999209Y687563D01*
X999398Y687768D01*
G01X1000697Y690402D02*
Y688181D01*
X1000850Y687717D01*
X1001157Y687406D01*
X1001539Y687303D01*
X1001921Y687406D01*
X1002228Y687717D01*
X1002382Y688181D01*
Y690402D01*
G01X1004638D02*
X1004331Y690299D01*
X1004102Y690039D01*
X1003949Y689728D01*
X1003835Y689319D01*
X1003795Y688850D01*
X1003835Y688386D01*
X1003949Y687976D01*
X1004102Y687665D01*
X1004331Y687406D01*
X1004638Y687303D01*
X1004945Y687406D01*
X1005173Y687665D01*
X1005327Y687976D01*
X1005441Y688386D01*
X1005480Y688850D01*
X1005441Y689319D01*
X1005327Y689728D01*
X1005173Y690039D01*
X1004945Y690299D01*
X1004638Y690402D01*
G01X1007661Y687303D02*
X1007736Y687976D01*
X1007850Y688543D01*
X1008004Y689059D01*
X1008197Y689626D01*
X1008504Y690402D01*
X1006969D01*
G01X1009992Y687768D02*
X1010220Y687508D01*
X1010488Y687354D01*
X1010835Y687303D01*
X1011181Y687406D01*
X1011449Y687614D01*
X1011638Y687976D01*
X1011677Y688386D01*
X1011602Y688799D01*
X1011409Y689059D01*
X1011142Y689264D01*
X1010874Y689319D01*
X1010606Y689264D01*
X1010260Y689059D01*
X1010374Y690402D01*
X1011409D01*
G01X1016264Y687303D02*
Y690402D01*
X1017224D01*
X1017531Y690248D01*
X1017720Y690039D01*
X1017799Y689626D01*
X1017720Y689213D01*
X1017492Y688957D01*
X1017224Y688799D01*
X1016264D01*
G01X1017224D02*
X1017799Y687303D01*
G01X1019555Y688697D02*
X1020780D01*
X1020665Y689059D01*
X1020476Y689264D01*
X1020205Y689370D01*
X1019937Y689319D01*
X1019709Y689161D01*
X1019555Y688799D01*
X1019480Y688492D01*
Y688181D01*
X1019555Y687870D01*
X1019748Y687563D01*
X1019976Y687354D01*
X1020244Y687303D01*
X1020512Y687406D01*
X1020780Y687717D01*
G01X1022539Y689370D02*
X1023228Y687303D01*
X1023917Y689370D01*
G01X1026327Y687201D02*
X1026252Y687252D01*
Y687354D01*
X1026327Y687406D01*
X1026402Y687354D01*
Y687252D01*
X1026327Y687201D01*
G01X1031567Y687303D02*
X1032524Y690402D01*
X1033480Y687303D01*
G01X1033138Y688386D02*
X1031909D01*
G01X994280Y698374D02*
Y695276D01*
X995815D01*
G01X997378D02*
Y698374D01*
X998299D01*
X998606Y698220D01*
X998835Y697858D01*
X998913Y697445D01*
X998835Y697031D01*
X998646Y696720D01*
X998299Y696567D01*
X997378D01*
G01X1000744Y696307D02*
X1001744D01*
G01X1005185Y698114D02*
X1004957Y698272D01*
X1004689Y698374D01*
X1004382D01*
X1004035Y698220D01*
X1003768Y697961D01*
X1003575Y697650D01*
X1003421Y697134D01*
X1003386Y696669D01*
X1003461Y696205D01*
X1003575Y695894D01*
X1003807Y695587D01*
X1004075Y695378D01*
X1004343Y695276D01*
X1004610D01*
X1004878Y695378D01*
X1005110Y695535D01*
X1005299Y695740D01*
G01X1008283Y698114D02*
X1008055Y698272D01*
X1007787Y698374D01*
X1007480D01*
X1007134Y698220D01*
X1006866Y697961D01*
X1006673Y697650D01*
X1006520Y697134D01*
X1006484Y696669D01*
X1006559Y696205D01*
X1006673Y695894D01*
X1006906Y695587D01*
X1007173Y695378D01*
X1007441Y695276D01*
X1007709D01*
X1007976Y695378D01*
X1008209Y695535D01*
X1008398Y695740D01*
G01X1009811Y697858D02*
X1010039Y698169D01*
X1010311Y698323D01*
X1010614Y698374D01*
X1011000Y698272D01*
X1011268Y698012D01*
X1011343Y697701D01*
X1011307Y697394D01*
X1011154Y697134D01*
X1010386Y696618D01*
X1010039Y696256D01*
X1009811Y695740D01*
X1009736Y695276D01*
X1011343D01*
G01X1012909Y696567D02*
X1013177Y696929D01*
X1013409Y697134D01*
X1013713Y697236D01*
X1013984Y697134D01*
X1014173Y696929D01*
X1014327Y696618D01*
X1014366Y696256D01*
X1014327Y695949D01*
X1014173Y695638D01*
X1013945Y695378D01*
X1013677Y695276D01*
X1013370Y695378D01*
X1013102Y695689D01*
X1012949Y696154D01*
X1012909Y696669D01*
X1012988Y697343D01*
X1013102Y697701D01*
X1013291Y698063D01*
X1013563Y698323D01*
X1013831Y698374D01*
X1014098Y698272D01*
X1014287Y698012D01*
G01X1015894Y695740D02*
X1016122Y695480D01*
X1016390Y695327D01*
X1016736Y695276D01*
X1017083Y695378D01*
X1017350Y695587D01*
X1017539Y695949D01*
X1017579Y696358D01*
X1017504Y696772D01*
X1017311Y697031D01*
X1017043Y697236D01*
X1016776Y697291D01*
X1016508Y697236D01*
X1016161Y697031D01*
X1016276Y698374D01*
X1017311D01*
G01X1019106Y697858D02*
X1019335Y698169D01*
X1019606Y698323D01*
X1019909Y698374D01*
X1020295Y698272D01*
X1020563Y698012D01*
X1020638Y697701D01*
X1020602Y697394D01*
X1020449Y697134D01*
X1019681Y696618D01*
X1019335Y696256D01*
X1019106Y695740D01*
X1019031Y695276D01*
X1020638D01*
G01X1022165D02*
Y698374D01*
X1023126D01*
X1023433Y698220D01*
X1023622Y698012D01*
X1023701Y697598D01*
X1023622Y697185D01*
X1023394Y696929D01*
X1023126Y696772D01*
X1022165D01*
G01X1023126D02*
X1023701Y695276D01*
G01X1025957D02*
X1026031Y695949D01*
X1026146Y696516D01*
X1026299Y697031D01*
X1026492Y697598D01*
X1026799Y698374D01*
X1025264D01*
X799409Y982957D03*
Y992012D03*
X872638Y797244D03*
X863272Y1152756D03*
X872327D03*
X931693Y797244D03*
X1005516Y992043D03*
Y982988D03*
G54D13*
X799213Y1014173D03*
G54D14*
G01X791634Y721260D02*
Y662205D01*
X1086909D01*
Y721260D01*
X791634D01*
G01X939272D02*
Y662205D01*
G01Y681890D02*
X1086909D01*
G01Y701575D02*
X939272D01*
G01X989177D02*
Y681890D01*
X798169Y1106024D03*
X802165Y1136024D03*
X794173D03*
G54D15*
X812598Y832362D03*
Y852362D03*
Y842362D03*
X822531Y872441D03*
Y882441D03*
X812531Y872441D03*
Y882441D03*
X822531Y892441D03*
Y902441D03*
X812531Y892441D03*
Y902441D03*
X822531Y912441D03*
X812531D03*
X822531Y922441D03*
Y932441D03*
X812531Y922441D03*
Y932441D03*
X822531Y942441D03*
X812531D03*
X822531Y952441D03*
Y962441D03*
X812531Y952441D03*
Y962441D03*
X832531Y1002441D03*
Y1012441D03*
X852807Y862492D03*
Y872492D03*
X842531Y1002441D03*
X852531D03*
X842531Y1012441D03*
X852531D03*
X862807Y862492D03*
Y872492D03*
X862531Y1002441D03*
Y1012441D03*
X872531Y1002441D03*
X882531D03*
X872531Y1012441D03*
X882531D03*
X892531Y1002441D03*
X902531D03*
X892531Y1012441D03*
X902531D03*
X912531Y1002441D03*
Y1012441D03*
X922531Y1002441D03*
X932531D03*
X922531Y1012441D03*
X932531D03*
X992520Y832362D03*
Y852362D03*
Y842362D03*
X992610Y872441D03*
Y882441D03*
X982610Y872441D03*
Y882441D03*
X992610Y892441D03*
Y902441D03*
X982610Y892441D03*
Y902441D03*
X992610Y912441D03*
X982610D03*
X992610Y922441D03*
Y932441D03*
X982610Y922441D03*
Y932441D03*
X992610Y942441D03*
X982610D03*
X992610Y952441D03*
Y962441D03*
X982610Y952441D03*
Y962441D03*
X983858Y1002441D03*
Y1012441D03*
Y1022441D03*
G54D16*
X816732Y1152165D03*
X847835D03*
G54D17*
X896063Y907874D03*
X900000D03*
Y911811D03*
X896063D03*
X900000Y915748D03*
X896063D03*
X900000Y919685D03*
X896063D03*
X900000Y923622D03*
X896063D03*
X903937Y907874D03*
X907874D03*
X911811D03*
Y911811D03*
X907874D03*
X903937D03*
X911811Y915748D03*
X907874D03*
X903937D03*
X911811Y919685D03*
X907874D03*
X903937D03*
X911811Y923622D03*
X907874D03*
X903937D03*
G54D18*
G01X793157Y787402D02*
X1011961D01*
G03X1017717Y793157I0J5756D01*
G01Y962598D01*
G03X1013386Y975000I-19922J0D01*
G02X1009055Y987402I15591J12402D01*
G02X1013386Y999803I19922J0D01*
G03X1017717Y1012205I-15591J12402D01*
G01Y1156843D01*
G03X1011961Y1162598I-5756J0D01*
G01X849606D01*
Y1157874D01*
X843307D01*
Y1149606D01*
X839764D01*
Y1157874D01*
X824803D01*
Y1149606D01*
X821260D01*
Y1157874D01*
X814961D01*
Y1162598D01*
X793157D01*
G03X787402Y1156843I0J-5756D01*
G01Y1012205D01*
G03X791732Y999803I19922J0D01*
G02X796063Y987402I-15591J-12402D01*
G02X791732Y975000I-19922J0D01*
G03X787402Y962598I15591J-12402D01*
G01Y793157D01*
G03X793157Y787402I5756J0D01*
G01X951602Y668650D02*
Y676150D01*
X953469D01*
X954213Y675776D01*
X954772Y675276D01*
X955240Y674524D01*
X955614Y673650D01*
X955705Y672398D01*
X955614Y671150D01*
X955240Y670276D01*
X954772Y669524D01*
X954213Y669024D01*
X953469Y668650D01*
X951602D01*
G01X958819D02*
X961154Y676150D01*
X963488Y668650D01*
G01X962646Y671276D02*
X959661D01*
G01X968654Y676150D02*
Y668650D01*
G01X966508Y676150D02*
X970799D01*
G01X978020Y668650D02*
X974287D01*
Y676150D01*
X978020D01*
G01X976528Y672524D02*
X974287D01*
G01X983654Y668402D02*
X983469Y668524D01*
Y668776D01*
X983654Y668898D01*
X983839Y668776D01*
Y668524D01*
X983654Y668402D01*
G01Y671776D02*
X983469Y671898D01*
Y672150D01*
X983654Y672276D01*
X983839Y672150D01*
Y671898D01*
X983654Y671776D01*
G01X996882Y674902D02*
X997441Y675650D01*
X998094Y676024D01*
X998839Y676150D01*
X999772Y675902D01*
X1000425Y675276D01*
X1000614Y674524D01*
X1000520Y673776D01*
X1000146Y673150D01*
X998280Y671898D01*
X997441Y671024D01*
X996882Y669776D01*
X996693Y668650D01*
X1000614D01*
G01X1006154Y676150D02*
X1005406Y675902D01*
X1004846Y675276D01*
X1004472Y674524D01*
X1004193Y673524D01*
X1004102Y672398D01*
X1004193Y671276D01*
X1004472Y670276D01*
X1004846Y669524D01*
X1005406Y668898D01*
X1006154Y668650D01*
X1006902Y668898D01*
X1007461Y669524D01*
X1007835Y670276D01*
X1008114Y671276D01*
X1008205Y672398D01*
X1008114Y673524D01*
X1007835Y674524D01*
X1007461Y675276D01*
X1006902Y675902D01*
X1006154Y676150D01*
G01X1011882Y674902D02*
X1012441Y675650D01*
X1013094Y676024D01*
X1013839Y676150D01*
X1014772Y675902D01*
X1015425Y675276D01*
X1015614Y674524D01*
X1015520Y673776D01*
X1015146Y673150D01*
X1013280Y671898D01*
X1012441Y671024D01*
X1011882Y669776D01*
X1011693Y668650D01*
X1015614D01*
G01X1021154D02*
Y676150D01*
X1020035Y674650D01*
G01Y668650D02*
X1022272D01*
G01X1027441Y671150D02*
X1029866D01*
G01X1036154Y676150D02*
X1035406Y675902D01*
X1034846Y675276D01*
X1034472Y674524D01*
X1034193Y673524D01*
X1034102Y672398D01*
X1034193Y671276D01*
X1034472Y670276D01*
X1034846Y669524D01*
X1035406Y668898D01*
X1036154Y668650D01*
X1036902Y668898D01*
X1037461Y669524D01*
X1037835Y670276D01*
X1038114Y671276D01*
X1038205Y672398D01*
X1038114Y673524D01*
X1037835Y674524D01*
X1037461Y675276D01*
X1036902Y675902D01*
X1036154Y676150D01*
G01X1041602Y669776D02*
X1042161Y669150D01*
X1042815Y668776D01*
X1043654Y668650D01*
X1044492Y668898D01*
X1045146Y669398D01*
X1045614Y670276D01*
X1045705Y671276D01*
X1045520Y672276D01*
X1045051Y672902D01*
X1044402Y673398D01*
X1043748Y673524D01*
X1043094Y673398D01*
X1042256Y672902D01*
X1042535Y676150D01*
X1045051D01*
G01X1049941Y671150D02*
X1052366D01*
G01X1056882Y674902D02*
X1057441Y675650D01*
X1058094Y676024D01*
X1058839Y676150D01*
X1059772Y675902D01*
X1060425Y675276D01*
X1060614Y674524D01*
X1060520Y673776D01*
X1060146Y673150D01*
X1058280Y671898D01*
X1057441Y671024D01*
X1056882Y669776D01*
X1056693Y668650D01*
X1060614D01*
G01X1065969D02*
X1066154Y670276D01*
X1066433Y671650D01*
X1066807Y672902D01*
X1067272Y674276D01*
X1068020Y676150D01*
X1064287D01*
G01X959496Y696280D02*
Y688780D01*
X963228D01*
G01X967091Y695031D02*
X967650Y695780D01*
X968303Y696154D01*
X969047Y696280D01*
X969980Y696031D01*
X970634Y695406D01*
X970823Y694654D01*
X970728Y693906D01*
X970354Y693280D01*
X968488Y692028D01*
X967650Y691154D01*
X967091Y689906D01*
X966902Y688780D01*
X970823D01*
G01X953457Y715323D02*
Y707823D01*
G01X951311Y715323D02*
X955602D01*
G01X962823Y707823D02*
X959091D01*
Y715323D01*
X962823D01*
G01X961331Y711697D02*
X959091D01*
G01X966496Y707823D02*
X970417Y715323D01*
G01X966496D02*
X970417Y707823D01*
G01X973622D02*
X975957Y715323D01*
X978291Y707823D01*
G01X977449Y710449D02*
X974465D01*
G01X981496Y708823D02*
X982244Y708197D01*
X983083Y707823D01*
X983831D01*
X984575Y708197D01*
X985138Y708823D01*
X985417Y709697D01*
X985228Y710571D01*
X984764Y711323D01*
X983921Y711823D01*
X982803Y712075D01*
X982150Y712571D01*
X981870Y713449D01*
X982059Y714323D01*
X982524Y714949D01*
X983177Y715323D01*
X983831D01*
X984484Y715075D01*
X985043Y714449D01*
G01X997339Y715323D02*
X999575D01*
G01X998457D02*
Y707823D01*
G01X997339D02*
X999575D01*
G01X1003811D02*
Y715323D01*
X1008102Y707823D01*
Y715323D01*
G01X1011496Y708823D02*
X1012244Y708197D01*
X1013083Y707823D01*
X1013831D01*
X1014575Y708197D01*
X1015138Y708823D01*
X1015417Y709697D01*
X1015228Y710571D01*
X1014764Y711323D01*
X1013921Y711823D01*
X1012803Y712075D01*
X1012150Y712571D01*
X1011870Y713449D01*
X1012059Y714323D01*
X1012524Y714949D01*
X1013177Y715323D01*
X1013831D01*
X1014484Y715075D01*
X1015043Y714449D01*
G01X1020957Y715323D02*
Y707823D01*
G01X1018811Y715323D02*
X1023102D01*
G01X1026591Y707823D02*
Y715323D01*
X1028921D01*
X1029669Y714949D01*
X1030138Y714449D01*
X1030323Y713449D01*
X1030138Y712449D01*
X1029575Y711823D01*
X1028921Y711449D01*
X1026591D01*
G01X1028921D02*
X1030323Y707823D01*
G01X1033906Y715323D02*
Y709949D01*
X1034276Y708823D01*
X1035024Y708071D01*
X1035957Y707823D01*
X1036890Y708071D01*
X1037638Y708823D01*
X1038008Y709949D01*
Y715323D01*
G01X1041031Y707823D02*
Y715323D01*
X1043457Y709071D01*
X1045882Y715323D01*
Y707823D01*
G01X1052823D02*
X1049091D01*
Y715323D01*
X1052823D01*
G01X1051331Y711697D02*
X1049091D01*
G01X1056311Y707823D02*
Y715323D01*
X1060602Y707823D01*
Y715323D01*
G01X1065957D02*
Y707823D01*
G01X1063811Y715323D02*
X1068102D01*
G01X1071496Y708823D02*
X1072244Y708197D01*
X1073083Y707823D01*
X1073831D01*
X1074575Y708197D01*
X1075138Y708823D01*
X1075417Y709697D01*
X1075228Y710571D01*
X1074764Y711323D01*
X1073921Y711823D01*
X1072803Y712075D01*
X1072150Y712571D01*
X1071870Y713449D01*
X1072059Y714323D01*
X1072524Y714949D01*
X1073177Y715323D01*
X1073831D01*
X1074484Y715075D01*
X1075043Y714449D01*
G54D19*
G01X799213Y1009835D02*
Y1014173D01*
G01D02*
Y1018512D01*
G01X794874Y1014173D02*
X799213D01*
G01D02*
X803551D01*
G01X797244Y1143890D02*
Y1152362D01*
G01D02*
X805717D01*
G01X812598Y848122D02*
Y852362D01*
G01D02*
Y856602D01*
G01X808358Y852362D02*
X812598D01*
G01D02*
X816839D01*
G01X812598Y838122D02*
Y842362D01*
G01D02*
Y846602D01*
G01X808358Y842362D02*
X812598D01*
G01D02*
X816839D01*
G01X818291Y952441D02*
X822531D01*
G01Y948201D02*
Y952441D01*
G01D02*
Y956681D01*
G01Y952441D02*
X826772D01*
G01X832531Y998201D02*
Y1002441D01*
G01D02*
Y1006681D01*
G01X828291Y1002441D02*
X832531D01*
G01D02*
X836772D01*
G01X832531Y1008201D02*
Y1012441D01*
G01D02*
Y1016681D01*
G01X828291Y1012441D02*
X832531D01*
G01D02*
X836772D01*
G01X988280Y842362D02*
X992520D01*
G01X988280Y852362D02*
X992520D01*
G01X988370Y962441D02*
X992610D01*
G01X992520Y838122D02*
Y842362D01*
G01D02*
Y846602D01*
G01Y842362D02*
X996760D01*
G01X992520Y848122D02*
Y852362D01*
G01D02*
Y856602D01*
G01Y852362D02*
X996760D01*
G01X992610Y958201D02*
Y962441D01*
G01D02*
Y966681D01*
G01Y962441D02*
X996850D01*
G01X998614Y1152362D02*
X1007087D01*
G01Y1143890D02*
Y1152362D01*
M02*
